G04 #@! TF.GenerationSoftware,KiCad,Pcbnew,9.0.0*
G04 #@! TF.CreationDate,2025-04-14T13:30:53-05:00*
G04 #@! TF.ProjectId,PlanB,506c616e-422e-46b6-9963-61645f706362,rev?*
G04 #@! TF.SameCoordinates,Original*
G04 #@! TF.FileFunction,Soldermask,Top*
G04 #@! TF.FilePolarity,Negative*
%FSLAX46Y46*%
G04 Gerber Fmt 4.6, Leading zero omitted, Abs format (unit mm)*
G04 Created by KiCad (PCBNEW 9.0.0) date 2025-04-14 13:30:53*
%MOMM*%
%LPD*%
G01*
G04 APERTURE LIST*
G04 Aperture macros list*
%AMRoundRect*
0 Rectangle with rounded corners*
0 $1 Rounding radius*
0 $2 $3 $4 $5 $6 $7 $8 $9 X,Y pos of 4 corners*
0 Add a 4 corners polygon primitive as box body*
4,1,4,$2,$3,$4,$5,$6,$7,$8,$9,$2,$3,0*
0 Add four circle primitives for the rounded corners*
1,1,$1+$1,$2,$3*
1,1,$1+$1,$4,$5*
1,1,$1+$1,$6,$7*
1,1,$1+$1,$8,$9*
0 Add four rect primitives between the rounded corners*
20,1,$1+$1,$2,$3,$4,$5,0*
20,1,$1+$1,$4,$5,$6,$7,0*
20,1,$1+$1,$6,$7,$8,$9,0*
20,1,$1+$1,$8,$9,$2,$3,0*%
%AMFreePoly0*
4,1,6,1.000000,0.000000,0.500000,-0.750000,-0.500000,-0.750000,-0.500000,0.750000,0.500000,0.750000,1.000000,0.000000,1.000000,0.000000,$1*%
G04 Aperture macros list end*
%ADD10C,0.912000*%
%ADD11RoundRect,0.102000X-0.787500X-0.787500X0.787500X-0.787500X0.787500X0.787500X-0.787500X0.787500X0*%
%ADD12C,1.779000*%
%ADD13RoundRect,0.250000X-0.450000X0.262500X-0.450000X-0.262500X0.450000X-0.262500X0.450000X0.262500X0*%
%ADD14RoundRect,0.250000X0.262500X0.450000X-0.262500X0.450000X-0.262500X-0.450000X0.262500X-0.450000X0*%
%ADD15RoundRect,0.102000X-1.000000X-1.000000X1.000000X-1.000000X1.000000X1.000000X-1.000000X1.000000X0*%
%ADD16RoundRect,0.250000X-0.262500X-0.450000X0.262500X-0.450000X0.262500X0.450000X-0.262500X0.450000X0*%
%ADD17RoundRect,0.250000X-0.350000X-0.450000X0.350000X-0.450000X0.350000X0.450000X-0.350000X0.450000X0*%
%ADD18R,2.200000X2.200000*%
%ADD19O,2.200000X2.200000*%
%ADD20RoundRect,0.237500X-0.300000X-0.237500X0.300000X-0.237500X0.300000X0.237500X-0.300000X0.237500X0*%
%ADD21C,2.000000*%
%ADD22R,1.700000X1.700000*%
%ADD23O,1.700000X1.700000*%
%ADD24RoundRect,0.250000X0.350000X0.450000X-0.350000X0.450000X-0.350000X-0.450000X0.350000X-0.450000X0*%
%ADD25RoundRect,0.250000X-0.475000X0.250000X-0.475000X-0.250000X0.475000X-0.250000X0.475000X0.250000X0*%
%ADD26RoundRect,0.200000X0.275000X-0.200000X0.275000X0.200000X-0.275000X0.200000X-0.275000X-0.200000X0*%
%ADD27RoundRect,0.250000X0.450000X-0.350000X0.450000X0.350000X-0.450000X0.350000X-0.450000X-0.350000X0*%
%ADD28RoundRect,0.250000X0.450000X-0.262500X0.450000X0.262500X-0.450000X0.262500X-0.450000X-0.262500X0*%
%ADD29R,1.300000X1.550000*%
%ADD30RoundRect,0.150000X-0.587500X-0.150000X0.587500X-0.150000X0.587500X0.150000X-0.587500X0.150000X0*%
%ADD31RoundRect,0.375000X-0.625000X-0.375000X0.625000X-0.375000X0.625000X0.375000X-0.625000X0.375000X0*%
%ADD32RoundRect,0.500000X-0.500000X-1.400000X0.500000X-1.400000X0.500000X1.400000X-0.500000X1.400000X0*%
%ADD33RoundRect,0.150000X0.587500X0.150000X-0.587500X0.150000X-0.587500X-0.150000X0.587500X-0.150000X0*%
%ADD34C,0.500000*%
%ADD35RoundRect,0.102000X0.300000X0.261000X-0.300000X0.261000X-0.300000X-0.261000X0.300000X-0.261000X0*%
%ADD36RoundRect,0.175000X-0.175000X-0.325000X0.175000X-0.325000X0.175000X0.325000X-0.175000X0.325000X0*%
%ADD37RoundRect,0.150000X-0.200000X-0.150000X0.200000X-0.150000X0.200000X0.150000X-0.200000X0.150000X0*%
%ADD38RoundRect,0.102000X-0.750000X-0.450000X0.750000X-0.450000X0.750000X0.450000X-0.750000X0.450000X0*%
%ADD39RoundRect,0.102000X-0.450000X-0.750000X0.450000X-0.750000X0.450000X0.750000X-0.450000X0.750000X0*%
%ADD40RoundRect,0.102000X-0.450000X-0.450000X0.450000X-0.450000X0.450000X0.450000X-0.450000X0.450000X0*%
%ADD41RoundRect,0.250000X-0.250000X-0.475000X0.250000X-0.475000X0.250000X0.475000X-0.250000X0.475000X0*%
%ADD42RoundRect,0.200000X-0.275000X0.200000X-0.275000X-0.200000X0.275000X-0.200000X0.275000X0.200000X0*%
%ADD43RoundRect,0.237500X0.237500X-0.300000X0.237500X0.300000X-0.237500X0.300000X-0.237500X-0.300000X0*%
%ADD44RoundRect,0.062500X-0.350000X-0.062500X0.350000X-0.062500X0.350000X0.062500X-0.350000X0.062500X0*%
%ADD45RoundRect,0.062500X-0.062500X-0.350000X0.062500X-0.350000X0.062500X0.350000X-0.062500X0.350000X0*%
%ADD46R,1.230000X1.230000*%
%ADD47RoundRect,0.237500X0.300000X0.237500X-0.300000X0.237500X-0.300000X-0.237500X0.300000X-0.237500X0*%
%ADD48FreePoly0,180.000000*%
%ADD49FreePoly0,0.000000*%
%ADD50RoundRect,0.200000X0.200000X0.275000X-0.200000X0.275000X-0.200000X-0.275000X0.200000X-0.275000X0*%
%ADD51R,1.550000X1.300000*%
%ADD52C,0.650000*%
%ADD53C,0.950000*%
%ADD54R,0.300000X0.700000*%
%ADD55C,1.400000*%
G04 APERTURE END LIST*
D10*
X111733400Y-127431800D02*
G75*
G02*
X110821400Y-127431800I-456000J0D01*
G01*
X110821400Y-127431800D02*
G75*
G02*
X111733400Y-127431800I456000J0D01*
G01*
G36*
X110688600Y-87013900D02*
G01*
X105688600Y-87013900D01*
X105688600Y-85513900D01*
X110688600Y-85513900D01*
X110688600Y-87013900D01*
G37*
D11*
X128298500Y-147616400D03*
D12*
X125798500Y-147616400D03*
D13*
X119938800Y-79453100D03*
X119938800Y-81278100D03*
D14*
X115009300Y-80975200D03*
X113184300Y-80975200D03*
D15*
X126131000Y-129426000D03*
X128631000Y-129426000D03*
D16*
X144908900Y-102844600D03*
X146733900Y-102844600D03*
D17*
X81880200Y-120103300D03*
X83880200Y-120103300D03*
D18*
X153390600Y-142951200D03*
D19*
X163550600Y-142951200D03*
D20*
X168224200Y-138856550D03*
X169949200Y-138856550D03*
D18*
X88716000Y-135473100D03*
D19*
X78556000Y-135473100D03*
D21*
X142087600Y-116967000D03*
D22*
X123799600Y-108737400D03*
D23*
X126339600Y-108737400D03*
D24*
X114131600Y-137388600D03*
X112131600Y-137388600D03*
D25*
X166166800Y-94325400D03*
X166166800Y-96225400D03*
D22*
X147574000Y-95580200D03*
D23*
X145034000Y-95580200D03*
X142494000Y-95580200D03*
X139954000Y-95580200D03*
X137414000Y-95580200D03*
X134874000Y-95580200D03*
X132334000Y-95580200D03*
X129794000Y-95580200D03*
X127254000Y-95580200D03*
X124714000Y-95580200D03*
X122174000Y-95580200D03*
X119634000Y-95580200D03*
X117094000Y-95580200D03*
X114554000Y-95580200D03*
X112014000Y-95580200D03*
X109474000Y-95580200D03*
X106934000Y-95580200D03*
D20*
X140665200Y-139344400D03*
X142390200Y-139344400D03*
D26*
X90220800Y-81660000D03*
X90220800Y-80010000D03*
D20*
X82271700Y-125538900D03*
X83996700Y-125538900D03*
D27*
X138023600Y-132978400D03*
X138023600Y-130978400D03*
D28*
X114985800Y-106426000D03*
X114985800Y-104601000D03*
D14*
X93393900Y-103454200D03*
X91568900Y-103454200D03*
D29*
X78877600Y-98437600D03*
X78877600Y-90487600D03*
X83377600Y-98437600D03*
X83377600Y-90487600D03*
D30*
X109704900Y-106452500D03*
X109704900Y-108352500D03*
X111579900Y-107402500D03*
D27*
X150571200Y-112667800D03*
X150571200Y-110667800D03*
D31*
X156768400Y-128332200D03*
X156768400Y-130632200D03*
D32*
X163068400Y-130632200D03*
D31*
X156768400Y-132932200D03*
D24*
X114030000Y-133604000D03*
X112030000Y-133604000D03*
D33*
X102405900Y-108073100D03*
X102405900Y-106173100D03*
X100530900Y-107123100D03*
D34*
X111277400Y-127431800D03*
D35*
X112177400Y-129505800D03*
X112177400Y-128683800D03*
X110377400Y-128683800D03*
X110377400Y-129505800D03*
X111277400Y-129505800D03*
D21*
X102006400Y-117664900D03*
D36*
X78883000Y-71727500D03*
D37*
X78883000Y-73427500D03*
X80883000Y-73427500D03*
X80883000Y-71527500D03*
D14*
X109063400Y-112584100D03*
X107238400Y-112584100D03*
D38*
X116953000Y-56539000D03*
X116953000Y-57809000D03*
X116953000Y-59079000D03*
X116953000Y-60349000D03*
X116953000Y-61619000D03*
X116953000Y-62889000D03*
X116953000Y-64159000D03*
X116953000Y-65429000D03*
X116953000Y-66699000D03*
X116953000Y-67969000D03*
X116953000Y-69239000D03*
X116953000Y-70509000D03*
X116953000Y-71779000D03*
X116953000Y-73049000D03*
D39*
X118718000Y-74299000D03*
X119988000Y-74299000D03*
X121258000Y-74299000D03*
X122528000Y-74299000D03*
X123798000Y-74299000D03*
X125068000Y-74299000D03*
X126338000Y-74299000D03*
X127608000Y-74299000D03*
X128878000Y-74299000D03*
X130148000Y-74299000D03*
X131418000Y-74299000D03*
X132688000Y-74299000D03*
D38*
X134453000Y-73049000D03*
X134453000Y-71779000D03*
X134453000Y-70509000D03*
X134453000Y-69239000D03*
X134453000Y-67969000D03*
X134453000Y-66699000D03*
X134453000Y-65429000D03*
X134453000Y-64159000D03*
X134453000Y-62889000D03*
X134453000Y-61619000D03*
X134453000Y-60349000D03*
X134453000Y-59079000D03*
X134453000Y-57809000D03*
X134453000Y-56539000D03*
D40*
X124203000Y-64259000D03*
X122803000Y-64259000D03*
X125603000Y-64259000D03*
X122803000Y-65659000D03*
X124203000Y-65659000D03*
X125603000Y-65659000D03*
X122803000Y-62859000D03*
X124203000Y-62859000D03*
X125603000Y-62859000D03*
D41*
X96371200Y-89159400D03*
X98271200Y-89159400D03*
D22*
X126029800Y-136220200D03*
D23*
X128569800Y-136220200D03*
D31*
X94309800Y-127175900D03*
X94309800Y-129475900D03*
D32*
X100609800Y-129475900D03*
D31*
X94309800Y-131775900D03*
D18*
X146405600Y-132156200D03*
D19*
X146405600Y-121996200D03*
D22*
X165735000Y-57810400D03*
D23*
X165735000Y-60350400D03*
X165735000Y-62890400D03*
X165735000Y-65430400D03*
X165735000Y-67970400D03*
X165735000Y-70510400D03*
X165735000Y-73050400D03*
X165735000Y-75590400D03*
X165735000Y-78130400D03*
X165735000Y-80670400D03*
X165735000Y-83210400D03*
X165735000Y-85750400D03*
D42*
X90525600Y-72174600D03*
X90525600Y-73824600D03*
D43*
X163093400Y-149225000D03*
X163093400Y-147500000D03*
D44*
X156794200Y-108982000D03*
X156794200Y-109482000D03*
X156794200Y-109982000D03*
X156794200Y-110482000D03*
D45*
X157481700Y-111169500D03*
X157981700Y-111169500D03*
X158481700Y-111169500D03*
X158981700Y-111169500D03*
D44*
X159669200Y-110482000D03*
X159669200Y-109982000D03*
X159669200Y-109482000D03*
X159669200Y-108982000D03*
D45*
X158981700Y-108294500D03*
X158481700Y-108294500D03*
X157981700Y-108294500D03*
X157481700Y-108294500D03*
D46*
X158231700Y-109732000D03*
D47*
X95833100Y-116801300D03*
X94108100Y-116801300D03*
D42*
X85902800Y-78892400D03*
X85902800Y-80542400D03*
D17*
X88509600Y-141236100D03*
X90509600Y-141236100D03*
D48*
X110188600Y-86263900D03*
D49*
X106188600Y-86263900D03*
D14*
X93317700Y-97688400D03*
X91492700Y-97688400D03*
D50*
X91934800Y-76504800D03*
X90284800Y-76504800D03*
D51*
X160845400Y-99557400D03*
X152895400Y-99557400D03*
X160845400Y-95057400D03*
X152895400Y-95057400D03*
D26*
X78943200Y-62597800D03*
X78943200Y-60947800D03*
D52*
X93947800Y-65574000D03*
D53*
X86747800Y-65574000D03*
D54*
X93097800Y-66234000D03*
X92597800Y-66234000D03*
X92097800Y-66234000D03*
X91597800Y-66234000D03*
X91097800Y-66234000D03*
X90597800Y-66234000D03*
X90097800Y-66234000D03*
X89597800Y-66234000D03*
X89097800Y-66234000D03*
X88597800Y-66234000D03*
X88097800Y-66234000D03*
X87597800Y-66234000D03*
X87847800Y-64534000D03*
X88347800Y-64534000D03*
X88847800Y-64534000D03*
X89347800Y-64534000D03*
X89847800Y-64534000D03*
X90347800Y-64534000D03*
X90847800Y-64534000D03*
X91347800Y-64534000D03*
X91847800Y-64534000D03*
X92347800Y-64534000D03*
X92847800Y-64534000D03*
X93347800Y-64534000D03*
D55*
X94837800Y-58374000D03*
X94477800Y-64324000D03*
X86217800Y-64324000D03*
X85857800Y-58374000D03*
D17*
X168137500Y-132989150D03*
X170137500Y-132989150D03*
D18*
X93853000Y-142506100D03*
D19*
X104013000Y-142506100D03*
D16*
X105284500Y-102754300D03*
X107109500Y-102754300D03*
D43*
X152527000Y-149225000D03*
X152527000Y-147500000D03*
M02*
