G04 #@! TF.GenerationSoftware,KiCad,Pcbnew,9.0.0*
G04 #@! TF.CreationDate,2025-04-14T13:30:53-05:00*
G04 #@! TF.ProjectId,PlanB,506c616e-422e-46b6-9963-61645f706362,rev?*
G04 #@! TF.SameCoordinates,Original*
G04 #@! TF.FileFunction,Copper,L2,Bot*
G04 #@! TF.FilePolarity,Positive*
%FSLAX46Y46*%
G04 Gerber Fmt 4.6, Leading zero omitted, Abs format (unit mm)*
G04 Created by KiCad (PCBNEW 9.0.0) date 2025-04-14 13:30:53*
%MOMM*%
%LPD*%
G01*
G04 APERTURE LIST*
G04 #@! TA.AperFunction,ComponentPad*
%ADD10R,1.575000X1.575000*%
G04 #@! TD*
G04 #@! TA.AperFunction,ComponentPad*
%ADD11C,1.575000*%
G04 #@! TD*
G04 #@! TA.AperFunction,ComponentPad*
%ADD12R,2.200000X2.200000*%
G04 #@! TD*
G04 #@! TA.AperFunction,ComponentPad*
%ADD13O,2.200000X2.200000*%
G04 #@! TD*
G04 #@! TA.AperFunction,ComponentPad*
%ADD14C,2.000000*%
G04 #@! TD*
G04 #@! TA.AperFunction,ComponentPad*
%ADD15R,1.700000X1.700000*%
G04 #@! TD*
G04 #@! TA.AperFunction,ComponentPad*
%ADD16O,1.700000X1.700000*%
G04 #@! TD*
G04 #@! TA.AperFunction,ComponentPad*
%ADD17C,0.400000*%
G04 #@! TD*
G04 #@! TA.AperFunction,HeatsinkPad*
%ADD18C,1.400000*%
G04 #@! TD*
G04 #@! TA.AperFunction,ViaPad*
%ADD19C,0.600000*%
G04 #@! TD*
G04 #@! TA.AperFunction,ViaPad*
%ADD20C,0.800000*%
G04 #@! TD*
G04 #@! TA.AperFunction,Conductor*
%ADD21C,0.200000*%
G04 #@! TD*
G04 #@! TA.AperFunction,Conductor*
%ADD22C,0.500000*%
G04 #@! TD*
G04 APERTURE END LIST*
D10*
X128298500Y-147616400D03*
D11*
X125798500Y-147616400D03*
D12*
X153390600Y-142951200D03*
D13*
X163550600Y-142951200D03*
D12*
X88716000Y-135473100D03*
D13*
X78556000Y-135473100D03*
D14*
X142087600Y-116967000D03*
D15*
X123799600Y-108737400D03*
D16*
X126339600Y-108737400D03*
D15*
X147574000Y-95580200D03*
D16*
X145034000Y-95580200D03*
X142494000Y-95580200D03*
X139954000Y-95580200D03*
X137414000Y-95580200D03*
X134874000Y-95580200D03*
X132334000Y-95580200D03*
X129794000Y-95580200D03*
X127254000Y-95580200D03*
X124714000Y-95580200D03*
X122174000Y-95580200D03*
X119634000Y-95580200D03*
X117094000Y-95580200D03*
X114554000Y-95580200D03*
X112014000Y-95580200D03*
X109474000Y-95580200D03*
X106934000Y-95580200D03*
D14*
X102006400Y-117664900D03*
D17*
X124203000Y-63559000D03*
X122803000Y-63559000D03*
X125603000Y-63559000D03*
X122803000Y-64959000D03*
X124203000Y-64959000D03*
X125603000Y-64959000D03*
X123503000Y-62859000D03*
X124903000Y-62859000D03*
X123503000Y-64259000D03*
X124903000Y-64259000D03*
X123503000Y-65659000D03*
X124903000Y-65659000D03*
D15*
X126029800Y-136220200D03*
D16*
X128569800Y-136220200D03*
D12*
X146405600Y-132156200D03*
D13*
X146405600Y-121996200D03*
D15*
X165735000Y-57810400D03*
D16*
X165735000Y-60350400D03*
X165735000Y-62890400D03*
X165735000Y-65430400D03*
X165735000Y-67970400D03*
X165735000Y-70510400D03*
X165735000Y-73050400D03*
X165735000Y-75590400D03*
X165735000Y-78130400D03*
X165735000Y-80670400D03*
X165735000Y-83210400D03*
X165735000Y-85750400D03*
D18*
X94837800Y-58374000D03*
X94477800Y-64324000D03*
X86217800Y-64324000D03*
X85857800Y-58374000D03*
D12*
X93853000Y-142506100D03*
D13*
X104013000Y-142506100D03*
D19*
X86283800Y-82651600D03*
X91490800Y-83235800D03*
X96596200Y-85572600D03*
X89408000Y-94742000D03*
X94970600Y-94792800D03*
X114122200Y-59893200D03*
X78359000Y-64338200D03*
X97739200Y-70916800D03*
X147370800Y-111861600D03*
X88874600Y-130022600D03*
X83388200Y-65659000D03*
D20*
X92481400Y-93141800D03*
D19*
X95910400Y-103936800D03*
D20*
X96062800Y-78181200D03*
D19*
X95910400Y-108483400D03*
X83286600Y-71958200D03*
X81407000Y-75869800D03*
X92557600Y-70916800D03*
X92532200Y-69723000D03*
X85775800Y-69164200D03*
X108102400Y-120396000D03*
X105333800Y-73710800D03*
X103555800Y-72212200D03*
X104267000Y-113512600D03*
X110388400Y-75209400D03*
X106019600Y-117576600D03*
X104394000Y-72923400D03*
X107315000Y-74803000D03*
X106476800Y-74472800D03*
X109474000Y-75184000D03*
X108508800Y-75057000D03*
X167208200Y-113284000D03*
X165709600Y-113182400D03*
X152069800Y-104063800D03*
X148818600Y-102158800D03*
X137033000Y-102819200D03*
D21*
X137033000Y-102819200D02*
X126873000Y-102819200D01*
X126873000Y-102819200D02*
X119634000Y-95580200D01*
X152069800Y-104063800D02*
X149225000Y-104063800D01*
X149225000Y-104063800D02*
X144221200Y-99060000D01*
X144221200Y-99060000D02*
X125653800Y-99060000D01*
X125653800Y-99060000D02*
X122174000Y-95580200D01*
X148818600Y-102158800D02*
X144729200Y-98069400D01*
X127203200Y-98069400D02*
X124714000Y-95580200D01*
X144729200Y-98069400D02*
X127203200Y-98069400D01*
X91490800Y-83235800D02*
X86868000Y-83235800D01*
X86868000Y-83235800D02*
X86283800Y-82651600D01*
X89458800Y-94792800D02*
X89408000Y-94742000D01*
X96596200Y-85572600D02*
X97104200Y-85064600D01*
X97104200Y-76911200D02*
X114122200Y-59893200D01*
X97104200Y-85064600D02*
X97104200Y-76911200D01*
X94970600Y-94792800D02*
X89458800Y-94792800D01*
X97739200Y-70916800D02*
X97739200Y-67585400D01*
X147370800Y-111861600D02*
X140284200Y-111861600D01*
X78359000Y-64947800D02*
X79070200Y-65659000D01*
X88874600Y-130022600D02*
X106468400Y-147616400D01*
X123367800Y-145185700D02*
X125798500Y-147616400D01*
X140284200Y-111861600D02*
X123367800Y-128778000D01*
X106468400Y-147616400D02*
X125798500Y-147616400D01*
X79070200Y-65659000D02*
X83388200Y-65659000D01*
X78359000Y-64338200D02*
X78359000Y-64947800D01*
X97739200Y-67585400D02*
X94477800Y-64324000D01*
X123367800Y-128778000D02*
X123367800Y-145185700D01*
D22*
X95910400Y-103936800D02*
X95910400Y-108483400D01*
X123799600Y-116814600D02*
X117271800Y-123342400D01*
X117271800Y-123342400D02*
X107683900Y-123342400D01*
X92481400Y-93141800D02*
X92481400Y-81762600D01*
X92481400Y-81762600D02*
X96062800Y-78181200D01*
X107683900Y-123342400D02*
X102006400Y-117664900D01*
X123799600Y-108737400D02*
X123799600Y-116814600D01*
D21*
X84328000Y-70916800D02*
X83286600Y-71958200D01*
X92557600Y-70916800D02*
X84328000Y-70916800D01*
X83286600Y-73990200D02*
X81407000Y-75869800D01*
X83286600Y-71958200D02*
X83286600Y-73990200D01*
X86334600Y-69723000D02*
X85775800Y-69164200D01*
X92532200Y-69723000D02*
X86334600Y-69723000D01*
X105435400Y-88976200D02*
X105435400Y-73710800D01*
X108102400Y-120396000D02*
X108102400Y-99491800D01*
X112090200Y-95631000D02*
X105435400Y-88976200D01*
X108102400Y-99491800D02*
X112014000Y-95580200D01*
X104267000Y-113512600D02*
X104267000Y-98247200D01*
X104267000Y-98247200D02*
X106934000Y-95580200D01*
X107010200Y-95631000D02*
X103428800Y-92049600D01*
X103428800Y-92049600D02*
X103428800Y-72110600D01*
X110388400Y-80924400D02*
X125095000Y-95631000D01*
X110388400Y-75209400D02*
X110388400Y-80924400D01*
X134874000Y-96164400D02*
X134874000Y-95580200D01*
X106019600Y-117576600D02*
X106019600Y-99034600D01*
X106019600Y-99034600D02*
X109474000Y-95580200D01*
X104343200Y-90424000D02*
X104343200Y-72872600D01*
X109550200Y-95631000D02*
X104343200Y-90424000D01*
X107315000Y-74803000D02*
X107340400Y-74828400D01*
X107340400Y-85750400D02*
X117043200Y-95453200D01*
X107340400Y-74828400D02*
X107340400Y-85750400D01*
X106476800Y-87325200D02*
X114909600Y-95758000D01*
X106476800Y-74472800D02*
X106476800Y-87325200D01*
X109474000Y-82372200D02*
X122250200Y-95148400D01*
X109474000Y-75184000D02*
X109474000Y-82372200D01*
X108458000Y-84277200D02*
X108458000Y-75107800D01*
X119710200Y-95631000D02*
X119710200Y-95529400D01*
X119710200Y-95529400D02*
X108458000Y-84277200D01*
X152933400Y-137744200D02*
X127553800Y-137744200D01*
X127553800Y-137744200D02*
X126029800Y-136220200D01*
X167208200Y-113284000D02*
X167208200Y-123469400D01*
X167208200Y-123469400D02*
X152933400Y-137744200D01*
X128569800Y-136220200D02*
X152171400Y-136220200D01*
X163931600Y-124460000D02*
X165709600Y-122682000D01*
X165709600Y-122682000D02*
X165709600Y-113182400D01*
X152171400Y-136220200D02*
X163931600Y-124460000D01*
G04 #@! TA.AperFunction,NonConductor*
G36*
X173217132Y-55388878D02*
G01*
X173284151Y-55408632D01*
X173329851Y-55461483D01*
X173341004Y-55513156D01*
X173125998Y-151486960D01*
X173106163Y-151553955D01*
X173053257Y-151599591D01*
X173002421Y-151610681D01*
X77740246Y-151935881D01*
X77673140Y-151916426D01*
X77627205Y-151863778D01*
X77615823Y-151812173D01*
X77615349Y-151610261D01*
X77591258Y-141358235D01*
X92252500Y-141358235D01*
X92252500Y-143653970D01*
X92252501Y-143653976D01*
X92258908Y-143713583D01*
X92309202Y-143848428D01*
X92309206Y-143848435D01*
X92395452Y-143963644D01*
X92395455Y-143963647D01*
X92510664Y-144049893D01*
X92510671Y-144049897D01*
X92645517Y-144100191D01*
X92645516Y-144100191D01*
X92652444Y-144100935D01*
X92705127Y-144106600D01*
X95000872Y-144106599D01*
X95060483Y-144100191D01*
X95195331Y-144049896D01*
X95310546Y-143963646D01*
X95396796Y-143848431D01*
X95447091Y-143713583D01*
X95453500Y-143653973D01*
X95453499Y-141358228D01*
X95447091Y-141298617D01*
X95442124Y-141285301D01*
X95396797Y-141163771D01*
X95396793Y-141163764D01*
X95310547Y-141048555D01*
X95310544Y-141048552D01*
X95195335Y-140962306D01*
X95195328Y-140962302D01*
X95060482Y-140912008D01*
X95060483Y-140912008D01*
X95000883Y-140905601D01*
X95000881Y-140905600D01*
X95000873Y-140905600D01*
X95000864Y-140905600D01*
X92705129Y-140905600D01*
X92705123Y-140905601D01*
X92645516Y-140912008D01*
X92510671Y-140962302D01*
X92510664Y-140962306D01*
X92395455Y-141048552D01*
X92395452Y-141048555D01*
X92309206Y-141163764D01*
X92309202Y-141163771D01*
X92258908Y-141298617D01*
X92253309Y-141350700D01*
X92252501Y-141358223D01*
X92252500Y-141358235D01*
X77591258Y-141358235D01*
X77580958Y-136975208D01*
X77600484Y-136908129D01*
X77653181Y-136862250D01*
X77722316Y-136852144D01*
X77761249Y-136864437D01*
X77847000Y-136908129D01*
X77941616Y-136956339D01*
X77941618Y-136956339D01*
X77941621Y-136956341D01*
X78181215Y-137034190D01*
X78430038Y-137073600D01*
X78430039Y-137073600D01*
X78681961Y-137073600D01*
X78681962Y-137073600D01*
X78930785Y-137034190D01*
X79170379Y-136956341D01*
X79394845Y-136841970D01*
X79598656Y-136693893D01*
X79776793Y-136515756D01*
X79924870Y-136311945D01*
X80039241Y-136087479D01*
X80117090Y-135847885D01*
X80156500Y-135599062D01*
X80156500Y-135347138D01*
X80117090Y-135098315D01*
X80039241Y-134858721D01*
X80039239Y-134858718D01*
X80039239Y-134858716D01*
X79997747Y-134777284D01*
X79924870Y-134634255D01*
X79905952Y-134608217D01*
X79776798Y-134430450D01*
X79776794Y-134430445D01*
X79671584Y-134325235D01*
X87115500Y-134325235D01*
X87115500Y-136620970D01*
X87115501Y-136620976D01*
X87121908Y-136680583D01*
X87172202Y-136815428D01*
X87172206Y-136815435D01*
X87258452Y-136930644D01*
X87258455Y-136930647D01*
X87373664Y-137016893D01*
X87373671Y-137016897D01*
X87508517Y-137067191D01*
X87508516Y-137067191D01*
X87515444Y-137067935D01*
X87568127Y-137073600D01*
X89863872Y-137073599D01*
X89923483Y-137067191D01*
X90058331Y-137016896D01*
X90173546Y-136930646D01*
X90259796Y-136815431D01*
X90310091Y-136680583D01*
X90316500Y-136620973D01*
X90316499Y-134325228D01*
X90310091Y-134265617D01*
X90305124Y-134252301D01*
X90259797Y-134130771D01*
X90259793Y-134130764D01*
X90173547Y-134015555D01*
X90173544Y-134015552D01*
X90058335Y-133929306D01*
X90058328Y-133929302D01*
X89923482Y-133879008D01*
X89923483Y-133879008D01*
X89863883Y-133872601D01*
X89863881Y-133872600D01*
X89863873Y-133872600D01*
X89863864Y-133872600D01*
X87568129Y-133872600D01*
X87568123Y-133872601D01*
X87508516Y-133879008D01*
X87373671Y-133929302D01*
X87373664Y-133929306D01*
X87258455Y-134015552D01*
X87258452Y-134015555D01*
X87172206Y-134130764D01*
X87172202Y-134130771D01*
X87121908Y-134265617D01*
X87115501Y-134325216D01*
X87115501Y-134325223D01*
X87115500Y-134325235D01*
X79671584Y-134325235D01*
X79598654Y-134252305D01*
X79598649Y-134252301D01*
X79394848Y-134104232D01*
X79394847Y-134104231D01*
X79394845Y-134104230D01*
X79324747Y-134068513D01*
X79170383Y-133989860D01*
X78930785Y-133912010D01*
X78681962Y-133872600D01*
X78430038Y-133872600D01*
X78305626Y-133892305D01*
X78181214Y-133912010D01*
X77941616Y-133989860D01*
X77754203Y-134085353D01*
X77685534Y-134098249D01*
X77620793Y-134071973D01*
X77580536Y-134014866D01*
X77573908Y-133975163D01*
X77564435Y-129943753D01*
X88074100Y-129943753D01*
X88074100Y-130101446D01*
X88104861Y-130256089D01*
X88104864Y-130256101D01*
X88165202Y-130401772D01*
X88165209Y-130401785D01*
X88252810Y-130532888D01*
X88252813Y-130532892D01*
X88364307Y-130644386D01*
X88364311Y-130644389D01*
X88495414Y-130731990D01*
X88495427Y-130731997D01*
X88641098Y-130792335D01*
X88641103Y-130792337D01*
X88705747Y-130805195D01*
X88796449Y-130823238D01*
X88858360Y-130855623D01*
X88859938Y-130857173D01*
X106099684Y-148096920D01*
X106099686Y-148096921D01*
X106099690Y-148096924D01*
X106236609Y-148175973D01*
X106236616Y-148175977D01*
X106389343Y-148216901D01*
X106389345Y-148216901D01*
X106555054Y-148216901D01*
X106555070Y-148216900D01*
X124582926Y-148216900D01*
X124649965Y-148236585D01*
X124693411Y-148284606D01*
X124696903Y-148291460D01*
X124816062Y-148455469D01*
X124816066Y-148455474D01*
X124959425Y-148598833D01*
X124959430Y-148598837D01*
X125102486Y-148702772D01*
X125123441Y-148717997D01*
X125208711Y-148761444D01*
X125304079Y-148810037D01*
X125304082Y-148810038D01*
X125400486Y-148841361D01*
X125496893Y-148872685D01*
X125697132Y-148904400D01*
X125697133Y-148904400D01*
X125899867Y-148904400D01*
X125899868Y-148904400D01*
X126100107Y-148872685D01*
X126292920Y-148810037D01*
X126473559Y-148717997D01*
X126637576Y-148598832D01*
X126780932Y-148455476D01*
X126792054Y-148440167D01*
X126847379Y-148397502D01*
X126916992Y-148391520D01*
X126978789Y-148424123D01*
X127013149Y-148484960D01*
X127015662Y-148499794D01*
X127016907Y-148511380D01*
X127067202Y-148646228D01*
X127067206Y-148646235D01*
X127153452Y-148761444D01*
X127153455Y-148761447D01*
X127268664Y-148847693D01*
X127268671Y-148847697D01*
X127403517Y-148897991D01*
X127403516Y-148897991D01*
X127410444Y-148898735D01*
X127463127Y-148904400D01*
X129133872Y-148904399D01*
X129193483Y-148897991D01*
X129328331Y-148847696D01*
X129443546Y-148761446D01*
X129529796Y-148646231D01*
X129580091Y-148511383D01*
X129586500Y-148451773D01*
X129586499Y-146781028D01*
X129580091Y-146721417D01*
X129547472Y-146633962D01*
X129529797Y-146586571D01*
X129529793Y-146586564D01*
X129443547Y-146471355D01*
X129443544Y-146471352D01*
X129328335Y-146385106D01*
X129328328Y-146385102D01*
X129193482Y-146334808D01*
X129193483Y-146334808D01*
X129133883Y-146328401D01*
X129133881Y-146328400D01*
X129133873Y-146328400D01*
X129133864Y-146328400D01*
X127463129Y-146328400D01*
X127463123Y-146328401D01*
X127403516Y-146334808D01*
X127268671Y-146385102D01*
X127268664Y-146385106D01*
X127153455Y-146471352D01*
X127153452Y-146471355D01*
X127067206Y-146586564D01*
X127067202Y-146586571D01*
X127016908Y-146721416D01*
X127015663Y-146733004D01*
X126988925Y-146797555D01*
X126931532Y-146837403D01*
X126861707Y-146839896D01*
X126801618Y-146804243D01*
X126792057Y-146792634D01*
X126780939Y-146777332D01*
X126780933Y-146777325D01*
X126637574Y-146633966D01*
X126637569Y-146633962D01*
X126473562Y-146514805D01*
X126473561Y-146514804D01*
X126473559Y-146514803D01*
X126415686Y-146485315D01*
X126292920Y-146422762D01*
X126292917Y-146422761D01*
X126100108Y-146360115D01*
X125999987Y-146344257D01*
X125899868Y-146328400D01*
X125697132Y-146328400D01*
X125672875Y-146332242D01*
X125496889Y-146360115D01*
X125489575Y-146362492D01*
X125419734Y-146364487D01*
X125363577Y-146332242D01*
X124004619Y-144973284D01*
X123971134Y-144911961D01*
X123968300Y-144885603D01*
X123968300Y-141803335D01*
X151790100Y-141803335D01*
X151790100Y-144099070D01*
X151790101Y-144099076D01*
X151796508Y-144158683D01*
X151846802Y-144293528D01*
X151846806Y-144293535D01*
X151933052Y-144408744D01*
X151933055Y-144408747D01*
X152048264Y-144494993D01*
X152048271Y-144494997D01*
X152183117Y-144545291D01*
X152183116Y-144545291D01*
X152190044Y-144546035D01*
X152242727Y-144551700D01*
X154538472Y-144551699D01*
X154598083Y-144545291D01*
X154732931Y-144494996D01*
X154848146Y-144408746D01*
X154934396Y-144293531D01*
X154984691Y-144158683D01*
X154991100Y-144099073D01*
X154991099Y-142825238D01*
X161950100Y-142825238D01*
X161950100Y-143077162D01*
X161989510Y-143325985D01*
X162067360Y-143565583D01*
X162112399Y-143653976D01*
X162149552Y-143726893D01*
X162181732Y-143790048D01*
X162329801Y-143993849D01*
X162329805Y-143993854D01*
X162507945Y-144171994D01*
X162507950Y-144171998D01*
X162675223Y-144293528D01*
X162711755Y-144320070D01*
X162854784Y-144392947D01*
X162936216Y-144434439D01*
X162936218Y-144434439D01*
X162936221Y-144434441D01*
X163175815Y-144512290D01*
X163424638Y-144551700D01*
X163424639Y-144551700D01*
X163676561Y-144551700D01*
X163676562Y-144551700D01*
X163925385Y-144512290D01*
X164164979Y-144434441D01*
X164389445Y-144320070D01*
X164593256Y-144171993D01*
X164771393Y-143993856D01*
X164919470Y-143790045D01*
X165033841Y-143565579D01*
X165111690Y-143325985D01*
X165151100Y-143077162D01*
X165151100Y-142825238D01*
X165111690Y-142576415D01*
X165033841Y-142336821D01*
X165033839Y-142336818D01*
X165033839Y-142336816D01*
X164992347Y-142255384D01*
X164919470Y-142112355D01*
X164900552Y-142086317D01*
X164771398Y-141908550D01*
X164771394Y-141908545D01*
X164593254Y-141730405D01*
X164593249Y-141730401D01*
X164389448Y-141582332D01*
X164389447Y-141582331D01*
X164389445Y-141582330D01*
X164319347Y-141546613D01*
X164164983Y-141467960D01*
X163925385Y-141390110D01*
X163676562Y-141350700D01*
X163424638Y-141350700D01*
X163300226Y-141370405D01*
X163175814Y-141390110D01*
X162936216Y-141467960D01*
X162711751Y-141582332D01*
X162507950Y-141730401D01*
X162507945Y-141730405D01*
X162329805Y-141908545D01*
X162329801Y-141908550D01*
X162181732Y-142112351D01*
X162067360Y-142336816D01*
X161989510Y-142576414D01*
X161989510Y-142576415D01*
X161950100Y-142825238D01*
X154991099Y-142825238D01*
X154991099Y-141803328D01*
X154984691Y-141743717D01*
X154979724Y-141730401D01*
X154934397Y-141608871D01*
X154934393Y-141608864D01*
X154848147Y-141493655D01*
X154848144Y-141493652D01*
X154732935Y-141407406D01*
X154732928Y-141407402D01*
X154598082Y-141357108D01*
X154598083Y-141357108D01*
X154538483Y-141350701D01*
X154538481Y-141350700D01*
X154538473Y-141350700D01*
X154538464Y-141350700D01*
X152242729Y-141350700D01*
X152242723Y-141350701D01*
X152183116Y-141357108D01*
X152048271Y-141407402D01*
X152048264Y-141407406D01*
X151933055Y-141493652D01*
X151933052Y-141493655D01*
X151846806Y-141608864D01*
X151846802Y-141608871D01*
X151796508Y-141743717D01*
X151790101Y-141803316D01*
X151790101Y-141803323D01*
X151790100Y-141803335D01*
X123968300Y-141803335D01*
X123968300Y-135322335D01*
X124679300Y-135322335D01*
X124679300Y-137118070D01*
X124679301Y-137118076D01*
X124685708Y-137177683D01*
X124736002Y-137312528D01*
X124736006Y-137312535D01*
X124822252Y-137427744D01*
X124822255Y-137427747D01*
X124937464Y-137513993D01*
X124937471Y-137513997D01*
X125072317Y-137564291D01*
X125072316Y-137564291D01*
X125079244Y-137565035D01*
X125131927Y-137570700D01*
X126479702Y-137570699D01*
X126546741Y-137590384D01*
X126567383Y-137607018D01*
X127068939Y-138108574D01*
X127068949Y-138108585D01*
X127073279Y-138112915D01*
X127073280Y-138112916D01*
X127185084Y-138224720D01*
X127185086Y-138224721D01*
X127185090Y-138224724D01*
X127322009Y-138303773D01*
X127322016Y-138303777D01*
X127433819Y-138333734D01*
X127474742Y-138344700D01*
X127474743Y-138344700D01*
X152846731Y-138344700D01*
X152846747Y-138344701D01*
X152854343Y-138344701D01*
X153012454Y-138344701D01*
X153012457Y-138344701D01*
X153165185Y-138303777D01*
X153215304Y-138274839D01*
X153302116Y-138224720D01*
X153413920Y-138112916D01*
X153413920Y-138112914D01*
X153424128Y-138102707D01*
X153424129Y-138102704D01*
X167688720Y-123838116D01*
X167767777Y-123701184D01*
X167808701Y-123548457D01*
X167808701Y-123390342D01*
X167808701Y-123382747D01*
X167808700Y-123382729D01*
X167808700Y-113863765D01*
X167828385Y-113796726D01*
X167829598Y-113794874D01*
X167917590Y-113663185D01*
X167917590Y-113663184D01*
X167917594Y-113663179D01*
X167977937Y-113517497D01*
X168008700Y-113362842D01*
X168008700Y-113205158D01*
X168008700Y-113205155D01*
X168008699Y-113205153D01*
X167994432Y-113133427D01*
X167977937Y-113050503D01*
X167977935Y-113050498D01*
X167917597Y-112904827D01*
X167917590Y-112904814D01*
X167829989Y-112773711D01*
X167829986Y-112773707D01*
X167718492Y-112662213D01*
X167718488Y-112662210D01*
X167587385Y-112574609D01*
X167587372Y-112574602D01*
X167441701Y-112514264D01*
X167441689Y-112514261D01*
X167287045Y-112483500D01*
X167287042Y-112483500D01*
X167129358Y-112483500D01*
X167129355Y-112483500D01*
X166974710Y-112514261D01*
X166974698Y-112514264D01*
X166829027Y-112574602D01*
X166829014Y-112574609D01*
X166697911Y-112662210D01*
X166697907Y-112662213D01*
X166582103Y-112778018D01*
X166580363Y-112776278D01*
X166531512Y-112809513D01*
X166461667Y-112811343D01*
X166401919Y-112775122D01*
X166390371Y-112760383D01*
X166331389Y-112672111D01*
X166331386Y-112672107D01*
X166219892Y-112560613D01*
X166219888Y-112560610D01*
X166088785Y-112473009D01*
X166088772Y-112473002D01*
X165943101Y-112412664D01*
X165943089Y-112412661D01*
X165788445Y-112381900D01*
X165788442Y-112381900D01*
X165630758Y-112381900D01*
X165630755Y-112381900D01*
X165476110Y-112412661D01*
X165476098Y-112412664D01*
X165330427Y-112473002D01*
X165330414Y-112473009D01*
X165199311Y-112560610D01*
X165199307Y-112560613D01*
X165087813Y-112672107D01*
X165087810Y-112672111D01*
X165000209Y-112803214D01*
X165000202Y-112803227D01*
X164939864Y-112948898D01*
X164939861Y-112948910D01*
X164909100Y-113103553D01*
X164909100Y-113261246D01*
X164939861Y-113415889D01*
X164939864Y-113415901D01*
X165000202Y-113561572D01*
X165000209Y-113561585D01*
X165088202Y-113693274D01*
X165109080Y-113759951D01*
X165109100Y-113762165D01*
X165109100Y-122381902D01*
X165089415Y-122448941D01*
X165072781Y-122469583D01*
X163562884Y-123979481D01*
X151958984Y-135583381D01*
X151897661Y-135616866D01*
X151871303Y-135619700D01*
X129855519Y-135619700D01*
X129788480Y-135600015D01*
X129745035Y-135551995D01*
X129724852Y-135512385D01*
X129724851Y-135512384D01*
X129599909Y-135340413D01*
X129449586Y-135190090D01*
X129277620Y-135065151D01*
X129088214Y-134968644D01*
X129088213Y-134968643D01*
X129088212Y-134968643D01*
X128886043Y-134902954D01*
X128886041Y-134902953D01*
X128886040Y-134902953D01*
X128724757Y-134877408D01*
X128676087Y-134869700D01*
X128463513Y-134869700D01*
X128414842Y-134877408D01*
X128253560Y-134902953D01*
X128051385Y-134968644D01*
X127861979Y-135065151D01*
X127690015Y-135190089D01*
X127576473Y-135303631D01*
X127515150Y-135337115D01*
X127445458Y-135332131D01*
X127389525Y-135290259D01*
X127372610Y-135259282D01*
X127323597Y-135127871D01*
X127323593Y-135127864D01*
X127237347Y-135012655D01*
X127237344Y-135012652D01*
X127122135Y-134926406D01*
X127122128Y-134926402D01*
X126987282Y-134876108D01*
X126987283Y-134876108D01*
X126927683Y-134869701D01*
X126927681Y-134869700D01*
X126927673Y-134869700D01*
X126927664Y-134869700D01*
X125131929Y-134869700D01*
X125131923Y-134869701D01*
X125072316Y-134876108D01*
X124937471Y-134926402D01*
X124937464Y-134926406D01*
X124822255Y-135012652D01*
X124822252Y-135012655D01*
X124736006Y-135127864D01*
X124736002Y-135127871D01*
X124685708Y-135262717D01*
X124679301Y-135322316D01*
X124679300Y-135322335D01*
X123968300Y-135322335D01*
X123968300Y-131008335D01*
X144805100Y-131008335D01*
X144805100Y-133304070D01*
X144805101Y-133304076D01*
X144811508Y-133363683D01*
X144861802Y-133498528D01*
X144861806Y-133498535D01*
X144948052Y-133613744D01*
X144948055Y-133613747D01*
X145063264Y-133699993D01*
X145063271Y-133699997D01*
X145198117Y-133750291D01*
X145198116Y-133750291D01*
X145205044Y-133751035D01*
X145257727Y-133756700D01*
X147553472Y-133756699D01*
X147613083Y-133750291D01*
X147747931Y-133699996D01*
X147863146Y-133613746D01*
X147949396Y-133498531D01*
X147999691Y-133363683D01*
X148006100Y-133304073D01*
X148006099Y-131008328D01*
X147999691Y-130948717D01*
X147964969Y-130855623D01*
X147949397Y-130813871D01*
X147949393Y-130813864D01*
X147863147Y-130698655D01*
X147863144Y-130698652D01*
X147747935Y-130612406D01*
X147747928Y-130612402D01*
X147613082Y-130562108D01*
X147613083Y-130562108D01*
X147553483Y-130555701D01*
X147553481Y-130555700D01*
X147553473Y-130555700D01*
X147553464Y-130555700D01*
X145257729Y-130555700D01*
X145257723Y-130555701D01*
X145198116Y-130562108D01*
X145063271Y-130612402D01*
X145063264Y-130612406D01*
X144948055Y-130698652D01*
X144948052Y-130698655D01*
X144861806Y-130813864D01*
X144861802Y-130813871D01*
X144811508Y-130948717D01*
X144805101Y-131008316D01*
X144805101Y-131008323D01*
X144805100Y-131008335D01*
X123968300Y-131008335D01*
X123968300Y-129078097D01*
X123987985Y-129011058D01*
X124004619Y-128990416D01*
X131124797Y-121870238D01*
X144805100Y-121870238D01*
X144805100Y-122122161D01*
X144844510Y-122370985D01*
X144922360Y-122610583D01*
X145036732Y-122835048D01*
X145184801Y-123038849D01*
X145184805Y-123038854D01*
X145362945Y-123216994D01*
X145362950Y-123216998D01*
X145540717Y-123346152D01*
X145566755Y-123365070D01*
X145709784Y-123437947D01*
X145791216Y-123479439D01*
X145791218Y-123479439D01*
X145791221Y-123479441D01*
X146030815Y-123557290D01*
X146279638Y-123596700D01*
X146279639Y-123596700D01*
X146531561Y-123596700D01*
X146531562Y-123596700D01*
X146780385Y-123557290D01*
X147019979Y-123479441D01*
X147244445Y-123365070D01*
X147448256Y-123216993D01*
X147626393Y-123038856D01*
X147774470Y-122835045D01*
X147888841Y-122610579D01*
X147966690Y-122370985D01*
X148006100Y-122122162D01*
X148006100Y-121870238D01*
X147966690Y-121621415D01*
X147888841Y-121381821D01*
X147888839Y-121381818D01*
X147888839Y-121381816D01*
X147794415Y-121196500D01*
X147774470Y-121157355D01*
X147673070Y-121017789D01*
X147626398Y-120953550D01*
X147626394Y-120953545D01*
X147448254Y-120775405D01*
X147448249Y-120775401D01*
X147244448Y-120627332D01*
X147244447Y-120627331D01*
X147244445Y-120627330D01*
X147174347Y-120591613D01*
X147019983Y-120512960D01*
X146780385Y-120435110D01*
X146531562Y-120395700D01*
X146279638Y-120395700D01*
X146155226Y-120415405D01*
X146030814Y-120435110D01*
X145791216Y-120512960D01*
X145566751Y-120627332D01*
X145362950Y-120775401D01*
X145362945Y-120775405D01*
X145184805Y-120953545D01*
X145184801Y-120953550D01*
X145036732Y-121157351D01*
X144922360Y-121381816D01*
X144844510Y-121621414D01*
X144805100Y-121870238D01*
X131124797Y-121870238D01*
X136146133Y-116848902D01*
X140587100Y-116848902D01*
X140587100Y-117085097D01*
X140624046Y-117318368D01*
X140697033Y-117542996D01*
X140754328Y-117655442D01*
X140804257Y-117753433D01*
X140943083Y-117944510D01*
X141110090Y-118111517D01*
X141301167Y-118250343D01*
X141371128Y-118285990D01*
X141511603Y-118357566D01*
X141511605Y-118357566D01*
X141511608Y-118357568D01*
X141632012Y-118396689D01*
X141736231Y-118430553D01*
X141969503Y-118467500D01*
X141969508Y-118467500D01*
X142205697Y-118467500D01*
X142438968Y-118430553D01*
X142663592Y-118357568D01*
X142874033Y-118250343D01*
X143065110Y-118111517D01*
X143232117Y-117944510D01*
X143370943Y-117753433D01*
X143478168Y-117542992D01*
X143551153Y-117318368D01*
X143555168Y-117293016D01*
X143588100Y-117085097D01*
X143588100Y-116848902D01*
X143551153Y-116615631D01*
X143478166Y-116391003D01*
X143370942Y-116180566D01*
X143359197Y-116164400D01*
X143232117Y-115989490D01*
X143065110Y-115822483D01*
X142874033Y-115683657D01*
X142663596Y-115576433D01*
X142438968Y-115503446D01*
X142205697Y-115466500D01*
X142205692Y-115466500D01*
X141969508Y-115466500D01*
X141969503Y-115466500D01*
X141736231Y-115503446D01*
X141511603Y-115576433D01*
X141301166Y-115683657D01*
X141192150Y-115762862D01*
X141110090Y-115822483D01*
X141110088Y-115822485D01*
X141110087Y-115822485D01*
X140943085Y-115989487D01*
X140943085Y-115989488D01*
X140943083Y-115989490D01*
X140883462Y-116071550D01*
X140804257Y-116180566D01*
X140697033Y-116391003D01*
X140624046Y-116615631D01*
X140587100Y-116848902D01*
X136146133Y-116848902D01*
X140496616Y-112498419D01*
X140557939Y-112464934D01*
X140584297Y-112462100D01*
X146791034Y-112462100D01*
X146858073Y-112481785D01*
X146859925Y-112482998D01*
X146991614Y-112570990D01*
X146991627Y-112570997D01*
X147137298Y-112631335D01*
X147137303Y-112631337D01*
X147291953Y-112662099D01*
X147291956Y-112662100D01*
X147291958Y-112662100D01*
X147449644Y-112662100D01*
X147449645Y-112662099D01*
X147604297Y-112631337D01*
X147741259Y-112574606D01*
X147749972Y-112570997D01*
X147749972Y-112570996D01*
X147749979Y-112570994D01*
X147881089Y-112483389D01*
X147992589Y-112371889D01*
X148080194Y-112240779D01*
X148140537Y-112095097D01*
X148171300Y-111940442D01*
X148171300Y-111782758D01*
X148171300Y-111782755D01*
X148171299Y-111782753D01*
X148140538Y-111628110D01*
X148140537Y-111628103D01*
X148084528Y-111492884D01*
X148080197Y-111482427D01*
X148080190Y-111482414D01*
X147992589Y-111351311D01*
X147992586Y-111351307D01*
X147881092Y-111239813D01*
X147881088Y-111239810D01*
X147749985Y-111152209D01*
X147749972Y-111152202D01*
X147604301Y-111091864D01*
X147604289Y-111091861D01*
X147449645Y-111061100D01*
X147449642Y-111061100D01*
X147291958Y-111061100D01*
X147291955Y-111061100D01*
X147137310Y-111091861D01*
X147137298Y-111091864D01*
X146991627Y-111152202D01*
X146991614Y-111152209D01*
X146859925Y-111240202D01*
X146793247Y-111261080D01*
X146791034Y-111261100D01*
X140363257Y-111261100D01*
X140205142Y-111261100D01*
X140052415Y-111302023D01*
X140052414Y-111302023D01*
X140052412Y-111302024D01*
X140052409Y-111302025D01*
X140002296Y-111330959D01*
X140002295Y-111330960D01*
X139967053Y-111351307D01*
X139915485Y-111381079D01*
X139915482Y-111381081D01*
X122887281Y-128409282D01*
X122887279Y-128409285D01*
X122837161Y-128496094D01*
X122837159Y-128496096D01*
X122808225Y-128546209D01*
X122808224Y-128546210D01*
X122808223Y-128546215D01*
X122767299Y-128698943D01*
X122767299Y-128698945D01*
X122767299Y-128867046D01*
X122767300Y-128867059D01*
X122767300Y-145099030D01*
X122767299Y-145099048D01*
X122767299Y-145264754D01*
X122767298Y-145264754D01*
X122808223Y-145417485D01*
X122837158Y-145467600D01*
X122837159Y-145467604D01*
X122837160Y-145467604D01*
X122887279Y-145554414D01*
X122887281Y-145554417D01*
X123006149Y-145673285D01*
X123006155Y-145673290D01*
X124137084Y-146804219D01*
X124170569Y-146865542D01*
X124165585Y-146935234D01*
X124123713Y-146991167D01*
X124058249Y-147015584D01*
X124049403Y-147015900D01*
X106768498Y-147015900D01*
X106701459Y-146996215D01*
X106680817Y-146979581D01*
X104019517Y-144318281D01*
X103986032Y-144256958D01*
X103991016Y-144187266D01*
X104032888Y-144131333D01*
X104098352Y-144106916D01*
X104107198Y-144106600D01*
X104138961Y-144106600D01*
X104138962Y-144106600D01*
X104387785Y-144067190D01*
X104627379Y-143989341D01*
X104851845Y-143874970D01*
X105055656Y-143726893D01*
X105233793Y-143548756D01*
X105381870Y-143344945D01*
X105496241Y-143120479D01*
X105574090Y-142880885D01*
X105613500Y-142632062D01*
X105613500Y-142380138D01*
X105574090Y-142131315D01*
X105496241Y-141891721D01*
X105496239Y-141891718D01*
X105496239Y-141891716D01*
X105420829Y-141743717D01*
X105381870Y-141667255D01*
X105255742Y-141493654D01*
X105233798Y-141463450D01*
X105233794Y-141463445D01*
X105055654Y-141285305D01*
X105055649Y-141285301D01*
X104851848Y-141137232D01*
X104851847Y-141137231D01*
X104851845Y-141137230D01*
X104781747Y-141101513D01*
X104627383Y-141022860D01*
X104387785Y-140945010D01*
X104138962Y-140905600D01*
X103887038Y-140905600D01*
X103762626Y-140925305D01*
X103638214Y-140945010D01*
X103398616Y-141022860D01*
X103174151Y-141137232D01*
X102970350Y-141285301D01*
X102970345Y-141285305D01*
X102792205Y-141463445D01*
X102792201Y-141463450D01*
X102644132Y-141667251D01*
X102529760Y-141891716D01*
X102451910Y-142131314D01*
X102412500Y-142380138D01*
X102412500Y-142411902D01*
X102392815Y-142478941D01*
X102340011Y-142524696D01*
X102270853Y-142534640D01*
X102207297Y-142505615D01*
X102200819Y-142499583D01*
X89709173Y-130007937D01*
X89675688Y-129946614D01*
X89675237Y-129944447D01*
X89644338Y-129789110D01*
X89644337Y-129789103D01*
X89644335Y-129789098D01*
X89583997Y-129643427D01*
X89583990Y-129643414D01*
X89496389Y-129512311D01*
X89496386Y-129512307D01*
X89384892Y-129400813D01*
X89384888Y-129400810D01*
X89253785Y-129313209D01*
X89253772Y-129313202D01*
X89108101Y-129252864D01*
X89108089Y-129252861D01*
X88953445Y-129222100D01*
X88953442Y-129222100D01*
X88795758Y-129222100D01*
X88795755Y-129222100D01*
X88641110Y-129252861D01*
X88641098Y-129252864D01*
X88495427Y-129313202D01*
X88495414Y-129313209D01*
X88364311Y-129400810D01*
X88364307Y-129400813D01*
X88252813Y-129512307D01*
X88252810Y-129512311D01*
X88165209Y-129643414D01*
X88165202Y-129643427D01*
X88104864Y-129789098D01*
X88104861Y-129789110D01*
X88074100Y-129943753D01*
X77564435Y-129943753D01*
X77558377Y-127365908D01*
X110776900Y-127365908D01*
X110776900Y-127497691D01*
X110811008Y-127624987D01*
X110843954Y-127682050D01*
X110876900Y-127739114D01*
X110970086Y-127832300D01*
X111084214Y-127898192D01*
X111211508Y-127932300D01*
X111211510Y-127932300D01*
X111343290Y-127932300D01*
X111343292Y-127932300D01*
X111470586Y-127898192D01*
X111584714Y-127832300D01*
X111677900Y-127739114D01*
X111743792Y-127624986D01*
X111777900Y-127497692D01*
X111777900Y-127365908D01*
X111743792Y-127238614D01*
X111677900Y-127124486D01*
X111584714Y-127031300D01*
X111527650Y-126998354D01*
X111470587Y-126965408D01*
X111406939Y-126948354D01*
X111343292Y-126931300D01*
X111211508Y-126931300D01*
X111084212Y-126965408D01*
X110970086Y-127031300D01*
X110970083Y-127031302D01*
X110876902Y-127124483D01*
X110876900Y-127124486D01*
X110811008Y-127238612D01*
X110776900Y-127365908D01*
X77558377Y-127365908D01*
X77535304Y-117546802D01*
X100505900Y-117546802D01*
X100505900Y-117782997D01*
X100542846Y-118016268D01*
X100615833Y-118240896D01*
X100669559Y-118346338D01*
X100723057Y-118451333D01*
X100861883Y-118642410D01*
X101028890Y-118809417D01*
X101219967Y-118948243D01*
X101319391Y-118998902D01*
X101430403Y-119055466D01*
X101430405Y-119055466D01*
X101430408Y-119055468D01*
X101550812Y-119094589D01*
X101655031Y-119128453D01*
X101888303Y-119165400D01*
X101888308Y-119165400D01*
X102124496Y-119165400D01*
X102219992Y-119150274D01*
X102339234Y-119131388D01*
X102408526Y-119140342D01*
X102446312Y-119166180D01*
X107100949Y-123820816D01*
X107205484Y-123925351D01*
X107205487Y-123925353D01*
X107205488Y-123925354D01*
X107328403Y-124007483D01*
X107328406Y-124007485D01*
X107363827Y-124022156D01*
X107380294Y-124028977D01*
X107464988Y-124064059D01*
X107581141Y-124087163D01*
X107605573Y-124092022D01*
X107609981Y-124092900D01*
X107609982Y-124092900D01*
X117345720Y-124092900D01*
X117443262Y-124073496D01*
X117490713Y-124064058D01*
X117627295Y-124007484D01*
X117676529Y-123974586D01*
X117750216Y-123925352D01*
X124382551Y-117293016D01*
X124464684Y-117170095D01*
X124521258Y-117033513D01*
X124550100Y-116888518D01*
X124550100Y-116740683D01*
X124550100Y-110211899D01*
X124569785Y-110144860D01*
X124622589Y-110099105D01*
X124674100Y-110087899D01*
X124697471Y-110087899D01*
X124697472Y-110087899D01*
X124757083Y-110081491D01*
X124891931Y-110031196D01*
X125007146Y-109944946D01*
X125093396Y-109829731D01*
X125142410Y-109698316D01*
X125184281Y-109642384D01*
X125249745Y-109617966D01*
X125318018Y-109632817D01*
X125346273Y-109653969D01*
X125459813Y-109767509D01*
X125631779Y-109892448D01*
X125631781Y-109892449D01*
X125631784Y-109892451D01*
X125821188Y-109988957D01*
X126023357Y-110054646D01*
X126233313Y-110087900D01*
X126233314Y-110087900D01*
X126445886Y-110087900D01*
X126445887Y-110087900D01*
X126655843Y-110054646D01*
X126858012Y-109988957D01*
X127047416Y-109892451D01*
X127133738Y-109829735D01*
X127219386Y-109767509D01*
X127219388Y-109767506D01*
X127219392Y-109767504D01*
X127369704Y-109617192D01*
X127369706Y-109617188D01*
X127369709Y-109617186D01*
X127494648Y-109445220D01*
X127494647Y-109445220D01*
X127494651Y-109445216D01*
X127591157Y-109255812D01*
X127656846Y-109053643D01*
X127690100Y-108843687D01*
X127690100Y-108631113D01*
X127656846Y-108421157D01*
X127591157Y-108218988D01*
X127494651Y-108029584D01*
X127494649Y-108029581D01*
X127494648Y-108029579D01*
X127369709Y-107857613D01*
X127219386Y-107707290D01*
X127047420Y-107582351D01*
X126858014Y-107485844D01*
X126858013Y-107485843D01*
X126858012Y-107485843D01*
X126655843Y-107420154D01*
X126655841Y-107420153D01*
X126655840Y-107420153D01*
X126494557Y-107394608D01*
X126445887Y-107386900D01*
X126233313Y-107386900D01*
X126184642Y-107394608D01*
X126023360Y-107420153D01*
X125821185Y-107485844D01*
X125631779Y-107582351D01*
X125459815Y-107707289D01*
X125346273Y-107820831D01*
X125284950Y-107854315D01*
X125215258Y-107849331D01*
X125159325Y-107807459D01*
X125142410Y-107776482D01*
X125093397Y-107645071D01*
X125093393Y-107645064D01*
X125007147Y-107529855D01*
X125007144Y-107529852D01*
X124891935Y-107443606D01*
X124891928Y-107443602D01*
X124757082Y-107393308D01*
X124757083Y-107393308D01*
X124697483Y-107386901D01*
X124697481Y-107386900D01*
X124697473Y-107386900D01*
X124697464Y-107386900D01*
X122901729Y-107386900D01*
X122901723Y-107386901D01*
X122842116Y-107393308D01*
X122707271Y-107443602D01*
X122707264Y-107443606D01*
X122592055Y-107529852D01*
X122592052Y-107529855D01*
X122505806Y-107645064D01*
X122505802Y-107645071D01*
X122455508Y-107779917D01*
X122449101Y-107839516D01*
X122449100Y-107839535D01*
X122449100Y-109635270D01*
X122449101Y-109635276D01*
X122455508Y-109694883D01*
X122505802Y-109829728D01*
X122505806Y-109829735D01*
X122592052Y-109944944D01*
X122592055Y-109944947D01*
X122707264Y-110031193D01*
X122707271Y-110031197D01*
X122752218Y-110047961D01*
X122842117Y-110081491D01*
X122901727Y-110087900D01*
X122925097Y-110087899D01*
X122992136Y-110107581D01*
X123037892Y-110160383D01*
X123049100Y-110211899D01*
X123049100Y-116452370D01*
X123029415Y-116519409D01*
X123012781Y-116540051D01*
X116997251Y-122555581D01*
X116935928Y-122589066D01*
X116909570Y-122591900D01*
X108046129Y-122591900D01*
X107979090Y-122572215D01*
X107958448Y-122555581D01*
X103507680Y-118104812D01*
X103474195Y-118043489D01*
X103472888Y-117997736D01*
X103491774Y-117878492D01*
X103506900Y-117782996D01*
X103506900Y-117546802D01*
X103469953Y-117313531D01*
X103396966Y-117088903D01*
X103289742Y-116878466D01*
X103268267Y-116848908D01*
X103150917Y-116687390D01*
X102983910Y-116520383D01*
X102792833Y-116381557D01*
X102582396Y-116274333D01*
X102357768Y-116201346D01*
X102124497Y-116164400D01*
X102124492Y-116164400D01*
X101888308Y-116164400D01*
X101888303Y-116164400D01*
X101655031Y-116201346D01*
X101430403Y-116274333D01*
X101219966Y-116381557D01*
X101110950Y-116460762D01*
X101028890Y-116520383D01*
X101028888Y-116520385D01*
X101028887Y-116520385D01*
X100861885Y-116687387D01*
X100861885Y-116687388D01*
X100861883Y-116687390D01*
X100823163Y-116740683D01*
X100723057Y-116878466D01*
X100615833Y-117088903D01*
X100542846Y-117313531D01*
X100505900Y-117546802D01*
X77535304Y-117546802D01*
X77503137Y-103857953D01*
X95109900Y-103857953D01*
X95109900Y-104015646D01*
X95140661Y-104170289D01*
X95140663Y-104170297D01*
X95150461Y-104193951D01*
X95159900Y-104241404D01*
X95159900Y-108178796D01*
X95150462Y-108226244D01*
X95140663Y-108249903D01*
X95140662Y-108249906D01*
X95140660Y-108249911D01*
X95109900Y-108404553D01*
X95109900Y-108562246D01*
X95140661Y-108716889D01*
X95140664Y-108716901D01*
X95201002Y-108862572D01*
X95201009Y-108862585D01*
X95288610Y-108993688D01*
X95288613Y-108993692D01*
X95400107Y-109105186D01*
X95400111Y-109105189D01*
X95531214Y-109192790D01*
X95531227Y-109192797D01*
X95676898Y-109253135D01*
X95676903Y-109253137D01*
X95831553Y-109283899D01*
X95831556Y-109283900D01*
X95831558Y-109283900D01*
X95989244Y-109283900D01*
X95989245Y-109283899D01*
X96143897Y-109253137D01*
X96289579Y-109192794D01*
X96420689Y-109105189D01*
X96532189Y-108993689D01*
X96619794Y-108862579D01*
X96680137Y-108716897D01*
X96710900Y-108562242D01*
X96710900Y-108404558D01*
X96710900Y-108404555D01*
X96710899Y-108404553D01*
X96680139Y-108249911D01*
X96680138Y-108249908D01*
X96680137Y-108249903D01*
X96670337Y-108226244D01*
X96660900Y-108178796D01*
X96660900Y-104241404D01*
X96670339Y-104193951D01*
X96680137Y-104170297D01*
X96710900Y-104015642D01*
X96710900Y-103857958D01*
X96710900Y-103857955D01*
X96710899Y-103857953D01*
X96680138Y-103703310D01*
X96680137Y-103703303D01*
X96645508Y-103619700D01*
X96619797Y-103557627D01*
X96619790Y-103557614D01*
X96532189Y-103426511D01*
X96532186Y-103426507D01*
X96420692Y-103315013D01*
X96420688Y-103315010D01*
X96289585Y-103227409D01*
X96289572Y-103227402D01*
X96143901Y-103167064D01*
X96143889Y-103167061D01*
X95989245Y-103136300D01*
X95989242Y-103136300D01*
X95831558Y-103136300D01*
X95831555Y-103136300D01*
X95676910Y-103167061D01*
X95676898Y-103167064D01*
X95531227Y-103227402D01*
X95531214Y-103227409D01*
X95400111Y-103315010D01*
X95400107Y-103315013D01*
X95288613Y-103426507D01*
X95288610Y-103426511D01*
X95201009Y-103557614D01*
X95201002Y-103557627D01*
X95140664Y-103703298D01*
X95140661Y-103703310D01*
X95109900Y-103857953D01*
X77503137Y-103857953D01*
X77453120Y-82572753D01*
X85483300Y-82572753D01*
X85483300Y-82730446D01*
X85514061Y-82885089D01*
X85514064Y-82885101D01*
X85574402Y-83030772D01*
X85574409Y-83030785D01*
X85662010Y-83161888D01*
X85662013Y-83161892D01*
X85773507Y-83273386D01*
X85773511Y-83273389D01*
X85904614Y-83360990D01*
X85904627Y-83360997D01*
X86050298Y-83421335D01*
X86050303Y-83421337D01*
X86204958Y-83452100D01*
X86205647Y-83452237D01*
X86267558Y-83484622D01*
X86269137Y-83486173D01*
X86499284Y-83716320D01*
X86499286Y-83716321D01*
X86499290Y-83716324D01*
X86520924Y-83728814D01*
X86636216Y-83795377D01*
X86788943Y-83836301D01*
X86788945Y-83836301D01*
X86954654Y-83836301D01*
X86954670Y-83836300D01*
X90911034Y-83836300D01*
X90978073Y-83855985D01*
X90979925Y-83857198D01*
X91111614Y-83945190D01*
X91111627Y-83945197D01*
X91252291Y-84003461D01*
X91257303Y-84005537D01*
X91398892Y-84033701D01*
X91411953Y-84036299D01*
X91411956Y-84036300D01*
X91411958Y-84036300D01*
X91569642Y-84036300D01*
X91582707Y-84033701D01*
X91652297Y-84039927D01*
X91707476Y-84082789D01*
X91730722Y-84148678D01*
X91730900Y-84155318D01*
X91730900Y-92606529D01*
X91711215Y-92673568D01*
X91710002Y-92675420D01*
X91683388Y-92715249D01*
X91683387Y-92715252D01*
X91615506Y-92879132D01*
X91615503Y-92879141D01*
X91580900Y-93053104D01*
X91580900Y-93230495D01*
X91615503Y-93404458D01*
X91615506Y-93404467D01*
X91683383Y-93568340D01*
X91683390Y-93568353D01*
X91781935Y-93715834D01*
X91781938Y-93715838D01*
X91907361Y-93841261D01*
X91907365Y-93841264D01*
X92054846Y-93939809D01*
X92054850Y-93939811D01*
X92054853Y-93939813D01*
X92088474Y-93953739D01*
X92142876Y-93997579D01*
X92164942Y-94063873D01*
X92147663Y-94131572D01*
X92096527Y-94179183D01*
X92041021Y-94192300D01*
X90041740Y-94192300D01*
X89974701Y-94172615D01*
X89954058Y-94155980D01*
X89918292Y-94120213D01*
X89918288Y-94120210D01*
X89787185Y-94032609D01*
X89787172Y-94032602D01*
X89641501Y-93972264D01*
X89641489Y-93972261D01*
X89486845Y-93941500D01*
X89486842Y-93941500D01*
X89329158Y-93941500D01*
X89329155Y-93941500D01*
X89174510Y-93972261D01*
X89174498Y-93972264D01*
X89028827Y-94032602D01*
X89028814Y-94032609D01*
X88897711Y-94120210D01*
X88897707Y-94120213D01*
X88786213Y-94231707D01*
X88786210Y-94231711D01*
X88698609Y-94362814D01*
X88698602Y-94362827D01*
X88638264Y-94508498D01*
X88638261Y-94508510D01*
X88607500Y-94663153D01*
X88607500Y-94820846D01*
X88638261Y-94975489D01*
X88638264Y-94975501D01*
X88698602Y-95121172D01*
X88698609Y-95121185D01*
X88786210Y-95252288D01*
X88786213Y-95252292D01*
X88897707Y-95363786D01*
X88897711Y-95363789D01*
X89028814Y-95451390D01*
X89028827Y-95451397D01*
X89151454Y-95502190D01*
X89174503Y-95511737D01*
X89329153Y-95542499D01*
X89329156Y-95542500D01*
X89329158Y-95542500D01*
X89486844Y-95542500D01*
X89486845Y-95542499D01*
X89641497Y-95511737D01*
X89787179Y-95451394D01*
X89842847Y-95414198D01*
X89909525Y-95393320D01*
X89911738Y-95393300D01*
X94390834Y-95393300D01*
X94457873Y-95412985D01*
X94459725Y-95414198D01*
X94591414Y-95502190D01*
X94591427Y-95502197D01*
X94688729Y-95542500D01*
X94737103Y-95562537D01*
X94891753Y-95593299D01*
X94891756Y-95593300D01*
X94891758Y-95593300D01*
X95049444Y-95593300D01*
X95049445Y-95593299D01*
X95204097Y-95562537D01*
X95349779Y-95502194D01*
X95480889Y-95414589D01*
X95592389Y-95303089D01*
X95679994Y-95171979D01*
X95740337Y-95026297D01*
X95771100Y-94871642D01*
X95771100Y-94713958D01*
X95771100Y-94713955D01*
X95771099Y-94713953D01*
X95765296Y-94684781D01*
X95740337Y-94559303D01*
X95710749Y-94487871D01*
X95679997Y-94413627D01*
X95679990Y-94413614D01*
X95592389Y-94282511D01*
X95592386Y-94282507D01*
X95480892Y-94171013D01*
X95480888Y-94171010D01*
X95349785Y-94083409D01*
X95349772Y-94083402D01*
X95204101Y-94023064D01*
X95204089Y-94023061D01*
X95049445Y-93992300D01*
X95049442Y-93992300D01*
X94891758Y-93992300D01*
X94891755Y-93992300D01*
X94737110Y-94023061D01*
X94737098Y-94023064D01*
X94591427Y-94083402D01*
X94591414Y-94083409D01*
X94459725Y-94171402D01*
X94393047Y-94192280D01*
X94390834Y-94192300D01*
X92921779Y-94192300D01*
X92854740Y-94172615D01*
X92808985Y-94119811D01*
X92799041Y-94050653D01*
X92828066Y-93987097D01*
X92874324Y-93953739D01*
X92907947Y-93939813D01*
X93055435Y-93841264D01*
X93180864Y-93715835D01*
X93279413Y-93568347D01*
X93347294Y-93404466D01*
X93381900Y-93230491D01*
X93381900Y-93053109D01*
X93381900Y-93053106D01*
X93381899Y-93053104D01*
X93347296Y-92879141D01*
X93347293Y-92879132D01*
X93279413Y-92715253D01*
X93279411Y-92715251D01*
X93279411Y-92715249D01*
X93252798Y-92675420D01*
X93231920Y-92608742D01*
X93231900Y-92606529D01*
X93231900Y-82124828D01*
X93251585Y-82057789D01*
X93268214Y-82037152D01*
X96214992Y-79090373D01*
X96229581Y-79082118D01*
X96239983Y-79071069D01*
X96267778Y-79060506D01*
X96272665Y-79057741D01*
X96275526Y-79057027D01*
X96325466Y-79047094D01*
X96340765Y-79040756D01*
X96349694Y-79038530D01*
X96375766Y-79039604D01*
X96401711Y-79036814D01*
X96410114Y-79041020D01*
X96419504Y-79041407D01*
X96440858Y-79056408D01*
X96464192Y-79068087D01*
X96468987Y-79076168D01*
X96476677Y-79081570D01*
X96486529Y-79105731D01*
X96499847Y-79128174D01*
X96501701Y-79142935D01*
X96503060Y-79146267D01*
X96502498Y-79149282D01*
X96503700Y-79158845D01*
X96503700Y-84673052D01*
X96484015Y-84740091D01*
X96431211Y-84785846D01*
X96403893Y-84794669D01*
X96362707Y-84802861D01*
X96362698Y-84802864D01*
X96217027Y-84863202D01*
X96217014Y-84863209D01*
X96085911Y-84950810D01*
X96085907Y-84950813D01*
X95974413Y-85062307D01*
X95974410Y-85062311D01*
X95886809Y-85193414D01*
X95886802Y-85193427D01*
X95826464Y-85339098D01*
X95826461Y-85339110D01*
X95795700Y-85493753D01*
X95795700Y-85651446D01*
X95826461Y-85806089D01*
X95826464Y-85806101D01*
X95886802Y-85951772D01*
X95886809Y-85951785D01*
X95974410Y-86082888D01*
X95974413Y-86082892D01*
X96085907Y-86194386D01*
X96085911Y-86194389D01*
X96217014Y-86281990D01*
X96217027Y-86281997D01*
X96362698Y-86342335D01*
X96362703Y-86342337D01*
X96517353Y-86373099D01*
X96517356Y-86373100D01*
X96517358Y-86373100D01*
X96675044Y-86373100D01*
X96675045Y-86373099D01*
X96829697Y-86342337D01*
X96975379Y-86281994D01*
X97106489Y-86194389D01*
X97217989Y-86082889D01*
X97305594Y-85951779D01*
X97365937Y-85806097D01*
X97381938Y-85725652D01*
X97396838Y-85650751D01*
X97405602Y-85633995D01*
X97409622Y-85615517D01*
X97428369Y-85590471D01*
X97429223Y-85588840D01*
X97430742Y-85587292D01*
X97462705Y-85555328D01*
X97462709Y-85555326D01*
X97472914Y-85545120D01*
X97472916Y-85545120D01*
X97584720Y-85433316D01*
X97663777Y-85296384D01*
X97700875Y-85157931D01*
X97704700Y-85143658D01*
X97704700Y-84985543D01*
X97704700Y-77211296D01*
X97724385Y-77144257D01*
X97741014Y-77123620D01*
X102561114Y-72303519D01*
X102564464Y-72301690D01*
X102566493Y-72298451D01*
X102594894Y-72285074D01*
X102622435Y-72270036D01*
X102626245Y-72270308D01*
X102629703Y-72268680D01*
X102660824Y-72272781D01*
X102692127Y-72275020D01*
X102695185Y-72277309D01*
X102698974Y-72277809D01*
X102722938Y-72298086D01*
X102748060Y-72316892D01*
X102750242Y-72321187D01*
X102752313Y-72322940D01*
X102757296Y-72335075D01*
X102767351Y-72354870D01*
X102769189Y-72360870D01*
X102786063Y-72445697D01*
X102821125Y-72530344D01*
X102822858Y-72535999D01*
X102822970Y-72545536D01*
X102828300Y-72572331D01*
X102828300Y-91962930D01*
X102828299Y-91962948D01*
X102828299Y-92128654D01*
X102828298Y-92128654D01*
X102869223Y-92281385D01*
X102898158Y-92331500D01*
X102898159Y-92331504D01*
X102898160Y-92331504D01*
X102948279Y-92418314D01*
X102948281Y-92418317D01*
X103067149Y-92537185D01*
X103067155Y-92537190D01*
X105606470Y-95076505D01*
X105639955Y-95137828D01*
X105636721Y-95202503D01*
X105616753Y-95263959D01*
X105583500Y-95473913D01*
X105583500Y-95686486D01*
X105616754Y-95896444D01*
X105616754Y-95896447D01*
X105630491Y-95938723D01*
X105632486Y-96008564D01*
X105600241Y-96064722D01*
X103898286Y-97766678D01*
X103786481Y-97878482D01*
X103786479Y-97878485D01*
X103736361Y-97965294D01*
X103736359Y-97965296D01*
X103707425Y-98015409D01*
X103707424Y-98015410D01*
X103707423Y-98015415D01*
X103666499Y-98168143D01*
X103666499Y-98168145D01*
X103666499Y-98336246D01*
X103666500Y-98336259D01*
X103666500Y-112932834D01*
X103646815Y-112999873D01*
X103645602Y-113001725D01*
X103557609Y-113133414D01*
X103557602Y-113133427D01*
X103497264Y-113279098D01*
X103497261Y-113279110D01*
X103466500Y-113433753D01*
X103466500Y-113591446D01*
X103497261Y-113746089D01*
X103497264Y-113746101D01*
X103557602Y-113891772D01*
X103557609Y-113891785D01*
X103645210Y-114022888D01*
X103645213Y-114022892D01*
X103756707Y-114134386D01*
X103756711Y-114134389D01*
X103887814Y-114221990D01*
X103887827Y-114221997D01*
X104033498Y-114282335D01*
X104033503Y-114282337D01*
X104188153Y-114313099D01*
X104188156Y-114313100D01*
X104188158Y-114313100D01*
X104345844Y-114313100D01*
X104345845Y-114313099D01*
X104500497Y-114282337D01*
X104646179Y-114221994D01*
X104777289Y-114134389D01*
X104888789Y-114022889D01*
X104976394Y-113891779D01*
X105036737Y-113746097D01*
X105067500Y-113591442D01*
X105067500Y-113433758D01*
X105067500Y-113433755D01*
X105067499Y-113433753D01*
X105063946Y-113415889D01*
X105036737Y-113279103D01*
X105036735Y-113279098D01*
X104976397Y-113133427D01*
X104976390Y-113133414D01*
X104888398Y-113001725D01*
X104867520Y-112935047D01*
X104867500Y-112932834D01*
X104867500Y-98547296D01*
X104887185Y-98480257D01*
X104903814Y-98459620D01*
X106449478Y-96913955D01*
X106510799Y-96880472D01*
X106575473Y-96883706D01*
X106617757Y-96897446D01*
X106827713Y-96930700D01*
X106827714Y-96930700D01*
X106974902Y-96930700D01*
X107041941Y-96950385D01*
X107087696Y-97003189D01*
X107097640Y-97072347D01*
X107068615Y-97135903D01*
X107062583Y-97142381D01*
X105539081Y-98665882D01*
X105539079Y-98665884D01*
X105513986Y-98709347D01*
X105503380Y-98727719D01*
X105460023Y-98802815D01*
X105419099Y-98955543D01*
X105419099Y-98955545D01*
X105419099Y-99123646D01*
X105419100Y-99123659D01*
X105419100Y-116996834D01*
X105399415Y-117063873D01*
X105398202Y-117065725D01*
X105310209Y-117197414D01*
X105310202Y-117197427D01*
X105249864Y-117343098D01*
X105249861Y-117343110D01*
X105219100Y-117497753D01*
X105219100Y-117655446D01*
X105249861Y-117810089D01*
X105249864Y-117810101D01*
X105310202Y-117955772D01*
X105310209Y-117955785D01*
X105397810Y-118086888D01*
X105397813Y-118086892D01*
X105509307Y-118198386D01*
X105509311Y-118198389D01*
X105640414Y-118285990D01*
X105640427Y-118285997D01*
X105786098Y-118346335D01*
X105786103Y-118346337D01*
X105940753Y-118377099D01*
X105940756Y-118377100D01*
X105940758Y-118377100D01*
X106098444Y-118377100D01*
X106098445Y-118377099D01*
X106253097Y-118346337D01*
X106398779Y-118285994D01*
X106529889Y-118198389D01*
X106641389Y-118086889D01*
X106728994Y-117955779D01*
X106789337Y-117810097D01*
X106820100Y-117655442D01*
X106820100Y-117497758D01*
X106820100Y-117497755D01*
X106820099Y-117497753D01*
X106789338Y-117343110D01*
X106789337Y-117343103D01*
X106779092Y-117318368D01*
X106728997Y-117197427D01*
X106728990Y-117197414D01*
X106640998Y-117065725D01*
X106620120Y-116999047D01*
X106620100Y-116996834D01*
X106620100Y-99334696D01*
X106639785Y-99267657D01*
X106656414Y-99247020D01*
X108989478Y-96913955D01*
X109050799Y-96880472D01*
X109115473Y-96883706D01*
X109157757Y-96897446D01*
X109367713Y-96930700D01*
X109367714Y-96930700D01*
X109514901Y-96930700D01*
X109581940Y-96950385D01*
X109627695Y-97003189D01*
X109637639Y-97072347D01*
X109608614Y-97135903D01*
X109602582Y-97142381D01*
X107733686Y-99011278D01*
X107621881Y-99123082D01*
X107621879Y-99123085D01*
X107571761Y-99209894D01*
X107571759Y-99209896D01*
X107542825Y-99260009D01*
X107542824Y-99260010D01*
X107542823Y-99260015D01*
X107501899Y-99412743D01*
X107501899Y-99412745D01*
X107501899Y-99580846D01*
X107501900Y-99580859D01*
X107501900Y-119816234D01*
X107482215Y-119883273D01*
X107481002Y-119885125D01*
X107393009Y-120016814D01*
X107393002Y-120016827D01*
X107332664Y-120162498D01*
X107332661Y-120162510D01*
X107301900Y-120317153D01*
X107301900Y-120474846D01*
X107332661Y-120629489D01*
X107332664Y-120629501D01*
X107393002Y-120775172D01*
X107393009Y-120775185D01*
X107480610Y-120906288D01*
X107480613Y-120906292D01*
X107592107Y-121017786D01*
X107592111Y-121017789D01*
X107723214Y-121105390D01*
X107723227Y-121105397D01*
X107848657Y-121157351D01*
X107868903Y-121165737D01*
X108023553Y-121196499D01*
X108023556Y-121196500D01*
X108023558Y-121196500D01*
X108181244Y-121196500D01*
X108181245Y-121196499D01*
X108335897Y-121165737D01*
X108481579Y-121105394D01*
X108612689Y-121017789D01*
X108724189Y-120906289D01*
X108811794Y-120775179D01*
X108872137Y-120629497D01*
X108902900Y-120474842D01*
X108902900Y-120317158D01*
X108902900Y-120317155D01*
X108902899Y-120317153D01*
X108872138Y-120162510D01*
X108872137Y-120162503D01*
X108872135Y-120162498D01*
X108811797Y-120016827D01*
X108811790Y-120016814D01*
X108723798Y-119885125D01*
X108702920Y-119818447D01*
X108702900Y-119816234D01*
X108702900Y-99791896D01*
X108722585Y-99724857D01*
X108739214Y-99704220D01*
X111529478Y-96913955D01*
X111590799Y-96880472D01*
X111655473Y-96883706D01*
X111697757Y-96897446D01*
X111907713Y-96930700D01*
X111907714Y-96930700D01*
X112120286Y-96930700D01*
X112120287Y-96930700D01*
X112330243Y-96897446D01*
X112532412Y-96831757D01*
X112721816Y-96735251D01*
X112808138Y-96672535D01*
X112893786Y-96610309D01*
X112893788Y-96610306D01*
X112893792Y-96610304D01*
X113044104Y-96459992D01*
X113044106Y-96459988D01*
X113044109Y-96459986D01*
X113169048Y-96288020D01*
X113169047Y-96288020D01*
X113169051Y-96288016D01*
X113173514Y-96279254D01*
X113221488Y-96228459D01*
X113289308Y-96211663D01*
X113355444Y-96234199D01*
X113394486Y-96279256D01*
X113398951Y-96288020D01*
X113523890Y-96459986D01*
X113674213Y-96610309D01*
X113846179Y-96735248D01*
X113846181Y-96735249D01*
X113846184Y-96735251D01*
X114035588Y-96831757D01*
X114237757Y-96897446D01*
X114447713Y-96930700D01*
X114447714Y-96930700D01*
X114660286Y-96930700D01*
X114660287Y-96930700D01*
X114870243Y-96897446D01*
X115072412Y-96831757D01*
X115261816Y-96735251D01*
X115348138Y-96672535D01*
X115433786Y-96610309D01*
X115433788Y-96610306D01*
X115433792Y-96610304D01*
X115584104Y-96459992D01*
X115584106Y-96459988D01*
X115584109Y-96459986D01*
X115709048Y-96288020D01*
X115709047Y-96288020D01*
X115709051Y-96288016D01*
X115713514Y-96279254D01*
X115761488Y-96228459D01*
X115829308Y-96211663D01*
X115895444Y-96234199D01*
X115934486Y-96279256D01*
X115938951Y-96288020D01*
X116063890Y-96459986D01*
X116214213Y-96610309D01*
X116386179Y-96735248D01*
X116386181Y-96735249D01*
X116386184Y-96735251D01*
X116575588Y-96831757D01*
X116777757Y-96897446D01*
X116987713Y-96930700D01*
X116987714Y-96930700D01*
X117200286Y-96930700D01*
X117200287Y-96930700D01*
X117410243Y-96897446D01*
X117612412Y-96831757D01*
X117801816Y-96735251D01*
X117888138Y-96672535D01*
X117973786Y-96610309D01*
X117973788Y-96610306D01*
X117973792Y-96610304D01*
X118124104Y-96459992D01*
X118124106Y-96459988D01*
X118124109Y-96459986D01*
X118249048Y-96288020D01*
X118249047Y-96288020D01*
X118249051Y-96288016D01*
X118253514Y-96279254D01*
X118301488Y-96228459D01*
X118369308Y-96211663D01*
X118435444Y-96234199D01*
X118474486Y-96279256D01*
X118478951Y-96288020D01*
X118603890Y-96459986D01*
X118754213Y-96610309D01*
X118926179Y-96735248D01*
X118926181Y-96735249D01*
X118926184Y-96735251D01*
X119115588Y-96831757D01*
X119317757Y-96897446D01*
X119527713Y-96930700D01*
X119527714Y-96930700D01*
X119740286Y-96930700D01*
X119740287Y-96930700D01*
X119950243Y-96897446D01*
X119992523Y-96883707D01*
X120062362Y-96881711D01*
X120118522Y-96913957D01*
X126388139Y-103183574D01*
X126388149Y-103183585D01*
X126392479Y-103187915D01*
X126392480Y-103187916D01*
X126504284Y-103299720D01*
X126555845Y-103329488D01*
X126591095Y-103349839D01*
X126591097Y-103349841D01*
X126629151Y-103371811D01*
X126641215Y-103378777D01*
X126793943Y-103419701D01*
X126793946Y-103419701D01*
X126959653Y-103419701D01*
X126959669Y-103419700D01*
X136453234Y-103419700D01*
X136520273Y-103439385D01*
X136522125Y-103440598D01*
X136653814Y-103528590D01*
X136653827Y-103528597D01*
X136723913Y-103557627D01*
X136799503Y-103588937D01*
X136954153Y-103619699D01*
X136954156Y-103619700D01*
X136954158Y-103619700D01*
X137111844Y-103619700D01*
X137111845Y-103619699D01*
X137266497Y-103588937D01*
X137412179Y-103528594D01*
X137543289Y-103440989D01*
X137654789Y-103329489D01*
X137742394Y-103198379D01*
X137802737Y-103052697D01*
X137833500Y-102898042D01*
X137833500Y-102740358D01*
X137833500Y-102740355D01*
X137833499Y-102740353D01*
X137819324Y-102669092D01*
X137802737Y-102585703D01*
X137782969Y-102537979D01*
X137742397Y-102440027D01*
X137742390Y-102440014D01*
X137654789Y-102308911D01*
X137654786Y-102308907D01*
X137543292Y-102197413D01*
X137543288Y-102197410D01*
X137412185Y-102109809D01*
X137412172Y-102109802D01*
X137266501Y-102049464D01*
X137266489Y-102049461D01*
X137111845Y-102018700D01*
X137111842Y-102018700D01*
X136954158Y-102018700D01*
X136954155Y-102018700D01*
X136799510Y-102049461D01*
X136799498Y-102049464D01*
X136653827Y-102109802D01*
X136653814Y-102109809D01*
X136522125Y-102197802D01*
X136455447Y-102218680D01*
X136453234Y-102218700D01*
X127173097Y-102218700D01*
X127106058Y-102199015D01*
X127085416Y-102182381D01*
X122045416Y-97142381D01*
X122011931Y-97081058D01*
X122016915Y-97011366D01*
X122058787Y-96955433D01*
X122124251Y-96931016D01*
X122133097Y-96930700D01*
X122280286Y-96930700D01*
X122280287Y-96930700D01*
X122490243Y-96897446D01*
X122532523Y-96883707D01*
X122602362Y-96881711D01*
X122658522Y-96913957D01*
X125168939Y-99424374D01*
X125168949Y-99424385D01*
X125173279Y-99428715D01*
X125173280Y-99428716D01*
X125285084Y-99540520D01*
X125285086Y-99540521D01*
X125285090Y-99540524D01*
X125422009Y-99619573D01*
X125422016Y-99619577D01*
X125533819Y-99649534D01*
X125574742Y-99660500D01*
X125574743Y-99660500D01*
X143921103Y-99660500D01*
X143988142Y-99680185D01*
X144008784Y-99696819D01*
X148740139Y-104428174D01*
X148740149Y-104428185D01*
X148744479Y-104432515D01*
X148744480Y-104432516D01*
X148856284Y-104544320D01*
X148930728Y-104587300D01*
X148993215Y-104623377D01*
X149145943Y-104664301D01*
X149145946Y-104664301D01*
X149311653Y-104664301D01*
X149311669Y-104664300D01*
X151490034Y-104664300D01*
X151557073Y-104683985D01*
X151558925Y-104685198D01*
X151690614Y-104773190D01*
X151690627Y-104773197D01*
X151836298Y-104833535D01*
X151836303Y-104833537D01*
X151990953Y-104864299D01*
X151990956Y-104864300D01*
X151990958Y-104864300D01*
X152148644Y-104864300D01*
X152148645Y-104864299D01*
X152303297Y-104833537D01*
X152448979Y-104773194D01*
X152580089Y-104685589D01*
X152691589Y-104574089D01*
X152779194Y-104442979D01*
X152839537Y-104297297D01*
X152870300Y-104142642D01*
X152870300Y-103984958D01*
X152870300Y-103984955D01*
X152870299Y-103984953D01*
X152839538Y-103830310D01*
X152839537Y-103830303D01*
X152839535Y-103830298D01*
X152779197Y-103684627D01*
X152779190Y-103684614D01*
X152691589Y-103553511D01*
X152691586Y-103553507D01*
X152580092Y-103442013D01*
X152580088Y-103442010D01*
X152448985Y-103354409D01*
X152448972Y-103354402D01*
X152303301Y-103294064D01*
X152303289Y-103294061D01*
X152148645Y-103263300D01*
X152148642Y-103263300D01*
X151990958Y-103263300D01*
X151990955Y-103263300D01*
X151836310Y-103294061D01*
X151836298Y-103294064D01*
X151690627Y-103354402D01*
X151690614Y-103354409D01*
X151558925Y-103442402D01*
X151492247Y-103463280D01*
X151490034Y-103463300D01*
X149525097Y-103463300D01*
X149458058Y-103443615D01*
X149437416Y-103426981D01*
X149103329Y-103092894D01*
X149069844Y-103031571D01*
X149074828Y-102961879D01*
X149116700Y-102905946D01*
X149143553Y-102890654D01*
X149197779Y-102868194D01*
X149328889Y-102780589D01*
X149440389Y-102669089D01*
X149527994Y-102537979D01*
X149588337Y-102392297D01*
X149619100Y-102237642D01*
X149619100Y-102079958D01*
X149619100Y-102079955D01*
X149619099Y-102079953D01*
X149588338Y-101925310D01*
X149588337Y-101925303D01*
X149588335Y-101925298D01*
X149527997Y-101779627D01*
X149527990Y-101779614D01*
X149440389Y-101648511D01*
X149440386Y-101648507D01*
X149328892Y-101537013D01*
X149328888Y-101537010D01*
X149197785Y-101449409D01*
X149197772Y-101449402D01*
X149052101Y-101389064D01*
X149052091Y-101389061D01*
X148896749Y-101358161D01*
X148834838Y-101325776D01*
X148833260Y-101324225D01*
X145216790Y-97707755D01*
X145216788Y-97707752D01*
X145097917Y-97588881D01*
X145097916Y-97588880D01*
X145011104Y-97538760D01*
X145011104Y-97538759D01*
X145011100Y-97538758D01*
X144960985Y-97509823D01*
X144808257Y-97468899D01*
X144650143Y-97468899D01*
X144642547Y-97468899D01*
X144642531Y-97468900D01*
X127503297Y-97468900D01*
X127436258Y-97449215D01*
X127415616Y-97432581D01*
X127125416Y-97142381D01*
X127091931Y-97081058D01*
X127096915Y-97011366D01*
X127138787Y-96955433D01*
X127204251Y-96931016D01*
X127213097Y-96930700D01*
X127360286Y-96930700D01*
X127360287Y-96930700D01*
X127570243Y-96897446D01*
X127772412Y-96831757D01*
X127961816Y-96735251D01*
X128048138Y-96672535D01*
X128133786Y-96610309D01*
X128133788Y-96610306D01*
X128133792Y-96610304D01*
X128284104Y-96459992D01*
X128284106Y-96459988D01*
X128284109Y-96459986D01*
X128409048Y-96288020D01*
X128409047Y-96288020D01*
X128409051Y-96288016D01*
X128413514Y-96279254D01*
X128461488Y-96228459D01*
X128529308Y-96211663D01*
X128595444Y-96234199D01*
X128634486Y-96279256D01*
X128638951Y-96288020D01*
X128763890Y-96459986D01*
X128914213Y-96610309D01*
X129086179Y-96735248D01*
X129086181Y-96735249D01*
X129086184Y-96735251D01*
X129275588Y-96831757D01*
X129477757Y-96897446D01*
X129687713Y-96930700D01*
X129687714Y-96930700D01*
X129900286Y-96930700D01*
X129900287Y-96930700D01*
X130110243Y-96897446D01*
X130312412Y-96831757D01*
X130501816Y-96735251D01*
X130588138Y-96672535D01*
X130673786Y-96610309D01*
X130673788Y-96610306D01*
X130673792Y-96610304D01*
X130824104Y-96459992D01*
X130824106Y-96459988D01*
X130824109Y-96459986D01*
X130949048Y-96288020D01*
X130949047Y-96288020D01*
X130949051Y-96288016D01*
X130953514Y-96279254D01*
X131001488Y-96228459D01*
X131069308Y-96211663D01*
X131135444Y-96234199D01*
X131174486Y-96279256D01*
X131178951Y-96288020D01*
X131303890Y-96459986D01*
X131454213Y-96610309D01*
X131626179Y-96735248D01*
X131626181Y-96735249D01*
X131626184Y-96735251D01*
X131815588Y-96831757D01*
X132017757Y-96897446D01*
X132227713Y-96930700D01*
X132227714Y-96930700D01*
X132440286Y-96930700D01*
X132440287Y-96930700D01*
X132650243Y-96897446D01*
X132852412Y-96831757D01*
X133041816Y-96735251D01*
X133128138Y-96672535D01*
X133213786Y-96610309D01*
X133213788Y-96610306D01*
X133213792Y-96610304D01*
X133364104Y-96459992D01*
X133364106Y-96459988D01*
X133364109Y-96459986D01*
X133489048Y-96288020D01*
X133489047Y-96288020D01*
X133489051Y-96288016D01*
X133493514Y-96279254D01*
X133541488Y-96228459D01*
X133609308Y-96211663D01*
X133675444Y-96234199D01*
X133714486Y-96279256D01*
X133718951Y-96288020D01*
X133843890Y-96459986D01*
X133994213Y-96610309D01*
X134166179Y-96735248D01*
X134166181Y-96735249D01*
X134166184Y-96735251D01*
X134355588Y-96831757D01*
X134557757Y-96897446D01*
X134767713Y-96930700D01*
X134767714Y-96930700D01*
X134980286Y-96930700D01*
X134980287Y-96930700D01*
X135190243Y-96897446D01*
X135392412Y-96831757D01*
X135581816Y-96735251D01*
X135668138Y-96672535D01*
X135753786Y-96610309D01*
X135753788Y-96610306D01*
X135753792Y-96610304D01*
X135904104Y-96459992D01*
X135904106Y-96459988D01*
X135904109Y-96459986D01*
X136029048Y-96288020D01*
X136029047Y-96288020D01*
X136029051Y-96288016D01*
X136033514Y-96279254D01*
X136081488Y-96228459D01*
X136149308Y-96211663D01*
X136215444Y-96234199D01*
X136254486Y-96279256D01*
X136258951Y-96288020D01*
X136383890Y-96459986D01*
X136534213Y-96610309D01*
X136706179Y-96735248D01*
X136706181Y-96735249D01*
X136706184Y-96735251D01*
X136895588Y-96831757D01*
X137097757Y-96897446D01*
X137307713Y-96930700D01*
X137307714Y-96930700D01*
X137520286Y-96930700D01*
X137520287Y-96930700D01*
X137730243Y-96897446D01*
X137932412Y-96831757D01*
X138121816Y-96735251D01*
X138208138Y-96672535D01*
X138293786Y-96610309D01*
X138293788Y-96610306D01*
X138293792Y-96610304D01*
X138444104Y-96459992D01*
X138444106Y-96459988D01*
X138444109Y-96459986D01*
X138569048Y-96288020D01*
X138569047Y-96288020D01*
X138569051Y-96288016D01*
X138573514Y-96279254D01*
X138621488Y-96228459D01*
X138689308Y-96211663D01*
X138755444Y-96234199D01*
X138794486Y-96279256D01*
X138798951Y-96288020D01*
X138923890Y-96459986D01*
X139074213Y-96610309D01*
X139246179Y-96735248D01*
X139246181Y-96735249D01*
X139246184Y-96735251D01*
X139435588Y-96831757D01*
X139637757Y-96897446D01*
X139847713Y-96930700D01*
X139847714Y-96930700D01*
X140060286Y-96930700D01*
X140060287Y-96930700D01*
X140270243Y-96897446D01*
X140472412Y-96831757D01*
X140661816Y-96735251D01*
X140748138Y-96672535D01*
X140833786Y-96610309D01*
X140833788Y-96610306D01*
X140833792Y-96610304D01*
X140984104Y-96459992D01*
X140984106Y-96459988D01*
X140984109Y-96459986D01*
X141109048Y-96288020D01*
X141109047Y-96288020D01*
X141109051Y-96288016D01*
X141113514Y-96279254D01*
X141161488Y-96228459D01*
X141229308Y-96211663D01*
X141295444Y-96234199D01*
X141334486Y-96279256D01*
X141338951Y-96288020D01*
X141463890Y-96459986D01*
X141614213Y-96610309D01*
X141786179Y-96735248D01*
X141786181Y-96735249D01*
X141786184Y-96735251D01*
X141975588Y-96831757D01*
X142177757Y-96897446D01*
X142387713Y-96930700D01*
X142387714Y-96930700D01*
X142600286Y-96930700D01*
X142600287Y-96930700D01*
X142810243Y-96897446D01*
X143012412Y-96831757D01*
X143201816Y-96735251D01*
X143288138Y-96672535D01*
X143373786Y-96610309D01*
X143373788Y-96610306D01*
X143373792Y-96610304D01*
X143524104Y-96459992D01*
X143524106Y-96459988D01*
X143524109Y-96459986D01*
X143649048Y-96288020D01*
X143649047Y-96288020D01*
X143649051Y-96288016D01*
X143653514Y-96279254D01*
X143701488Y-96228459D01*
X143769308Y-96211663D01*
X143835444Y-96234199D01*
X143874486Y-96279256D01*
X143878951Y-96288020D01*
X144003890Y-96459986D01*
X144154213Y-96610309D01*
X144326179Y-96735248D01*
X144326181Y-96735249D01*
X144326184Y-96735251D01*
X144515588Y-96831757D01*
X144717757Y-96897446D01*
X144927713Y-96930700D01*
X144927714Y-96930700D01*
X145140286Y-96930700D01*
X145140287Y-96930700D01*
X145350243Y-96897446D01*
X145552412Y-96831757D01*
X145741816Y-96735251D01*
X145913792Y-96610304D01*
X146027329Y-96496766D01*
X146088648Y-96463284D01*
X146158340Y-96468268D01*
X146214274Y-96510139D01*
X146231189Y-96541117D01*
X146280202Y-96672528D01*
X146280206Y-96672535D01*
X146366452Y-96787744D01*
X146366455Y-96787747D01*
X146481664Y-96873993D01*
X146481671Y-96873997D01*
X146616517Y-96924291D01*
X146616516Y-96924291D01*
X146623444Y-96925035D01*
X146676127Y-96930700D01*
X148471872Y-96930699D01*
X148531483Y-96924291D01*
X148666331Y-96873996D01*
X148781546Y-96787746D01*
X148867796Y-96672531D01*
X148918091Y-96537683D01*
X148924500Y-96478073D01*
X148924499Y-94682328D01*
X148918091Y-94622717D01*
X148916810Y-94619283D01*
X148867797Y-94487871D01*
X148867793Y-94487864D01*
X148781547Y-94372655D01*
X148781544Y-94372652D01*
X148666335Y-94286406D01*
X148666328Y-94286402D01*
X148531482Y-94236108D01*
X148531483Y-94236108D01*
X148471883Y-94229701D01*
X148471881Y-94229700D01*
X148471873Y-94229700D01*
X148471864Y-94229700D01*
X146676129Y-94229700D01*
X146676123Y-94229701D01*
X146616516Y-94236108D01*
X146481671Y-94286402D01*
X146481664Y-94286406D01*
X146366455Y-94372652D01*
X146366452Y-94372655D01*
X146280206Y-94487864D01*
X146280203Y-94487869D01*
X146231189Y-94619283D01*
X146189317Y-94675216D01*
X146123853Y-94699633D01*
X146055580Y-94684781D01*
X146027326Y-94663630D01*
X145913786Y-94550090D01*
X145741820Y-94425151D01*
X145552414Y-94328644D01*
X145552413Y-94328643D01*
X145552412Y-94328643D01*
X145350243Y-94262954D01*
X145350241Y-94262953D01*
X145350240Y-94262953D01*
X145188957Y-94237408D01*
X145140287Y-94229700D01*
X144927713Y-94229700D01*
X144879042Y-94237408D01*
X144717760Y-94262953D01*
X144515585Y-94328644D01*
X144326179Y-94425151D01*
X144154213Y-94550090D01*
X144003890Y-94700413D01*
X143878949Y-94872382D01*
X143874484Y-94881146D01*
X143826509Y-94931942D01*
X143758688Y-94948736D01*
X143692553Y-94926198D01*
X143653516Y-94881146D01*
X143649050Y-94872382D01*
X143524109Y-94700413D01*
X143373786Y-94550090D01*
X143201820Y-94425151D01*
X143012414Y-94328644D01*
X143012413Y-94328643D01*
X143012412Y-94328643D01*
X142810243Y-94262954D01*
X142810241Y-94262953D01*
X142810240Y-94262953D01*
X142648957Y-94237408D01*
X142600287Y-94229700D01*
X142387713Y-94229700D01*
X142339042Y-94237408D01*
X142177760Y-94262953D01*
X141975585Y-94328644D01*
X141786179Y-94425151D01*
X141614213Y-94550090D01*
X141463890Y-94700413D01*
X141338949Y-94872382D01*
X141334484Y-94881146D01*
X141286509Y-94931942D01*
X141218688Y-94948736D01*
X141152553Y-94926198D01*
X141113516Y-94881146D01*
X141109050Y-94872382D01*
X140984109Y-94700413D01*
X140833786Y-94550090D01*
X140661820Y-94425151D01*
X140472414Y-94328644D01*
X140472413Y-94328643D01*
X140472412Y-94328643D01*
X140270243Y-94262954D01*
X140270241Y-94262953D01*
X140270240Y-94262953D01*
X140108957Y-94237408D01*
X140060287Y-94229700D01*
X139847713Y-94229700D01*
X139799042Y-94237408D01*
X139637760Y-94262953D01*
X139435585Y-94328644D01*
X139246179Y-94425151D01*
X139074213Y-94550090D01*
X138923890Y-94700413D01*
X138798949Y-94872382D01*
X138794484Y-94881146D01*
X138746509Y-94931942D01*
X138678688Y-94948736D01*
X138612553Y-94926198D01*
X138573516Y-94881146D01*
X138569050Y-94872382D01*
X138444109Y-94700413D01*
X138293786Y-94550090D01*
X138121820Y-94425151D01*
X137932414Y-94328644D01*
X137932413Y-94328643D01*
X137932412Y-94328643D01*
X137730243Y-94262954D01*
X137730241Y-94262953D01*
X137730240Y-94262953D01*
X137568957Y-94237408D01*
X137520287Y-94229700D01*
X137307713Y-94229700D01*
X137259042Y-94237408D01*
X137097760Y-94262953D01*
X136895585Y-94328644D01*
X136706179Y-94425151D01*
X136534213Y-94550090D01*
X136383890Y-94700413D01*
X136258949Y-94872382D01*
X136254484Y-94881146D01*
X136206509Y-94931942D01*
X136138688Y-94948736D01*
X136072553Y-94926198D01*
X136033516Y-94881146D01*
X136029050Y-94872382D01*
X135904109Y-94700413D01*
X135753786Y-94550090D01*
X135581820Y-94425151D01*
X135392414Y-94328644D01*
X135392413Y-94328643D01*
X135392412Y-94328643D01*
X135190243Y-94262954D01*
X135190241Y-94262953D01*
X135190240Y-94262953D01*
X135028957Y-94237408D01*
X134980287Y-94229700D01*
X134767713Y-94229700D01*
X134719042Y-94237408D01*
X134557760Y-94262953D01*
X134355585Y-94328644D01*
X134166179Y-94425151D01*
X133994213Y-94550090D01*
X133843890Y-94700413D01*
X133718949Y-94872382D01*
X133714484Y-94881146D01*
X133666509Y-94931942D01*
X133598688Y-94948736D01*
X133532553Y-94926198D01*
X133493516Y-94881146D01*
X133489050Y-94872382D01*
X133364109Y-94700413D01*
X133213786Y-94550090D01*
X133041820Y-94425151D01*
X132852414Y-94328644D01*
X132852413Y-94328643D01*
X132852412Y-94328643D01*
X132650243Y-94262954D01*
X132650241Y-94262953D01*
X132650240Y-94262953D01*
X132488957Y-94237408D01*
X132440287Y-94229700D01*
X132227713Y-94229700D01*
X132179042Y-94237408D01*
X132017760Y-94262953D01*
X131815585Y-94328644D01*
X131626179Y-94425151D01*
X131454213Y-94550090D01*
X131303890Y-94700413D01*
X131178949Y-94872382D01*
X131174484Y-94881146D01*
X131126509Y-94931942D01*
X131058688Y-94948736D01*
X130992553Y-94926198D01*
X130953516Y-94881146D01*
X130949050Y-94872382D01*
X130824109Y-94700413D01*
X130673786Y-94550090D01*
X130501820Y-94425151D01*
X130312414Y-94328644D01*
X130312413Y-94328643D01*
X130312412Y-94328643D01*
X130110243Y-94262954D01*
X130110241Y-94262953D01*
X130110240Y-94262953D01*
X129948957Y-94237408D01*
X129900287Y-94229700D01*
X129687713Y-94229700D01*
X129639042Y-94237408D01*
X129477760Y-94262953D01*
X129275585Y-94328644D01*
X129086179Y-94425151D01*
X128914213Y-94550090D01*
X128763890Y-94700413D01*
X128638949Y-94872382D01*
X128634484Y-94881146D01*
X128586509Y-94931942D01*
X128518688Y-94948736D01*
X128452553Y-94926198D01*
X128413516Y-94881146D01*
X128409050Y-94872382D01*
X128284109Y-94700413D01*
X128133786Y-94550090D01*
X127961820Y-94425151D01*
X127772414Y-94328644D01*
X127772413Y-94328643D01*
X127772412Y-94328643D01*
X127570243Y-94262954D01*
X127570241Y-94262953D01*
X127570240Y-94262953D01*
X127408957Y-94237408D01*
X127360287Y-94229700D01*
X127147713Y-94229700D01*
X127099042Y-94237408D01*
X126937760Y-94262953D01*
X126735585Y-94328644D01*
X126546179Y-94425151D01*
X126374213Y-94550090D01*
X126223890Y-94700413D01*
X126098949Y-94872382D01*
X126094484Y-94881146D01*
X126046509Y-94931942D01*
X125978688Y-94948736D01*
X125912553Y-94926198D01*
X125873516Y-94881146D01*
X125869050Y-94872382D01*
X125744109Y-94700413D01*
X125593786Y-94550090D01*
X125421820Y-94425151D01*
X125232414Y-94328644D01*
X125232413Y-94328643D01*
X125232412Y-94328643D01*
X125030243Y-94262954D01*
X125030241Y-94262953D01*
X125030240Y-94262953D01*
X124868957Y-94237408D01*
X124820287Y-94229700D01*
X124607713Y-94229700D01*
X124607707Y-94229700D01*
X124604625Y-94229942D01*
X124603474Y-94229700D01*
X124602841Y-94229700D01*
X124602841Y-94229566D01*
X124536250Y-94215565D01*
X124507238Y-94194003D01*
X111025219Y-80711984D01*
X110991734Y-80650661D01*
X110988900Y-80624303D01*
X110988900Y-75789165D01*
X111008585Y-75722126D01*
X111009798Y-75720274D01*
X111097790Y-75588585D01*
X111097790Y-75588584D01*
X111097794Y-75588579D01*
X111158137Y-75442897D01*
X111188900Y-75288242D01*
X111188900Y-75130558D01*
X111188900Y-75130555D01*
X111188899Y-75130553D01*
X111182834Y-75100061D01*
X111158137Y-74975903D01*
X111158135Y-74975898D01*
X111097797Y-74830227D01*
X111097790Y-74830214D01*
X111010189Y-74699111D01*
X111010186Y-74699107D01*
X110898692Y-74587613D01*
X110898688Y-74587610D01*
X110767585Y-74500009D01*
X110767572Y-74500002D01*
X110621901Y-74439664D01*
X110621889Y-74439661D01*
X110467245Y-74408900D01*
X110467242Y-74408900D01*
X110309558Y-74408900D01*
X110309555Y-74408900D01*
X110154910Y-74439661D01*
X110154898Y-74439664D01*
X110009221Y-74500005D01*
X110009189Y-74500023D01*
X110009169Y-74500026D01*
X110003593Y-74502337D01*
X110003154Y-74501279D01*
X109940785Y-74514262D01*
X109881851Y-74493764D01*
X109853179Y-74474606D01*
X109853176Y-74474604D01*
X109853175Y-74474604D01*
X109853174Y-74474603D01*
X109707501Y-74414264D01*
X109707489Y-74414261D01*
X109552845Y-74383500D01*
X109552842Y-74383500D01*
X109395158Y-74383500D01*
X109395155Y-74383500D01*
X109240510Y-74414261D01*
X109240498Y-74414264D01*
X109145058Y-74453797D01*
X109075589Y-74461266D01*
X109024714Y-74437756D01*
X109024154Y-74438595D01*
X108887985Y-74347609D01*
X108887972Y-74347602D01*
X108742301Y-74287264D01*
X108742289Y-74287261D01*
X108587645Y-74256500D01*
X108587642Y-74256500D01*
X108429958Y-74256500D01*
X108429955Y-74256500D01*
X108275310Y-74287261D01*
X108275298Y-74287264D01*
X108129628Y-74347602D01*
X108129614Y-74347610D01*
X108124762Y-74350852D01*
X108058083Y-74371725D01*
X107990704Y-74353236D01*
X107952777Y-74316637D01*
X107936791Y-74292713D01*
X107936786Y-74292707D01*
X107825292Y-74181213D01*
X107825288Y-74181210D01*
X107694185Y-74093609D01*
X107694172Y-74093602D01*
X107548501Y-74033264D01*
X107548489Y-74033261D01*
X107393845Y-74002500D01*
X107393842Y-74002500D01*
X107236158Y-74002500D01*
X107218995Y-74005913D01*
X107149404Y-73999681D01*
X107103471Y-73966243D01*
X107102897Y-73966818D01*
X107099249Y-73963170D01*
X107098955Y-73962956D01*
X107098588Y-73962509D01*
X106987092Y-73851013D01*
X106987088Y-73851010D01*
X106855985Y-73763409D01*
X106855972Y-73763402D01*
X106710301Y-73703064D01*
X106710289Y-73703061D01*
X106555645Y-73672300D01*
X106555642Y-73672300D01*
X106397958Y-73672300D01*
X106397953Y-73672300D01*
X106273671Y-73697021D01*
X106204079Y-73690794D01*
X106148902Y-73647930D01*
X106127863Y-73599595D01*
X106103538Y-73477310D01*
X106103537Y-73477303D01*
X106103535Y-73477298D01*
X106043197Y-73331627D01*
X106043190Y-73331614D01*
X105955589Y-73200511D01*
X105955586Y-73200507D01*
X105844092Y-73089013D01*
X105844088Y-73089010D01*
X105712985Y-73001409D01*
X105712972Y-73001402D01*
X105567301Y-72941064D01*
X105567289Y-72941061D01*
X105412645Y-72910300D01*
X105412642Y-72910300D01*
X105309341Y-72910300D01*
X105242302Y-72890615D01*
X105196547Y-72837811D01*
X105187724Y-72810491D01*
X105163738Y-72689910D01*
X105163737Y-72689903D01*
X105163735Y-72689898D01*
X105103397Y-72544227D01*
X105103390Y-72544214D01*
X105015789Y-72413111D01*
X105015786Y-72413107D01*
X104904292Y-72301613D01*
X104904288Y-72301610D01*
X104773185Y-72214009D01*
X104773172Y-72214002D01*
X104627501Y-72153664D01*
X104627489Y-72153661D01*
X104472845Y-72122900D01*
X104472842Y-72122900D01*
X104455984Y-72122900D01*
X104388945Y-72103215D01*
X104343190Y-72050411D01*
X104334367Y-72023092D01*
X104325538Y-71978708D01*
X104325537Y-71978707D01*
X104325537Y-71978703D01*
X104291011Y-71895349D01*
X104265197Y-71833027D01*
X104265190Y-71833014D01*
X104177589Y-71701911D01*
X104177586Y-71701907D01*
X104066092Y-71590413D01*
X104066088Y-71590410D01*
X103934985Y-71502809D01*
X103934972Y-71502802D01*
X103789301Y-71442464D01*
X103789291Y-71442461D01*
X103710610Y-71426810D01*
X103648699Y-71394424D01*
X103614125Y-71333708D01*
X103617866Y-71263939D01*
X103647119Y-71217514D01*
X111236639Y-63627995D01*
X122102499Y-63627995D01*
X122129418Y-63763322D01*
X122129421Y-63763332D01*
X122182221Y-63890804D01*
X122182228Y-63890817D01*
X122258885Y-64005541D01*
X122258888Y-64005545D01*
X122356454Y-64103111D01*
X122356458Y-64103114D01*
X122435453Y-64155898D01*
X122480258Y-64209511D01*
X122488965Y-64278836D01*
X122458810Y-64341863D01*
X122435453Y-64362102D01*
X122356458Y-64414885D01*
X122356454Y-64414888D01*
X122258888Y-64512454D01*
X122258885Y-64512458D01*
X122182228Y-64627182D01*
X122182221Y-64627195D01*
X122129421Y-64754667D01*
X122129418Y-64754677D01*
X122102500Y-64890004D01*
X122102500Y-64890007D01*
X122102500Y-65027993D01*
X122102500Y-65027995D01*
X122102499Y-65027995D01*
X122129418Y-65163322D01*
X122129421Y-65163332D01*
X122182221Y-65290804D01*
X122182228Y-65290817D01*
X122258885Y-65405541D01*
X122258888Y-65405545D01*
X122356454Y-65503111D01*
X122356458Y-65503114D01*
X122471182Y-65579771D01*
X122471195Y-65579778D01*
X122551039Y-65612850D01*
X122598672Y-65632580D01*
X122643283Y-65641453D01*
X122709873Y-65654700D01*
X122771784Y-65687085D01*
X122806359Y-65747801D01*
X122807299Y-65752125D01*
X122829418Y-65863322D01*
X122829421Y-65863332D01*
X122882221Y-65990804D01*
X122882228Y-65990817D01*
X122958885Y-66105541D01*
X122958888Y-66105545D01*
X123056454Y-66203111D01*
X123056458Y-66203114D01*
X123171182Y-66279771D01*
X123171195Y-66279778D01*
X123244622Y-66310192D01*
X123298672Y-66332580D01*
X123298676Y-66332580D01*
X123298677Y-66332581D01*
X123434004Y-66359500D01*
X123434007Y-66359500D01*
X123571995Y-66359500D01*
X123663041Y-66341389D01*
X123707328Y-66332580D01*
X123834811Y-66279775D01*
X123949542Y-66203114D01*
X124047114Y-66105542D01*
X124092125Y-66038179D01*
X124099898Y-66026546D01*
X124153510Y-65981741D01*
X124222835Y-65973034D01*
X124285863Y-66003189D01*
X124306102Y-66026546D01*
X124358885Y-66105541D01*
X124358888Y-66105545D01*
X124456454Y-66203111D01*
X124456458Y-66203114D01*
X124571182Y-66279771D01*
X124571195Y-66279778D01*
X124644622Y-66310192D01*
X124698672Y-66332580D01*
X124698676Y-66332580D01*
X124698677Y-66332581D01*
X124834004Y-66359500D01*
X124834007Y-66359500D01*
X124971995Y-66359500D01*
X125063041Y-66341389D01*
X125107328Y-66332580D01*
X125234811Y-66279775D01*
X125349542Y-66203114D01*
X125447114Y-66105542D01*
X125523775Y-65990811D01*
X125576580Y-65863328D01*
X125598700Y-65752126D01*
X125631085Y-65690215D01*
X125691800Y-65655641D01*
X125696126Y-65654700D01*
X125742601Y-65645455D01*
X125807328Y-65632580D01*
X125905924Y-65591740D01*
X125934804Y-65579778D01*
X125934804Y-65579777D01*
X125934811Y-65579775D01*
X126049542Y-65503114D01*
X126147114Y-65405542D01*
X126223775Y-65290811D01*
X126276580Y-65163328D01*
X126300434Y-65043408D01*
X126303500Y-65027995D01*
X126303500Y-64890004D01*
X126276581Y-64754677D01*
X126276580Y-64754676D01*
X126276580Y-64754672D01*
X126247651Y-64684831D01*
X126223778Y-64627195D01*
X126223771Y-64627182D01*
X126147114Y-64512458D01*
X126147111Y-64512454D01*
X126049545Y-64414888D01*
X126049541Y-64414885D01*
X125970546Y-64362102D01*
X125925741Y-64308490D01*
X125917034Y-64239165D01*
X125947189Y-64176137D01*
X125970546Y-64155898D01*
X126001252Y-64135380D01*
X126049542Y-64103114D01*
X126147114Y-64005542D01*
X126223775Y-63890811D01*
X126276580Y-63763328D01*
X126303338Y-63628809D01*
X126303500Y-63627995D01*
X126303500Y-63490004D01*
X126276581Y-63354677D01*
X126276580Y-63354676D01*
X126276580Y-63354672D01*
X126252791Y-63297240D01*
X126223778Y-63227195D01*
X126223771Y-63227182D01*
X126147114Y-63112458D01*
X126147111Y-63112454D01*
X126049545Y-63014888D01*
X126049541Y-63014885D01*
X125934817Y-62938228D01*
X125934804Y-62938221D01*
X125807332Y-62885421D01*
X125807322Y-62885418D01*
X125696125Y-62863299D01*
X125634214Y-62830914D01*
X125599640Y-62770198D01*
X125598700Y-62765873D01*
X125576581Y-62654679D01*
X125576581Y-62654677D01*
X125576580Y-62654672D01*
X125531138Y-62544965D01*
X125523778Y-62527195D01*
X125523771Y-62527182D01*
X125447114Y-62412458D01*
X125447111Y-62412454D01*
X125349545Y-62314888D01*
X125349541Y-62314885D01*
X125234817Y-62238228D01*
X125234804Y-62238221D01*
X125107332Y-62185421D01*
X125107322Y-62185418D01*
X124971995Y-62158500D01*
X124971993Y-62158500D01*
X124834007Y-62158500D01*
X124834005Y-62158500D01*
X124698677Y-62185418D01*
X124698667Y-62185421D01*
X124571195Y-62238221D01*
X124571182Y-62238228D01*
X124456458Y-62314885D01*
X124456454Y-62314888D01*
X124358888Y-62412454D01*
X124358885Y-62412458D01*
X124306102Y-62491453D01*
X124252489Y-62536258D01*
X124183164Y-62544965D01*
X124120137Y-62514810D01*
X124099898Y-62491453D01*
X124047114Y-62412458D01*
X124047111Y-62412454D01*
X123949545Y-62314888D01*
X123949541Y-62314885D01*
X123834817Y-62238228D01*
X123834804Y-62238221D01*
X123707332Y-62185421D01*
X123707322Y-62185418D01*
X123571995Y-62158500D01*
X123571993Y-62158500D01*
X123434007Y-62158500D01*
X123434005Y-62158500D01*
X123298677Y-62185418D01*
X123298667Y-62185421D01*
X123171195Y-62238221D01*
X123171182Y-62238228D01*
X123056458Y-62314885D01*
X123056454Y-62314888D01*
X122958888Y-62412454D01*
X122958885Y-62412458D01*
X122882228Y-62527182D01*
X122882221Y-62527195D01*
X122829421Y-62654667D01*
X122829418Y-62654677D01*
X122807299Y-62765874D01*
X122774913Y-62827785D01*
X122714197Y-62862359D01*
X122709874Y-62863299D01*
X122598677Y-62885418D01*
X122598667Y-62885421D01*
X122471195Y-62938221D01*
X122471182Y-62938228D01*
X122356458Y-63014885D01*
X122356454Y-63014888D01*
X122258888Y-63112454D01*
X122258885Y-63112458D01*
X122182228Y-63227182D01*
X122182221Y-63227195D01*
X122129421Y-63354667D01*
X122129418Y-63354677D01*
X122102500Y-63490004D01*
X122102500Y-63490007D01*
X122102500Y-63627993D01*
X122102500Y-63627995D01*
X122102499Y-63627995D01*
X111236639Y-63627995D01*
X114136862Y-60727772D01*
X114198183Y-60694289D01*
X114200350Y-60693838D01*
X114258285Y-60682313D01*
X114355697Y-60662937D01*
X114501379Y-60602594D01*
X114632489Y-60514989D01*
X114743989Y-60403489D01*
X114831594Y-60272379D01*
X114891937Y-60126697D01*
X114922700Y-59972042D01*
X114922700Y-59814358D01*
X114922700Y-59814355D01*
X114922699Y-59814353D01*
X114891938Y-59659710D01*
X114891938Y-59659708D01*
X114891937Y-59659703D01*
X114844401Y-59544940D01*
X114831597Y-59514027D01*
X114831590Y-59514014D01*
X114743989Y-59382911D01*
X114743986Y-59382907D01*
X114632492Y-59271413D01*
X114632488Y-59271410D01*
X114501385Y-59183809D01*
X114501372Y-59183802D01*
X114355701Y-59123464D01*
X114355689Y-59123461D01*
X114201045Y-59092700D01*
X114201042Y-59092700D01*
X114043358Y-59092700D01*
X114043355Y-59092700D01*
X113888710Y-59123461D01*
X113888698Y-59123464D01*
X113743027Y-59183802D01*
X113743014Y-59183809D01*
X113611911Y-59271410D01*
X113611907Y-59271413D01*
X113500413Y-59382907D01*
X113500410Y-59382911D01*
X113412809Y-59514014D01*
X113412802Y-59514027D01*
X113352464Y-59659698D01*
X113352461Y-59659708D01*
X113321561Y-59815050D01*
X113289176Y-59876961D01*
X113287625Y-59878539D01*
X96623681Y-76542482D01*
X96623679Y-76542485D01*
X96578637Y-76620502D01*
X96578636Y-76620503D01*
X96578633Y-76620509D01*
X96544623Y-76679415D01*
X96503699Y-76832143D01*
X96503699Y-76832145D01*
X96503699Y-77000246D01*
X96503700Y-77000259D01*
X96503700Y-77203554D01*
X96484015Y-77270593D01*
X96431211Y-77316348D01*
X96362053Y-77326292D01*
X96332250Y-77318116D01*
X96325467Y-77315306D01*
X96325458Y-77315303D01*
X96151494Y-77280700D01*
X96151491Y-77280700D01*
X95974109Y-77280700D01*
X95974106Y-77280700D01*
X95800141Y-77315303D01*
X95800132Y-77315306D01*
X95636259Y-77383183D01*
X95636246Y-77383190D01*
X95488765Y-77481735D01*
X95488761Y-77481738D01*
X95363338Y-77607161D01*
X95363335Y-77607165D01*
X95264790Y-77754646D01*
X95264783Y-77754659D01*
X95196906Y-77918531D01*
X95196904Y-77918537D01*
X95187559Y-77965520D01*
X95155173Y-78027430D01*
X95153623Y-78029008D01*
X91898450Y-81284180D01*
X91898444Y-81284188D01*
X91849212Y-81357868D01*
X91849213Y-81357869D01*
X91816321Y-81407096D01*
X91816314Y-81407108D01*
X91759742Y-81543686D01*
X91759740Y-81543692D01*
X91730900Y-81688679D01*
X91730900Y-82316281D01*
X91711215Y-82383320D01*
X91658411Y-82429075D01*
X91589253Y-82439019D01*
X91582712Y-82437899D01*
X91569644Y-82435300D01*
X91569642Y-82435300D01*
X91411958Y-82435300D01*
X91411955Y-82435300D01*
X91257310Y-82466061D01*
X91257298Y-82466064D01*
X91111627Y-82526402D01*
X91111614Y-82526409D01*
X90979925Y-82614402D01*
X90913247Y-82635280D01*
X90911034Y-82635300D01*
X87198505Y-82635300D01*
X87131466Y-82615615D01*
X87085711Y-82562811D01*
X87076888Y-82535492D01*
X87053538Y-82418108D01*
X87053537Y-82418107D01*
X87053537Y-82418103D01*
X87017296Y-82330608D01*
X86993197Y-82272427D01*
X86993190Y-82272414D01*
X86905589Y-82141311D01*
X86905586Y-82141307D01*
X86794092Y-82029813D01*
X86794088Y-82029810D01*
X86662985Y-81942209D01*
X86662972Y-81942202D01*
X86517301Y-81881864D01*
X86517289Y-81881861D01*
X86362645Y-81851100D01*
X86362642Y-81851100D01*
X86204958Y-81851100D01*
X86204955Y-81851100D01*
X86050310Y-81881861D01*
X86050298Y-81881864D01*
X85904627Y-81942202D01*
X85904614Y-81942209D01*
X85773511Y-82029810D01*
X85773507Y-82029813D01*
X85662013Y-82141307D01*
X85662010Y-82141311D01*
X85574409Y-82272414D01*
X85574402Y-82272427D01*
X85514064Y-82418098D01*
X85514061Y-82418110D01*
X85483300Y-82572753D01*
X77453120Y-82572753D01*
X77437184Y-75790953D01*
X80606500Y-75790953D01*
X80606500Y-75948646D01*
X80637261Y-76103289D01*
X80637264Y-76103301D01*
X80697602Y-76248972D01*
X80697609Y-76248985D01*
X80785210Y-76380088D01*
X80785213Y-76380092D01*
X80896707Y-76491586D01*
X80896711Y-76491589D01*
X81027814Y-76579190D01*
X81027827Y-76579197D01*
X81173498Y-76639535D01*
X81173503Y-76639537D01*
X81328153Y-76670299D01*
X81328156Y-76670300D01*
X81328158Y-76670300D01*
X81485844Y-76670300D01*
X81485845Y-76670299D01*
X81640497Y-76639537D01*
X81786179Y-76579194D01*
X81917289Y-76491589D01*
X82028789Y-76380089D01*
X82116394Y-76248979D01*
X82176737Y-76103297D01*
X82196113Y-76005885D01*
X82207638Y-75947950D01*
X82240023Y-75886039D01*
X82241519Y-75884515D01*
X83645106Y-74480927D01*
X83645111Y-74480924D01*
X83655314Y-74470720D01*
X83655316Y-74470720D01*
X83767120Y-74358916D01*
X83771776Y-74350852D01*
X83819135Y-74268824D01*
X83819135Y-74268823D01*
X83846177Y-74221985D01*
X83887101Y-74069257D01*
X83887101Y-73911143D01*
X83887101Y-73903548D01*
X83887100Y-73903530D01*
X83887100Y-72537965D01*
X83906785Y-72470926D01*
X83907998Y-72469074D01*
X83995990Y-72337385D01*
X83995990Y-72337384D01*
X83995994Y-72337379D01*
X84056337Y-72191697D01*
X84084441Y-72050411D01*
X84087238Y-72036350D01*
X84119623Y-71974439D01*
X84121118Y-71972916D01*
X84540416Y-71553619D01*
X84601739Y-71520134D01*
X84628097Y-71517300D01*
X91977834Y-71517300D01*
X92044873Y-71536985D01*
X92046725Y-71538198D01*
X92178414Y-71626190D01*
X92178427Y-71626197D01*
X92283971Y-71669914D01*
X92324103Y-71686537D01*
X92478753Y-71717299D01*
X92478756Y-71717300D01*
X92478758Y-71717300D01*
X92636444Y-71717300D01*
X92636445Y-71717299D01*
X92791097Y-71686537D01*
X92936779Y-71626194D01*
X93067889Y-71538589D01*
X93179389Y-71427089D01*
X93266994Y-71295979D01*
X93327337Y-71150297D01*
X93358100Y-70995642D01*
X93358100Y-70837958D01*
X93358100Y-70837955D01*
X93358099Y-70837953D01*
X93327338Y-70683310D01*
X93327337Y-70683303D01*
X93271328Y-70548084D01*
X93266997Y-70537627D01*
X93266990Y-70537614D01*
X93179389Y-70406511D01*
X93179386Y-70406507D01*
X93166738Y-70393859D01*
X93133253Y-70332536D01*
X93138237Y-70262844D01*
X93151317Y-70237287D01*
X93153987Y-70233290D01*
X93153989Y-70233289D01*
X93241594Y-70102179D01*
X93301937Y-69956497D01*
X93332700Y-69801842D01*
X93332700Y-69644158D01*
X93332700Y-69644155D01*
X93332699Y-69644153D01*
X93312655Y-69543385D01*
X93301937Y-69489503D01*
X93246369Y-69355349D01*
X93241597Y-69343827D01*
X93241590Y-69343814D01*
X93153989Y-69212711D01*
X93153986Y-69212707D01*
X93042492Y-69101213D01*
X93042488Y-69101210D01*
X92911385Y-69013609D01*
X92911372Y-69013602D01*
X92765701Y-68953264D01*
X92765689Y-68953261D01*
X92611045Y-68922500D01*
X92611042Y-68922500D01*
X92453358Y-68922500D01*
X92453355Y-68922500D01*
X92298710Y-68953261D01*
X92298698Y-68953264D01*
X92153027Y-69013602D01*
X92153014Y-69013609D01*
X92021325Y-69101602D01*
X91954647Y-69122480D01*
X91952434Y-69122500D01*
X86685452Y-69122500D01*
X86618413Y-69102815D01*
X86572658Y-69050011D01*
X86563835Y-69022691D01*
X86555538Y-68980983D01*
X86545537Y-68930703D01*
X86512186Y-68850186D01*
X86485197Y-68785027D01*
X86485190Y-68785014D01*
X86397589Y-68653911D01*
X86397586Y-68653907D01*
X86286092Y-68542413D01*
X86286088Y-68542410D01*
X86154985Y-68454809D01*
X86154972Y-68454802D01*
X86009301Y-68394464D01*
X86009289Y-68394461D01*
X85854645Y-68363700D01*
X85854642Y-68363700D01*
X85696958Y-68363700D01*
X85696955Y-68363700D01*
X85542310Y-68394461D01*
X85542298Y-68394464D01*
X85396627Y-68454802D01*
X85396614Y-68454809D01*
X85265511Y-68542410D01*
X85265507Y-68542413D01*
X85154013Y-68653907D01*
X85154010Y-68653911D01*
X85066409Y-68785014D01*
X85066402Y-68785027D01*
X85006064Y-68930698D01*
X85006061Y-68930710D01*
X84975300Y-69085353D01*
X84975300Y-69243046D01*
X85006061Y-69397689D01*
X85006064Y-69397701D01*
X85066402Y-69543372D01*
X85066409Y-69543385D01*
X85154010Y-69674488D01*
X85154013Y-69674492D01*
X85265507Y-69785986D01*
X85265511Y-69785989D01*
X85396614Y-69873590D01*
X85396627Y-69873597D01*
X85542298Y-69933935D01*
X85542303Y-69933937D01*
X85696958Y-69964700D01*
X85697647Y-69964837D01*
X85714403Y-69973601D01*
X85732883Y-69977622D01*
X85757921Y-69996366D01*
X85759558Y-69997222D01*
X85761137Y-69998773D01*
X85866983Y-70104619D01*
X85900468Y-70165942D01*
X85895484Y-70235634D01*
X85853612Y-70291567D01*
X85788148Y-70315984D01*
X85779302Y-70316300D01*
X84414669Y-70316300D01*
X84414653Y-70316299D01*
X84407057Y-70316299D01*
X84248943Y-70316299D01*
X84188347Y-70332536D01*
X84096216Y-70357222D01*
X84068021Y-70373501D01*
X84068020Y-70373500D01*
X83959287Y-70436277D01*
X83959282Y-70436281D01*
X83271939Y-71123625D01*
X83210616Y-71157110D01*
X83208450Y-71157561D01*
X83053108Y-71188461D01*
X83053098Y-71188464D01*
X82907427Y-71248802D01*
X82907414Y-71248809D01*
X82776311Y-71336410D01*
X82776307Y-71336413D01*
X82664813Y-71447907D01*
X82664810Y-71447911D01*
X82577209Y-71579014D01*
X82577202Y-71579027D01*
X82516864Y-71724698D01*
X82516861Y-71724710D01*
X82486100Y-71879353D01*
X82486100Y-72037046D01*
X82516861Y-72191689D01*
X82516864Y-72191701D01*
X82577202Y-72337372D01*
X82577209Y-72337385D01*
X82665202Y-72469074D01*
X82686080Y-72535751D01*
X82686100Y-72537965D01*
X82686100Y-73690103D01*
X82666415Y-73757142D01*
X82649781Y-73777784D01*
X81392339Y-75035225D01*
X81331016Y-75068710D01*
X81328850Y-75069161D01*
X81173508Y-75100061D01*
X81173498Y-75100064D01*
X81027827Y-75160402D01*
X81027814Y-75160409D01*
X80896711Y-75248010D01*
X80896707Y-75248013D01*
X80785213Y-75359507D01*
X80785210Y-75359511D01*
X80697609Y-75490614D01*
X80697602Y-75490627D01*
X80637264Y-75636298D01*
X80637261Y-75636310D01*
X80606500Y-75790953D01*
X77437184Y-75790953D01*
X77411276Y-64765680D01*
X77430803Y-64698596D01*
X77483500Y-64652717D01*
X77552635Y-64642611D01*
X77616258Y-64671486D01*
X77639227Y-64697788D01*
X77645463Y-64707377D01*
X77649606Y-64717379D01*
X77737211Y-64848489D01*
X77737270Y-64848548D01*
X77738450Y-64850362D01*
X77748252Y-64883090D01*
X77758479Y-64915750D01*
X77758492Y-64917280D01*
X77758497Y-64917294D01*
X77758493Y-64917307D01*
X77758499Y-64917964D01*
X77758499Y-65026854D01*
X77758498Y-65026854D01*
X77799423Y-65179585D01*
X77828358Y-65229700D01*
X77828359Y-65229704D01*
X77828360Y-65229704D01*
X77863639Y-65290811D01*
X77878479Y-65316514D01*
X77878481Y-65316517D01*
X77997349Y-65435385D01*
X77997354Y-65435389D01*
X78701484Y-66139520D01*
X78701486Y-66139521D01*
X78701490Y-66139524D01*
X78835563Y-66216930D01*
X78838416Y-66218577D01*
X78991143Y-66259501D01*
X78991145Y-66259501D01*
X79156854Y-66259501D01*
X79156870Y-66259500D01*
X82808434Y-66259500D01*
X82875473Y-66279185D01*
X82877325Y-66280398D01*
X83009014Y-66368390D01*
X83009027Y-66368397D01*
X83154698Y-66428735D01*
X83154703Y-66428737D01*
X83309353Y-66459499D01*
X83309356Y-66459500D01*
X83309358Y-66459500D01*
X83467044Y-66459500D01*
X83467045Y-66459499D01*
X83621697Y-66428737D01*
X83767379Y-66368394D01*
X83898489Y-66280789D01*
X84009989Y-66169289D01*
X84097594Y-66038179D01*
X84157937Y-65892497D01*
X84188700Y-65737842D01*
X84188700Y-65580158D01*
X84188700Y-65580155D01*
X84188699Y-65580153D01*
X84180053Y-65536686D01*
X84157937Y-65425503D01*
X84131791Y-65362380D01*
X84097597Y-65279827D01*
X84097590Y-65279814D01*
X84009989Y-65148711D01*
X84009986Y-65148707D01*
X83898492Y-65037213D01*
X83898488Y-65037210D01*
X83767385Y-64949609D01*
X83767372Y-64949602D01*
X83621701Y-64889264D01*
X83621689Y-64889261D01*
X83467045Y-64858500D01*
X83467042Y-64858500D01*
X83309358Y-64858500D01*
X83309355Y-64858500D01*
X83154710Y-64889261D01*
X83154698Y-64889264D01*
X83009027Y-64949602D01*
X83009014Y-64949609D01*
X82877325Y-65037602D01*
X82810647Y-65058480D01*
X82808434Y-65058500D01*
X79370298Y-65058500D01*
X79303259Y-65038815D01*
X79282617Y-65022181D01*
X79194011Y-64933575D01*
X79100449Y-64840014D01*
X79066965Y-64778692D01*
X79071949Y-64709001D01*
X79073554Y-64704919D01*
X79128737Y-64571697D01*
X79159500Y-64417042D01*
X79159500Y-64259358D01*
X79159500Y-64259355D01*
X79157408Y-64248839D01*
X79157408Y-64248838D01*
X79153564Y-64229513D01*
X85017300Y-64229513D01*
X85017300Y-64418486D01*
X85046859Y-64605118D01*
X85105254Y-64784836D01*
X85172752Y-64917307D01*
X85191040Y-64953199D01*
X85302110Y-65106073D01*
X85435727Y-65239690D01*
X85588601Y-65350760D01*
X85756968Y-65436547D01*
X85936618Y-65494919D01*
X85994294Y-65534357D01*
X86021492Y-65598715D01*
X86022300Y-65612850D01*
X86022300Y-65645455D01*
X86022300Y-65645457D01*
X86022299Y-65645457D01*
X86050179Y-65785614D01*
X86050181Y-65785620D01*
X86104869Y-65917650D01*
X86104874Y-65917659D01*
X86184267Y-66036478D01*
X86184270Y-66036482D01*
X86285317Y-66137529D01*
X86285321Y-66137532D01*
X86404140Y-66216925D01*
X86404149Y-66216930D01*
X86434058Y-66229318D01*
X86536180Y-66271619D01*
X86536184Y-66271619D01*
X86536185Y-66271620D01*
X86676342Y-66299500D01*
X86676345Y-66299500D01*
X86819257Y-66299500D01*
X86915286Y-66280398D01*
X86959420Y-66271619D01*
X87091453Y-66216929D01*
X87210279Y-66137532D01*
X87311332Y-66036479D01*
X87390729Y-65917653D01*
X87445419Y-65785620D01*
X87465019Y-65687085D01*
X87473300Y-65645457D01*
X87473300Y-65502542D01*
X87445420Y-65362385D01*
X87445419Y-65362384D01*
X87445419Y-65362380D01*
X87390729Y-65230347D01*
X87390728Y-65230346D01*
X87390725Y-65230340D01*
X87311332Y-65111521D01*
X87311329Y-65111517D01*
X87277363Y-65077552D01*
X87243877Y-65016230D01*
X87248861Y-64946538D01*
X87254552Y-64933587D01*
X87330347Y-64784832D01*
X87388740Y-64605118D01*
X87397373Y-64550613D01*
X87418300Y-64418486D01*
X87418300Y-64229513D01*
X93277300Y-64229513D01*
X93277300Y-64418486D01*
X93306859Y-64605118D01*
X93365254Y-64784836D01*
X93451040Y-64953199D01*
X93516581Y-65043408D01*
X93540061Y-65109215D01*
X93524236Y-65177269D01*
X93503946Y-65203973D01*
X93487288Y-65220631D01*
X93487285Y-65220635D01*
X93411519Y-65351863D01*
X93391789Y-65425498D01*
X93372300Y-65498234D01*
X93372300Y-65649766D01*
X93383138Y-65690215D01*
X93411519Y-65796136D01*
X93449402Y-65861750D01*
X93487285Y-65927365D01*
X93594435Y-66034515D01*
X93725665Y-66110281D01*
X93872034Y-66149500D01*
X93872036Y-66149500D01*
X94023564Y-66149500D01*
X94023566Y-66149500D01*
X94169935Y-66110281D01*
X94301165Y-66034515D01*
X94408315Y-65927365D01*
X94484081Y-65796135D01*
X94523300Y-65649766D01*
X94523300Y-65638164D01*
X94532903Y-65605459D01*
X94542038Y-65572621D01*
X94542725Y-65572007D01*
X94542985Y-65571125D01*
X94568719Y-65548826D01*
X94594183Y-65526117D01*
X94595339Y-65525759D01*
X94595789Y-65525370D01*
X94627902Y-65515691D01*
X94686832Y-65506357D01*
X94731553Y-65499274D01*
X94800845Y-65508228D01*
X94838631Y-65534066D01*
X97102381Y-67797816D01*
X97135866Y-67859139D01*
X97138700Y-67885497D01*
X97138700Y-70337034D01*
X97119015Y-70404073D01*
X97117802Y-70405925D01*
X97029809Y-70537614D01*
X97029802Y-70537627D01*
X96969464Y-70683298D01*
X96969461Y-70683310D01*
X96938700Y-70837953D01*
X96938700Y-70995646D01*
X96969461Y-71150289D01*
X96969464Y-71150301D01*
X97029802Y-71295972D01*
X97029809Y-71295985D01*
X97117410Y-71427088D01*
X97117413Y-71427092D01*
X97228907Y-71538586D01*
X97228911Y-71538589D01*
X97360014Y-71626190D01*
X97360027Y-71626197D01*
X97465571Y-71669914D01*
X97505703Y-71686537D01*
X97660353Y-71717299D01*
X97660356Y-71717300D01*
X97660358Y-71717300D01*
X97818044Y-71717300D01*
X97818045Y-71717299D01*
X97972697Y-71686537D01*
X98118379Y-71626194D01*
X98249489Y-71538589D01*
X98360989Y-71427089D01*
X98448594Y-71295979D01*
X98508937Y-71150297D01*
X98539700Y-70995642D01*
X98539700Y-70837958D01*
X98539700Y-70837955D01*
X98539699Y-70837953D01*
X98508938Y-70683310D01*
X98508937Y-70683303D01*
X98452928Y-70548084D01*
X98448597Y-70537627D01*
X98448590Y-70537614D01*
X98360598Y-70405925D01*
X98339720Y-70339247D01*
X98339700Y-70337034D01*
X98339700Y-67506345D01*
X98339700Y-67506343D01*
X98298777Y-67353616D01*
X98298777Y-67353615D01*
X98246220Y-67262584D01*
X98219720Y-67216684D01*
X98107916Y-67104880D01*
X98107915Y-67104879D01*
X98103585Y-67100549D01*
X98103574Y-67100539D01*
X95687866Y-64684831D01*
X95654381Y-64623508D01*
X95653074Y-64577752D01*
X95654035Y-64571689D01*
X95663416Y-64512454D01*
X95678300Y-64418486D01*
X95678300Y-64229513D01*
X95648740Y-64042881D01*
X95607553Y-63916123D01*
X95590347Y-63863168D01*
X95590345Y-63863165D01*
X95590345Y-63863163D01*
X95545090Y-63774347D01*
X95504560Y-63694801D01*
X95393490Y-63541927D01*
X95259873Y-63408310D01*
X95106999Y-63297240D01*
X94938636Y-63211454D01*
X94758918Y-63153059D01*
X94572286Y-63123500D01*
X94572281Y-63123500D01*
X94383319Y-63123500D01*
X94383314Y-63123500D01*
X94196681Y-63153059D01*
X94016963Y-63211454D01*
X93848600Y-63297240D01*
X93769560Y-63354667D01*
X93695727Y-63408310D01*
X93695725Y-63408312D01*
X93695724Y-63408312D01*
X93562112Y-63541924D01*
X93562112Y-63541925D01*
X93562110Y-63541927D01*
X93521211Y-63598220D01*
X93451040Y-63694800D01*
X93365254Y-63863163D01*
X93306859Y-64042881D01*
X93277300Y-64229513D01*
X87418300Y-64229513D01*
X87388740Y-64042881D01*
X87347553Y-63916123D01*
X87330347Y-63863168D01*
X87330345Y-63863165D01*
X87330345Y-63863163D01*
X87285090Y-63774347D01*
X87244560Y-63694801D01*
X87133490Y-63541927D01*
X86999873Y-63408310D01*
X86846999Y-63297240D01*
X86678636Y-63211454D01*
X86498918Y-63153059D01*
X86312286Y-63123500D01*
X86312281Y-63123500D01*
X86123319Y-63123500D01*
X86123314Y-63123500D01*
X85936681Y-63153059D01*
X85756963Y-63211454D01*
X85588600Y-63297240D01*
X85509560Y-63354667D01*
X85435727Y-63408310D01*
X85435725Y-63408312D01*
X85435724Y-63408312D01*
X85302112Y-63541924D01*
X85302112Y-63541925D01*
X85302110Y-63541927D01*
X85261211Y-63598220D01*
X85191040Y-63694800D01*
X85105254Y-63863163D01*
X85046859Y-64042881D01*
X85017300Y-64229513D01*
X79153564Y-64229513D01*
X79128738Y-64104710D01*
X79128737Y-64104703D01*
X79125915Y-64097891D01*
X79068397Y-63959027D01*
X79068390Y-63959014D01*
X78980789Y-63827911D01*
X78980786Y-63827907D01*
X78869292Y-63716413D01*
X78869288Y-63716410D01*
X78738185Y-63628809D01*
X78738172Y-63628802D01*
X78592501Y-63568464D01*
X78592489Y-63568461D01*
X78437845Y-63537700D01*
X78437842Y-63537700D01*
X78280158Y-63537700D01*
X78280155Y-63537700D01*
X78125510Y-63568461D01*
X78125498Y-63568464D01*
X77979827Y-63628802D01*
X77979814Y-63628809D01*
X77848711Y-63716410D01*
X77848707Y-63716413D01*
X77737213Y-63827907D01*
X77737210Y-63827911D01*
X77649609Y-63959014D01*
X77649603Y-63959025D01*
X77647837Y-63963290D01*
X77603992Y-64017690D01*
X77537696Y-64039750D01*
X77469998Y-64022466D01*
X77422391Y-63971325D01*
X77409279Y-63916123D01*
X77396034Y-58279513D01*
X84657300Y-58279513D01*
X84657300Y-58468486D01*
X84686859Y-58655118D01*
X84745254Y-58834836D01*
X84779849Y-58902731D01*
X84831040Y-59003199D01*
X84942110Y-59156073D01*
X85075727Y-59289690D01*
X85228601Y-59400760D01*
X85308147Y-59441290D01*
X85396963Y-59486545D01*
X85396965Y-59486545D01*
X85396968Y-59486547D01*
X85481502Y-59514014D01*
X85576681Y-59544940D01*
X85763314Y-59574500D01*
X85763319Y-59574500D01*
X85952286Y-59574500D01*
X86138918Y-59544940D01*
X86318632Y-59486547D01*
X86486999Y-59400760D01*
X86639873Y-59289690D01*
X86773490Y-59156073D01*
X86884560Y-59003199D01*
X86970347Y-58834832D01*
X87028740Y-58655118D01*
X87058300Y-58468486D01*
X87058300Y-58279513D01*
X93637300Y-58279513D01*
X93637300Y-58468486D01*
X93666859Y-58655118D01*
X93725254Y-58834836D01*
X93759849Y-58902731D01*
X93811040Y-59003199D01*
X93922110Y-59156073D01*
X94055727Y-59289690D01*
X94208601Y-59400760D01*
X94288147Y-59441290D01*
X94376963Y-59486545D01*
X94376965Y-59486545D01*
X94376968Y-59486547D01*
X94461502Y-59514014D01*
X94556681Y-59544940D01*
X94743314Y-59574500D01*
X94743319Y-59574500D01*
X94932286Y-59574500D01*
X95118918Y-59544940D01*
X95298632Y-59486547D01*
X95466999Y-59400760D01*
X95619873Y-59289690D01*
X95753490Y-59156073D01*
X95864560Y-59003199D01*
X95950347Y-58834832D01*
X96008740Y-58655118D01*
X96038300Y-58468486D01*
X96038300Y-58279513D01*
X96008740Y-58092881D01*
X95950345Y-57913163D01*
X95864559Y-57744800D01*
X95753490Y-57591927D01*
X95619873Y-57458310D01*
X95466999Y-57347240D01*
X95298636Y-57261454D01*
X95118918Y-57203059D01*
X94932286Y-57173500D01*
X94932281Y-57173500D01*
X94743319Y-57173500D01*
X94743314Y-57173500D01*
X94556681Y-57203059D01*
X94376963Y-57261454D01*
X94208600Y-57347240D01*
X94121379Y-57410610D01*
X94055727Y-57458310D01*
X94055725Y-57458312D01*
X94055724Y-57458312D01*
X93922112Y-57591924D01*
X93922112Y-57591925D01*
X93922110Y-57591927D01*
X93874410Y-57657579D01*
X93811040Y-57744800D01*
X93725254Y-57913163D01*
X93666859Y-58092881D01*
X93637300Y-58279513D01*
X87058300Y-58279513D01*
X87028740Y-58092881D01*
X86970345Y-57913163D01*
X86884559Y-57744800D01*
X86773490Y-57591927D01*
X86639873Y-57458310D01*
X86486999Y-57347240D01*
X86318636Y-57261454D01*
X86138918Y-57203059D01*
X85952286Y-57173500D01*
X85952281Y-57173500D01*
X85763319Y-57173500D01*
X85763314Y-57173500D01*
X85576681Y-57203059D01*
X85396963Y-57261454D01*
X85228600Y-57347240D01*
X85141379Y-57410610D01*
X85075727Y-57458310D01*
X85075725Y-57458312D01*
X85075724Y-57458312D01*
X84942112Y-57591924D01*
X84942112Y-57591925D01*
X84942110Y-57591927D01*
X84894410Y-57657579D01*
X84831040Y-57744800D01*
X84745254Y-57913163D01*
X84686859Y-58092881D01*
X84657300Y-58279513D01*
X77396034Y-58279513D01*
X77392822Y-56912535D01*
X164384500Y-56912535D01*
X164384500Y-58708270D01*
X164384501Y-58708276D01*
X164390908Y-58767883D01*
X164441202Y-58902728D01*
X164441206Y-58902735D01*
X164527452Y-59017944D01*
X164527455Y-59017947D01*
X164642664Y-59104193D01*
X164642671Y-59104197D01*
X164774082Y-59153210D01*
X164830016Y-59195081D01*
X164854433Y-59260545D01*
X164839582Y-59328818D01*
X164818431Y-59357073D01*
X164704889Y-59470615D01*
X164579951Y-59642579D01*
X164483444Y-59831985D01*
X164417753Y-60034160D01*
X164384500Y-60244113D01*
X164384500Y-60456686D01*
X164417166Y-60662935D01*
X164417754Y-60666643D01*
X164426590Y-60693838D01*
X164483444Y-60868814D01*
X164579951Y-61058220D01*
X164704890Y-61230186D01*
X164855213Y-61380509D01*
X165027182Y-61505450D01*
X165035946Y-61509916D01*
X165086742Y-61557891D01*
X165103536Y-61625712D01*
X165080998Y-61691847D01*
X165035946Y-61730884D01*
X165027182Y-61735349D01*
X164855213Y-61860290D01*
X164704890Y-62010613D01*
X164579951Y-62182579D01*
X164483444Y-62371985D01*
X164417753Y-62574160D01*
X164405000Y-62654679D01*
X164384500Y-62784113D01*
X164384500Y-62996687D01*
X164417754Y-63206643D01*
X164465853Y-63354677D01*
X164483444Y-63408814D01*
X164579951Y-63598220D01*
X164704890Y-63770186D01*
X164855213Y-63920509D01*
X165027182Y-64045450D01*
X165035946Y-64049916D01*
X165086742Y-64097891D01*
X165103536Y-64165712D01*
X165080998Y-64231847D01*
X165035946Y-64270884D01*
X165027182Y-64275349D01*
X164855213Y-64400290D01*
X164704890Y-64550613D01*
X164579951Y-64722579D01*
X164483444Y-64911985D01*
X164417753Y-65114160D01*
X164389774Y-65290817D01*
X164384500Y-65324113D01*
X164384500Y-65536687D01*
X164390094Y-65572007D01*
X164416360Y-65737846D01*
X164417754Y-65746643D01*
X164476474Y-65927365D01*
X164483444Y-65948814D01*
X164579951Y-66138220D01*
X164704890Y-66310186D01*
X164855213Y-66460509D01*
X165027182Y-66585450D01*
X165035946Y-66589916D01*
X165086742Y-66637891D01*
X165103536Y-66705712D01*
X165080998Y-66771847D01*
X165035946Y-66810884D01*
X165027182Y-66815349D01*
X164855213Y-66940290D01*
X164704890Y-67090613D01*
X164579951Y-67262579D01*
X164483444Y-67451985D01*
X164417753Y-67654160D01*
X164395000Y-67797816D01*
X164384500Y-67864113D01*
X164384500Y-68076687D01*
X164417754Y-68286643D01*
X164472392Y-68454802D01*
X164483444Y-68488814D01*
X164579951Y-68678220D01*
X164704890Y-68850186D01*
X164855213Y-69000509D01*
X165027182Y-69125450D01*
X165035946Y-69129916D01*
X165086742Y-69177891D01*
X165103536Y-69245712D01*
X165080998Y-69311847D01*
X165035946Y-69350884D01*
X165027182Y-69355349D01*
X164855213Y-69480290D01*
X164704890Y-69630613D01*
X164579951Y-69802579D01*
X164483444Y-69991985D01*
X164483443Y-69991987D01*
X164483443Y-69991988D01*
X164481742Y-69997222D01*
X164417753Y-70194160D01*
X164398458Y-70315984D01*
X164384500Y-70404113D01*
X164384500Y-70616687D01*
X164417754Y-70826643D01*
X164472665Y-70995642D01*
X164483444Y-71028814D01*
X164579951Y-71218220D01*
X164704890Y-71390186D01*
X164855213Y-71540509D01*
X165027182Y-71665450D01*
X165035946Y-71669916D01*
X165086742Y-71717891D01*
X165103536Y-71785712D01*
X165080998Y-71851847D01*
X165035946Y-71890884D01*
X165027182Y-71895349D01*
X164855213Y-72020290D01*
X164704890Y-72170613D01*
X164579951Y-72342579D01*
X164483444Y-72531985D01*
X164417753Y-72734160D01*
X164400268Y-72844558D01*
X164384500Y-72944113D01*
X164384500Y-73156687D01*
X164391441Y-73200511D01*
X164417753Y-73366639D01*
X164483444Y-73568814D01*
X164579951Y-73758220D01*
X164704890Y-73930186D01*
X164855213Y-74080509D01*
X165027182Y-74205450D01*
X165035946Y-74209916D01*
X165086742Y-74257891D01*
X165103536Y-74325712D01*
X165080998Y-74391847D01*
X165035946Y-74430884D01*
X165027182Y-74435349D01*
X164855213Y-74560290D01*
X164704890Y-74710613D01*
X164579951Y-74882579D01*
X164483444Y-75071985D01*
X164483443Y-75071987D01*
X164483443Y-75071988D01*
X164474321Y-75100063D01*
X164417753Y-75274160D01*
X164384500Y-75484113D01*
X164384500Y-75696686D01*
X164414490Y-75886039D01*
X164417754Y-75906643D01*
X164481652Y-76103301D01*
X164483444Y-76108814D01*
X164579951Y-76298220D01*
X164704890Y-76470186D01*
X164855213Y-76620509D01*
X165027182Y-76745450D01*
X165035946Y-76749916D01*
X165086742Y-76797891D01*
X165103536Y-76865712D01*
X165080998Y-76931847D01*
X165035946Y-76970884D01*
X165027182Y-76975349D01*
X164855213Y-77100290D01*
X164704890Y-77250613D01*
X164579951Y-77422579D01*
X164483444Y-77611985D01*
X164417753Y-77814160D01*
X164384500Y-78024113D01*
X164384500Y-78236686D01*
X164417753Y-78446639D01*
X164483444Y-78648814D01*
X164579951Y-78838220D01*
X164704890Y-79010186D01*
X164855213Y-79160509D01*
X165027182Y-79285450D01*
X165035946Y-79289916D01*
X165086742Y-79337891D01*
X165103536Y-79405712D01*
X165080998Y-79471847D01*
X165035946Y-79510884D01*
X165027182Y-79515349D01*
X164855213Y-79640290D01*
X164704890Y-79790613D01*
X164579951Y-79962579D01*
X164483444Y-80151985D01*
X164417753Y-80354160D01*
X164384500Y-80564113D01*
X164384500Y-80776686D01*
X164417753Y-80986639D01*
X164483444Y-81188814D01*
X164579951Y-81378220D01*
X164704890Y-81550186D01*
X164855213Y-81700509D01*
X165027182Y-81825450D01*
X165035946Y-81829916D01*
X165086742Y-81877891D01*
X165103536Y-81945712D01*
X165080998Y-82011847D01*
X165035946Y-82050884D01*
X165027182Y-82055349D01*
X164855213Y-82180290D01*
X164704890Y-82330613D01*
X164579951Y-82502579D01*
X164483444Y-82691985D01*
X164417753Y-82894160D01*
X164403752Y-82982559D01*
X164384500Y-83104113D01*
X164384500Y-83316687D01*
X164417754Y-83526643D01*
X164479385Y-83716324D01*
X164483444Y-83728814D01*
X164579951Y-83918220D01*
X164704890Y-84090186D01*
X164855213Y-84240509D01*
X165027182Y-84365450D01*
X165035946Y-84369916D01*
X165086742Y-84417891D01*
X165103536Y-84485712D01*
X165080998Y-84551847D01*
X165035946Y-84590884D01*
X165027182Y-84595349D01*
X164855213Y-84720290D01*
X164704890Y-84870613D01*
X164579951Y-85042579D01*
X164483444Y-85231985D01*
X164417753Y-85434160D01*
X164398562Y-85555331D01*
X164384500Y-85644113D01*
X164384500Y-85856687D01*
X164417754Y-86066643D01*
X164459261Y-86194389D01*
X164483444Y-86268814D01*
X164579951Y-86458220D01*
X164704890Y-86630186D01*
X164855213Y-86780509D01*
X165027179Y-86905448D01*
X165027181Y-86905449D01*
X165027184Y-86905451D01*
X165216588Y-87001957D01*
X165418757Y-87067646D01*
X165628713Y-87100900D01*
X165628714Y-87100900D01*
X165841286Y-87100900D01*
X165841287Y-87100900D01*
X166051243Y-87067646D01*
X166253412Y-87001957D01*
X166442816Y-86905451D01*
X166464789Y-86889486D01*
X166614786Y-86780509D01*
X166614788Y-86780506D01*
X166614792Y-86780504D01*
X166765104Y-86630192D01*
X166765106Y-86630188D01*
X166765109Y-86630186D01*
X166890048Y-86458220D01*
X166890047Y-86458220D01*
X166890051Y-86458216D01*
X166986557Y-86268812D01*
X167052246Y-86066643D01*
X167085500Y-85856687D01*
X167085500Y-85644113D01*
X167052246Y-85434157D01*
X166986557Y-85231988D01*
X166890051Y-85042584D01*
X166890049Y-85042581D01*
X166890048Y-85042579D01*
X166765109Y-84870613D01*
X166614786Y-84720290D01*
X166442820Y-84595351D01*
X166442115Y-84594991D01*
X166434054Y-84590885D01*
X166383259Y-84542912D01*
X166366463Y-84475092D01*
X166388999Y-84408956D01*
X166434054Y-84369915D01*
X166442816Y-84365451D01*
X166464789Y-84349486D01*
X166614786Y-84240509D01*
X166614788Y-84240506D01*
X166614792Y-84240504D01*
X166765104Y-84090192D01*
X166765106Y-84090188D01*
X166765109Y-84090186D01*
X166890048Y-83918220D01*
X166890047Y-83918220D01*
X166890051Y-83918216D01*
X166986557Y-83728812D01*
X167052246Y-83526643D01*
X167085500Y-83316687D01*
X167085500Y-83104113D01*
X167052246Y-82894157D01*
X166986557Y-82691988D01*
X166890051Y-82502584D01*
X166890049Y-82502581D01*
X166890048Y-82502579D01*
X166765109Y-82330613D01*
X166614786Y-82180290D01*
X166442820Y-82055351D01*
X166442115Y-82054991D01*
X166434054Y-82050885D01*
X166383259Y-82002912D01*
X166366463Y-81935092D01*
X166388999Y-81868956D01*
X166434054Y-81829915D01*
X166442816Y-81825451D01*
X166534145Y-81759097D01*
X166614786Y-81700509D01*
X166614788Y-81700506D01*
X166614792Y-81700504D01*
X166765104Y-81550192D01*
X166765106Y-81550188D01*
X166765109Y-81550186D01*
X166890048Y-81378220D01*
X166890047Y-81378220D01*
X166890051Y-81378216D01*
X166986557Y-81188812D01*
X167052246Y-80986643D01*
X167085500Y-80776687D01*
X167085500Y-80564113D01*
X167052246Y-80354157D01*
X166986557Y-80151988D01*
X166890051Y-79962584D01*
X166890049Y-79962581D01*
X166890048Y-79962579D01*
X166765109Y-79790613D01*
X166614786Y-79640290D01*
X166442820Y-79515351D01*
X166442115Y-79514991D01*
X166434054Y-79510885D01*
X166383259Y-79462912D01*
X166366463Y-79395092D01*
X166388999Y-79328956D01*
X166434054Y-79289915D01*
X166442816Y-79285451D01*
X166464789Y-79269486D01*
X166614786Y-79160509D01*
X166614788Y-79160506D01*
X166614792Y-79160504D01*
X166765104Y-79010192D01*
X166765106Y-79010188D01*
X166765109Y-79010186D01*
X166890048Y-78838220D01*
X166890047Y-78838220D01*
X166890051Y-78838216D01*
X166986557Y-78648812D01*
X167052246Y-78446643D01*
X167085500Y-78236687D01*
X167085500Y-78024113D01*
X167052246Y-77814157D01*
X166986557Y-77611988D01*
X166890051Y-77422584D01*
X166890049Y-77422581D01*
X166890048Y-77422579D01*
X166765109Y-77250613D01*
X166614786Y-77100290D01*
X166442820Y-76975351D01*
X166442115Y-76974991D01*
X166434054Y-76970885D01*
X166383259Y-76922912D01*
X166366463Y-76855092D01*
X166388999Y-76788956D01*
X166434054Y-76749915D01*
X166442816Y-76745451D01*
X166464789Y-76729486D01*
X166614786Y-76620509D01*
X166614793Y-76620503D01*
X166656106Y-76579190D01*
X166765104Y-76470192D01*
X166765106Y-76470188D01*
X166765109Y-76470186D01*
X166890048Y-76298220D01*
X166890047Y-76298220D01*
X166890051Y-76298216D01*
X166986557Y-76108812D01*
X167052246Y-75906643D01*
X167085500Y-75696687D01*
X167085500Y-75484113D01*
X167052246Y-75274157D01*
X166986557Y-75071988D01*
X166890051Y-74882584D01*
X166890049Y-74882581D01*
X166890048Y-74882579D01*
X166765109Y-74710613D01*
X166614786Y-74560290D01*
X166442820Y-74435351D01*
X166442115Y-74434991D01*
X166434054Y-74430885D01*
X166383259Y-74382912D01*
X166366463Y-74315092D01*
X166388999Y-74248956D01*
X166434054Y-74209915D01*
X166442816Y-74205451D01*
X166476181Y-74181210D01*
X166614786Y-74080509D01*
X166614788Y-74080506D01*
X166614792Y-74080504D01*
X166765104Y-73930192D01*
X166765106Y-73930188D01*
X166765109Y-73930186D01*
X166890048Y-73758220D01*
X166890047Y-73758220D01*
X166890051Y-73758216D01*
X166986557Y-73568812D01*
X167052246Y-73366643D01*
X167085500Y-73156687D01*
X167085500Y-72944113D01*
X167052246Y-72734157D01*
X166986557Y-72531988D01*
X166890051Y-72342584D01*
X166890049Y-72342581D01*
X166890048Y-72342579D01*
X166765109Y-72170613D01*
X166614786Y-72020290D01*
X166442820Y-71895351D01*
X166442115Y-71894991D01*
X166434054Y-71890885D01*
X166383259Y-71842912D01*
X166366463Y-71775092D01*
X166388999Y-71708956D01*
X166434054Y-71669915D01*
X166442816Y-71665451D01*
X166546098Y-71590413D01*
X166614786Y-71540509D01*
X166614788Y-71540506D01*
X166614792Y-71540504D01*
X166765104Y-71390192D01*
X166765106Y-71390188D01*
X166765109Y-71390186D01*
X166890048Y-71218220D01*
X166890047Y-71218220D01*
X166890051Y-71218216D01*
X166986557Y-71028812D01*
X167052246Y-70826643D01*
X167085500Y-70616687D01*
X167085500Y-70404113D01*
X167052246Y-70194157D01*
X166986557Y-69991988D01*
X166890051Y-69802584D01*
X166890049Y-69802581D01*
X166890048Y-69802579D01*
X166765109Y-69630613D01*
X166614786Y-69480290D01*
X166442820Y-69355351D01*
X166442115Y-69354991D01*
X166434054Y-69350885D01*
X166383259Y-69302912D01*
X166366463Y-69235092D01*
X166388999Y-69168956D01*
X166434054Y-69129915D01*
X166442816Y-69125451D01*
X166546651Y-69050011D01*
X166614786Y-69000509D01*
X166614788Y-69000506D01*
X166614792Y-69000504D01*
X166765104Y-68850192D01*
X166765106Y-68850188D01*
X166765109Y-68850186D01*
X166890048Y-68678220D01*
X166890047Y-68678220D01*
X166890051Y-68678216D01*
X166986557Y-68488812D01*
X167052246Y-68286643D01*
X167085500Y-68076687D01*
X167085500Y-67864113D01*
X167052246Y-67654157D01*
X166986557Y-67451988D01*
X166890051Y-67262584D01*
X166890049Y-67262581D01*
X166890048Y-67262579D01*
X166765109Y-67090613D01*
X166614786Y-66940290D01*
X166442820Y-66815351D01*
X166442115Y-66814991D01*
X166434054Y-66810885D01*
X166383259Y-66762912D01*
X166366463Y-66695092D01*
X166388999Y-66628956D01*
X166434054Y-66589915D01*
X166442816Y-66585451D01*
X166464789Y-66569486D01*
X166614786Y-66460509D01*
X166614788Y-66460506D01*
X166614792Y-66460504D01*
X166765104Y-66310192D01*
X166765106Y-66310188D01*
X166765109Y-66310186D01*
X166890048Y-66138220D01*
X166890047Y-66138220D01*
X166890051Y-66138216D01*
X166986557Y-65948812D01*
X167052246Y-65746643D01*
X167085500Y-65536687D01*
X167085500Y-65324113D01*
X167052246Y-65114157D01*
X166986557Y-64911988D01*
X166890051Y-64722584D01*
X166890049Y-64722581D01*
X166890048Y-64722579D01*
X166765109Y-64550613D01*
X166614786Y-64400290D01*
X166442820Y-64275351D01*
X166442115Y-64274991D01*
X166434054Y-64270885D01*
X166383259Y-64222912D01*
X166366463Y-64155092D01*
X166388999Y-64088956D01*
X166434054Y-64049915D01*
X166442816Y-64045451D01*
X166497742Y-64005545D01*
X166614786Y-63920509D01*
X166614788Y-63920506D01*
X166614792Y-63920504D01*
X166765104Y-63770192D01*
X166765106Y-63770188D01*
X166765109Y-63770186D01*
X166890048Y-63598220D01*
X166890047Y-63598220D01*
X166890051Y-63598216D01*
X166986557Y-63408812D01*
X167052246Y-63206643D01*
X167085500Y-62996687D01*
X167085500Y-62784113D01*
X167052246Y-62574157D01*
X166986557Y-62371988D01*
X166890051Y-62182584D01*
X166890049Y-62182581D01*
X166890048Y-62182579D01*
X166765109Y-62010613D01*
X166614786Y-61860290D01*
X166442820Y-61735351D01*
X166442115Y-61734991D01*
X166434054Y-61730885D01*
X166383259Y-61682912D01*
X166366463Y-61615092D01*
X166388999Y-61548956D01*
X166434054Y-61509915D01*
X166442816Y-61505451D01*
X166464789Y-61489486D01*
X166614786Y-61380509D01*
X166614788Y-61380506D01*
X166614792Y-61380504D01*
X166765104Y-61230192D01*
X166765106Y-61230188D01*
X166765109Y-61230186D01*
X166890048Y-61058220D01*
X166890047Y-61058220D01*
X166890051Y-61058216D01*
X166986557Y-60868812D01*
X167052246Y-60666643D01*
X167085500Y-60456687D01*
X167085500Y-60244113D01*
X167052246Y-60034157D01*
X166986557Y-59831988D01*
X166890051Y-59642584D01*
X166890049Y-59642581D01*
X166890048Y-59642579D01*
X166765109Y-59470613D01*
X166651569Y-59357073D01*
X166618084Y-59295750D01*
X166623068Y-59226058D01*
X166664940Y-59170125D01*
X166695915Y-59153210D01*
X166827331Y-59104196D01*
X166942546Y-59017946D01*
X167028796Y-58902731D01*
X167079091Y-58767883D01*
X167085500Y-58708273D01*
X167085499Y-56912528D01*
X167079091Y-56852917D01*
X167028796Y-56718069D01*
X167028795Y-56718068D01*
X167028793Y-56718064D01*
X166942547Y-56602855D01*
X166942544Y-56602852D01*
X166827335Y-56516606D01*
X166827328Y-56516602D01*
X166692482Y-56466308D01*
X166692483Y-56466308D01*
X166632883Y-56459901D01*
X166632881Y-56459900D01*
X166632873Y-56459900D01*
X166632864Y-56459900D01*
X164837129Y-56459900D01*
X164837123Y-56459901D01*
X164777516Y-56466308D01*
X164642671Y-56516602D01*
X164642664Y-56516606D01*
X164527455Y-56602852D01*
X164527452Y-56602855D01*
X164441206Y-56718064D01*
X164441202Y-56718071D01*
X164390908Y-56852917D01*
X164384501Y-56912516D01*
X164384501Y-56912523D01*
X164384500Y-56912535D01*
X77392822Y-56912535D01*
X77389302Y-55414603D01*
X77408829Y-55347520D01*
X77461526Y-55301641D01*
X77513426Y-55290314D01*
X173217132Y-55388878D01*
G37*
G04 #@! TD.AperFunction*
G04 #@! TA.AperFunction,NonConductor*
G36*
X107282503Y-86542184D02*
G01*
X107288981Y-86548216D01*
X114759292Y-94018527D01*
X114792777Y-94079850D01*
X114787793Y-94149542D01*
X114745921Y-94205475D01*
X114680457Y-94229892D01*
X114661878Y-94229825D01*
X114660290Y-94229700D01*
X114660287Y-94229700D01*
X114447713Y-94229700D01*
X114447708Y-94229700D01*
X114322632Y-94249510D01*
X114253338Y-94240555D01*
X114215553Y-94214718D01*
X107113619Y-87112784D01*
X107080134Y-87051461D01*
X107077300Y-87025103D01*
X107077300Y-86635897D01*
X107096985Y-86568858D01*
X107149789Y-86523103D01*
X107218947Y-86513159D01*
X107282503Y-86542184D01*
G37*
G04 #@! TD.AperFunction*
G04 #@! TA.AperFunction,NonConductor*
G36*
X108146103Y-84814984D02*
G01*
X108152581Y-84821016D01*
X117359343Y-94027778D01*
X117392828Y-94089101D01*
X117387844Y-94158793D01*
X117345972Y-94214726D01*
X117280508Y-94239143D01*
X117252268Y-94237933D01*
X117200287Y-94229700D01*
X116987713Y-94229700D01*
X116948737Y-94235873D01*
X116774924Y-94263402D01*
X116705630Y-94254447D01*
X116667845Y-94228610D01*
X107977219Y-85537984D01*
X107943734Y-85476661D01*
X107940900Y-85450303D01*
X107940900Y-84908697D01*
X107960585Y-84841658D01*
X108013389Y-84795903D01*
X108082547Y-84785959D01*
X108146103Y-84814984D01*
G37*
G04 #@! TD.AperFunction*
G04 #@! TA.AperFunction,NonConductor*
G36*
X106241103Y-87939184D02*
G01*
X106247581Y-87945216D01*
X112339703Y-94037338D01*
X112373188Y-94098661D01*
X112368204Y-94168353D01*
X112326332Y-94224286D01*
X112260868Y-94248703D01*
X112232625Y-94247492D01*
X112120287Y-94229700D01*
X111907713Y-94229700D01*
X111851793Y-94238557D01*
X111697755Y-94262954D01*
X111674643Y-94270463D01*
X111604801Y-94272456D01*
X111548647Y-94240212D01*
X106072219Y-88763784D01*
X106038734Y-88702461D01*
X106035900Y-88676103D01*
X106035900Y-88032897D01*
X106055585Y-87965858D01*
X106108389Y-87920103D01*
X106177547Y-87910159D01*
X106241103Y-87939184D01*
G37*
G04 #@! TD.AperFunction*
G04 #@! TA.AperFunction,NonConductor*
G36*
X105148903Y-89539384D02*
G01*
X105155381Y-89545416D01*
X109627984Y-94018019D01*
X109661469Y-94079342D01*
X109656485Y-94149034D01*
X109614613Y-94204967D01*
X109549149Y-94229384D01*
X109540303Y-94229700D01*
X109367713Y-94229700D01*
X109311793Y-94238557D01*
X109157755Y-94262954D01*
X109134643Y-94270463D01*
X109064801Y-94272456D01*
X109008647Y-94240212D01*
X104980019Y-90211584D01*
X104946534Y-90150261D01*
X104943700Y-90123903D01*
X104943700Y-89633097D01*
X104963385Y-89566058D01*
X105016189Y-89520303D01*
X105085347Y-89510359D01*
X105148903Y-89539384D01*
G37*
G04 #@! TD.AperFunction*
G04 #@! TA.AperFunction,NonConductor*
G36*
X104234503Y-91164984D02*
G01*
X104240981Y-91171016D01*
X107087984Y-94018019D01*
X107121469Y-94079342D01*
X107116485Y-94149034D01*
X107074613Y-94204967D01*
X107009149Y-94229384D01*
X107000303Y-94229700D01*
X106827713Y-94229700D01*
X106771793Y-94238557D01*
X106617755Y-94262954D01*
X106594643Y-94270463D01*
X106524801Y-94272456D01*
X106468647Y-94240212D01*
X104065619Y-91837184D01*
X104032134Y-91775861D01*
X104029300Y-91749503D01*
X104029300Y-91258697D01*
X104048985Y-91191658D01*
X104101789Y-91145903D01*
X104170947Y-91135959D01*
X104234503Y-91164984D01*
G37*
G04 #@! TD.AperFunction*
G04 #@! TA.AperFunction,NonConductor*
G36*
X110279703Y-81665384D02*
G01*
X110286181Y-81671416D01*
X122698995Y-94084230D01*
X122732480Y-94145553D01*
X122727496Y-94215245D01*
X122685624Y-94271178D01*
X122620160Y-94295595D01*
X122572996Y-94289842D01*
X122490240Y-94262953D01*
X122328957Y-94237408D01*
X122280287Y-94229700D01*
X122280286Y-94229700D01*
X122232097Y-94229700D01*
X122165058Y-94210015D01*
X122144416Y-94193381D01*
X110110819Y-82159784D01*
X110077334Y-82098461D01*
X110074500Y-82072103D01*
X110074500Y-81759097D01*
X110094185Y-81692058D01*
X110146989Y-81646303D01*
X110216147Y-81636359D01*
X110279703Y-81665384D01*
G37*
G04 #@! TD.AperFunction*
G04 #@! TA.AperFunction,NonConductor*
G36*
X109263703Y-83011584D02*
G01*
X109270181Y-83017616D01*
X120473061Y-94220496D01*
X120506546Y-94281819D01*
X120501562Y-94351511D01*
X120459690Y-94407444D01*
X120394226Y-94431861D01*
X120329085Y-94418662D01*
X120152414Y-94328644D01*
X120152413Y-94328643D01*
X120152412Y-94328643D01*
X119950243Y-94262954D01*
X119950241Y-94262953D01*
X119950240Y-94262953D01*
X119788957Y-94237408D01*
X119740287Y-94229700D01*
X119527713Y-94229700D01*
X119358777Y-94256456D01*
X119289484Y-94247501D01*
X119251699Y-94221664D01*
X109094819Y-84064784D01*
X109061334Y-84003461D01*
X109058500Y-83977103D01*
X109058500Y-83105297D01*
X109078185Y-83038258D01*
X109130989Y-82992503D01*
X109200147Y-82982559D01*
X109263703Y-83011584D01*
G37*
G04 #@! TD.AperFunction*
G04 #@! TA.AperFunction,NonConductor*
G36*
X125198522Y-96913957D02*
G01*
X126532384Y-98247819D01*
X126565869Y-98309142D01*
X126560885Y-98378834D01*
X126519013Y-98434767D01*
X126453549Y-98459184D01*
X126444703Y-98459500D01*
X125953897Y-98459500D01*
X125886858Y-98439815D01*
X125866216Y-98423181D01*
X124585416Y-97142381D01*
X124551931Y-97081058D01*
X124556915Y-97011366D01*
X124598787Y-96955433D01*
X124664251Y-96931016D01*
X124673097Y-96930700D01*
X124820286Y-96930700D01*
X124820287Y-96930700D01*
X125030243Y-96897446D01*
X125072523Y-96883707D01*
X125142362Y-96881711D01*
X125198522Y-96913957D01*
G37*
G04 #@! TD.AperFunction*
G04 #@! TA.AperFunction,NonConductor*
G36*
X166515303Y-113695821D02*
G01*
X166537202Y-113720643D01*
X166586802Y-113794874D01*
X166607680Y-113861551D01*
X166607700Y-113863765D01*
X166607700Y-123169302D01*
X166588015Y-123236341D01*
X166571381Y-123256983D01*
X152720984Y-137107381D01*
X152659661Y-137140866D01*
X152633303Y-137143700D01*
X129811512Y-137143700D01*
X129805263Y-137141865D01*
X129798858Y-137143053D01*
X129772149Y-137132141D01*
X129744473Y-137124015D01*
X129740207Y-137119092D01*
X129734177Y-137116629D01*
X129717606Y-137093009D01*
X129698718Y-137071211D01*
X129697791Y-137064764D01*
X129694050Y-137059432D01*
X129692879Y-137030608D01*
X129688774Y-137002053D01*
X129691414Y-136994509D01*
X129691216Y-136989620D01*
X129698856Y-136973247D01*
X129704563Y-136956947D01*
X129707633Y-136951714D01*
X129724851Y-136928016D01*
X129746702Y-136885129D01*
X129748570Y-136881947D01*
X129771450Y-136860435D01*
X129793009Y-136837609D01*
X129796828Y-136836575D01*
X129799475Y-136834088D01*
X129820312Y-136830223D01*
X129855519Y-136820700D01*
X152084731Y-136820700D01*
X152084747Y-136820701D01*
X152092343Y-136820701D01*
X152250454Y-136820701D01*
X152250457Y-136820701D01*
X152403185Y-136779777D01*
X152453304Y-136750839D01*
X152540116Y-136700720D01*
X152651920Y-136588916D01*
X152651920Y-136588914D01*
X152662128Y-136578707D01*
X152662129Y-136578704D01*
X164412119Y-124828716D01*
X164470678Y-124770157D01*
X164470690Y-124770143D01*
X166190120Y-123050716D01*
X166269177Y-122913784D01*
X166310101Y-122761057D01*
X166310101Y-122602942D01*
X166310101Y-122595347D01*
X166310100Y-122595329D01*
X166310100Y-113789534D01*
X166329785Y-113722495D01*
X166382589Y-113676740D01*
X166451747Y-113666796D01*
X166515303Y-113695821D01*
G37*
G04 #@! TD.AperFunction*
M02*
