M48
; DRILL file {KiCad 9.0.0} date 2025-03-31T20:00:44-0500
; FORMAT={-:-/ absolute / metric / decimal}
; #@! TF.CreationDate,2025-03-31T20:00:44-05:00
; #@! TF.GenerationSoftware,Kicad,Pcbnew,9.0.0
; #@! TF.FileFunction,Plated,1,2,PTH
FMAT,2
METRIC
; #@! TA.AperFunction,Plated,PTH,ViaDrill
T1C0.305
; #@! TA.AperFunction,Plated,PTH,ViaDrill
T2C0.400
; #@! TA.AperFunction,Plated,PTH,ComponentDrill
T3C0.800
; #@! TA.AperFunction,Plated,PTH,ComponentDrill
T4C1.000
; #@! TA.AperFunction,Plated,PTH,ComponentDrill
T5C1.050
; #@! TA.AperFunction,Plated,PTH,ComponentDrill
T6C1.100
%
G90
G05
T1
X81.94Y-120.193
X82.347Y-128.575
X88.036Y-129.743
X88.24Y-119.532
X89.713Y-125.07
X106.934Y-70.917
X116.078Y-125.12
X121.92Y-124.816
X122.326Y-150.724
X126.644Y-137.973
X128.27Y-127.051
X128.88Y-125.425
X134.417Y-126.594
X137.109Y-123.546
X138.024Y-117.043
X138.786Y-102.413
X139.192Y-121.463
X141.224Y-148.488
X142.443Y-128.27
X145.847Y-129.845
X150.52Y-122.987
X151.638Y-91.491
X153.619Y-122.987
X156.312Y-147.879
X156.82Y-91.846
X163.576Y-93.015
X163.906Y-73.418
X167.081Y-119.634
X167.259Y-74.484
X167.792Y-106.477
X167.894Y-98.882
X168.529Y-110.109
X168.656Y-120.396
X169.164Y-109.576
X169.342Y-106.299
X169.443Y-120.294
X170.028Y-119.482
X170.294Y-120.409
X170.409Y-121.59
X170.498Y-122.618
X170.942Y-78.74
X171.641Y-104.0
X173.304Y-106.528
X173.431Y-116.23
X173.482Y-113.843
X173.99Y-104.521
X174.625Y-102.286
X175.438Y-105.156
T2
X82.194Y-133.807
X85.598Y-92.456
X88.633Y-125.616
X88.646Y-122.555
X90.678Y-124.46
X92.837Y-95.123
X96.266Y-81.28
X98.679Y-94.869
X99.085Y-59.157
X108.458Y-78.994
X108.585Y-76.835
X113.284Y-62.992
X115.951Y-92.354
X118.745Y-83.439
X119.939Y-109.703
X120.142Y-67.437
X122.301Y-74.422
X123.317Y-78.867
X123.698Y-115.773
X125.222Y-76.962
X125.806Y-111.227
X125.857Y-115.773
X125.984Y-135.001
X128.27Y-96.215
X128.524Y-94.869
X128.575Y-92.253
X128.626Y-118.516
X129.007Y-127.61
X130.175Y-127.635
X131.267Y-117.856
X132.08Y-122.225
X133.858Y-114.046
X134.468Y-121.92
X134.874Y-90.627
X136.322Y-105.054
X138.633Y-93.523
X138.709Y-104.165
X139.497Y-85.446
X139.776Y-94.615
X142.24Y-87.274
X142.875Y-88.265
X143.307Y-135.077
X143.764Y-147.625
X144.1Y-134.468
X144.221Y-121.514
X144.831Y-147.625
X144.932Y-133.502
X146.101Y-147.574
X146.253Y-133.807
X146.685Y-80.137
X147.472Y-147.371
X148.285Y-87.224
X148.717Y-82.042
X149.352Y-88.265
X149.403Y-123.241
X151.587Y-81.28
X151.689Y-122.123
X153.264Y-91.389
X153.721Y-90.373
X153.772Y-87.02
X153.924Y-89.205
X154.102Y-82.88
X157.785Y-87.986
X159.258Y-126.238
X159.385Y-69.596
X159.563Y-90.018
X160.579Y-122.123
X160.655Y-86.614
X160.909Y-90.551
X161.849Y-92.71
X161.925Y-64.008
X162.916Y-88.544
X165.049Y-123.495
X165.583Y-91.338
X167.081Y-95.936
X167.742Y-103.53
X167.767Y-97.053
X168.199Y-102.514
X168.199Y-152.044
X168.25Y-121.818
X168.351Y-153.365
X169.697Y-81.153
X170.053Y-113.792
X170.688Y-103.175
X172.415Y-101.448
T3
X168.91Y-85.544
X168.91Y-90.424
T4
X82.931Y-90.932
X84.303Y-59.233
X84.303Y-61.773
X86.843Y-59.233
X86.843Y-61.773
X88.138Y-91.059
X88.646Y-73.152
X89.383Y-59.233
X89.383Y-61.773
X91.923Y-59.233
X91.923Y-61.773
X93.091Y-90.932
X94.463Y-59.233
X94.463Y-61.773
X99.06Y-90.932
X139.573Y-150.495
X141.351Y-62.357
X142.113Y-150.495
X144.653Y-150.495
X147.193Y-150.495
X149.733Y-150.495
X152.273Y-150.495
X154.813Y-150.495
X157.353Y-150.495
X164.607Y-67.798
X164.607Y-70.338
X167.147Y-67.798
X167.147Y-70.338
X169.687Y-67.798
X169.687Y-70.338
X173.863Y-118.694
X173.99Y-126.492
T5
X117.134Y-59.385
X119.634Y-59.385
T6
X99.339Y-67.513
X109.499Y-67.513
X115.189Y-69.723
X115.189Y-79.883
X123.698Y-63.881
X133.858Y-63.881
X143.129Y-67.31
X143.129Y-77.47
M30
