G04 #@! TF.GenerationSoftware,KiCad,Pcbnew,9.0.0*
G04 #@! TF.CreationDate,2025-03-12T23:10:26-05:00*
G04 #@! TF.ProjectId,Portable Offline Translator,506f7274-6162-46c6-9520-4f66666c696e,rev?*
G04 #@! TF.SameCoordinates,Original*
G04 #@! TF.FileFunction,Legend,Top*
G04 #@! TF.FilePolarity,Positive*
%FSLAX46Y46*%
G04 Gerber Fmt 4.6, Leading zero omitted, Abs format (unit mm)*
G04 Created by KiCad (PCBNEW 9.0.0) date 2025-03-12 23:10:26*
%MOMM*%
%LPD*%
G01*
G04 APERTURE LIST*
G04 Aperture macros list*
%AMRoundRect*
0 Rectangle with rounded corners*
0 $1 Rounding radius*
0 $2 $3 $4 $5 $6 $7 $8 $9 X,Y pos of 4 corners*
0 Add a 4 corners polygon primitive as box body*
4,1,4,$2,$3,$4,$5,$6,$7,$8,$9,$2,$3,0*
0 Add four circle primitives for the rounded corners*
1,1,$1+$1,$2,$3*
1,1,$1+$1,$4,$5*
1,1,$1+$1,$6,$7*
1,1,$1+$1,$8,$9*
0 Add four rect primitives between the rounded corners*
20,1,$1+$1,$2,$3,$4,$5,0*
20,1,$1+$1,$4,$5,$6,$7,0*
20,1,$1+$1,$6,$7,$8,$9,0*
20,1,$1+$1,$8,$9,$2,$3,0*%
G04 Aperture macros list end*
%ADD10C,0.150000*%
%ADD11C,0.080211*%
%ADD12C,0.120000*%
%ADD13C,0.127000*%
%ADD14C,0.200000*%
%ADD15C,0.500000*%
%ADD16R,1.550000X1.300000*%
%ADD17C,2.000000*%
%ADD18R,2.200000X2.200000*%
%ADD19O,2.200000X2.200000*%
%ADD20RoundRect,0.250000X0.350000X0.450000X-0.350000X0.450000X-0.350000X-0.450000X0.350000X-0.450000X0*%
%ADD21R,1.700000X1.700000*%
%ADD22O,1.700000X1.700000*%
%ADD23RoundRect,0.237500X0.237500X-0.300000X0.237500X0.300000X-0.237500X0.300000X-0.237500X-0.300000X0*%
%ADD24RoundRect,0.250000X-0.350000X-0.450000X0.350000X-0.450000X0.350000X0.450000X-0.350000X0.450000X0*%
%ADD25R,2.000000X1.500000*%
%ADD26R,2.000000X3.800000*%
%ADD27RoundRect,0.102000X1.000000X-1.000000X1.000000X1.000000X-1.000000X1.000000X-1.000000X-1.000000X0*%
%ADD28RoundRect,0.237500X-0.300000X-0.237500X0.300000X-0.237500X0.300000X0.237500X-0.300000X0.237500X0*%
%ADD29RoundRect,0.250000X0.450000X-0.350000X0.450000X0.350000X-0.450000X0.350000X-0.450000X-0.350000X0*%
%ADD30C,0.500000*%
%ADD31RoundRect,0.102000X-0.300000X-0.261000X0.300000X-0.261000X0.300000X0.261000X-0.300000X0.261000X0*%
%ADD32RoundRect,0.237500X-0.237500X0.300000X-0.237500X-0.300000X0.237500X-0.300000X0.237500X0.300000X0*%
%ADD33C,6.100000*%
%ADD34R,0.700000X0.200000*%
%ADD35C,1.500000*%
%ADD36RoundRect,0.062500X0.350000X0.062500X-0.350000X0.062500X-0.350000X-0.062500X0.350000X-0.062500X0*%
%ADD37RoundRect,0.062500X0.062500X0.350000X-0.062500X0.350000X-0.062500X-0.350000X0.062500X-0.350000X0*%
%ADD38R,1.230000X1.230000*%
%ADD39RoundRect,0.075000X-0.675000X-0.075000X0.675000X-0.075000X0.675000X0.075000X-0.675000X0.075000X0*%
%ADD40RoundRect,0.075000X-0.075000X-0.675000X0.075000X-0.675000X0.075000X0.675000X-0.075000X0.675000X0*%
%ADD41C,3.200000*%
%ADD42C,3.170000*%
%ADD43C,3.450000*%
%ADD44C,2.390000*%
%ADD45RoundRect,0.102000X-3.670000X-3.175000X3.670000X-3.175000X3.670000X3.175000X-3.670000X3.175000X0*%
G04 APERTURE END LIST*
D10*
X135217286Y-129674200D02*
X135360143Y-129721819D01*
X135360143Y-129721819D02*
X135598238Y-129721819D01*
X135598238Y-129721819D02*
X135693476Y-129674200D01*
X135693476Y-129674200D02*
X135741095Y-129626580D01*
X135741095Y-129626580D02*
X135788714Y-129531342D01*
X135788714Y-129531342D02*
X135788714Y-129436104D01*
X135788714Y-129436104D02*
X135741095Y-129340866D01*
X135741095Y-129340866D02*
X135693476Y-129293247D01*
X135693476Y-129293247D02*
X135598238Y-129245628D01*
X135598238Y-129245628D02*
X135407762Y-129198009D01*
X135407762Y-129198009D02*
X135312524Y-129150390D01*
X135312524Y-129150390D02*
X135264905Y-129102771D01*
X135264905Y-129102771D02*
X135217286Y-129007533D01*
X135217286Y-129007533D02*
X135217286Y-128912295D01*
X135217286Y-128912295D02*
X135264905Y-128817057D01*
X135264905Y-128817057D02*
X135312524Y-128769438D01*
X135312524Y-128769438D02*
X135407762Y-128721819D01*
X135407762Y-128721819D02*
X135645857Y-128721819D01*
X135645857Y-128721819D02*
X135788714Y-128769438D01*
X136122048Y-128721819D02*
X136360143Y-129721819D01*
X136360143Y-129721819D02*
X136550619Y-129007533D01*
X136550619Y-129007533D02*
X136741095Y-129721819D01*
X136741095Y-129721819D02*
X136979191Y-128721819D01*
X137264905Y-128721819D02*
X137883952Y-128721819D01*
X137883952Y-128721819D02*
X137550619Y-129102771D01*
X137550619Y-129102771D02*
X137693476Y-129102771D01*
X137693476Y-129102771D02*
X137788714Y-129150390D01*
X137788714Y-129150390D02*
X137836333Y-129198009D01*
X137836333Y-129198009D02*
X137883952Y-129293247D01*
X137883952Y-129293247D02*
X137883952Y-129531342D01*
X137883952Y-129531342D02*
X137836333Y-129626580D01*
X137836333Y-129626580D02*
X137788714Y-129674200D01*
X137788714Y-129674200D02*
X137693476Y-129721819D01*
X137693476Y-129721819D02*
X137407762Y-129721819D01*
X137407762Y-129721819D02*
X137312524Y-129674200D01*
X137312524Y-129674200D02*
X137264905Y-129626580D01*
X138503000Y-128721819D02*
X138598238Y-128721819D01*
X138598238Y-128721819D02*
X138693476Y-128769438D01*
X138693476Y-128769438D02*
X138741095Y-128817057D01*
X138741095Y-128817057D02*
X138788714Y-128912295D01*
X138788714Y-128912295D02*
X138836333Y-129102771D01*
X138836333Y-129102771D02*
X138836333Y-129340866D01*
X138836333Y-129340866D02*
X138788714Y-129531342D01*
X138788714Y-129531342D02*
X138741095Y-129626580D01*
X138741095Y-129626580D02*
X138693476Y-129674200D01*
X138693476Y-129674200D02*
X138598238Y-129721819D01*
X138598238Y-129721819D02*
X138503000Y-129721819D01*
X138503000Y-129721819D02*
X138407762Y-129674200D01*
X138407762Y-129674200D02*
X138360143Y-129626580D01*
X138360143Y-129626580D02*
X138312524Y-129531342D01*
X138312524Y-129531342D02*
X138264905Y-129340866D01*
X138264905Y-129340866D02*
X138264905Y-129102771D01*
X138264905Y-129102771D02*
X138312524Y-128912295D01*
X138312524Y-128912295D02*
X138360143Y-128817057D01*
X138360143Y-128817057D02*
X138407762Y-128769438D01*
X138407762Y-128769438D02*
X138503000Y-128721819D01*
X139169667Y-128721819D02*
X139788714Y-128721819D01*
X139788714Y-128721819D02*
X139455381Y-129102771D01*
X139455381Y-129102771D02*
X139598238Y-129102771D01*
X139598238Y-129102771D02*
X139693476Y-129150390D01*
X139693476Y-129150390D02*
X139741095Y-129198009D01*
X139741095Y-129198009D02*
X139788714Y-129293247D01*
X139788714Y-129293247D02*
X139788714Y-129531342D01*
X139788714Y-129531342D02*
X139741095Y-129626580D01*
X139741095Y-129626580D02*
X139693476Y-129674200D01*
X139693476Y-129674200D02*
X139598238Y-129721819D01*
X139598238Y-129721819D02*
X139312524Y-129721819D01*
X139312524Y-129721819D02*
X139217286Y-129674200D01*
X139217286Y-129674200D02*
X139169667Y-129626580D01*
X181300714Y-125351819D02*
X181872142Y-125351819D01*
X181586428Y-126351819D02*
X181586428Y-125351819D01*
X182205476Y-126351819D02*
X182205476Y-125351819D01*
X182205476Y-125351819D02*
X182586428Y-125351819D01*
X182586428Y-125351819D02*
X182681666Y-125399438D01*
X182681666Y-125399438D02*
X182729285Y-125447057D01*
X182729285Y-125447057D02*
X182776904Y-125542295D01*
X182776904Y-125542295D02*
X182776904Y-125685152D01*
X182776904Y-125685152D02*
X182729285Y-125780390D01*
X182729285Y-125780390D02*
X182681666Y-125828009D01*
X182681666Y-125828009D02*
X182586428Y-125875628D01*
X182586428Y-125875628D02*
X182205476Y-125875628D01*
X183110238Y-125351819D02*
X183729285Y-125351819D01*
X183729285Y-125351819D02*
X183395952Y-125732771D01*
X183395952Y-125732771D02*
X183538809Y-125732771D01*
X183538809Y-125732771D02*
X183634047Y-125780390D01*
X183634047Y-125780390D02*
X183681666Y-125828009D01*
X183681666Y-125828009D02*
X183729285Y-125923247D01*
X183729285Y-125923247D02*
X183729285Y-126161342D01*
X183729285Y-126161342D02*
X183681666Y-126256580D01*
X183681666Y-126256580D02*
X183634047Y-126304200D01*
X183634047Y-126304200D02*
X183538809Y-126351819D01*
X183538809Y-126351819D02*
X183253095Y-126351819D01*
X183253095Y-126351819D02*
X183157857Y-126304200D01*
X183157857Y-126304200D02*
X183110238Y-126256580D01*
X184348333Y-125351819D02*
X184443571Y-125351819D01*
X184443571Y-125351819D02*
X184538809Y-125399438D01*
X184538809Y-125399438D02*
X184586428Y-125447057D01*
X184586428Y-125447057D02*
X184634047Y-125542295D01*
X184634047Y-125542295D02*
X184681666Y-125732771D01*
X184681666Y-125732771D02*
X184681666Y-125970866D01*
X184681666Y-125970866D02*
X184634047Y-126161342D01*
X184634047Y-126161342D02*
X184586428Y-126256580D01*
X184586428Y-126256580D02*
X184538809Y-126304200D01*
X184538809Y-126304200D02*
X184443571Y-126351819D01*
X184443571Y-126351819D02*
X184348333Y-126351819D01*
X184348333Y-126351819D02*
X184253095Y-126304200D01*
X184253095Y-126304200D02*
X184205476Y-126256580D01*
X184205476Y-126256580D02*
X184157857Y-126161342D01*
X184157857Y-126161342D02*
X184110238Y-125970866D01*
X184110238Y-125970866D02*
X184110238Y-125732771D01*
X184110238Y-125732771D02*
X184157857Y-125542295D01*
X184157857Y-125542295D02*
X184205476Y-125447057D01*
X184205476Y-125447057D02*
X184253095Y-125399438D01*
X184253095Y-125399438D02*
X184348333Y-125351819D01*
X185157857Y-126351819D02*
X185348333Y-126351819D01*
X185348333Y-126351819D02*
X185443571Y-126304200D01*
X185443571Y-126304200D02*
X185491190Y-126256580D01*
X185491190Y-126256580D02*
X185586428Y-126113723D01*
X185586428Y-126113723D02*
X185634047Y-125923247D01*
X185634047Y-125923247D02*
X185634047Y-125542295D01*
X185634047Y-125542295D02*
X185586428Y-125447057D01*
X185586428Y-125447057D02*
X185538809Y-125399438D01*
X185538809Y-125399438D02*
X185443571Y-125351819D01*
X185443571Y-125351819D02*
X185253095Y-125351819D01*
X185253095Y-125351819D02*
X185157857Y-125399438D01*
X185157857Y-125399438D02*
X185110238Y-125447057D01*
X185110238Y-125447057D02*
X185062619Y-125542295D01*
X185062619Y-125542295D02*
X185062619Y-125780390D01*
X185062619Y-125780390D02*
X185110238Y-125875628D01*
X185110238Y-125875628D02*
X185157857Y-125923247D01*
X185157857Y-125923247D02*
X185253095Y-125970866D01*
X185253095Y-125970866D02*
X185443571Y-125970866D01*
X185443571Y-125970866D02*
X185538809Y-125923247D01*
X185538809Y-125923247D02*
X185586428Y-125875628D01*
X185586428Y-125875628D02*
X185634047Y-125780390D01*
X113173819Y-76493475D02*
X112173819Y-76493475D01*
X112173819Y-76493475D02*
X112173819Y-76255380D01*
X112173819Y-76255380D02*
X112221438Y-76112523D01*
X112221438Y-76112523D02*
X112316676Y-76017285D01*
X112316676Y-76017285D02*
X112411914Y-75969666D01*
X112411914Y-75969666D02*
X112602390Y-75922047D01*
X112602390Y-75922047D02*
X112745247Y-75922047D01*
X112745247Y-75922047D02*
X112935723Y-75969666D01*
X112935723Y-75969666D02*
X113030961Y-76017285D01*
X113030961Y-76017285D02*
X113126200Y-76112523D01*
X113126200Y-76112523D02*
X113173819Y-76255380D01*
X113173819Y-76255380D02*
X113173819Y-76493475D01*
X112507152Y-75064904D02*
X113173819Y-75064904D01*
X112126200Y-75302999D02*
X112840485Y-75541094D01*
X112840485Y-75541094D02*
X112840485Y-74922047D01*
X112173819Y-74350618D02*
X112173819Y-74255380D01*
X112173819Y-74255380D02*
X112221438Y-74160142D01*
X112221438Y-74160142D02*
X112269057Y-74112523D01*
X112269057Y-74112523D02*
X112364295Y-74064904D01*
X112364295Y-74064904D02*
X112554771Y-74017285D01*
X112554771Y-74017285D02*
X112792866Y-74017285D01*
X112792866Y-74017285D02*
X112983342Y-74064904D01*
X112983342Y-74064904D02*
X113078580Y-74112523D01*
X113078580Y-74112523D02*
X113126200Y-74160142D01*
X113126200Y-74160142D02*
X113173819Y-74255380D01*
X113173819Y-74255380D02*
X113173819Y-74350618D01*
X113173819Y-74350618D02*
X113126200Y-74445856D01*
X113126200Y-74445856D02*
X113078580Y-74493475D01*
X113078580Y-74493475D02*
X112983342Y-74541094D01*
X112983342Y-74541094D02*
X112792866Y-74588713D01*
X112792866Y-74588713D02*
X112554771Y-74588713D01*
X112554771Y-74588713D02*
X112364295Y-74541094D01*
X112364295Y-74541094D02*
X112269057Y-74493475D01*
X112269057Y-74493475D02*
X112221438Y-74445856D01*
X112221438Y-74445856D02*
X112173819Y-74350618D01*
X112173819Y-73683951D02*
X112173819Y-73064904D01*
X112173819Y-73064904D02*
X112554771Y-73398237D01*
X112554771Y-73398237D02*
X112554771Y-73255380D01*
X112554771Y-73255380D02*
X112602390Y-73160142D01*
X112602390Y-73160142D02*
X112650009Y-73112523D01*
X112650009Y-73112523D02*
X112745247Y-73064904D01*
X112745247Y-73064904D02*
X112983342Y-73064904D01*
X112983342Y-73064904D02*
X113078580Y-73112523D01*
X113078580Y-73112523D02*
X113126200Y-73160142D01*
X113126200Y-73160142D02*
X113173819Y-73255380D01*
X113173819Y-73255380D02*
X113173819Y-73541094D01*
X113173819Y-73541094D02*
X113126200Y-73636332D01*
X113126200Y-73636332D02*
X113078580Y-73683951D01*
X113543819Y-80144904D02*
X112543819Y-80144904D01*
X113543819Y-79573476D02*
X112972390Y-80002047D01*
X112543819Y-79573476D02*
X113115247Y-80144904D01*
X165377952Y-78812819D02*
X165044619Y-78336628D01*
X164806524Y-78812819D02*
X164806524Y-77812819D01*
X164806524Y-77812819D02*
X165187476Y-77812819D01*
X165187476Y-77812819D02*
X165282714Y-77860438D01*
X165282714Y-77860438D02*
X165330333Y-77908057D01*
X165330333Y-77908057D02*
X165377952Y-78003295D01*
X165377952Y-78003295D02*
X165377952Y-78146152D01*
X165377952Y-78146152D02*
X165330333Y-78241390D01*
X165330333Y-78241390D02*
X165282714Y-78289009D01*
X165282714Y-78289009D02*
X165187476Y-78336628D01*
X165187476Y-78336628D02*
X164806524Y-78336628D01*
X165711286Y-77812819D02*
X166330333Y-77812819D01*
X166330333Y-77812819D02*
X165997000Y-78193771D01*
X165997000Y-78193771D02*
X166139857Y-78193771D01*
X166139857Y-78193771D02*
X166235095Y-78241390D01*
X166235095Y-78241390D02*
X166282714Y-78289009D01*
X166282714Y-78289009D02*
X166330333Y-78384247D01*
X166330333Y-78384247D02*
X166330333Y-78622342D01*
X166330333Y-78622342D02*
X166282714Y-78717580D01*
X166282714Y-78717580D02*
X166235095Y-78765200D01*
X166235095Y-78765200D02*
X166139857Y-78812819D01*
X166139857Y-78812819D02*
X165854143Y-78812819D01*
X165854143Y-78812819D02*
X165758905Y-78765200D01*
X165758905Y-78765200D02*
X165711286Y-78717580D01*
X166949381Y-77812819D02*
X167044619Y-77812819D01*
X167044619Y-77812819D02*
X167139857Y-77860438D01*
X167139857Y-77860438D02*
X167187476Y-77908057D01*
X167187476Y-77908057D02*
X167235095Y-78003295D01*
X167235095Y-78003295D02*
X167282714Y-78193771D01*
X167282714Y-78193771D02*
X167282714Y-78431866D01*
X167282714Y-78431866D02*
X167235095Y-78622342D01*
X167235095Y-78622342D02*
X167187476Y-78717580D01*
X167187476Y-78717580D02*
X167139857Y-78765200D01*
X167139857Y-78765200D02*
X167044619Y-78812819D01*
X167044619Y-78812819D02*
X166949381Y-78812819D01*
X166949381Y-78812819D02*
X166854143Y-78765200D01*
X166854143Y-78765200D02*
X166806524Y-78717580D01*
X166806524Y-78717580D02*
X166758905Y-78622342D01*
X166758905Y-78622342D02*
X166711286Y-78431866D01*
X166711286Y-78431866D02*
X166711286Y-78193771D01*
X166711286Y-78193771D02*
X166758905Y-78003295D01*
X166758905Y-78003295D02*
X166806524Y-77908057D01*
X166806524Y-77908057D02*
X166854143Y-77860438D01*
X166854143Y-77860438D02*
X166949381Y-77812819D01*
X167616048Y-77812819D02*
X168235095Y-77812819D01*
X168235095Y-77812819D02*
X167901762Y-78193771D01*
X167901762Y-78193771D02*
X168044619Y-78193771D01*
X168044619Y-78193771D02*
X168139857Y-78241390D01*
X168139857Y-78241390D02*
X168187476Y-78289009D01*
X168187476Y-78289009D02*
X168235095Y-78384247D01*
X168235095Y-78384247D02*
X168235095Y-78622342D01*
X168235095Y-78622342D02*
X168187476Y-78717580D01*
X168187476Y-78717580D02*
X168139857Y-78765200D01*
X168139857Y-78765200D02*
X168044619Y-78812819D01*
X168044619Y-78812819D02*
X167758905Y-78812819D01*
X167758905Y-78812819D02*
X167663667Y-78765200D01*
X167663667Y-78765200D02*
X167616048Y-78717580D01*
X159577819Y-151780714D02*
X160292104Y-151780714D01*
X160292104Y-151780714D02*
X160434961Y-151828333D01*
X160434961Y-151828333D02*
X160530200Y-151923571D01*
X160530200Y-151923571D02*
X160577819Y-152066428D01*
X160577819Y-152066428D02*
X160577819Y-152161666D01*
X159673057Y-151352142D02*
X159625438Y-151304523D01*
X159625438Y-151304523D02*
X159577819Y-151209285D01*
X159577819Y-151209285D02*
X159577819Y-150971190D01*
X159577819Y-150971190D02*
X159625438Y-150875952D01*
X159625438Y-150875952D02*
X159673057Y-150828333D01*
X159673057Y-150828333D02*
X159768295Y-150780714D01*
X159768295Y-150780714D02*
X159863533Y-150780714D01*
X159863533Y-150780714D02*
X160006390Y-150828333D01*
X160006390Y-150828333D02*
X160577819Y-151399761D01*
X160577819Y-151399761D02*
X160577819Y-150780714D01*
X159577819Y-150161666D02*
X159577819Y-150066428D01*
X159577819Y-150066428D02*
X159625438Y-149971190D01*
X159625438Y-149971190D02*
X159673057Y-149923571D01*
X159673057Y-149923571D02*
X159768295Y-149875952D01*
X159768295Y-149875952D02*
X159958771Y-149828333D01*
X159958771Y-149828333D02*
X160196866Y-149828333D01*
X160196866Y-149828333D02*
X160387342Y-149875952D01*
X160387342Y-149875952D02*
X160482580Y-149923571D01*
X160482580Y-149923571D02*
X160530200Y-149971190D01*
X160530200Y-149971190D02*
X160577819Y-150066428D01*
X160577819Y-150066428D02*
X160577819Y-150161666D01*
X160577819Y-150161666D02*
X160530200Y-150256904D01*
X160530200Y-150256904D02*
X160482580Y-150304523D01*
X160482580Y-150304523D02*
X160387342Y-150352142D01*
X160387342Y-150352142D02*
X160196866Y-150399761D01*
X160196866Y-150399761D02*
X159958771Y-150399761D01*
X159958771Y-150399761D02*
X159768295Y-150352142D01*
X159768295Y-150352142D02*
X159673057Y-150304523D01*
X159673057Y-150304523D02*
X159625438Y-150256904D01*
X159625438Y-150256904D02*
X159577819Y-150161666D01*
X160577819Y-148875952D02*
X160577819Y-149447380D01*
X160577819Y-149161666D02*
X159577819Y-149161666D01*
X159577819Y-149161666D02*
X159720676Y-149256904D01*
X159720676Y-149256904D02*
X159815914Y-149352142D01*
X159815914Y-149352142D02*
X159863533Y-149447380D01*
X93544580Y-81510047D02*
X93592200Y-81557666D01*
X93592200Y-81557666D02*
X93639819Y-81700523D01*
X93639819Y-81700523D02*
X93639819Y-81795761D01*
X93639819Y-81795761D02*
X93592200Y-81938618D01*
X93592200Y-81938618D02*
X93496961Y-82033856D01*
X93496961Y-82033856D02*
X93401723Y-82081475D01*
X93401723Y-82081475D02*
X93211247Y-82129094D01*
X93211247Y-82129094D02*
X93068390Y-82129094D01*
X93068390Y-82129094D02*
X92877914Y-82081475D01*
X92877914Y-82081475D02*
X92782676Y-82033856D01*
X92782676Y-82033856D02*
X92687438Y-81938618D01*
X92687438Y-81938618D02*
X92639819Y-81795761D01*
X92639819Y-81795761D02*
X92639819Y-81700523D01*
X92639819Y-81700523D02*
X92687438Y-81557666D01*
X92687438Y-81557666D02*
X92735057Y-81510047D01*
X92973152Y-80652904D02*
X93639819Y-80652904D01*
X92592200Y-80890999D02*
X93306485Y-81129094D01*
X93306485Y-81129094D02*
X93306485Y-80510047D01*
X92639819Y-79938618D02*
X92639819Y-79843380D01*
X92639819Y-79843380D02*
X92687438Y-79748142D01*
X92687438Y-79748142D02*
X92735057Y-79700523D01*
X92735057Y-79700523D02*
X92830295Y-79652904D01*
X92830295Y-79652904D02*
X93020771Y-79605285D01*
X93020771Y-79605285D02*
X93258866Y-79605285D01*
X93258866Y-79605285D02*
X93449342Y-79652904D01*
X93449342Y-79652904D02*
X93544580Y-79700523D01*
X93544580Y-79700523D02*
X93592200Y-79748142D01*
X93592200Y-79748142D02*
X93639819Y-79843380D01*
X93639819Y-79843380D02*
X93639819Y-79938618D01*
X93639819Y-79938618D02*
X93592200Y-80033856D01*
X93592200Y-80033856D02*
X93544580Y-80081475D01*
X93544580Y-80081475D02*
X93449342Y-80129094D01*
X93449342Y-80129094D02*
X93258866Y-80176713D01*
X93258866Y-80176713D02*
X93020771Y-80176713D01*
X93020771Y-80176713D02*
X92830295Y-80129094D01*
X92830295Y-80129094D02*
X92735057Y-80081475D01*
X92735057Y-80081475D02*
X92687438Y-80033856D01*
X92687438Y-80033856D02*
X92639819Y-79938618D01*
X93639819Y-78652904D02*
X93639819Y-79224332D01*
X93639819Y-78938618D02*
X92639819Y-78938618D01*
X92639819Y-78938618D02*
X92782676Y-79033856D01*
X92782676Y-79033856D02*
X92877914Y-79129094D01*
X92877914Y-79129094D02*
X92925533Y-79224332D01*
X180871952Y-135583819D02*
X180538619Y-135107628D01*
X180300524Y-135583819D02*
X180300524Y-134583819D01*
X180300524Y-134583819D02*
X180681476Y-134583819D01*
X180681476Y-134583819D02*
X180776714Y-134631438D01*
X180776714Y-134631438D02*
X180824333Y-134679057D01*
X180824333Y-134679057D02*
X180871952Y-134774295D01*
X180871952Y-134774295D02*
X180871952Y-134917152D01*
X180871952Y-134917152D02*
X180824333Y-135012390D01*
X180824333Y-135012390D02*
X180776714Y-135060009D01*
X180776714Y-135060009D02*
X180681476Y-135107628D01*
X180681476Y-135107628D02*
X180300524Y-135107628D01*
X181205286Y-134583819D02*
X181824333Y-134583819D01*
X181824333Y-134583819D02*
X181491000Y-134964771D01*
X181491000Y-134964771D02*
X181633857Y-134964771D01*
X181633857Y-134964771D02*
X181729095Y-135012390D01*
X181729095Y-135012390D02*
X181776714Y-135060009D01*
X181776714Y-135060009D02*
X181824333Y-135155247D01*
X181824333Y-135155247D02*
X181824333Y-135393342D01*
X181824333Y-135393342D02*
X181776714Y-135488580D01*
X181776714Y-135488580D02*
X181729095Y-135536200D01*
X181729095Y-135536200D02*
X181633857Y-135583819D01*
X181633857Y-135583819D02*
X181348143Y-135583819D01*
X181348143Y-135583819D02*
X181252905Y-135536200D01*
X181252905Y-135536200D02*
X181205286Y-135488580D01*
X182443381Y-134583819D02*
X182538619Y-134583819D01*
X182538619Y-134583819D02*
X182633857Y-134631438D01*
X182633857Y-134631438D02*
X182681476Y-134679057D01*
X182681476Y-134679057D02*
X182729095Y-134774295D01*
X182729095Y-134774295D02*
X182776714Y-134964771D01*
X182776714Y-134964771D02*
X182776714Y-135202866D01*
X182776714Y-135202866D02*
X182729095Y-135393342D01*
X182729095Y-135393342D02*
X182681476Y-135488580D01*
X182681476Y-135488580D02*
X182633857Y-135536200D01*
X182633857Y-135536200D02*
X182538619Y-135583819D01*
X182538619Y-135583819D02*
X182443381Y-135583819D01*
X182443381Y-135583819D02*
X182348143Y-135536200D01*
X182348143Y-135536200D02*
X182300524Y-135488580D01*
X182300524Y-135488580D02*
X182252905Y-135393342D01*
X182252905Y-135393342D02*
X182205286Y-135202866D01*
X182205286Y-135202866D02*
X182205286Y-134964771D01*
X182205286Y-134964771D02*
X182252905Y-134774295D01*
X182252905Y-134774295D02*
X182300524Y-134679057D01*
X182300524Y-134679057D02*
X182348143Y-134631438D01*
X182348143Y-134631438D02*
X182443381Y-134583819D01*
X183348143Y-135012390D02*
X183252905Y-134964771D01*
X183252905Y-134964771D02*
X183205286Y-134917152D01*
X183205286Y-134917152D02*
X183157667Y-134821914D01*
X183157667Y-134821914D02*
X183157667Y-134774295D01*
X183157667Y-134774295D02*
X183205286Y-134679057D01*
X183205286Y-134679057D02*
X183252905Y-134631438D01*
X183252905Y-134631438D02*
X183348143Y-134583819D01*
X183348143Y-134583819D02*
X183538619Y-134583819D01*
X183538619Y-134583819D02*
X183633857Y-134631438D01*
X183633857Y-134631438D02*
X183681476Y-134679057D01*
X183681476Y-134679057D02*
X183729095Y-134774295D01*
X183729095Y-134774295D02*
X183729095Y-134821914D01*
X183729095Y-134821914D02*
X183681476Y-134917152D01*
X183681476Y-134917152D02*
X183633857Y-134964771D01*
X183633857Y-134964771D02*
X183538619Y-135012390D01*
X183538619Y-135012390D02*
X183348143Y-135012390D01*
X183348143Y-135012390D02*
X183252905Y-135060009D01*
X183252905Y-135060009D02*
X183205286Y-135107628D01*
X183205286Y-135107628D02*
X183157667Y-135202866D01*
X183157667Y-135202866D02*
X183157667Y-135393342D01*
X183157667Y-135393342D02*
X183205286Y-135488580D01*
X183205286Y-135488580D02*
X183252905Y-135536200D01*
X183252905Y-135536200D02*
X183348143Y-135583819D01*
X183348143Y-135583819D02*
X183538619Y-135583819D01*
X183538619Y-135583819D02*
X183633857Y-135536200D01*
X183633857Y-135536200D02*
X183681476Y-135488580D01*
X183681476Y-135488580D02*
X183729095Y-135393342D01*
X183729095Y-135393342D02*
X183729095Y-135202866D01*
X183729095Y-135202866D02*
X183681476Y-135107628D01*
X183681476Y-135107628D02*
X183633857Y-135060009D01*
X183633857Y-135060009D02*
X183538619Y-135012390D01*
X175806286Y-149850200D02*
X175949143Y-149897819D01*
X175949143Y-149897819D02*
X176187238Y-149897819D01*
X176187238Y-149897819D02*
X176282476Y-149850200D01*
X176282476Y-149850200D02*
X176330095Y-149802580D01*
X176330095Y-149802580D02*
X176377714Y-149707342D01*
X176377714Y-149707342D02*
X176377714Y-149612104D01*
X176377714Y-149612104D02*
X176330095Y-149516866D01*
X176330095Y-149516866D02*
X176282476Y-149469247D01*
X176282476Y-149469247D02*
X176187238Y-149421628D01*
X176187238Y-149421628D02*
X175996762Y-149374009D01*
X175996762Y-149374009D02*
X175901524Y-149326390D01*
X175901524Y-149326390D02*
X175853905Y-149278771D01*
X175853905Y-149278771D02*
X175806286Y-149183533D01*
X175806286Y-149183533D02*
X175806286Y-149088295D01*
X175806286Y-149088295D02*
X175853905Y-148993057D01*
X175853905Y-148993057D02*
X175901524Y-148945438D01*
X175901524Y-148945438D02*
X175996762Y-148897819D01*
X175996762Y-148897819D02*
X176234857Y-148897819D01*
X176234857Y-148897819D02*
X176377714Y-148945438D01*
X176711048Y-148897819D02*
X176949143Y-149897819D01*
X176949143Y-149897819D02*
X177139619Y-149183533D01*
X177139619Y-149183533D02*
X177330095Y-149897819D01*
X177330095Y-149897819D02*
X177568191Y-148897819D01*
X177853905Y-148897819D02*
X178472952Y-148897819D01*
X178472952Y-148897819D02*
X178139619Y-149278771D01*
X178139619Y-149278771D02*
X178282476Y-149278771D01*
X178282476Y-149278771D02*
X178377714Y-149326390D01*
X178377714Y-149326390D02*
X178425333Y-149374009D01*
X178425333Y-149374009D02*
X178472952Y-149469247D01*
X178472952Y-149469247D02*
X178472952Y-149707342D01*
X178472952Y-149707342D02*
X178425333Y-149802580D01*
X178425333Y-149802580D02*
X178377714Y-149850200D01*
X178377714Y-149850200D02*
X178282476Y-149897819D01*
X178282476Y-149897819D02*
X177996762Y-149897819D01*
X177996762Y-149897819D02*
X177901524Y-149850200D01*
X177901524Y-149850200D02*
X177853905Y-149802580D01*
X179092000Y-148897819D02*
X179187238Y-148897819D01*
X179187238Y-148897819D02*
X179282476Y-148945438D01*
X179282476Y-148945438D02*
X179330095Y-148993057D01*
X179330095Y-148993057D02*
X179377714Y-149088295D01*
X179377714Y-149088295D02*
X179425333Y-149278771D01*
X179425333Y-149278771D02*
X179425333Y-149516866D01*
X179425333Y-149516866D02*
X179377714Y-149707342D01*
X179377714Y-149707342D02*
X179330095Y-149802580D01*
X179330095Y-149802580D02*
X179282476Y-149850200D01*
X179282476Y-149850200D02*
X179187238Y-149897819D01*
X179187238Y-149897819D02*
X179092000Y-149897819D01*
X179092000Y-149897819D02*
X178996762Y-149850200D01*
X178996762Y-149850200D02*
X178949143Y-149802580D01*
X178949143Y-149802580D02*
X178901524Y-149707342D01*
X178901524Y-149707342D02*
X178853905Y-149516866D01*
X178853905Y-149516866D02*
X178853905Y-149278771D01*
X178853905Y-149278771D02*
X178901524Y-149088295D01*
X178901524Y-149088295D02*
X178949143Y-148993057D01*
X178949143Y-148993057D02*
X178996762Y-148945438D01*
X178996762Y-148945438D02*
X179092000Y-148897819D01*
X180377714Y-149897819D02*
X179806286Y-149897819D01*
X180092000Y-149897819D02*
X180092000Y-148897819D01*
X180092000Y-148897819D02*
X179996762Y-149040676D01*
X179996762Y-149040676D02*
X179901524Y-149135914D01*
X179901524Y-149135914D02*
X179806286Y-149183533D01*
X99885714Y-76234819D02*
X99885714Y-77044342D01*
X99885714Y-77044342D02*
X99933333Y-77139580D01*
X99933333Y-77139580D02*
X99980952Y-77187200D01*
X99980952Y-77187200D02*
X100076190Y-77234819D01*
X100076190Y-77234819D02*
X100266666Y-77234819D01*
X100266666Y-77234819D02*
X100361904Y-77187200D01*
X100361904Y-77187200D02*
X100409523Y-77139580D01*
X100409523Y-77139580D02*
X100457142Y-77044342D01*
X100457142Y-77044342D02*
X100457142Y-76234819D01*
X101361904Y-76568152D02*
X101361904Y-77234819D01*
X101123809Y-76187200D02*
X100885714Y-76901485D01*
X100885714Y-76901485D02*
X101504761Y-76901485D01*
X102076190Y-76234819D02*
X102171428Y-76234819D01*
X102171428Y-76234819D02*
X102266666Y-76282438D01*
X102266666Y-76282438D02*
X102314285Y-76330057D01*
X102314285Y-76330057D02*
X102361904Y-76425295D01*
X102361904Y-76425295D02*
X102409523Y-76615771D01*
X102409523Y-76615771D02*
X102409523Y-76853866D01*
X102409523Y-76853866D02*
X102361904Y-77044342D01*
X102361904Y-77044342D02*
X102314285Y-77139580D01*
X102314285Y-77139580D02*
X102266666Y-77187200D01*
X102266666Y-77187200D02*
X102171428Y-77234819D01*
X102171428Y-77234819D02*
X102076190Y-77234819D01*
X102076190Y-77234819D02*
X101980952Y-77187200D01*
X101980952Y-77187200D02*
X101933333Y-77139580D01*
X101933333Y-77139580D02*
X101885714Y-77044342D01*
X101885714Y-77044342D02*
X101838095Y-76853866D01*
X101838095Y-76853866D02*
X101838095Y-76615771D01*
X101838095Y-76615771D02*
X101885714Y-76425295D01*
X101885714Y-76425295D02*
X101933333Y-76330057D01*
X101933333Y-76330057D02*
X101980952Y-76282438D01*
X101980952Y-76282438D02*
X102076190Y-76234819D01*
X103361904Y-77234819D02*
X102790476Y-77234819D01*
X103076190Y-77234819D02*
X103076190Y-76234819D01*
X103076190Y-76234819D02*
X102980952Y-76377676D01*
X102980952Y-76377676D02*
X102885714Y-76472914D01*
X102885714Y-76472914D02*
X102790476Y-76520533D01*
X80716714Y-87886819D02*
X81288142Y-87886819D01*
X81002428Y-88886819D02*
X81002428Y-87886819D01*
X81621476Y-88886819D02*
X81621476Y-87886819D01*
X81621476Y-87886819D02*
X82002428Y-87886819D01*
X82002428Y-87886819D02*
X82097666Y-87934438D01*
X82097666Y-87934438D02*
X82145285Y-87982057D01*
X82145285Y-87982057D02*
X82192904Y-88077295D01*
X82192904Y-88077295D02*
X82192904Y-88220152D01*
X82192904Y-88220152D02*
X82145285Y-88315390D01*
X82145285Y-88315390D02*
X82097666Y-88363009D01*
X82097666Y-88363009D02*
X82002428Y-88410628D01*
X82002428Y-88410628D02*
X81621476Y-88410628D01*
X82526238Y-87886819D02*
X83145285Y-87886819D01*
X83145285Y-87886819D02*
X82811952Y-88267771D01*
X82811952Y-88267771D02*
X82954809Y-88267771D01*
X82954809Y-88267771D02*
X83050047Y-88315390D01*
X83050047Y-88315390D02*
X83097666Y-88363009D01*
X83097666Y-88363009D02*
X83145285Y-88458247D01*
X83145285Y-88458247D02*
X83145285Y-88696342D01*
X83145285Y-88696342D02*
X83097666Y-88791580D01*
X83097666Y-88791580D02*
X83050047Y-88839200D01*
X83050047Y-88839200D02*
X82954809Y-88886819D01*
X82954809Y-88886819D02*
X82669095Y-88886819D01*
X82669095Y-88886819D02*
X82573857Y-88839200D01*
X82573857Y-88839200D02*
X82526238Y-88791580D01*
X83764333Y-87886819D02*
X83859571Y-87886819D01*
X83859571Y-87886819D02*
X83954809Y-87934438D01*
X83954809Y-87934438D02*
X84002428Y-87982057D01*
X84002428Y-87982057D02*
X84050047Y-88077295D01*
X84050047Y-88077295D02*
X84097666Y-88267771D01*
X84097666Y-88267771D02*
X84097666Y-88505866D01*
X84097666Y-88505866D02*
X84050047Y-88696342D01*
X84050047Y-88696342D02*
X84002428Y-88791580D01*
X84002428Y-88791580D02*
X83954809Y-88839200D01*
X83954809Y-88839200D02*
X83859571Y-88886819D01*
X83859571Y-88886819D02*
X83764333Y-88886819D01*
X83764333Y-88886819D02*
X83669095Y-88839200D01*
X83669095Y-88839200D02*
X83621476Y-88791580D01*
X83621476Y-88791580D02*
X83573857Y-88696342D01*
X83573857Y-88696342D02*
X83526238Y-88505866D01*
X83526238Y-88505866D02*
X83526238Y-88267771D01*
X83526238Y-88267771D02*
X83573857Y-88077295D01*
X83573857Y-88077295D02*
X83621476Y-87982057D01*
X83621476Y-87982057D02*
X83669095Y-87934438D01*
X83669095Y-87934438D02*
X83764333Y-87886819D01*
X84954809Y-87886819D02*
X84764333Y-87886819D01*
X84764333Y-87886819D02*
X84669095Y-87934438D01*
X84669095Y-87934438D02*
X84621476Y-87982057D01*
X84621476Y-87982057D02*
X84526238Y-88124914D01*
X84526238Y-88124914D02*
X84478619Y-88315390D01*
X84478619Y-88315390D02*
X84478619Y-88696342D01*
X84478619Y-88696342D02*
X84526238Y-88791580D01*
X84526238Y-88791580D02*
X84573857Y-88839200D01*
X84573857Y-88839200D02*
X84669095Y-88886819D01*
X84669095Y-88886819D02*
X84859571Y-88886819D01*
X84859571Y-88886819D02*
X84954809Y-88839200D01*
X84954809Y-88839200D02*
X85002428Y-88791580D01*
X85002428Y-88791580D02*
X85050047Y-88696342D01*
X85050047Y-88696342D02*
X85050047Y-88458247D01*
X85050047Y-88458247D02*
X85002428Y-88363009D01*
X85002428Y-88363009D02*
X84954809Y-88315390D01*
X84954809Y-88315390D02*
X84859571Y-88267771D01*
X84859571Y-88267771D02*
X84669095Y-88267771D01*
X84669095Y-88267771D02*
X84573857Y-88315390D01*
X84573857Y-88315390D02*
X84526238Y-88363009D01*
X84526238Y-88363009D02*
X84478619Y-88458247D01*
X177998714Y-108587819D02*
X178570142Y-108587819D01*
X178284428Y-109587819D02*
X178284428Y-108587819D01*
X178903476Y-109587819D02*
X178903476Y-108587819D01*
X178903476Y-108587819D02*
X179284428Y-108587819D01*
X179284428Y-108587819D02*
X179379666Y-108635438D01*
X179379666Y-108635438D02*
X179427285Y-108683057D01*
X179427285Y-108683057D02*
X179474904Y-108778295D01*
X179474904Y-108778295D02*
X179474904Y-108921152D01*
X179474904Y-108921152D02*
X179427285Y-109016390D01*
X179427285Y-109016390D02*
X179379666Y-109064009D01*
X179379666Y-109064009D02*
X179284428Y-109111628D01*
X179284428Y-109111628D02*
X178903476Y-109111628D01*
X179808238Y-108587819D02*
X180427285Y-108587819D01*
X180427285Y-108587819D02*
X180093952Y-108968771D01*
X180093952Y-108968771D02*
X180236809Y-108968771D01*
X180236809Y-108968771D02*
X180332047Y-109016390D01*
X180332047Y-109016390D02*
X180379666Y-109064009D01*
X180379666Y-109064009D02*
X180427285Y-109159247D01*
X180427285Y-109159247D02*
X180427285Y-109397342D01*
X180427285Y-109397342D02*
X180379666Y-109492580D01*
X180379666Y-109492580D02*
X180332047Y-109540200D01*
X180332047Y-109540200D02*
X180236809Y-109587819D01*
X180236809Y-109587819D02*
X179951095Y-109587819D01*
X179951095Y-109587819D02*
X179855857Y-109540200D01*
X179855857Y-109540200D02*
X179808238Y-109492580D01*
X181046333Y-108587819D02*
X181141571Y-108587819D01*
X181141571Y-108587819D02*
X181236809Y-108635438D01*
X181236809Y-108635438D02*
X181284428Y-108683057D01*
X181284428Y-108683057D02*
X181332047Y-108778295D01*
X181332047Y-108778295D02*
X181379666Y-108968771D01*
X181379666Y-108968771D02*
X181379666Y-109206866D01*
X181379666Y-109206866D02*
X181332047Y-109397342D01*
X181332047Y-109397342D02*
X181284428Y-109492580D01*
X181284428Y-109492580D02*
X181236809Y-109540200D01*
X181236809Y-109540200D02*
X181141571Y-109587819D01*
X181141571Y-109587819D02*
X181046333Y-109587819D01*
X181046333Y-109587819D02*
X180951095Y-109540200D01*
X180951095Y-109540200D02*
X180903476Y-109492580D01*
X180903476Y-109492580D02*
X180855857Y-109397342D01*
X180855857Y-109397342D02*
X180808238Y-109206866D01*
X180808238Y-109206866D02*
X180808238Y-108968771D01*
X180808238Y-108968771D02*
X180855857Y-108778295D01*
X180855857Y-108778295D02*
X180903476Y-108683057D01*
X180903476Y-108683057D02*
X180951095Y-108635438D01*
X180951095Y-108635438D02*
X181046333Y-108587819D01*
X182332047Y-109587819D02*
X181760619Y-109587819D01*
X182046333Y-109587819D02*
X182046333Y-108587819D01*
X182046333Y-108587819D02*
X181951095Y-108730676D01*
X181951095Y-108730676D02*
X181855857Y-108825914D01*
X181855857Y-108825914D02*
X181760619Y-108873533D01*
X104058272Y-93727801D02*
X104058272Y-94204509D01*
X104058272Y-94204509D02*
X103057185Y-94204509D01*
X104010602Y-93441776D02*
X104058272Y-93298764D01*
X104058272Y-93298764D02*
X104058272Y-93060410D01*
X104058272Y-93060410D02*
X104010602Y-92965068D01*
X104010602Y-92965068D02*
X103962931Y-92917397D01*
X103962931Y-92917397D02*
X103867589Y-92869727D01*
X103867589Y-92869727D02*
X103772247Y-92869727D01*
X103772247Y-92869727D02*
X103676906Y-92917397D01*
X103676906Y-92917397D02*
X103629235Y-92965068D01*
X103629235Y-92965068D02*
X103581564Y-93060410D01*
X103581564Y-93060410D02*
X103533893Y-93251093D01*
X103533893Y-93251093D02*
X103486223Y-93346435D01*
X103486223Y-93346435D02*
X103438552Y-93394105D01*
X103438552Y-93394105D02*
X103343210Y-93441776D01*
X103343210Y-93441776D02*
X103247869Y-93441776D01*
X103247869Y-93441776D02*
X103152527Y-93394105D01*
X103152527Y-93394105D02*
X103104856Y-93346435D01*
X103104856Y-93346435D02*
X103057185Y-93251093D01*
X103057185Y-93251093D02*
X103057185Y-93012739D01*
X103057185Y-93012739D02*
X103104856Y-92869727D01*
X103152527Y-92488360D02*
X103104856Y-92440689D01*
X103104856Y-92440689D02*
X103057185Y-92345348D01*
X103057185Y-92345348D02*
X103057185Y-92106994D01*
X103057185Y-92106994D02*
X103104856Y-92011652D01*
X103104856Y-92011652D02*
X103152527Y-91963981D01*
X103152527Y-91963981D02*
X103247869Y-91916311D01*
X103247869Y-91916311D02*
X103343210Y-91916311D01*
X103343210Y-91916311D02*
X103486223Y-91963981D01*
X103486223Y-91963981D02*
X104058272Y-92536031D01*
X104058272Y-92536031D02*
X104058272Y-91916311D01*
X103057185Y-91296590D02*
X103057185Y-91201249D01*
X103057185Y-91201249D02*
X103104856Y-91105907D01*
X103104856Y-91105907D02*
X103152527Y-91058236D01*
X103152527Y-91058236D02*
X103247869Y-91010565D01*
X103247869Y-91010565D02*
X103438552Y-90962895D01*
X103438552Y-90962895D02*
X103676906Y-90962895D01*
X103676906Y-90962895D02*
X103867589Y-91010565D01*
X103867589Y-91010565D02*
X103962931Y-91058236D01*
X103962931Y-91058236D02*
X104010602Y-91105907D01*
X104010602Y-91105907D02*
X104058272Y-91201249D01*
X104058272Y-91201249D02*
X104058272Y-91296590D01*
X104058272Y-91296590D02*
X104010602Y-91391932D01*
X104010602Y-91391932D02*
X103962931Y-91439603D01*
X103962931Y-91439603D02*
X103867589Y-91487273D01*
X103867589Y-91487273D02*
X103676906Y-91534944D01*
X103676906Y-91534944D02*
X103438552Y-91534944D01*
X103438552Y-91534944D02*
X103247869Y-91487273D01*
X103247869Y-91487273D02*
X103152527Y-91439603D01*
X103152527Y-91439603D02*
X103104856Y-91391932D01*
X103104856Y-91391932D02*
X103057185Y-91296590D01*
X104058272Y-90009479D02*
X104058272Y-90581528D01*
X104058272Y-90295503D02*
X103057185Y-90295503D01*
X103057185Y-90295503D02*
X103200198Y-90390845D01*
X103200198Y-90390845D02*
X103295539Y-90486187D01*
X103295539Y-90486187D02*
X103343210Y-90581528D01*
X120910786Y-85622030D02*
X120910786Y-84856310D01*
X121293646Y-85239170D02*
X120527926Y-85239170D01*
X193264952Y-130120580D02*
X193217333Y-130168200D01*
X193217333Y-130168200D02*
X193074476Y-130215819D01*
X193074476Y-130215819D02*
X192979238Y-130215819D01*
X192979238Y-130215819D02*
X192836381Y-130168200D01*
X192836381Y-130168200D02*
X192741143Y-130072961D01*
X192741143Y-130072961D02*
X192693524Y-129977723D01*
X192693524Y-129977723D02*
X192645905Y-129787247D01*
X192645905Y-129787247D02*
X192645905Y-129644390D01*
X192645905Y-129644390D02*
X192693524Y-129453914D01*
X192693524Y-129453914D02*
X192741143Y-129358676D01*
X192741143Y-129358676D02*
X192836381Y-129263438D01*
X192836381Y-129263438D02*
X192979238Y-129215819D01*
X192979238Y-129215819D02*
X193074476Y-129215819D01*
X193074476Y-129215819D02*
X193217333Y-129263438D01*
X193217333Y-129263438D02*
X193264952Y-129311057D01*
X193598286Y-129215819D02*
X194217333Y-129215819D01*
X194217333Y-129215819D02*
X193884000Y-129596771D01*
X193884000Y-129596771D02*
X194026857Y-129596771D01*
X194026857Y-129596771D02*
X194122095Y-129644390D01*
X194122095Y-129644390D02*
X194169714Y-129692009D01*
X194169714Y-129692009D02*
X194217333Y-129787247D01*
X194217333Y-129787247D02*
X194217333Y-130025342D01*
X194217333Y-130025342D02*
X194169714Y-130120580D01*
X194169714Y-130120580D02*
X194122095Y-130168200D01*
X194122095Y-130168200D02*
X194026857Y-130215819D01*
X194026857Y-130215819D02*
X193741143Y-130215819D01*
X193741143Y-130215819D02*
X193645905Y-130168200D01*
X193645905Y-130168200D02*
X193598286Y-130120580D01*
X194836381Y-129215819D02*
X194931619Y-129215819D01*
X194931619Y-129215819D02*
X195026857Y-129263438D01*
X195026857Y-129263438D02*
X195074476Y-129311057D01*
X195074476Y-129311057D02*
X195122095Y-129406295D01*
X195122095Y-129406295D02*
X195169714Y-129596771D01*
X195169714Y-129596771D02*
X195169714Y-129834866D01*
X195169714Y-129834866D02*
X195122095Y-130025342D01*
X195122095Y-130025342D02*
X195074476Y-130120580D01*
X195074476Y-130120580D02*
X195026857Y-130168200D01*
X195026857Y-130168200D02*
X194931619Y-130215819D01*
X194931619Y-130215819D02*
X194836381Y-130215819D01*
X194836381Y-130215819D02*
X194741143Y-130168200D01*
X194741143Y-130168200D02*
X194693524Y-130120580D01*
X194693524Y-130120580D02*
X194645905Y-130025342D01*
X194645905Y-130025342D02*
X194598286Y-129834866D01*
X194598286Y-129834866D02*
X194598286Y-129596771D01*
X194598286Y-129596771D02*
X194645905Y-129406295D01*
X194645905Y-129406295D02*
X194693524Y-129311057D01*
X194693524Y-129311057D02*
X194741143Y-129263438D01*
X194741143Y-129263438D02*
X194836381Y-129215819D01*
X195645905Y-130215819D02*
X195836381Y-130215819D01*
X195836381Y-130215819D02*
X195931619Y-130168200D01*
X195931619Y-130168200D02*
X195979238Y-130120580D01*
X195979238Y-130120580D02*
X196074476Y-129977723D01*
X196074476Y-129977723D02*
X196122095Y-129787247D01*
X196122095Y-129787247D02*
X196122095Y-129406295D01*
X196122095Y-129406295D02*
X196074476Y-129311057D01*
X196074476Y-129311057D02*
X196026857Y-129263438D01*
X196026857Y-129263438D02*
X195931619Y-129215819D01*
X195931619Y-129215819D02*
X195741143Y-129215819D01*
X195741143Y-129215819D02*
X195645905Y-129263438D01*
X195645905Y-129263438D02*
X195598286Y-129311057D01*
X195598286Y-129311057D02*
X195550667Y-129406295D01*
X195550667Y-129406295D02*
X195550667Y-129644390D01*
X195550667Y-129644390D02*
X195598286Y-129739628D01*
X195598286Y-129739628D02*
X195645905Y-129787247D01*
X195645905Y-129787247D02*
X195741143Y-129834866D01*
X195741143Y-129834866D02*
X195931619Y-129834866D01*
X195931619Y-129834866D02*
X196026857Y-129787247D01*
X196026857Y-129787247D02*
X196074476Y-129739628D01*
X196074476Y-129739628D02*
X196122095Y-129644390D01*
X129476714Y-69376819D02*
X129476714Y-70186342D01*
X129476714Y-70186342D02*
X129524333Y-70281580D01*
X129524333Y-70281580D02*
X129571952Y-70329200D01*
X129571952Y-70329200D02*
X129667190Y-70376819D01*
X129667190Y-70376819D02*
X129857666Y-70376819D01*
X129857666Y-70376819D02*
X129952904Y-70329200D01*
X129952904Y-70329200D02*
X130000523Y-70281580D01*
X130000523Y-70281580D02*
X130048142Y-70186342D01*
X130048142Y-70186342D02*
X130048142Y-69376819D01*
X130952904Y-69710152D02*
X130952904Y-70376819D01*
X130714809Y-69329200D02*
X130476714Y-70043485D01*
X130476714Y-70043485D02*
X131095761Y-70043485D01*
X131667190Y-69376819D02*
X131762428Y-69376819D01*
X131762428Y-69376819D02*
X131857666Y-69424438D01*
X131857666Y-69424438D02*
X131905285Y-69472057D01*
X131905285Y-69472057D02*
X131952904Y-69567295D01*
X131952904Y-69567295D02*
X132000523Y-69757771D01*
X132000523Y-69757771D02*
X132000523Y-69995866D01*
X132000523Y-69995866D02*
X131952904Y-70186342D01*
X131952904Y-70186342D02*
X131905285Y-70281580D01*
X131905285Y-70281580D02*
X131857666Y-70329200D01*
X131857666Y-70329200D02*
X131762428Y-70376819D01*
X131762428Y-70376819D02*
X131667190Y-70376819D01*
X131667190Y-70376819D02*
X131571952Y-70329200D01*
X131571952Y-70329200D02*
X131524333Y-70281580D01*
X131524333Y-70281580D02*
X131476714Y-70186342D01*
X131476714Y-70186342D02*
X131429095Y-69995866D01*
X131429095Y-69995866D02*
X131429095Y-69757771D01*
X131429095Y-69757771D02*
X131476714Y-69567295D01*
X131476714Y-69567295D02*
X131524333Y-69472057D01*
X131524333Y-69472057D02*
X131571952Y-69424438D01*
X131571952Y-69424438D02*
X131667190Y-69376819D01*
X132381476Y-69472057D02*
X132429095Y-69424438D01*
X132429095Y-69424438D02*
X132524333Y-69376819D01*
X132524333Y-69376819D02*
X132762428Y-69376819D01*
X132762428Y-69376819D02*
X132857666Y-69424438D01*
X132857666Y-69424438D02*
X132905285Y-69472057D01*
X132905285Y-69472057D02*
X132952904Y-69567295D01*
X132952904Y-69567295D02*
X132952904Y-69662533D01*
X132952904Y-69662533D02*
X132905285Y-69805390D01*
X132905285Y-69805390D02*
X132333857Y-70376819D01*
X132333857Y-70376819D02*
X132952904Y-70376819D01*
X193619452Y-124532580D02*
X193571833Y-124580200D01*
X193571833Y-124580200D02*
X193428976Y-124627819D01*
X193428976Y-124627819D02*
X193333738Y-124627819D01*
X193333738Y-124627819D02*
X193190881Y-124580200D01*
X193190881Y-124580200D02*
X193095643Y-124484961D01*
X193095643Y-124484961D02*
X193048024Y-124389723D01*
X193048024Y-124389723D02*
X193000405Y-124199247D01*
X193000405Y-124199247D02*
X193000405Y-124056390D01*
X193000405Y-124056390D02*
X193048024Y-123865914D01*
X193048024Y-123865914D02*
X193095643Y-123770676D01*
X193095643Y-123770676D02*
X193190881Y-123675438D01*
X193190881Y-123675438D02*
X193333738Y-123627819D01*
X193333738Y-123627819D02*
X193428976Y-123627819D01*
X193428976Y-123627819D02*
X193571833Y-123675438D01*
X193571833Y-123675438D02*
X193619452Y-123723057D01*
X193952786Y-123627819D02*
X194571833Y-123627819D01*
X194571833Y-123627819D02*
X194238500Y-124008771D01*
X194238500Y-124008771D02*
X194381357Y-124008771D01*
X194381357Y-124008771D02*
X194476595Y-124056390D01*
X194476595Y-124056390D02*
X194524214Y-124104009D01*
X194524214Y-124104009D02*
X194571833Y-124199247D01*
X194571833Y-124199247D02*
X194571833Y-124437342D01*
X194571833Y-124437342D02*
X194524214Y-124532580D01*
X194524214Y-124532580D02*
X194476595Y-124580200D01*
X194476595Y-124580200D02*
X194381357Y-124627819D01*
X194381357Y-124627819D02*
X194095643Y-124627819D01*
X194095643Y-124627819D02*
X194000405Y-124580200D01*
X194000405Y-124580200D02*
X193952786Y-124532580D01*
X195190881Y-123627819D02*
X195286119Y-123627819D01*
X195286119Y-123627819D02*
X195381357Y-123675438D01*
X195381357Y-123675438D02*
X195428976Y-123723057D01*
X195428976Y-123723057D02*
X195476595Y-123818295D01*
X195476595Y-123818295D02*
X195524214Y-124008771D01*
X195524214Y-124008771D02*
X195524214Y-124246866D01*
X195524214Y-124246866D02*
X195476595Y-124437342D01*
X195476595Y-124437342D02*
X195428976Y-124532580D01*
X195428976Y-124532580D02*
X195381357Y-124580200D01*
X195381357Y-124580200D02*
X195286119Y-124627819D01*
X195286119Y-124627819D02*
X195190881Y-124627819D01*
X195190881Y-124627819D02*
X195095643Y-124580200D01*
X195095643Y-124580200D02*
X195048024Y-124532580D01*
X195048024Y-124532580D02*
X195000405Y-124437342D01*
X195000405Y-124437342D02*
X194952786Y-124246866D01*
X194952786Y-124246866D02*
X194952786Y-124008771D01*
X194952786Y-124008771D02*
X195000405Y-123818295D01*
X195000405Y-123818295D02*
X195048024Y-123723057D01*
X195048024Y-123723057D02*
X195095643Y-123675438D01*
X195095643Y-123675438D02*
X195190881Y-123627819D01*
X195857548Y-123627819D02*
X196524214Y-123627819D01*
X196524214Y-123627819D02*
X196095643Y-124627819D01*
X102830524Y-61865819D02*
X102830524Y-60865819D01*
X102830524Y-60865819D02*
X103068619Y-60865819D01*
X103068619Y-60865819D02*
X103211476Y-60913438D01*
X103211476Y-60913438D02*
X103306714Y-61008676D01*
X103306714Y-61008676D02*
X103354333Y-61103914D01*
X103354333Y-61103914D02*
X103401952Y-61294390D01*
X103401952Y-61294390D02*
X103401952Y-61437247D01*
X103401952Y-61437247D02*
X103354333Y-61627723D01*
X103354333Y-61627723D02*
X103306714Y-61722961D01*
X103306714Y-61722961D02*
X103211476Y-61818200D01*
X103211476Y-61818200D02*
X103068619Y-61865819D01*
X103068619Y-61865819D02*
X102830524Y-61865819D01*
X104259095Y-61199152D02*
X104259095Y-61865819D01*
X104021000Y-60818200D02*
X103782905Y-61532485D01*
X103782905Y-61532485D02*
X104401952Y-61532485D01*
X104973381Y-60865819D02*
X105068619Y-60865819D01*
X105068619Y-60865819D02*
X105163857Y-60913438D01*
X105163857Y-60913438D02*
X105211476Y-60961057D01*
X105211476Y-60961057D02*
X105259095Y-61056295D01*
X105259095Y-61056295D02*
X105306714Y-61246771D01*
X105306714Y-61246771D02*
X105306714Y-61484866D01*
X105306714Y-61484866D02*
X105259095Y-61675342D01*
X105259095Y-61675342D02*
X105211476Y-61770580D01*
X105211476Y-61770580D02*
X105163857Y-61818200D01*
X105163857Y-61818200D02*
X105068619Y-61865819D01*
X105068619Y-61865819D02*
X104973381Y-61865819D01*
X104973381Y-61865819D02*
X104878143Y-61818200D01*
X104878143Y-61818200D02*
X104830524Y-61770580D01*
X104830524Y-61770580D02*
X104782905Y-61675342D01*
X104782905Y-61675342D02*
X104735286Y-61484866D01*
X104735286Y-61484866D02*
X104735286Y-61246771D01*
X104735286Y-61246771D02*
X104782905Y-61056295D01*
X104782905Y-61056295D02*
X104830524Y-60961057D01*
X104830524Y-60961057D02*
X104878143Y-60913438D01*
X104878143Y-60913438D02*
X104973381Y-60865819D01*
X106259095Y-61865819D02*
X105687667Y-61865819D01*
X105973381Y-61865819D02*
X105973381Y-60865819D01*
X105973381Y-60865819D02*
X105878143Y-61008676D01*
X105878143Y-61008676D02*
X105782905Y-61103914D01*
X105782905Y-61103914D02*
X105687667Y-61151533D01*
X99179095Y-62235819D02*
X99179095Y-61235819D01*
X99750523Y-62235819D02*
X99321952Y-61664390D01*
X99750523Y-61235819D02*
X99179095Y-61807247D01*
X185532819Y-146371047D02*
X185056628Y-146704380D01*
X185532819Y-146942475D02*
X184532819Y-146942475D01*
X184532819Y-146942475D02*
X184532819Y-146561523D01*
X184532819Y-146561523D02*
X184580438Y-146466285D01*
X184580438Y-146466285D02*
X184628057Y-146418666D01*
X184628057Y-146418666D02*
X184723295Y-146371047D01*
X184723295Y-146371047D02*
X184866152Y-146371047D01*
X184866152Y-146371047D02*
X184961390Y-146418666D01*
X184961390Y-146418666D02*
X185009009Y-146466285D01*
X185009009Y-146466285D02*
X185056628Y-146561523D01*
X185056628Y-146561523D02*
X185056628Y-146942475D01*
X184532819Y-146037713D02*
X184532819Y-145418666D01*
X184532819Y-145418666D02*
X184913771Y-145751999D01*
X184913771Y-145751999D02*
X184913771Y-145609142D01*
X184913771Y-145609142D02*
X184961390Y-145513904D01*
X184961390Y-145513904D02*
X185009009Y-145466285D01*
X185009009Y-145466285D02*
X185104247Y-145418666D01*
X185104247Y-145418666D02*
X185342342Y-145418666D01*
X185342342Y-145418666D02*
X185437580Y-145466285D01*
X185437580Y-145466285D02*
X185485200Y-145513904D01*
X185485200Y-145513904D02*
X185532819Y-145609142D01*
X185532819Y-145609142D02*
X185532819Y-145894856D01*
X185532819Y-145894856D02*
X185485200Y-145990094D01*
X185485200Y-145990094D02*
X185437580Y-146037713D01*
X184532819Y-144799618D02*
X184532819Y-144704380D01*
X184532819Y-144704380D02*
X184580438Y-144609142D01*
X184580438Y-144609142D02*
X184628057Y-144561523D01*
X184628057Y-144561523D02*
X184723295Y-144513904D01*
X184723295Y-144513904D02*
X184913771Y-144466285D01*
X184913771Y-144466285D02*
X185151866Y-144466285D01*
X185151866Y-144466285D02*
X185342342Y-144513904D01*
X185342342Y-144513904D02*
X185437580Y-144561523D01*
X185437580Y-144561523D02*
X185485200Y-144609142D01*
X185485200Y-144609142D02*
X185532819Y-144704380D01*
X185532819Y-144704380D02*
X185532819Y-144799618D01*
X185532819Y-144799618D02*
X185485200Y-144894856D01*
X185485200Y-144894856D02*
X185437580Y-144942475D01*
X185437580Y-144942475D02*
X185342342Y-144990094D01*
X185342342Y-144990094D02*
X185151866Y-145037713D01*
X185151866Y-145037713D02*
X184913771Y-145037713D01*
X184913771Y-145037713D02*
X184723295Y-144990094D01*
X184723295Y-144990094D02*
X184628057Y-144942475D01*
X184628057Y-144942475D02*
X184580438Y-144894856D01*
X184580438Y-144894856D02*
X184532819Y-144799618D01*
X184532819Y-143561523D02*
X184532819Y-144037713D01*
X184532819Y-144037713D02*
X185009009Y-144085332D01*
X185009009Y-144085332D02*
X184961390Y-144037713D01*
X184961390Y-144037713D02*
X184913771Y-143942475D01*
X184913771Y-143942475D02*
X184913771Y-143704380D01*
X184913771Y-143704380D02*
X184961390Y-143609142D01*
X184961390Y-143609142D02*
X185009009Y-143561523D01*
X185009009Y-143561523D02*
X185104247Y-143513904D01*
X185104247Y-143513904D02*
X185342342Y-143513904D01*
X185342342Y-143513904D02*
X185437580Y-143561523D01*
X185437580Y-143561523D02*
X185485200Y-143609142D01*
X185485200Y-143609142D02*
X185532819Y-143704380D01*
X185532819Y-143704380D02*
X185532819Y-143942475D01*
X185532819Y-143942475D02*
X185485200Y-144037713D01*
X185485200Y-144037713D02*
X185437580Y-144085332D01*
X85923714Y-88013819D02*
X86495142Y-88013819D01*
X86209428Y-89013819D02*
X86209428Y-88013819D01*
X86828476Y-89013819D02*
X86828476Y-88013819D01*
X86828476Y-88013819D02*
X87209428Y-88013819D01*
X87209428Y-88013819D02*
X87304666Y-88061438D01*
X87304666Y-88061438D02*
X87352285Y-88109057D01*
X87352285Y-88109057D02*
X87399904Y-88204295D01*
X87399904Y-88204295D02*
X87399904Y-88347152D01*
X87399904Y-88347152D02*
X87352285Y-88442390D01*
X87352285Y-88442390D02*
X87304666Y-88490009D01*
X87304666Y-88490009D02*
X87209428Y-88537628D01*
X87209428Y-88537628D02*
X86828476Y-88537628D01*
X87733238Y-88013819D02*
X88352285Y-88013819D01*
X88352285Y-88013819D02*
X88018952Y-88394771D01*
X88018952Y-88394771D02*
X88161809Y-88394771D01*
X88161809Y-88394771D02*
X88257047Y-88442390D01*
X88257047Y-88442390D02*
X88304666Y-88490009D01*
X88304666Y-88490009D02*
X88352285Y-88585247D01*
X88352285Y-88585247D02*
X88352285Y-88823342D01*
X88352285Y-88823342D02*
X88304666Y-88918580D01*
X88304666Y-88918580D02*
X88257047Y-88966200D01*
X88257047Y-88966200D02*
X88161809Y-89013819D01*
X88161809Y-89013819D02*
X87876095Y-89013819D01*
X87876095Y-89013819D02*
X87780857Y-88966200D01*
X87780857Y-88966200D02*
X87733238Y-88918580D01*
X88971333Y-88013819D02*
X89066571Y-88013819D01*
X89066571Y-88013819D02*
X89161809Y-88061438D01*
X89161809Y-88061438D02*
X89209428Y-88109057D01*
X89209428Y-88109057D02*
X89257047Y-88204295D01*
X89257047Y-88204295D02*
X89304666Y-88394771D01*
X89304666Y-88394771D02*
X89304666Y-88632866D01*
X89304666Y-88632866D02*
X89257047Y-88823342D01*
X89257047Y-88823342D02*
X89209428Y-88918580D01*
X89209428Y-88918580D02*
X89161809Y-88966200D01*
X89161809Y-88966200D02*
X89066571Y-89013819D01*
X89066571Y-89013819D02*
X88971333Y-89013819D01*
X88971333Y-89013819D02*
X88876095Y-88966200D01*
X88876095Y-88966200D02*
X88828476Y-88918580D01*
X88828476Y-88918580D02*
X88780857Y-88823342D01*
X88780857Y-88823342D02*
X88733238Y-88632866D01*
X88733238Y-88632866D02*
X88733238Y-88394771D01*
X88733238Y-88394771D02*
X88780857Y-88204295D01*
X88780857Y-88204295D02*
X88828476Y-88109057D01*
X88828476Y-88109057D02*
X88876095Y-88061438D01*
X88876095Y-88061438D02*
X88971333Y-88013819D01*
X89638000Y-88013819D02*
X90257047Y-88013819D01*
X90257047Y-88013819D02*
X89923714Y-88394771D01*
X89923714Y-88394771D02*
X90066571Y-88394771D01*
X90066571Y-88394771D02*
X90161809Y-88442390D01*
X90161809Y-88442390D02*
X90209428Y-88490009D01*
X90209428Y-88490009D02*
X90257047Y-88585247D01*
X90257047Y-88585247D02*
X90257047Y-88823342D01*
X90257047Y-88823342D02*
X90209428Y-88918580D01*
X90209428Y-88918580D02*
X90161809Y-88966200D01*
X90161809Y-88966200D02*
X90066571Y-89013819D01*
X90066571Y-89013819D02*
X89780857Y-89013819D01*
X89780857Y-89013819D02*
X89685619Y-88966200D01*
X89685619Y-88966200D02*
X89638000Y-88918580D01*
D11*
X128828685Y-125112257D02*
X128828685Y-124791415D01*
X128828685Y-124791415D02*
X128935633Y-125020588D01*
X128935633Y-125020588D02*
X129042580Y-124791415D01*
X129042580Y-124791415D02*
X129042580Y-125112257D01*
X129195362Y-125112257D02*
X129195362Y-124791415D01*
X129378701Y-125112257D02*
X129241197Y-124928918D01*
X129378701Y-124791415D02*
X129195362Y-124974753D01*
X129500926Y-124821971D02*
X129516204Y-124806693D01*
X129516204Y-124806693D02*
X129546761Y-124791415D01*
X129546761Y-124791415D02*
X129623152Y-124791415D01*
X129623152Y-124791415D02*
X129653708Y-124806693D01*
X129653708Y-124806693D02*
X129668986Y-124821971D01*
X129668986Y-124821971D02*
X129684265Y-124852527D01*
X129684265Y-124852527D02*
X129684265Y-124883084D01*
X129684265Y-124883084D02*
X129668986Y-124928918D01*
X129668986Y-124928918D02*
X129485648Y-125112257D01*
X129485648Y-125112257D02*
X129684265Y-125112257D01*
X129882881Y-124791415D02*
X129913438Y-124791415D01*
X129913438Y-124791415D02*
X129943994Y-124806693D01*
X129943994Y-124806693D02*
X129959272Y-124821971D01*
X129959272Y-124821971D02*
X129974550Y-124852527D01*
X129974550Y-124852527D02*
X129989829Y-124913640D01*
X129989829Y-124913640D02*
X129989829Y-124990031D01*
X129989829Y-124990031D02*
X129974550Y-125051144D01*
X129974550Y-125051144D02*
X129959272Y-125081700D01*
X129959272Y-125081700D02*
X129943994Y-125096979D01*
X129943994Y-125096979D02*
X129913438Y-125112257D01*
X129913438Y-125112257D02*
X129882881Y-125112257D01*
X129882881Y-125112257D02*
X129852325Y-125096979D01*
X129852325Y-125096979D02*
X129837047Y-125081700D01*
X129837047Y-125081700D02*
X129821768Y-125051144D01*
X129821768Y-125051144D02*
X129806490Y-124990031D01*
X129806490Y-124990031D02*
X129806490Y-124913640D01*
X129806490Y-124913640D02*
X129821768Y-124852527D01*
X129821768Y-124852527D02*
X129837047Y-124821971D01*
X129837047Y-124821971D02*
X129852325Y-124806693D01*
X129852325Y-124806693D02*
X129882881Y-124791415D01*
X130295393Y-125112257D02*
X130112054Y-125112257D01*
X130203723Y-125112257D02*
X130203723Y-124791415D01*
X130203723Y-124791415D02*
X130173167Y-124837249D01*
X130173167Y-124837249D02*
X130142611Y-124867806D01*
X130142611Y-124867806D02*
X130112054Y-124883084D01*
D10*
X194788952Y-119108580D02*
X194741333Y-119156200D01*
X194741333Y-119156200D02*
X194598476Y-119203819D01*
X194598476Y-119203819D02*
X194503238Y-119203819D01*
X194503238Y-119203819D02*
X194360381Y-119156200D01*
X194360381Y-119156200D02*
X194265143Y-119060961D01*
X194265143Y-119060961D02*
X194217524Y-118965723D01*
X194217524Y-118965723D02*
X194169905Y-118775247D01*
X194169905Y-118775247D02*
X194169905Y-118632390D01*
X194169905Y-118632390D02*
X194217524Y-118441914D01*
X194217524Y-118441914D02*
X194265143Y-118346676D01*
X194265143Y-118346676D02*
X194360381Y-118251438D01*
X194360381Y-118251438D02*
X194503238Y-118203819D01*
X194503238Y-118203819D02*
X194598476Y-118203819D01*
X194598476Y-118203819D02*
X194741333Y-118251438D01*
X194741333Y-118251438D02*
X194788952Y-118299057D01*
X195122286Y-118203819D02*
X195741333Y-118203819D01*
X195741333Y-118203819D02*
X195408000Y-118584771D01*
X195408000Y-118584771D02*
X195550857Y-118584771D01*
X195550857Y-118584771D02*
X195646095Y-118632390D01*
X195646095Y-118632390D02*
X195693714Y-118680009D01*
X195693714Y-118680009D02*
X195741333Y-118775247D01*
X195741333Y-118775247D02*
X195741333Y-119013342D01*
X195741333Y-119013342D02*
X195693714Y-119108580D01*
X195693714Y-119108580D02*
X195646095Y-119156200D01*
X195646095Y-119156200D02*
X195550857Y-119203819D01*
X195550857Y-119203819D02*
X195265143Y-119203819D01*
X195265143Y-119203819D02*
X195169905Y-119156200D01*
X195169905Y-119156200D02*
X195122286Y-119108580D01*
X196360381Y-118203819D02*
X196455619Y-118203819D01*
X196455619Y-118203819D02*
X196550857Y-118251438D01*
X196550857Y-118251438D02*
X196598476Y-118299057D01*
X196598476Y-118299057D02*
X196646095Y-118394295D01*
X196646095Y-118394295D02*
X196693714Y-118584771D01*
X196693714Y-118584771D02*
X196693714Y-118822866D01*
X196693714Y-118822866D02*
X196646095Y-119013342D01*
X196646095Y-119013342D02*
X196598476Y-119108580D01*
X196598476Y-119108580D02*
X196550857Y-119156200D01*
X196550857Y-119156200D02*
X196455619Y-119203819D01*
X196455619Y-119203819D02*
X196360381Y-119203819D01*
X196360381Y-119203819D02*
X196265143Y-119156200D01*
X196265143Y-119156200D02*
X196217524Y-119108580D01*
X196217524Y-119108580D02*
X196169905Y-119013342D01*
X196169905Y-119013342D02*
X196122286Y-118822866D01*
X196122286Y-118822866D02*
X196122286Y-118584771D01*
X196122286Y-118584771D02*
X196169905Y-118394295D01*
X196169905Y-118394295D02*
X196217524Y-118299057D01*
X196217524Y-118299057D02*
X196265143Y-118251438D01*
X196265143Y-118251438D02*
X196360381Y-118203819D01*
X197027048Y-118203819D02*
X197646095Y-118203819D01*
X197646095Y-118203819D02*
X197312762Y-118584771D01*
X197312762Y-118584771D02*
X197455619Y-118584771D01*
X197455619Y-118584771D02*
X197550857Y-118632390D01*
X197550857Y-118632390D02*
X197598476Y-118680009D01*
X197598476Y-118680009D02*
X197646095Y-118775247D01*
X197646095Y-118775247D02*
X197646095Y-119013342D01*
X197646095Y-119013342D02*
X197598476Y-119108580D01*
X197598476Y-119108580D02*
X197550857Y-119156200D01*
X197550857Y-119156200D02*
X197455619Y-119203819D01*
X197455619Y-119203819D02*
X197169905Y-119203819D01*
X197169905Y-119203819D02*
X197074667Y-119156200D01*
X197074667Y-119156200D02*
X197027048Y-119108580D01*
X123836580Y-82907047D02*
X123884200Y-82954666D01*
X123884200Y-82954666D02*
X123931819Y-83097523D01*
X123931819Y-83097523D02*
X123931819Y-83192761D01*
X123931819Y-83192761D02*
X123884200Y-83335618D01*
X123884200Y-83335618D02*
X123788961Y-83430856D01*
X123788961Y-83430856D02*
X123693723Y-83478475D01*
X123693723Y-83478475D02*
X123503247Y-83526094D01*
X123503247Y-83526094D02*
X123360390Y-83526094D01*
X123360390Y-83526094D02*
X123169914Y-83478475D01*
X123169914Y-83478475D02*
X123074676Y-83430856D01*
X123074676Y-83430856D02*
X122979438Y-83335618D01*
X122979438Y-83335618D02*
X122931819Y-83192761D01*
X122931819Y-83192761D02*
X122931819Y-83097523D01*
X122931819Y-83097523D02*
X122979438Y-82954666D01*
X122979438Y-82954666D02*
X123027057Y-82907047D01*
X123265152Y-82049904D02*
X123931819Y-82049904D01*
X122884200Y-82287999D02*
X123598485Y-82526094D01*
X123598485Y-82526094D02*
X123598485Y-81907047D01*
X122931819Y-81335618D02*
X122931819Y-81240380D01*
X122931819Y-81240380D02*
X122979438Y-81145142D01*
X122979438Y-81145142D02*
X123027057Y-81097523D01*
X123027057Y-81097523D02*
X123122295Y-81049904D01*
X123122295Y-81049904D02*
X123312771Y-81002285D01*
X123312771Y-81002285D02*
X123550866Y-81002285D01*
X123550866Y-81002285D02*
X123741342Y-81049904D01*
X123741342Y-81049904D02*
X123836580Y-81097523D01*
X123836580Y-81097523D02*
X123884200Y-81145142D01*
X123884200Y-81145142D02*
X123931819Y-81240380D01*
X123931819Y-81240380D02*
X123931819Y-81335618D01*
X123931819Y-81335618D02*
X123884200Y-81430856D01*
X123884200Y-81430856D02*
X123836580Y-81478475D01*
X123836580Y-81478475D02*
X123741342Y-81526094D01*
X123741342Y-81526094D02*
X123550866Y-81573713D01*
X123550866Y-81573713D02*
X123312771Y-81573713D01*
X123312771Y-81573713D02*
X123122295Y-81526094D01*
X123122295Y-81526094D02*
X123027057Y-81478475D01*
X123027057Y-81478475D02*
X122979438Y-81430856D01*
X122979438Y-81430856D02*
X122931819Y-81335618D01*
X123265152Y-80145142D02*
X123931819Y-80145142D01*
X122884200Y-80383237D02*
X123598485Y-80621332D01*
X123598485Y-80621332D02*
X123598485Y-80002285D01*
X103450580Y-72493047D02*
X103498200Y-72540666D01*
X103498200Y-72540666D02*
X103545819Y-72683523D01*
X103545819Y-72683523D02*
X103545819Y-72778761D01*
X103545819Y-72778761D02*
X103498200Y-72921618D01*
X103498200Y-72921618D02*
X103402961Y-73016856D01*
X103402961Y-73016856D02*
X103307723Y-73064475D01*
X103307723Y-73064475D02*
X103117247Y-73112094D01*
X103117247Y-73112094D02*
X102974390Y-73112094D01*
X102974390Y-73112094D02*
X102783914Y-73064475D01*
X102783914Y-73064475D02*
X102688676Y-73016856D01*
X102688676Y-73016856D02*
X102593438Y-72921618D01*
X102593438Y-72921618D02*
X102545819Y-72778761D01*
X102545819Y-72778761D02*
X102545819Y-72683523D01*
X102545819Y-72683523D02*
X102593438Y-72540666D01*
X102593438Y-72540666D02*
X102641057Y-72493047D01*
X102879152Y-71635904D02*
X103545819Y-71635904D01*
X102498200Y-71873999D02*
X103212485Y-72112094D01*
X103212485Y-72112094D02*
X103212485Y-71493047D01*
X102545819Y-70921618D02*
X102545819Y-70826380D01*
X102545819Y-70826380D02*
X102593438Y-70731142D01*
X102593438Y-70731142D02*
X102641057Y-70683523D01*
X102641057Y-70683523D02*
X102736295Y-70635904D01*
X102736295Y-70635904D02*
X102926771Y-70588285D01*
X102926771Y-70588285D02*
X103164866Y-70588285D01*
X103164866Y-70588285D02*
X103355342Y-70635904D01*
X103355342Y-70635904D02*
X103450580Y-70683523D01*
X103450580Y-70683523D02*
X103498200Y-70731142D01*
X103498200Y-70731142D02*
X103545819Y-70826380D01*
X103545819Y-70826380D02*
X103545819Y-70921618D01*
X103545819Y-70921618D02*
X103498200Y-71016856D01*
X103498200Y-71016856D02*
X103450580Y-71064475D01*
X103450580Y-71064475D02*
X103355342Y-71112094D01*
X103355342Y-71112094D02*
X103164866Y-71159713D01*
X103164866Y-71159713D02*
X102926771Y-71159713D01*
X102926771Y-71159713D02*
X102736295Y-71112094D01*
X102736295Y-71112094D02*
X102641057Y-71064475D01*
X102641057Y-71064475D02*
X102593438Y-71016856D01*
X102593438Y-71016856D02*
X102545819Y-70921618D01*
X102545819Y-70254951D02*
X102545819Y-69635904D01*
X102545819Y-69635904D02*
X102926771Y-69969237D01*
X102926771Y-69969237D02*
X102926771Y-69826380D01*
X102926771Y-69826380D02*
X102974390Y-69731142D01*
X102974390Y-69731142D02*
X103022009Y-69683523D01*
X103022009Y-69683523D02*
X103117247Y-69635904D01*
X103117247Y-69635904D02*
X103355342Y-69635904D01*
X103355342Y-69635904D02*
X103450580Y-69683523D01*
X103450580Y-69683523D02*
X103498200Y-69731142D01*
X103498200Y-69731142D02*
X103545819Y-69826380D01*
X103545819Y-69826380D02*
X103545819Y-70112094D01*
X103545819Y-70112094D02*
X103498200Y-70207332D01*
X103498200Y-70207332D02*
X103450580Y-70254951D01*
X141113819Y-74080475D02*
X140113819Y-74080475D01*
X140113819Y-74080475D02*
X140113819Y-73842380D01*
X140113819Y-73842380D02*
X140161438Y-73699523D01*
X140161438Y-73699523D02*
X140256676Y-73604285D01*
X140256676Y-73604285D02*
X140351914Y-73556666D01*
X140351914Y-73556666D02*
X140542390Y-73509047D01*
X140542390Y-73509047D02*
X140685247Y-73509047D01*
X140685247Y-73509047D02*
X140875723Y-73556666D01*
X140875723Y-73556666D02*
X140970961Y-73604285D01*
X140970961Y-73604285D02*
X141066200Y-73699523D01*
X141066200Y-73699523D02*
X141113819Y-73842380D01*
X141113819Y-73842380D02*
X141113819Y-74080475D01*
X140447152Y-72651904D02*
X141113819Y-72651904D01*
X140066200Y-72889999D02*
X140780485Y-73128094D01*
X140780485Y-73128094D02*
X140780485Y-72509047D01*
X140113819Y-71937618D02*
X140113819Y-71842380D01*
X140113819Y-71842380D02*
X140161438Y-71747142D01*
X140161438Y-71747142D02*
X140209057Y-71699523D01*
X140209057Y-71699523D02*
X140304295Y-71651904D01*
X140304295Y-71651904D02*
X140494771Y-71604285D01*
X140494771Y-71604285D02*
X140732866Y-71604285D01*
X140732866Y-71604285D02*
X140923342Y-71651904D01*
X140923342Y-71651904D02*
X141018580Y-71699523D01*
X141018580Y-71699523D02*
X141066200Y-71747142D01*
X141066200Y-71747142D02*
X141113819Y-71842380D01*
X141113819Y-71842380D02*
X141113819Y-71937618D01*
X141113819Y-71937618D02*
X141066200Y-72032856D01*
X141066200Y-72032856D02*
X141018580Y-72080475D01*
X141018580Y-72080475D02*
X140923342Y-72128094D01*
X140923342Y-72128094D02*
X140732866Y-72175713D01*
X140732866Y-72175713D02*
X140494771Y-72175713D01*
X140494771Y-72175713D02*
X140304295Y-72128094D01*
X140304295Y-72128094D02*
X140209057Y-72080475D01*
X140209057Y-72080475D02*
X140161438Y-72032856D01*
X140161438Y-72032856D02*
X140113819Y-71937618D01*
X140447152Y-70747142D02*
X141113819Y-70747142D01*
X140066200Y-70985237D02*
X140780485Y-71223332D01*
X140780485Y-71223332D02*
X140780485Y-70604285D01*
X141483819Y-77731904D02*
X140483819Y-77731904D01*
X141483819Y-77160476D02*
X140912390Y-77589047D01*
X140483819Y-77160476D02*
X141055247Y-77731904D01*
X177364580Y-84648047D02*
X177412200Y-84695666D01*
X177412200Y-84695666D02*
X177459819Y-84838523D01*
X177459819Y-84838523D02*
X177459819Y-84933761D01*
X177459819Y-84933761D02*
X177412200Y-85076618D01*
X177412200Y-85076618D02*
X177316961Y-85171856D01*
X177316961Y-85171856D02*
X177221723Y-85219475D01*
X177221723Y-85219475D02*
X177031247Y-85267094D01*
X177031247Y-85267094D02*
X176888390Y-85267094D01*
X176888390Y-85267094D02*
X176697914Y-85219475D01*
X176697914Y-85219475D02*
X176602676Y-85171856D01*
X176602676Y-85171856D02*
X176507438Y-85076618D01*
X176507438Y-85076618D02*
X176459819Y-84933761D01*
X176459819Y-84933761D02*
X176459819Y-84838523D01*
X176459819Y-84838523D02*
X176507438Y-84695666D01*
X176507438Y-84695666D02*
X176555057Y-84648047D01*
X176459819Y-84314713D02*
X176459819Y-83695666D01*
X176459819Y-83695666D02*
X176840771Y-84028999D01*
X176840771Y-84028999D02*
X176840771Y-83886142D01*
X176840771Y-83886142D02*
X176888390Y-83790904D01*
X176888390Y-83790904D02*
X176936009Y-83743285D01*
X176936009Y-83743285D02*
X177031247Y-83695666D01*
X177031247Y-83695666D02*
X177269342Y-83695666D01*
X177269342Y-83695666D02*
X177364580Y-83743285D01*
X177364580Y-83743285D02*
X177412200Y-83790904D01*
X177412200Y-83790904D02*
X177459819Y-83886142D01*
X177459819Y-83886142D02*
X177459819Y-84171856D01*
X177459819Y-84171856D02*
X177412200Y-84267094D01*
X177412200Y-84267094D02*
X177364580Y-84314713D01*
X176459819Y-83076618D02*
X176459819Y-82981380D01*
X176459819Y-82981380D02*
X176507438Y-82886142D01*
X176507438Y-82886142D02*
X176555057Y-82838523D01*
X176555057Y-82838523D02*
X176650295Y-82790904D01*
X176650295Y-82790904D02*
X176840771Y-82743285D01*
X176840771Y-82743285D02*
X177078866Y-82743285D01*
X177078866Y-82743285D02*
X177269342Y-82790904D01*
X177269342Y-82790904D02*
X177364580Y-82838523D01*
X177364580Y-82838523D02*
X177412200Y-82886142D01*
X177412200Y-82886142D02*
X177459819Y-82981380D01*
X177459819Y-82981380D02*
X177459819Y-83076618D01*
X177459819Y-83076618D02*
X177412200Y-83171856D01*
X177412200Y-83171856D02*
X177364580Y-83219475D01*
X177364580Y-83219475D02*
X177269342Y-83267094D01*
X177269342Y-83267094D02*
X177078866Y-83314713D01*
X177078866Y-83314713D02*
X176840771Y-83314713D01*
X176840771Y-83314713D02*
X176650295Y-83267094D01*
X176650295Y-83267094D02*
X176555057Y-83219475D01*
X176555057Y-83219475D02*
X176507438Y-83171856D01*
X176507438Y-83171856D02*
X176459819Y-83076618D01*
X177459819Y-81790904D02*
X177459819Y-82362332D01*
X177459819Y-82076618D02*
X176459819Y-82076618D01*
X176459819Y-82076618D02*
X176602676Y-82171856D01*
X176602676Y-82171856D02*
X176697914Y-82267094D01*
X176697914Y-82267094D02*
X176745533Y-82362332D01*
X177110580Y-92014047D02*
X177158200Y-92061666D01*
X177158200Y-92061666D02*
X177205819Y-92204523D01*
X177205819Y-92204523D02*
X177205819Y-92299761D01*
X177205819Y-92299761D02*
X177158200Y-92442618D01*
X177158200Y-92442618D02*
X177062961Y-92537856D01*
X177062961Y-92537856D02*
X176967723Y-92585475D01*
X176967723Y-92585475D02*
X176777247Y-92633094D01*
X176777247Y-92633094D02*
X176634390Y-92633094D01*
X176634390Y-92633094D02*
X176443914Y-92585475D01*
X176443914Y-92585475D02*
X176348676Y-92537856D01*
X176348676Y-92537856D02*
X176253438Y-92442618D01*
X176253438Y-92442618D02*
X176205819Y-92299761D01*
X176205819Y-92299761D02*
X176205819Y-92204523D01*
X176205819Y-92204523D02*
X176253438Y-92061666D01*
X176253438Y-92061666D02*
X176301057Y-92014047D01*
X176205819Y-91680713D02*
X176205819Y-91061666D01*
X176205819Y-91061666D02*
X176586771Y-91394999D01*
X176586771Y-91394999D02*
X176586771Y-91252142D01*
X176586771Y-91252142D02*
X176634390Y-91156904D01*
X176634390Y-91156904D02*
X176682009Y-91109285D01*
X176682009Y-91109285D02*
X176777247Y-91061666D01*
X176777247Y-91061666D02*
X177015342Y-91061666D01*
X177015342Y-91061666D02*
X177110580Y-91109285D01*
X177110580Y-91109285D02*
X177158200Y-91156904D01*
X177158200Y-91156904D02*
X177205819Y-91252142D01*
X177205819Y-91252142D02*
X177205819Y-91537856D01*
X177205819Y-91537856D02*
X177158200Y-91633094D01*
X177158200Y-91633094D02*
X177110580Y-91680713D01*
X176205819Y-90442618D02*
X176205819Y-90347380D01*
X176205819Y-90347380D02*
X176253438Y-90252142D01*
X176253438Y-90252142D02*
X176301057Y-90204523D01*
X176301057Y-90204523D02*
X176396295Y-90156904D01*
X176396295Y-90156904D02*
X176586771Y-90109285D01*
X176586771Y-90109285D02*
X176824866Y-90109285D01*
X176824866Y-90109285D02*
X177015342Y-90156904D01*
X177015342Y-90156904D02*
X177110580Y-90204523D01*
X177110580Y-90204523D02*
X177158200Y-90252142D01*
X177158200Y-90252142D02*
X177205819Y-90347380D01*
X177205819Y-90347380D02*
X177205819Y-90442618D01*
X177205819Y-90442618D02*
X177158200Y-90537856D01*
X177158200Y-90537856D02*
X177110580Y-90585475D01*
X177110580Y-90585475D02*
X177015342Y-90633094D01*
X177015342Y-90633094D02*
X176824866Y-90680713D01*
X176824866Y-90680713D02*
X176586771Y-90680713D01*
X176586771Y-90680713D02*
X176396295Y-90633094D01*
X176396295Y-90633094D02*
X176301057Y-90585475D01*
X176301057Y-90585475D02*
X176253438Y-90537856D01*
X176253438Y-90537856D02*
X176205819Y-90442618D01*
X176301057Y-89728332D02*
X176253438Y-89680713D01*
X176253438Y-89680713D02*
X176205819Y-89585475D01*
X176205819Y-89585475D02*
X176205819Y-89347380D01*
X176205819Y-89347380D02*
X176253438Y-89252142D01*
X176253438Y-89252142D02*
X176301057Y-89204523D01*
X176301057Y-89204523D02*
X176396295Y-89156904D01*
X176396295Y-89156904D02*
X176491533Y-89156904D01*
X176491533Y-89156904D02*
X176634390Y-89204523D01*
X176634390Y-89204523D02*
X177205819Y-89775951D01*
X177205819Y-89775951D02*
X177205819Y-89156904D01*
X132892452Y-82114580D02*
X132844833Y-82162200D01*
X132844833Y-82162200D02*
X132701976Y-82209819D01*
X132701976Y-82209819D02*
X132606738Y-82209819D01*
X132606738Y-82209819D02*
X132463881Y-82162200D01*
X132463881Y-82162200D02*
X132368643Y-82066961D01*
X132368643Y-82066961D02*
X132321024Y-81971723D01*
X132321024Y-81971723D02*
X132273405Y-81781247D01*
X132273405Y-81781247D02*
X132273405Y-81638390D01*
X132273405Y-81638390D02*
X132321024Y-81447914D01*
X132321024Y-81447914D02*
X132368643Y-81352676D01*
X132368643Y-81352676D02*
X132463881Y-81257438D01*
X132463881Y-81257438D02*
X132606738Y-81209819D01*
X132606738Y-81209819D02*
X132701976Y-81209819D01*
X132701976Y-81209819D02*
X132844833Y-81257438D01*
X132844833Y-81257438D02*
X132892452Y-81305057D01*
X133749595Y-81543152D02*
X133749595Y-82209819D01*
X133511500Y-81162200D02*
X133273405Y-81876485D01*
X133273405Y-81876485D02*
X133892452Y-81876485D01*
X134463881Y-81209819D02*
X134559119Y-81209819D01*
X134559119Y-81209819D02*
X134654357Y-81257438D01*
X134654357Y-81257438D02*
X134701976Y-81305057D01*
X134701976Y-81305057D02*
X134749595Y-81400295D01*
X134749595Y-81400295D02*
X134797214Y-81590771D01*
X134797214Y-81590771D02*
X134797214Y-81828866D01*
X134797214Y-81828866D02*
X134749595Y-82019342D01*
X134749595Y-82019342D02*
X134701976Y-82114580D01*
X134701976Y-82114580D02*
X134654357Y-82162200D01*
X134654357Y-82162200D02*
X134559119Y-82209819D01*
X134559119Y-82209819D02*
X134463881Y-82209819D01*
X134463881Y-82209819D02*
X134368643Y-82162200D01*
X134368643Y-82162200D02*
X134321024Y-82114580D01*
X134321024Y-82114580D02*
X134273405Y-82019342D01*
X134273405Y-82019342D02*
X134225786Y-81828866D01*
X134225786Y-81828866D02*
X134225786Y-81590771D01*
X134225786Y-81590771D02*
X134273405Y-81400295D01*
X134273405Y-81400295D02*
X134321024Y-81305057D01*
X134321024Y-81305057D02*
X134368643Y-81257438D01*
X134368643Y-81257438D02*
X134463881Y-81209819D01*
X135178167Y-81305057D02*
X135225786Y-81257438D01*
X135225786Y-81257438D02*
X135321024Y-81209819D01*
X135321024Y-81209819D02*
X135559119Y-81209819D01*
X135559119Y-81209819D02*
X135654357Y-81257438D01*
X135654357Y-81257438D02*
X135701976Y-81305057D01*
X135701976Y-81305057D02*
X135749595Y-81400295D01*
X135749595Y-81400295D02*
X135749595Y-81495533D01*
X135749595Y-81495533D02*
X135701976Y-81638390D01*
X135701976Y-81638390D02*
X135130548Y-82209819D01*
X135130548Y-82209819D02*
X135749595Y-82209819D01*
X136294952Y-139901819D02*
X135961619Y-139425628D01*
X135723524Y-139901819D02*
X135723524Y-138901819D01*
X135723524Y-138901819D02*
X136104476Y-138901819D01*
X136104476Y-138901819D02*
X136199714Y-138949438D01*
X136199714Y-138949438D02*
X136247333Y-138997057D01*
X136247333Y-138997057D02*
X136294952Y-139092295D01*
X136294952Y-139092295D02*
X136294952Y-139235152D01*
X136294952Y-139235152D02*
X136247333Y-139330390D01*
X136247333Y-139330390D02*
X136199714Y-139378009D01*
X136199714Y-139378009D02*
X136104476Y-139425628D01*
X136104476Y-139425628D02*
X135723524Y-139425628D01*
X136628286Y-138901819D02*
X137247333Y-138901819D01*
X137247333Y-138901819D02*
X136914000Y-139282771D01*
X136914000Y-139282771D02*
X137056857Y-139282771D01*
X137056857Y-139282771D02*
X137152095Y-139330390D01*
X137152095Y-139330390D02*
X137199714Y-139378009D01*
X137199714Y-139378009D02*
X137247333Y-139473247D01*
X137247333Y-139473247D02*
X137247333Y-139711342D01*
X137247333Y-139711342D02*
X137199714Y-139806580D01*
X137199714Y-139806580D02*
X137152095Y-139854200D01*
X137152095Y-139854200D02*
X137056857Y-139901819D01*
X137056857Y-139901819D02*
X136771143Y-139901819D01*
X136771143Y-139901819D02*
X136675905Y-139854200D01*
X136675905Y-139854200D02*
X136628286Y-139806580D01*
X137866381Y-138901819D02*
X137961619Y-138901819D01*
X137961619Y-138901819D02*
X138056857Y-138949438D01*
X138056857Y-138949438D02*
X138104476Y-138997057D01*
X138104476Y-138997057D02*
X138152095Y-139092295D01*
X138152095Y-139092295D02*
X138199714Y-139282771D01*
X138199714Y-139282771D02*
X138199714Y-139520866D01*
X138199714Y-139520866D02*
X138152095Y-139711342D01*
X138152095Y-139711342D02*
X138104476Y-139806580D01*
X138104476Y-139806580D02*
X138056857Y-139854200D01*
X138056857Y-139854200D02*
X137961619Y-139901819D01*
X137961619Y-139901819D02*
X137866381Y-139901819D01*
X137866381Y-139901819D02*
X137771143Y-139854200D01*
X137771143Y-139854200D02*
X137723524Y-139806580D01*
X137723524Y-139806580D02*
X137675905Y-139711342D01*
X137675905Y-139711342D02*
X137628286Y-139520866D01*
X137628286Y-139520866D02*
X137628286Y-139282771D01*
X137628286Y-139282771D02*
X137675905Y-139092295D01*
X137675905Y-139092295D02*
X137723524Y-138997057D01*
X137723524Y-138997057D02*
X137771143Y-138949438D01*
X137771143Y-138949438D02*
X137866381Y-138901819D01*
X138533048Y-138901819D02*
X139199714Y-138901819D01*
X139199714Y-138901819D02*
X138771143Y-139901819D01*
X163322286Y-129130200D02*
X163465143Y-129177819D01*
X163465143Y-129177819D02*
X163703238Y-129177819D01*
X163703238Y-129177819D02*
X163798476Y-129130200D01*
X163798476Y-129130200D02*
X163846095Y-129082580D01*
X163846095Y-129082580D02*
X163893714Y-128987342D01*
X163893714Y-128987342D02*
X163893714Y-128892104D01*
X163893714Y-128892104D02*
X163846095Y-128796866D01*
X163846095Y-128796866D02*
X163798476Y-128749247D01*
X163798476Y-128749247D02*
X163703238Y-128701628D01*
X163703238Y-128701628D02*
X163512762Y-128654009D01*
X163512762Y-128654009D02*
X163417524Y-128606390D01*
X163417524Y-128606390D02*
X163369905Y-128558771D01*
X163369905Y-128558771D02*
X163322286Y-128463533D01*
X163322286Y-128463533D02*
X163322286Y-128368295D01*
X163322286Y-128368295D02*
X163369905Y-128273057D01*
X163369905Y-128273057D02*
X163417524Y-128225438D01*
X163417524Y-128225438D02*
X163512762Y-128177819D01*
X163512762Y-128177819D02*
X163750857Y-128177819D01*
X163750857Y-128177819D02*
X163893714Y-128225438D01*
X164227048Y-128177819D02*
X164465143Y-129177819D01*
X164465143Y-129177819D02*
X164655619Y-128463533D01*
X164655619Y-128463533D02*
X164846095Y-129177819D01*
X164846095Y-129177819D02*
X165084191Y-128177819D01*
X165369905Y-128177819D02*
X165988952Y-128177819D01*
X165988952Y-128177819D02*
X165655619Y-128558771D01*
X165655619Y-128558771D02*
X165798476Y-128558771D01*
X165798476Y-128558771D02*
X165893714Y-128606390D01*
X165893714Y-128606390D02*
X165941333Y-128654009D01*
X165941333Y-128654009D02*
X165988952Y-128749247D01*
X165988952Y-128749247D02*
X165988952Y-128987342D01*
X165988952Y-128987342D02*
X165941333Y-129082580D01*
X165941333Y-129082580D02*
X165893714Y-129130200D01*
X165893714Y-129130200D02*
X165798476Y-129177819D01*
X165798476Y-129177819D02*
X165512762Y-129177819D01*
X165512762Y-129177819D02*
X165417524Y-129130200D01*
X165417524Y-129130200D02*
X165369905Y-129082580D01*
X166608000Y-128177819D02*
X166703238Y-128177819D01*
X166703238Y-128177819D02*
X166798476Y-128225438D01*
X166798476Y-128225438D02*
X166846095Y-128273057D01*
X166846095Y-128273057D02*
X166893714Y-128368295D01*
X166893714Y-128368295D02*
X166941333Y-128558771D01*
X166941333Y-128558771D02*
X166941333Y-128796866D01*
X166941333Y-128796866D02*
X166893714Y-128987342D01*
X166893714Y-128987342D02*
X166846095Y-129082580D01*
X166846095Y-129082580D02*
X166798476Y-129130200D01*
X166798476Y-129130200D02*
X166703238Y-129177819D01*
X166703238Y-129177819D02*
X166608000Y-129177819D01*
X166608000Y-129177819D02*
X166512762Y-129130200D01*
X166512762Y-129130200D02*
X166465143Y-129082580D01*
X166465143Y-129082580D02*
X166417524Y-128987342D01*
X166417524Y-128987342D02*
X166369905Y-128796866D01*
X166369905Y-128796866D02*
X166369905Y-128558771D01*
X166369905Y-128558771D02*
X166417524Y-128368295D01*
X166417524Y-128368295D02*
X166465143Y-128273057D01*
X166465143Y-128273057D02*
X166512762Y-128225438D01*
X166512762Y-128225438D02*
X166608000Y-128177819D01*
X167798476Y-128177819D02*
X167608000Y-128177819D01*
X167608000Y-128177819D02*
X167512762Y-128225438D01*
X167512762Y-128225438D02*
X167465143Y-128273057D01*
X167465143Y-128273057D02*
X167369905Y-128415914D01*
X167369905Y-128415914D02*
X167322286Y-128606390D01*
X167322286Y-128606390D02*
X167322286Y-128987342D01*
X167322286Y-128987342D02*
X167369905Y-129082580D01*
X167369905Y-129082580D02*
X167417524Y-129130200D01*
X167417524Y-129130200D02*
X167512762Y-129177819D01*
X167512762Y-129177819D02*
X167703238Y-129177819D01*
X167703238Y-129177819D02*
X167798476Y-129130200D01*
X167798476Y-129130200D02*
X167846095Y-129082580D01*
X167846095Y-129082580D02*
X167893714Y-128987342D01*
X167893714Y-128987342D02*
X167893714Y-128749247D01*
X167893714Y-128749247D02*
X167846095Y-128654009D01*
X167846095Y-128654009D02*
X167798476Y-128606390D01*
X167798476Y-128606390D02*
X167703238Y-128558771D01*
X167703238Y-128558771D02*
X167512762Y-128558771D01*
X167512762Y-128558771D02*
X167417524Y-128606390D01*
X167417524Y-128606390D02*
X167369905Y-128654009D01*
X167369905Y-128654009D02*
X167322286Y-128749247D01*
X96845714Y-87886819D02*
X97417142Y-87886819D01*
X97131428Y-88886819D02*
X97131428Y-87886819D01*
X97750476Y-88886819D02*
X97750476Y-87886819D01*
X97750476Y-87886819D02*
X98131428Y-87886819D01*
X98131428Y-87886819D02*
X98226666Y-87934438D01*
X98226666Y-87934438D02*
X98274285Y-87982057D01*
X98274285Y-87982057D02*
X98321904Y-88077295D01*
X98321904Y-88077295D02*
X98321904Y-88220152D01*
X98321904Y-88220152D02*
X98274285Y-88315390D01*
X98274285Y-88315390D02*
X98226666Y-88363009D01*
X98226666Y-88363009D02*
X98131428Y-88410628D01*
X98131428Y-88410628D02*
X97750476Y-88410628D01*
X98655238Y-87886819D02*
X99274285Y-87886819D01*
X99274285Y-87886819D02*
X98940952Y-88267771D01*
X98940952Y-88267771D02*
X99083809Y-88267771D01*
X99083809Y-88267771D02*
X99179047Y-88315390D01*
X99179047Y-88315390D02*
X99226666Y-88363009D01*
X99226666Y-88363009D02*
X99274285Y-88458247D01*
X99274285Y-88458247D02*
X99274285Y-88696342D01*
X99274285Y-88696342D02*
X99226666Y-88791580D01*
X99226666Y-88791580D02*
X99179047Y-88839200D01*
X99179047Y-88839200D02*
X99083809Y-88886819D01*
X99083809Y-88886819D02*
X98798095Y-88886819D01*
X98798095Y-88886819D02*
X98702857Y-88839200D01*
X98702857Y-88839200D02*
X98655238Y-88791580D01*
X99893333Y-87886819D02*
X99988571Y-87886819D01*
X99988571Y-87886819D02*
X100083809Y-87934438D01*
X100083809Y-87934438D02*
X100131428Y-87982057D01*
X100131428Y-87982057D02*
X100179047Y-88077295D01*
X100179047Y-88077295D02*
X100226666Y-88267771D01*
X100226666Y-88267771D02*
X100226666Y-88505866D01*
X100226666Y-88505866D02*
X100179047Y-88696342D01*
X100179047Y-88696342D02*
X100131428Y-88791580D01*
X100131428Y-88791580D02*
X100083809Y-88839200D01*
X100083809Y-88839200D02*
X99988571Y-88886819D01*
X99988571Y-88886819D02*
X99893333Y-88886819D01*
X99893333Y-88886819D02*
X99798095Y-88839200D01*
X99798095Y-88839200D02*
X99750476Y-88791580D01*
X99750476Y-88791580D02*
X99702857Y-88696342D01*
X99702857Y-88696342D02*
X99655238Y-88505866D01*
X99655238Y-88505866D02*
X99655238Y-88267771D01*
X99655238Y-88267771D02*
X99702857Y-88077295D01*
X99702857Y-88077295D02*
X99750476Y-87982057D01*
X99750476Y-87982057D02*
X99798095Y-87934438D01*
X99798095Y-87934438D02*
X99893333Y-87886819D01*
X101131428Y-87886819D02*
X100655238Y-87886819D01*
X100655238Y-87886819D02*
X100607619Y-88363009D01*
X100607619Y-88363009D02*
X100655238Y-88315390D01*
X100655238Y-88315390D02*
X100750476Y-88267771D01*
X100750476Y-88267771D02*
X100988571Y-88267771D01*
X100988571Y-88267771D02*
X101083809Y-88315390D01*
X101083809Y-88315390D02*
X101131428Y-88363009D01*
X101131428Y-88363009D02*
X101179047Y-88458247D01*
X101179047Y-88458247D02*
X101179047Y-88696342D01*
X101179047Y-88696342D02*
X101131428Y-88791580D01*
X101131428Y-88791580D02*
X101083809Y-88839200D01*
X101083809Y-88839200D02*
X100988571Y-88886819D01*
X100988571Y-88886819D02*
X100750476Y-88886819D01*
X100750476Y-88886819D02*
X100655238Y-88839200D01*
X100655238Y-88839200D02*
X100607619Y-88791580D01*
X171775714Y-123446819D02*
X172347142Y-123446819D01*
X172061428Y-124446819D02*
X172061428Y-123446819D01*
X172680476Y-124446819D02*
X172680476Y-123446819D01*
X172680476Y-123446819D02*
X173061428Y-123446819D01*
X173061428Y-123446819D02*
X173156666Y-123494438D01*
X173156666Y-123494438D02*
X173204285Y-123542057D01*
X173204285Y-123542057D02*
X173251904Y-123637295D01*
X173251904Y-123637295D02*
X173251904Y-123780152D01*
X173251904Y-123780152D02*
X173204285Y-123875390D01*
X173204285Y-123875390D02*
X173156666Y-123923009D01*
X173156666Y-123923009D02*
X173061428Y-123970628D01*
X173061428Y-123970628D02*
X172680476Y-123970628D01*
X173585238Y-123446819D02*
X174204285Y-123446819D01*
X174204285Y-123446819D02*
X173870952Y-123827771D01*
X173870952Y-123827771D02*
X174013809Y-123827771D01*
X174013809Y-123827771D02*
X174109047Y-123875390D01*
X174109047Y-123875390D02*
X174156666Y-123923009D01*
X174156666Y-123923009D02*
X174204285Y-124018247D01*
X174204285Y-124018247D02*
X174204285Y-124256342D01*
X174204285Y-124256342D02*
X174156666Y-124351580D01*
X174156666Y-124351580D02*
X174109047Y-124399200D01*
X174109047Y-124399200D02*
X174013809Y-124446819D01*
X174013809Y-124446819D02*
X173728095Y-124446819D01*
X173728095Y-124446819D02*
X173632857Y-124399200D01*
X173632857Y-124399200D02*
X173585238Y-124351580D01*
X174823333Y-123446819D02*
X174918571Y-123446819D01*
X174918571Y-123446819D02*
X175013809Y-123494438D01*
X175013809Y-123494438D02*
X175061428Y-123542057D01*
X175061428Y-123542057D02*
X175109047Y-123637295D01*
X175109047Y-123637295D02*
X175156666Y-123827771D01*
X175156666Y-123827771D02*
X175156666Y-124065866D01*
X175156666Y-124065866D02*
X175109047Y-124256342D01*
X175109047Y-124256342D02*
X175061428Y-124351580D01*
X175061428Y-124351580D02*
X175013809Y-124399200D01*
X175013809Y-124399200D02*
X174918571Y-124446819D01*
X174918571Y-124446819D02*
X174823333Y-124446819D01*
X174823333Y-124446819D02*
X174728095Y-124399200D01*
X174728095Y-124399200D02*
X174680476Y-124351580D01*
X174680476Y-124351580D02*
X174632857Y-124256342D01*
X174632857Y-124256342D02*
X174585238Y-124065866D01*
X174585238Y-124065866D02*
X174585238Y-123827771D01*
X174585238Y-123827771D02*
X174632857Y-123637295D01*
X174632857Y-123637295D02*
X174680476Y-123542057D01*
X174680476Y-123542057D02*
X174728095Y-123494438D01*
X174728095Y-123494438D02*
X174823333Y-123446819D01*
X175728095Y-123875390D02*
X175632857Y-123827771D01*
X175632857Y-123827771D02*
X175585238Y-123780152D01*
X175585238Y-123780152D02*
X175537619Y-123684914D01*
X175537619Y-123684914D02*
X175537619Y-123637295D01*
X175537619Y-123637295D02*
X175585238Y-123542057D01*
X175585238Y-123542057D02*
X175632857Y-123494438D01*
X175632857Y-123494438D02*
X175728095Y-123446819D01*
X175728095Y-123446819D02*
X175918571Y-123446819D01*
X175918571Y-123446819D02*
X176013809Y-123494438D01*
X176013809Y-123494438D02*
X176061428Y-123542057D01*
X176061428Y-123542057D02*
X176109047Y-123637295D01*
X176109047Y-123637295D02*
X176109047Y-123684914D01*
X176109047Y-123684914D02*
X176061428Y-123780152D01*
X176061428Y-123780152D02*
X176013809Y-123827771D01*
X176013809Y-123827771D02*
X175918571Y-123875390D01*
X175918571Y-123875390D02*
X175728095Y-123875390D01*
X175728095Y-123875390D02*
X175632857Y-123923009D01*
X175632857Y-123923009D02*
X175585238Y-123970628D01*
X175585238Y-123970628D02*
X175537619Y-124065866D01*
X175537619Y-124065866D02*
X175537619Y-124256342D01*
X175537619Y-124256342D02*
X175585238Y-124351580D01*
X175585238Y-124351580D02*
X175632857Y-124399200D01*
X175632857Y-124399200D02*
X175728095Y-124446819D01*
X175728095Y-124446819D02*
X175918571Y-124446819D01*
X175918571Y-124446819D02*
X176013809Y-124399200D01*
X176013809Y-124399200D02*
X176061428Y-124351580D01*
X176061428Y-124351580D02*
X176109047Y-124256342D01*
X176109047Y-124256342D02*
X176109047Y-124065866D01*
X176109047Y-124065866D02*
X176061428Y-123970628D01*
X176061428Y-123970628D02*
X176013809Y-123923009D01*
X176013809Y-123923009D02*
X175918571Y-123875390D01*
X193725452Y-112213580D02*
X193677833Y-112261200D01*
X193677833Y-112261200D02*
X193534976Y-112308819D01*
X193534976Y-112308819D02*
X193439738Y-112308819D01*
X193439738Y-112308819D02*
X193296881Y-112261200D01*
X193296881Y-112261200D02*
X193201643Y-112165961D01*
X193201643Y-112165961D02*
X193154024Y-112070723D01*
X193154024Y-112070723D02*
X193106405Y-111880247D01*
X193106405Y-111880247D02*
X193106405Y-111737390D01*
X193106405Y-111737390D02*
X193154024Y-111546914D01*
X193154024Y-111546914D02*
X193201643Y-111451676D01*
X193201643Y-111451676D02*
X193296881Y-111356438D01*
X193296881Y-111356438D02*
X193439738Y-111308819D01*
X193439738Y-111308819D02*
X193534976Y-111308819D01*
X193534976Y-111308819D02*
X193677833Y-111356438D01*
X193677833Y-111356438D02*
X193725452Y-111404057D01*
X194058786Y-111308819D02*
X194677833Y-111308819D01*
X194677833Y-111308819D02*
X194344500Y-111689771D01*
X194344500Y-111689771D02*
X194487357Y-111689771D01*
X194487357Y-111689771D02*
X194582595Y-111737390D01*
X194582595Y-111737390D02*
X194630214Y-111785009D01*
X194630214Y-111785009D02*
X194677833Y-111880247D01*
X194677833Y-111880247D02*
X194677833Y-112118342D01*
X194677833Y-112118342D02*
X194630214Y-112213580D01*
X194630214Y-112213580D02*
X194582595Y-112261200D01*
X194582595Y-112261200D02*
X194487357Y-112308819D01*
X194487357Y-112308819D02*
X194201643Y-112308819D01*
X194201643Y-112308819D02*
X194106405Y-112261200D01*
X194106405Y-112261200D02*
X194058786Y-112213580D01*
X195630214Y-112308819D02*
X195058786Y-112308819D01*
X195344500Y-112308819D02*
X195344500Y-111308819D01*
X195344500Y-111308819D02*
X195249262Y-111451676D01*
X195249262Y-111451676D02*
X195154024Y-111546914D01*
X195154024Y-111546914D02*
X195058786Y-111594533D01*
X196582595Y-112308819D02*
X196011167Y-112308819D01*
X196296881Y-112308819D02*
X196296881Y-111308819D01*
X196296881Y-111308819D02*
X196201643Y-111451676D01*
X196201643Y-111451676D02*
X196106405Y-111546914D01*
X196106405Y-111546914D02*
X196011167Y-111594533D01*
X183586714Y-136654819D02*
X184158142Y-136654819D01*
X183872428Y-137654819D02*
X183872428Y-136654819D01*
X184491476Y-137654819D02*
X184491476Y-136654819D01*
X184491476Y-136654819D02*
X184872428Y-136654819D01*
X184872428Y-136654819D02*
X184967666Y-136702438D01*
X184967666Y-136702438D02*
X185015285Y-136750057D01*
X185015285Y-136750057D02*
X185062904Y-136845295D01*
X185062904Y-136845295D02*
X185062904Y-136988152D01*
X185062904Y-136988152D02*
X185015285Y-137083390D01*
X185015285Y-137083390D02*
X184967666Y-137131009D01*
X184967666Y-137131009D02*
X184872428Y-137178628D01*
X184872428Y-137178628D02*
X184491476Y-137178628D01*
X185396238Y-136654819D02*
X186015285Y-136654819D01*
X186015285Y-136654819D02*
X185681952Y-137035771D01*
X185681952Y-137035771D02*
X185824809Y-137035771D01*
X185824809Y-137035771D02*
X185920047Y-137083390D01*
X185920047Y-137083390D02*
X185967666Y-137131009D01*
X185967666Y-137131009D02*
X186015285Y-137226247D01*
X186015285Y-137226247D02*
X186015285Y-137464342D01*
X186015285Y-137464342D02*
X185967666Y-137559580D01*
X185967666Y-137559580D02*
X185920047Y-137607200D01*
X185920047Y-137607200D02*
X185824809Y-137654819D01*
X185824809Y-137654819D02*
X185539095Y-137654819D01*
X185539095Y-137654819D02*
X185443857Y-137607200D01*
X185443857Y-137607200D02*
X185396238Y-137559580D01*
X186634333Y-136654819D02*
X186729571Y-136654819D01*
X186729571Y-136654819D02*
X186824809Y-136702438D01*
X186824809Y-136702438D02*
X186872428Y-136750057D01*
X186872428Y-136750057D02*
X186920047Y-136845295D01*
X186920047Y-136845295D02*
X186967666Y-137035771D01*
X186967666Y-137035771D02*
X186967666Y-137273866D01*
X186967666Y-137273866D02*
X186920047Y-137464342D01*
X186920047Y-137464342D02*
X186872428Y-137559580D01*
X186872428Y-137559580D02*
X186824809Y-137607200D01*
X186824809Y-137607200D02*
X186729571Y-137654819D01*
X186729571Y-137654819D02*
X186634333Y-137654819D01*
X186634333Y-137654819D02*
X186539095Y-137607200D01*
X186539095Y-137607200D02*
X186491476Y-137559580D01*
X186491476Y-137559580D02*
X186443857Y-137464342D01*
X186443857Y-137464342D02*
X186396238Y-137273866D01*
X186396238Y-137273866D02*
X186396238Y-137035771D01*
X186396238Y-137035771D02*
X186443857Y-136845295D01*
X186443857Y-136845295D02*
X186491476Y-136750057D01*
X186491476Y-136750057D02*
X186539095Y-136702438D01*
X186539095Y-136702438D02*
X186634333Y-136654819D01*
X187348619Y-136750057D02*
X187396238Y-136702438D01*
X187396238Y-136702438D02*
X187491476Y-136654819D01*
X187491476Y-136654819D02*
X187729571Y-136654819D01*
X187729571Y-136654819D02*
X187824809Y-136702438D01*
X187824809Y-136702438D02*
X187872428Y-136750057D01*
X187872428Y-136750057D02*
X187920047Y-136845295D01*
X187920047Y-136845295D02*
X187920047Y-136940533D01*
X187920047Y-136940533D02*
X187872428Y-137083390D01*
X187872428Y-137083390D02*
X187301000Y-137654819D01*
X187301000Y-137654819D02*
X187920047Y-137654819D01*
X104222819Y-146369523D02*
X103222819Y-146369523D01*
X103222819Y-146369523D02*
X103937104Y-146036190D01*
X103937104Y-146036190D02*
X103222819Y-145702857D01*
X103222819Y-145702857D02*
X104222819Y-145702857D01*
X104222819Y-145083809D02*
X104175200Y-145179047D01*
X104175200Y-145179047D02*
X104127580Y-145226666D01*
X104127580Y-145226666D02*
X104032342Y-145274285D01*
X104032342Y-145274285D02*
X103746628Y-145274285D01*
X103746628Y-145274285D02*
X103651390Y-145226666D01*
X103651390Y-145226666D02*
X103603771Y-145179047D01*
X103603771Y-145179047D02*
X103556152Y-145083809D01*
X103556152Y-145083809D02*
X103556152Y-144940952D01*
X103556152Y-144940952D02*
X103603771Y-144845714D01*
X103603771Y-144845714D02*
X103651390Y-144798095D01*
X103651390Y-144798095D02*
X103746628Y-144750476D01*
X103746628Y-144750476D02*
X104032342Y-144750476D01*
X104032342Y-144750476D02*
X104127580Y-144798095D01*
X104127580Y-144798095D02*
X104175200Y-144845714D01*
X104175200Y-144845714D02*
X104222819Y-144940952D01*
X104222819Y-144940952D02*
X104222819Y-145083809D01*
X104222819Y-143893333D02*
X103222819Y-143893333D01*
X104175200Y-143893333D02*
X104222819Y-143988571D01*
X104222819Y-143988571D02*
X104222819Y-144179047D01*
X104222819Y-144179047D02*
X104175200Y-144274285D01*
X104175200Y-144274285D02*
X104127580Y-144321904D01*
X104127580Y-144321904D02*
X104032342Y-144369523D01*
X104032342Y-144369523D02*
X103746628Y-144369523D01*
X103746628Y-144369523D02*
X103651390Y-144321904D01*
X103651390Y-144321904D02*
X103603771Y-144274285D01*
X103603771Y-144274285D02*
X103556152Y-144179047D01*
X103556152Y-144179047D02*
X103556152Y-143988571D01*
X103556152Y-143988571D02*
X103603771Y-143893333D01*
X103556152Y-142988571D02*
X104222819Y-142988571D01*
X103556152Y-143417142D02*
X104079961Y-143417142D01*
X104079961Y-143417142D02*
X104175200Y-143369523D01*
X104175200Y-143369523D02*
X104222819Y-143274285D01*
X104222819Y-143274285D02*
X104222819Y-143131428D01*
X104222819Y-143131428D02*
X104175200Y-143036190D01*
X104175200Y-143036190D02*
X104127580Y-142988571D01*
X104222819Y-142369523D02*
X104175200Y-142464761D01*
X104175200Y-142464761D02*
X104079961Y-142512380D01*
X104079961Y-142512380D02*
X103222819Y-142512380D01*
X104175200Y-141607618D02*
X104222819Y-141702856D01*
X104222819Y-141702856D02*
X104222819Y-141893332D01*
X104222819Y-141893332D02*
X104175200Y-141988570D01*
X104175200Y-141988570D02*
X104079961Y-142036189D01*
X104079961Y-142036189D02*
X103699009Y-142036189D01*
X103699009Y-142036189D02*
X103603771Y-141988570D01*
X103603771Y-141988570D02*
X103556152Y-141893332D01*
X103556152Y-141893332D02*
X103556152Y-141702856D01*
X103556152Y-141702856D02*
X103603771Y-141607618D01*
X103603771Y-141607618D02*
X103699009Y-141559999D01*
X103699009Y-141559999D02*
X103794247Y-141559999D01*
X103794247Y-141559999D02*
X103889485Y-142036189D01*
X103318057Y-141179046D02*
X103270438Y-141131427D01*
X103270438Y-141131427D02*
X103222819Y-141036189D01*
X103222819Y-141036189D02*
X103222819Y-140798094D01*
X103222819Y-140798094D02*
X103270438Y-140702856D01*
X103270438Y-140702856D02*
X103318057Y-140655237D01*
X103318057Y-140655237D02*
X103413295Y-140607618D01*
X103413295Y-140607618D02*
X103508533Y-140607618D01*
X103508533Y-140607618D02*
X103651390Y-140655237D01*
X103651390Y-140655237D02*
X104222819Y-141226665D01*
X104222819Y-141226665D02*
X104222819Y-140607618D01*
X103222819Y-139988570D02*
X103222819Y-139893332D01*
X103222819Y-139893332D02*
X103270438Y-139798094D01*
X103270438Y-139798094D02*
X103318057Y-139750475D01*
X103318057Y-139750475D02*
X103413295Y-139702856D01*
X103413295Y-139702856D02*
X103603771Y-139655237D01*
X103603771Y-139655237D02*
X103841866Y-139655237D01*
X103841866Y-139655237D02*
X104032342Y-139702856D01*
X104032342Y-139702856D02*
X104127580Y-139750475D01*
X104127580Y-139750475D02*
X104175200Y-139798094D01*
X104175200Y-139798094D02*
X104222819Y-139893332D01*
X104222819Y-139893332D02*
X104222819Y-139988570D01*
X104222819Y-139988570D02*
X104175200Y-140083808D01*
X104175200Y-140083808D02*
X104127580Y-140131427D01*
X104127580Y-140131427D02*
X104032342Y-140179046D01*
X104032342Y-140179046D02*
X103841866Y-140226665D01*
X103841866Y-140226665D02*
X103603771Y-140226665D01*
X103603771Y-140226665D02*
X103413295Y-140179046D01*
X103413295Y-140179046D02*
X103318057Y-140131427D01*
X103318057Y-140131427D02*
X103270438Y-140083808D01*
X103270438Y-140083808D02*
X103222819Y-139988570D01*
X104222819Y-138702856D02*
X104222819Y-139274284D01*
X104222819Y-138988570D02*
X103222819Y-138988570D01*
X103222819Y-138988570D02*
X103365676Y-139083808D01*
X103365676Y-139083808D02*
X103460914Y-139179046D01*
X103460914Y-139179046D02*
X103508533Y-139274284D01*
X186613452Y-112340580D02*
X186565833Y-112388200D01*
X186565833Y-112388200D02*
X186422976Y-112435819D01*
X186422976Y-112435819D02*
X186327738Y-112435819D01*
X186327738Y-112435819D02*
X186184881Y-112388200D01*
X186184881Y-112388200D02*
X186089643Y-112292961D01*
X186089643Y-112292961D02*
X186042024Y-112197723D01*
X186042024Y-112197723D02*
X185994405Y-112007247D01*
X185994405Y-112007247D02*
X185994405Y-111864390D01*
X185994405Y-111864390D02*
X186042024Y-111673914D01*
X186042024Y-111673914D02*
X186089643Y-111578676D01*
X186089643Y-111578676D02*
X186184881Y-111483438D01*
X186184881Y-111483438D02*
X186327738Y-111435819D01*
X186327738Y-111435819D02*
X186422976Y-111435819D01*
X186422976Y-111435819D02*
X186565833Y-111483438D01*
X186565833Y-111483438D02*
X186613452Y-111531057D01*
X186946786Y-111435819D02*
X187565833Y-111435819D01*
X187565833Y-111435819D02*
X187232500Y-111816771D01*
X187232500Y-111816771D02*
X187375357Y-111816771D01*
X187375357Y-111816771D02*
X187470595Y-111864390D01*
X187470595Y-111864390D02*
X187518214Y-111912009D01*
X187518214Y-111912009D02*
X187565833Y-112007247D01*
X187565833Y-112007247D02*
X187565833Y-112245342D01*
X187565833Y-112245342D02*
X187518214Y-112340580D01*
X187518214Y-112340580D02*
X187470595Y-112388200D01*
X187470595Y-112388200D02*
X187375357Y-112435819D01*
X187375357Y-112435819D02*
X187089643Y-112435819D01*
X187089643Y-112435819D02*
X186994405Y-112388200D01*
X186994405Y-112388200D02*
X186946786Y-112340580D01*
X188518214Y-112435819D02*
X187946786Y-112435819D01*
X188232500Y-112435819D02*
X188232500Y-111435819D01*
X188232500Y-111435819D02*
X188137262Y-111578676D01*
X188137262Y-111578676D02*
X188042024Y-111673914D01*
X188042024Y-111673914D02*
X187946786Y-111721533D01*
X189137262Y-111435819D02*
X189232500Y-111435819D01*
X189232500Y-111435819D02*
X189327738Y-111483438D01*
X189327738Y-111483438D02*
X189375357Y-111531057D01*
X189375357Y-111531057D02*
X189422976Y-111626295D01*
X189422976Y-111626295D02*
X189470595Y-111816771D01*
X189470595Y-111816771D02*
X189470595Y-112054866D01*
X189470595Y-112054866D02*
X189422976Y-112245342D01*
X189422976Y-112245342D02*
X189375357Y-112340580D01*
X189375357Y-112340580D02*
X189327738Y-112388200D01*
X189327738Y-112388200D02*
X189232500Y-112435819D01*
X189232500Y-112435819D02*
X189137262Y-112435819D01*
X189137262Y-112435819D02*
X189042024Y-112388200D01*
X189042024Y-112388200D02*
X188994405Y-112340580D01*
X188994405Y-112340580D02*
X188946786Y-112245342D01*
X188946786Y-112245342D02*
X188899167Y-112054866D01*
X188899167Y-112054866D02*
X188899167Y-111816771D01*
X188899167Y-111816771D02*
X188946786Y-111626295D01*
X188946786Y-111626295D02*
X188994405Y-111531057D01*
X188994405Y-111531057D02*
X189042024Y-111483438D01*
X189042024Y-111483438D02*
X189137262Y-111435819D01*
X149225286Y-129638200D02*
X149368143Y-129685819D01*
X149368143Y-129685819D02*
X149606238Y-129685819D01*
X149606238Y-129685819D02*
X149701476Y-129638200D01*
X149701476Y-129638200D02*
X149749095Y-129590580D01*
X149749095Y-129590580D02*
X149796714Y-129495342D01*
X149796714Y-129495342D02*
X149796714Y-129400104D01*
X149796714Y-129400104D02*
X149749095Y-129304866D01*
X149749095Y-129304866D02*
X149701476Y-129257247D01*
X149701476Y-129257247D02*
X149606238Y-129209628D01*
X149606238Y-129209628D02*
X149415762Y-129162009D01*
X149415762Y-129162009D02*
X149320524Y-129114390D01*
X149320524Y-129114390D02*
X149272905Y-129066771D01*
X149272905Y-129066771D02*
X149225286Y-128971533D01*
X149225286Y-128971533D02*
X149225286Y-128876295D01*
X149225286Y-128876295D02*
X149272905Y-128781057D01*
X149272905Y-128781057D02*
X149320524Y-128733438D01*
X149320524Y-128733438D02*
X149415762Y-128685819D01*
X149415762Y-128685819D02*
X149653857Y-128685819D01*
X149653857Y-128685819D02*
X149796714Y-128733438D01*
X150130048Y-128685819D02*
X150368143Y-129685819D01*
X150368143Y-129685819D02*
X150558619Y-128971533D01*
X150558619Y-128971533D02*
X150749095Y-129685819D01*
X150749095Y-129685819D02*
X150987191Y-128685819D01*
X151272905Y-128685819D02*
X151891952Y-128685819D01*
X151891952Y-128685819D02*
X151558619Y-129066771D01*
X151558619Y-129066771D02*
X151701476Y-129066771D01*
X151701476Y-129066771D02*
X151796714Y-129114390D01*
X151796714Y-129114390D02*
X151844333Y-129162009D01*
X151844333Y-129162009D02*
X151891952Y-129257247D01*
X151891952Y-129257247D02*
X151891952Y-129495342D01*
X151891952Y-129495342D02*
X151844333Y-129590580D01*
X151844333Y-129590580D02*
X151796714Y-129638200D01*
X151796714Y-129638200D02*
X151701476Y-129685819D01*
X151701476Y-129685819D02*
X151415762Y-129685819D01*
X151415762Y-129685819D02*
X151320524Y-129638200D01*
X151320524Y-129638200D02*
X151272905Y-129590580D01*
X152511000Y-128685819D02*
X152606238Y-128685819D01*
X152606238Y-128685819D02*
X152701476Y-128733438D01*
X152701476Y-128733438D02*
X152749095Y-128781057D01*
X152749095Y-128781057D02*
X152796714Y-128876295D01*
X152796714Y-128876295D02*
X152844333Y-129066771D01*
X152844333Y-129066771D02*
X152844333Y-129304866D01*
X152844333Y-129304866D02*
X152796714Y-129495342D01*
X152796714Y-129495342D02*
X152749095Y-129590580D01*
X152749095Y-129590580D02*
X152701476Y-129638200D01*
X152701476Y-129638200D02*
X152606238Y-129685819D01*
X152606238Y-129685819D02*
X152511000Y-129685819D01*
X152511000Y-129685819D02*
X152415762Y-129638200D01*
X152415762Y-129638200D02*
X152368143Y-129590580D01*
X152368143Y-129590580D02*
X152320524Y-129495342D01*
X152320524Y-129495342D02*
X152272905Y-129304866D01*
X152272905Y-129304866D02*
X152272905Y-129066771D01*
X152272905Y-129066771D02*
X152320524Y-128876295D01*
X152320524Y-128876295D02*
X152368143Y-128781057D01*
X152368143Y-128781057D02*
X152415762Y-128733438D01*
X152415762Y-128733438D02*
X152511000Y-128685819D01*
X153749095Y-128685819D02*
X153272905Y-128685819D01*
X153272905Y-128685819D02*
X153225286Y-129162009D01*
X153225286Y-129162009D02*
X153272905Y-129114390D01*
X153272905Y-129114390D02*
X153368143Y-129066771D01*
X153368143Y-129066771D02*
X153606238Y-129066771D01*
X153606238Y-129066771D02*
X153701476Y-129114390D01*
X153701476Y-129114390D02*
X153749095Y-129162009D01*
X153749095Y-129162009D02*
X153796714Y-129257247D01*
X153796714Y-129257247D02*
X153796714Y-129495342D01*
X153796714Y-129495342D02*
X153749095Y-129590580D01*
X153749095Y-129590580D02*
X153701476Y-129638200D01*
X153701476Y-129638200D02*
X153606238Y-129685819D01*
X153606238Y-129685819D02*
X153368143Y-129685819D01*
X153368143Y-129685819D02*
X153272905Y-129638200D01*
X153272905Y-129638200D02*
X153225286Y-129590580D01*
X179474952Y-121611819D02*
X179141619Y-121135628D01*
X178903524Y-121611819D02*
X178903524Y-120611819D01*
X178903524Y-120611819D02*
X179284476Y-120611819D01*
X179284476Y-120611819D02*
X179379714Y-120659438D01*
X179379714Y-120659438D02*
X179427333Y-120707057D01*
X179427333Y-120707057D02*
X179474952Y-120802295D01*
X179474952Y-120802295D02*
X179474952Y-120945152D01*
X179474952Y-120945152D02*
X179427333Y-121040390D01*
X179427333Y-121040390D02*
X179379714Y-121088009D01*
X179379714Y-121088009D02*
X179284476Y-121135628D01*
X179284476Y-121135628D02*
X178903524Y-121135628D01*
X179855905Y-120707057D02*
X179903524Y-120659438D01*
X179903524Y-120659438D02*
X179998762Y-120611819D01*
X179998762Y-120611819D02*
X180236857Y-120611819D01*
X180236857Y-120611819D02*
X180332095Y-120659438D01*
X180332095Y-120659438D02*
X180379714Y-120707057D01*
X180379714Y-120707057D02*
X180427333Y-120802295D01*
X180427333Y-120802295D02*
X180427333Y-120897533D01*
X180427333Y-120897533D02*
X180379714Y-121040390D01*
X180379714Y-121040390D02*
X179808286Y-121611819D01*
X179808286Y-121611819D02*
X180427333Y-121611819D01*
X181046381Y-120611819D02*
X181141619Y-120611819D01*
X181141619Y-120611819D02*
X181236857Y-120659438D01*
X181236857Y-120659438D02*
X181284476Y-120707057D01*
X181284476Y-120707057D02*
X181332095Y-120802295D01*
X181332095Y-120802295D02*
X181379714Y-120992771D01*
X181379714Y-120992771D02*
X181379714Y-121230866D01*
X181379714Y-121230866D02*
X181332095Y-121421342D01*
X181332095Y-121421342D02*
X181284476Y-121516580D01*
X181284476Y-121516580D02*
X181236857Y-121564200D01*
X181236857Y-121564200D02*
X181141619Y-121611819D01*
X181141619Y-121611819D02*
X181046381Y-121611819D01*
X181046381Y-121611819D02*
X180951143Y-121564200D01*
X180951143Y-121564200D02*
X180903524Y-121516580D01*
X180903524Y-121516580D02*
X180855905Y-121421342D01*
X180855905Y-121421342D02*
X180808286Y-121230866D01*
X180808286Y-121230866D02*
X180808286Y-120992771D01*
X180808286Y-120992771D02*
X180855905Y-120802295D01*
X180855905Y-120802295D02*
X180903524Y-120707057D01*
X180903524Y-120707057D02*
X180951143Y-120659438D01*
X180951143Y-120659438D02*
X181046381Y-120611819D01*
X181713048Y-120611819D02*
X182332095Y-120611819D01*
X182332095Y-120611819D02*
X181998762Y-120992771D01*
X181998762Y-120992771D02*
X182141619Y-120992771D01*
X182141619Y-120992771D02*
X182236857Y-121040390D01*
X182236857Y-121040390D02*
X182284476Y-121088009D01*
X182284476Y-121088009D02*
X182332095Y-121183247D01*
X182332095Y-121183247D02*
X182332095Y-121421342D01*
X182332095Y-121421342D02*
X182284476Y-121516580D01*
X182284476Y-121516580D02*
X182236857Y-121564200D01*
X182236857Y-121564200D02*
X182141619Y-121611819D01*
X182141619Y-121611819D02*
X181855905Y-121611819D01*
X181855905Y-121611819D02*
X181760667Y-121564200D01*
X181760667Y-121564200D02*
X181713048Y-121516580D01*
X164466819Y-71713714D02*
X165181104Y-71713714D01*
X165181104Y-71713714D02*
X165323961Y-71761333D01*
X165323961Y-71761333D02*
X165419200Y-71856571D01*
X165419200Y-71856571D02*
X165466819Y-71999428D01*
X165466819Y-71999428D02*
X165466819Y-72094666D01*
X164466819Y-71332761D02*
X164466819Y-70713714D01*
X164466819Y-70713714D02*
X164847771Y-71047047D01*
X164847771Y-71047047D02*
X164847771Y-70904190D01*
X164847771Y-70904190D02*
X164895390Y-70808952D01*
X164895390Y-70808952D02*
X164943009Y-70761333D01*
X164943009Y-70761333D02*
X165038247Y-70713714D01*
X165038247Y-70713714D02*
X165276342Y-70713714D01*
X165276342Y-70713714D02*
X165371580Y-70761333D01*
X165371580Y-70761333D02*
X165419200Y-70808952D01*
X165419200Y-70808952D02*
X165466819Y-70904190D01*
X165466819Y-70904190D02*
X165466819Y-71189904D01*
X165466819Y-71189904D02*
X165419200Y-71285142D01*
X165419200Y-71285142D02*
X165371580Y-71332761D01*
X164466819Y-70094666D02*
X164466819Y-69999428D01*
X164466819Y-69999428D02*
X164514438Y-69904190D01*
X164514438Y-69904190D02*
X164562057Y-69856571D01*
X164562057Y-69856571D02*
X164657295Y-69808952D01*
X164657295Y-69808952D02*
X164847771Y-69761333D01*
X164847771Y-69761333D02*
X165085866Y-69761333D01*
X165085866Y-69761333D02*
X165276342Y-69808952D01*
X165276342Y-69808952D02*
X165371580Y-69856571D01*
X165371580Y-69856571D02*
X165419200Y-69904190D01*
X165419200Y-69904190D02*
X165466819Y-69999428D01*
X165466819Y-69999428D02*
X165466819Y-70094666D01*
X165466819Y-70094666D02*
X165419200Y-70189904D01*
X165419200Y-70189904D02*
X165371580Y-70237523D01*
X165371580Y-70237523D02*
X165276342Y-70285142D01*
X165276342Y-70285142D02*
X165085866Y-70332761D01*
X165085866Y-70332761D02*
X164847771Y-70332761D01*
X164847771Y-70332761D02*
X164657295Y-70285142D01*
X164657295Y-70285142D02*
X164562057Y-70237523D01*
X164562057Y-70237523D02*
X164514438Y-70189904D01*
X164514438Y-70189904D02*
X164466819Y-70094666D01*
X165466819Y-68808952D02*
X165466819Y-69380380D01*
X165466819Y-69094666D02*
X164466819Y-69094666D01*
X164466819Y-69094666D02*
X164609676Y-69189904D01*
X164609676Y-69189904D02*
X164704914Y-69285142D01*
X164704914Y-69285142D02*
X164752533Y-69380380D01*
X186533952Y-124913580D02*
X186486333Y-124961200D01*
X186486333Y-124961200D02*
X186343476Y-125008819D01*
X186343476Y-125008819D02*
X186248238Y-125008819D01*
X186248238Y-125008819D02*
X186105381Y-124961200D01*
X186105381Y-124961200D02*
X186010143Y-124865961D01*
X186010143Y-124865961D02*
X185962524Y-124770723D01*
X185962524Y-124770723D02*
X185914905Y-124580247D01*
X185914905Y-124580247D02*
X185914905Y-124437390D01*
X185914905Y-124437390D02*
X185962524Y-124246914D01*
X185962524Y-124246914D02*
X186010143Y-124151676D01*
X186010143Y-124151676D02*
X186105381Y-124056438D01*
X186105381Y-124056438D02*
X186248238Y-124008819D01*
X186248238Y-124008819D02*
X186343476Y-124008819D01*
X186343476Y-124008819D02*
X186486333Y-124056438D01*
X186486333Y-124056438D02*
X186533952Y-124104057D01*
X186867286Y-124008819D02*
X187486333Y-124008819D01*
X187486333Y-124008819D02*
X187153000Y-124389771D01*
X187153000Y-124389771D02*
X187295857Y-124389771D01*
X187295857Y-124389771D02*
X187391095Y-124437390D01*
X187391095Y-124437390D02*
X187438714Y-124485009D01*
X187438714Y-124485009D02*
X187486333Y-124580247D01*
X187486333Y-124580247D02*
X187486333Y-124818342D01*
X187486333Y-124818342D02*
X187438714Y-124913580D01*
X187438714Y-124913580D02*
X187391095Y-124961200D01*
X187391095Y-124961200D02*
X187295857Y-125008819D01*
X187295857Y-125008819D02*
X187010143Y-125008819D01*
X187010143Y-125008819D02*
X186914905Y-124961200D01*
X186914905Y-124961200D02*
X186867286Y-124913580D01*
X188105381Y-124008819D02*
X188200619Y-124008819D01*
X188200619Y-124008819D02*
X188295857Y-124056438D01*
X188295857Y-124056438D02*
X188343476Y-124104057D01*
X188343476Y-124104057D02*
X188391095Y-124199295D01*
X188391095Y-124199295D02*
X188438714Y-124389771D01*
X188438714Y-124389771D02*
X188438714Y-124627866D01*
X188438714Y-124627866D02*
X188391095Y-124818342D01*
X188391095Y-124818342D02*
X188343476Y-124913580D01*
X188343476Y-124913580D02*
X188295857Y-124961200D01*
X188295857Y-124961200D02*
X188200619Y-125008819D01*
X188200619Y-125008819D02*
X188105381Y-125008819D01*
X188105381Y-125008819D02*
X188010143Y-124961200D01*
X188010143Y-124961200D02*
X187962524Y-124913580D01*
X187962524Y-124913580D02*
X187914905Y-124818342D01*
X187914905Y-124818342D02*
X187867286Y-124627866D01*
X187867286Y-124627866D02*
X187867286Y-124389771D01*
X187867286Y-124389771D02*
X187914905Y-124199295D01*
X187914905Y-124199295D02*
X187962524Y-124104057D01*
X187962524Y-124104057D02*
X188010143Y-124056438D01*
X188010143Y-124056438D02*
X188105381Y-124008819D01*
X189295857Y-124342152D02*
X189295857Y-125008819D01*
X189057762Y-123961200D02*
X188819667Y-124675485D01*
X188819667Y-124675485D02*
X189438714Y-124675485D01*
X165363628Y-89412571D02*
X165839819Y-89412571D01*
X164839819Y-89745904D02*
X165363628Y-89412571D01*
X165363628Y-89412571D02*
X164839819Y-89079238D01*
X164839819Y-88841142D02*
X164839819Y-88222095D01*
X164839819Y-88222095D02*
X165220771Y-88555428D01*
X165220771Y-88555428D02*
X165220771Y-88412571D01*
X165220771Y-88412571D02*
X165268390Y-88317333D01*
X165268390Y-88317333D02*
X165316009Y-88269714D01*
X165316009Y-88269714D02*
X165411247Y-88222095D01*
X165411247Y-88222095D02*
X165649342Y-88222095D01*
X165649342Y-88222095D02*
X165744580Y-88269714D01*
X165744580Y-88269714D02*
X165792200Y-88317333D01*
X165792200Y-88317333D02*
X165839819Y-88412571D01*
X165839819Y-88412571D02*
X165839819Y-88698285D01*
X165839819Y-88698285D02*
X165792200Y-88793523D01*
X165792200Y-88793523D02*
X165744580Y-88841142D01*
X164839819Y-87603047D02*
X164839819Y-87507809D01*
X164839819Y-87507809D02*
X164887438Y-87412571D01*
X164887438Y-87412571D02*
X164935057Y-87364952D01*
X164935057Y-87364952D02*
X165030295Y-87317333D01*
X165030295Y-87317333D02*
X165220771Y-87269714D01*
X165220771Y-87269714D02*
X165458866Y-87269714D01*
X165458866Y-87269714D02*
X165649342Y-87317333D01*
X165649342Y-87317333D02*
X165744580Y-87364952D01*
X165744580Y-87364952D02*
X165792200Y-87412571D01*
X165792200Y-87412571D02*
X165839819Y-87507809D01*
X165839819Y-87507809D02*
X165839819Y-87603047D01*
X165839819Y-87603047D02*
X165792200Y-87698285D01*
X165792200Y-87698285D02*
X165744580Y-87745904D01*
X165744580Y-87745904D02*
X165649342Y-87793523D01*
X165649342Y-87793523D02*
X165458866Y-87841142D01*
X165458866Y-87841142D02*
X165220771Y-87841142D01*
X165220771Y-87841142D02*
X165030295Y-87793523D01*
X165030295Y-87793523D02*
X164935057Y-87745904D01*
X164935057Y-87745904D02*
X164887438Y-87698285D01*
X164887438Y-87698285D02*
X164839819Y-87603047D01*
X165839819Y-86317333D02*
X165839819Y-86888761D01*
X165839819Y-86603047D02*
X164839819Y-86603047D01*
X164839819Y-86603047D02*
X164982676Y-86698285D01*
X164982676Y-86698285D02*
X165077914Y-86793523D01*
X165077914Y-86793523D02*
X165125533Y-86888761D01*
X108227952Y-72083819D02*
X107894619Y-71607628D01*
X107656524Y-72083819D02*
X107656524Y-71083819D01*
X107656524Y-71083819D02*
X108037476Y-71083819D01*
X108037476Y-71083819D02*
X108132714Y-71131438D01*
X108132714Y-71131438D02*
X108180333Y-71179057D01*
X108180333Y-71179057D02*
X108227952Y-71274295D01*
X108227952Y-71274295D02*
X108227952Y-71417152D01*
X108227952Y-71417152D02*
X108180333Y-71512390D01*
X108180333Y-71512390D02*
X108132714Y-71560009D01*
X108132714Y-71560009D02*
X108037476Y-71607628D01*
X108037476Y-71607628D02*
X107656524Y-71607628D01*
X109085095Y-71417152D02*
X109085095Y-72083819D01*
X108847000Y-71036200D02*
X108608905Y-71750485D01*
X108608905Y-71750485D02*
X109227952Y-71750485D01*
X109799381Y-71083819D02*
X109894619Y-71083819D01*
X109894619Y-71083819D02*
X109989857Y-71131438D01*
X109989857Y-71131438D02*
X110037476Y-71179057D01*
X110037476Y-71179057D02*
X110085095Y-71274295D01*
X110085095Y-71274295D02*
X110132714Y-71464771D01*
X110132714Y-71464771D02*
X110132714Y-71702866D01*
X110132714Y-71702866D02*
X110085095Y-71893342D01*
X110085095Y-71893342D02*
X110037476Y-71988580D01*
X110037476Y-71988580D02*
X109989857Y-72036200D01*
X109989857Y-72036200D02*
X109894619Y-72083819D01*
X109894619Y-72083819D02*
X109799381Y-72083819D01*
X109799381Y-72083819D02*
X109704143Y-72036200D01*
X109704143Y-72036200D02*
X109656524Y-71988580D01*
X109656524Y-71988580D02*
X109608905Y-71893342D01*
X109608905Y-71893342D02*
X109561286Y-71702866D01*
X109561286Y-71702866D02*
X109561286Y-71464771D01*
X109561286Y-71464771D02*
X109608905Y-71274295D01*
X109608905Y-71274295D02*
X109656524Y-71179057D01*
X109656524Y-71179057D02*
X109704143Y-71131438D01*
X109704143Y-71131438D02*
X109799381Y-71083819D01*
X111085095Y-72083819D02*
X110513667Y-72083819D01*
X110799381Y-72083819D02*
X110799381Y-71083819D01*
X110799381Y-71083819D02*
X110704143Y-71226676D01*
X110704143Y-71226676D02*
X110608905Y-71321914D01*
X110608905Y-71321914D02*
X110513667Y-71369533D01*
X127506552Y-86993619D02*
X127173219Y-86517428D01*
X126935124Y-86993619D02*
X126935124Y-85993619D01*
X126935124Y-85993619D02*
X127316076Y-85993619D01*
X127316076Y-85993619D02*
X127411314Y-86041238D01*
X127411314Y-86041238D02*
X127458933Y-86088857D01*
X127458933Y-86088857D02*
X127506552Y-86184095D01*
X127506552Y-86184095D02*
X127506552Y-86326952D01*
X127506552Y-86326952D02*
X127458933Y-86422190D01*
X127458933Y-86422190D02*
X127411314Y-86469809D01*
X127411314Y-86469809D02*
X127316076Y-86517428D01*
X127316076Y-86517428D02*
X126935124Y-86517428D01*
X127887505Y-86088857D02*
X127935124Y-86041238D01*
X127935124Y-86041238D02*
X128030362Y-85993619D01*
X128030362Y-85993619D02*
X128268457Y-85993619D01*
X128268457Y-85993619D02*
X128363695Y-86041238D01*
X128363695Y-86041238D02*
X128411314Y-86088857D01*
X128411314Y-86088857D02*
X128458933Y-86184095D01*
X128458933Y-86184095D02*
X128458933Y-86279333D01*
X128458933Y-86279333D02*
X128411314Y-86422190D01*
X128411314Y-86422190D02*
X127839886Y-86993619D01*
X127839886Y-86993619D02*
X128458933Y-86993619D01*
X129077981Y-85993619D02*
X129173219Y-85993619D01*
X129173219Y-85993619D02*
X129268457Y-86041238D01*
X129268457Y-86041238D02*
X129316076Y-86088857D01*
X129316076Y-86088857D02*
X129363695Y-86184095D01*
X129363695Y-86184095D02*
X129411314Y-86374571D01*
X129411314Y-86374571D02*
X129411314Y-86612666D01*
X129411314Y-86612666D02*
X129363695Y-86803142D01*
X129363695Y-86803142D02*
X129316076Y-86898380D01*
X129316076Y-86898380D02*
X129268457Y-86946000D01*
X129268457Y-86946000D02*
X129173219Y-86993619D01*
X129173219Y-86993619D02*
X129077981Y-86993619D01*
X129077981Y-86993619D02*
X128982743Y-86946000D01*
X128982743Y-86946000D02*
X128935124Y-86898380D01*
X128935124Y-86898380D02*
X128887505Y-86803142D01*
X128887505Y-86803142D02*
X128839886Y-86612666D01*
X128839886Y-86612666D02*
X128839886Y-86374571D01*
X128839886Y-86374571D02*
X128887505Y-86184095D01*
X128887505Y-86184095D02*
X128935124Y-86088857D01*
X128935124Y-86088857D02*
X128982743Y-86041238D01*
X128982743Y-86041238D02*
X129077981Y-85993619D01*
X129792267Y-86088857D02*
X129839886Y-86041238D01*
X129839886Y-86041238D02*
X129935124Y-85993619D01*
X129935124Y-85993619D02*
X130173219Y-85993619D01*
X130173219Y-85993619D02*
X130268457Y-86041238D01*
X130268457Y-86041238D02*
X130316076Y-86088857D01*
X130316076Y-86088857D02*
X130363695Y-86184095D01*
X130363695Y-86184095D02*
X130363695Y-86279333D01*
X130363695Y-86279333D02*
X130316076Y-86422190D01*
X130316076Y-86422190D02*
X129744648Y-86993619D01*
X129744648Y-86993619D02*
X130363695Y-86993619D01*
X173997714Y-121309819D02*
X173997714Y-122119342D01*
X173997714Y-122119342D02*
X174045333Y-122214580D01*
X174045333Y-122214580D02*
X174092952Y-122262200D01*
X174092952Y-122262200D02*
X174188190Y-122309819D01*
X174188190Y-122309819D02*
X174378666Y-122309819D01*
X174378666Y-122309819D02*
X174473904Y-122262200D01*
X174473904Y-122262200D02*
X174521523Y-122214580D01*
X174521523Y-122214580D02*
X174569142Y-122119342D01*
X174569142Y-122119342D02*
X174569142Y-121309819D01*
X174997714Y-121405057D02*
X175045333Y-121357438D01*
X175045333Y-121357438D02*
X175140571Y-121309819D01*
X175140571Y-121309819D02*
X175378666Y-121309819D01*
X175378666Y-121309819D02*
X175473904Y-121357438D01*
X175473904Y-121357438D02*
X175521523Y-121405057D01*
X175521523Y-121405057D02*
X175569142Y-121500295D01*
X175569142Y-121500295D02*
X175569142Y-121595533D01*
X175569142Y-121595533D02*
X175521523Y-121738390D01*
X175521523Y-121738390D02*
X174950095Y-122309819D01*
X174950095Y-122309819D02*
X175569142Y-122309819D01*
X176188190Y-121309819D02*
X176283428Y-121309819D01*
X176283428Y-121309819D02*
X176378666Y-121357438D01*
X176378666Y-121357438D02*
X176426285Y-121405057D01*
X176426285Y-121405057D02*
X176473904Y-121500295D01*
X176473904Y-121500295D02*
X176521523Y-121690771D01*
X176521523Y-121690771D02*
X176521523Y-121928866D01*
X176521523Y-121928866D02*
X176473904Y-122119342D01*
X176473904Y-122119342D02*
X176426285Y-122214580D01*
X176426285Y-122214580D02*
X176378666Y-122262200D01*
X176378666Y-122262200D02*
X176283428Y-122309819D01*
X176283428Y-122309819D02*
X176188190Y-122309819D01*
X176188190Y-122309819D02*
X176092952Y-122262200D01*
X176092952Y-122262200D02*
X176045333Y-122214580D01*
X176045333Y-122214580D02*
X175997714Y-122119342D01*
X175997714Y-122119342D02*
X175950095Y-121928866D01*
X175950095Y-121928866D02*
X175950095Y-121690771D01*
X175950095Y-121690771D02*
X175997714Y-121500295D01*
X175997714Y-121500295D02*
X176045333Y-121405057D01*
X176045333Y-121405057D02*
X176092952Y-121357438D01*
X176092952Y-121357438D02*
X176188190Y-121309819D01*
X176902476Y-121405057D02*
X176950095Y-121357438D01*
X176950095Y-121357438D02*
X177045333Y-121309819D01*
X177045333Y-121309819D02*
X177283428Y-121309819D01*
X177283428Y-121309819D02*
X177378666Y-121357438D01*
X177378666Y-121357438D02*
X177426285Y-121405057D01*
X177426285Y-121405057D02*
X177473904Y-121500295D01*
X177473904Y-121500295D02*
X177473904Y-121595533D01*
X177473904Y-121595533D02*
X177426285Y-121738390D01*
X177426285Y-121738390D02*
X176854857Y-122309819D01*
X176854857Y-122309819D02*
X177473904Y-122309819D01*
X151323429Y-93322819D02*
X151323429Y-92322819D01*
X152371047Y-93227580D02*
X152323428Y-93275200D01*
X152323428Y-93275200D02*
X152180571Y-93322819D01*
X152180571Y-93322819D02*
X152085333Y-93322819D01*
X152085333Y-93322819D02*
X151942476Y-93275200D01*
X151942476Y-93275200D02*
X151847238Y-93179961D01*
X151847238Y-93179961D02*
X151799619Y-93084723D01*
X151799619Y-93084723D02*
X151752000Y-92894247D01*
X151752000Y-92894247D02*
X151752000Y-92751390D01*
X151752000Y-92751390D02*
X151799619Y-92560914D01*
X151799619Y-92560914D02*
X151847238Y-92465676D01*
X151847238Y-92465676D02*
X151942476Y-92370438D01*
X151942476Y-92370438D02*
X152085333Y-92322819D01*
X152085333Y-92322819D02*
X152180571Y-92322819D01*
X152180571Y-92322819D02*
X152323428Y-92370438D01*
X152323428Y-92370438D02*
X152371047Y-92418057D01*
X152704381Y-92322819D02*
X153323428Y-92322819D01*
X153323428Y-92322819D02*
X152990095Y-92703771D01*
X152990095Y-92703771D02*
X153132952Y-92703771D01*
X153132952Y-92703771D02*
X153228190Y-92751390D01*
X153228190Y-92751390D02*
X153275809Y-92799009D01*
X153275809Y-92799009D02*
X153323428Y-92894247D01*
X153323428Y-92894247D02*
X153323428Y-93132342D01*
X153323428Y-93132342D02*
X153275809Y-93227580D01*
X153275809Y-93227580D02*
X153228190Y-93275200D01*
X153228190Y-93275200D02*
X153132952Y-93322819D01*
X153132952Y-93322819D02*
X152847238Y-93322819D01*
X152847238Y-93322819D02*
X152752000Y-93275200D01*
X152752000Y-93275200D02*
X152704381Y-93227580D01*
X153942476Y-92322819D02*
X154037714Y-92322819D01*
X154037714Y-92322819D02*
X154132952Y-92370438D01*
X154132952Y-92370438D02*
X154180571Y-92418057D01*
X154180571Y-92418057D02*
X154228190Y-92513295D01*
X154228190Y-92513295D02*
X154275809Y-92703771D01*
X154275809Y-92703771D02*
X154275809Y-92941866D01*
X154275809Y-92941866D02*
X154228190Y-93132342D01*
X154228190Y-93132342D02*
X154180571Y-93227580D01*
X154180571Y-93227580D02*
X154132952Y-93275200D01*
X154132952Y-93275200D02*
X154037714Y-93322819D01*
X154037714Y-93322819D02*
X153942476Y-93322819D01*
X153942476Y-93322819D02*
X153847238Y-93275200D01*
X153847238Y-93275200D02*
X153799619Y-93227580D01*
X153799619Y-93227580D02*
X153752000Y-93132342D01*
X153752000Y-93132342D02*
X153704381Y-92941866D01*
X153704381Y-92941866D02*
X153704381Y-92703771D01*
X153704381Y-92703771D02*
X153752000Y-92513295D01*
X153752000Y-92513295D02*
X153799619Y-92418057D01*
X153799619Y-92418057D02*
X153847238Y-92370438D01*
X153847238Y-92370438D02*
X153942476Y-92322819D01*
X155228190Y-93322819D02*
X154656762Y-93322819D01*
X154942476Y-93322819D02*
X154942476Y-92322819D01*
X154942476Y-92322819D02*
X154847238Y-92465676D01*
X154847238Y-92465676D02*
X154752000Y-92560914D01*
X154752000Y-92560914D02*
X154656762Y-92608533D01*
X164377952Y-139774819D02*
X164044619Y-139298628D01*
X163806524Y-139774819D02*
X163806524Y-138774819D01*
X163806524Y-138774819D02*
X164187476Y-138774819D01*
X164187476Y-138774819D02*
X164282714Y-138822438D01*
X164282714Y-138822438D02*
X164330333Y-138870057D01*
X164330333Y-138870057D02*
X164377952Y-138965295D01*
X164377952Y-138965295D02*
X164377952Y-139108152D01*
X164377952Y-139108152D02*
X164330333Y-139203390D01*
X164330333Y-139203390D02*
X164282714Y-139251009D01*
X164282714Y-139251009D02*
X164187476Y-139298628D01*
X164187476Y-139298628D02*
X163806524Y-139298628D01*
X164711286Y-138774819D02*
X165330333Y-138774819D01*
X165330333Y-138774819D02*
X164997000Y-139155771D01*
X164997000Y-139155771D02*
X165139857Y-139155771D01*
X165139857Y-139155771D02*
X165235095Y-139203390D01*
X165235095Y-139203390D02*
X165282714Y-139251009D01*
X165282714Y-139251009D02*
X165330333Y-139346247D01*
X165330333Y-139346247D02*
X165330333Y-139584342D01*
X165330333Y-139584342D02*
X165282714Y-139679580D01*
X165282714Y-139679580D02*
X165235095Y-139727200D01*
X165235095Y-139727200D02*
X165139857Y-139774819D01*
X165139857Y-139774819D02*
X164854143Y-139774819D01*
X164854143Y-139774819D02*
X164758905Y-139727200D01*
X164758905Y-139727200D02*
X164711286Y-139679580D01*
X166282714Y-139774819D02*
X165711286Y-139774819D01*
X165997000Y-139774819D02*
X165997000Y-138774819D01*
X165997000Y-138774819D02*
X165901762Y-138917676D01*
X165901762Y-138917676D02*
X165806524Y-139012914D01*
X165806524Y-139012914D02*
X165711286Y-139060533D01*
X166901762Y-138774819D02*
X166997000Y-138774819D01*
X166997000Y-138774819D02*
X167092238Y-138822438D01*
X167092238Y-138822438D02*
X167139857Y-138870057D01*
X167139857Y-138870057D02*
X167187476Y-138965295D01*
X167187476Y-138965295D02*
X167235095Y-139155771D01*
X167235095Y-139155771D02*
X167235095Y-139393866D01*
X167235095Y-139393866D02*
X167187476Y-139584342D01*
X167187476Y-139584342D02*
X167139857Y-139679580D01*
X167139857Y-139679580D02*
X167092238Y-139727200D01*
X167092238Y-139727200D02*
X166997000Y-139774819D01*
X166997000Y-139774819D02*
X166901762Y-139774819D01*
X166901762Y-139774819D02*
X166806524Y-139727200D01*
X166806524Y-139727200D02*
X166758905Y-139679580D01*
X166758905Y-139679580D02*
X166711286Y-139584342D01*
X166711286Y-139584342D02*
X166663667Y-139393866D01*
X166663667Y-139393866D02*
X166663667Y-139155771D01*
X166663667Y-139155771D02*
X166711286Y-138965295D01*
X166711286Y-138965295D02*
X166758905Y-138870057D01*
X166758905Y-138870057D02*
X166806524Y-138822438D01*
X166806524Y-138822438D02*
X166901762Y-138774819D01*
X149375952Y-140536819D02*
X149042619Y-140060628D01*
X148804524Y-140536819D02*
X148804524Y-139536819D01*
X148804524Y-139536819D02*
X149185476Y-139536819D01*
X149185476Y-139536819D02*
X149280714Y-139584438D01*
X149280714Y-139584438D02*
X149328333Y-139632057D01*
X149328333Y-139632057D02*
X149375952Y-139727295D01*
X149375952Y-139727295D02*
X149375952Y-139870152D01*
X149375952Y-139870152D02*
X149328333Y-139965390D01*
X149328333Y-139965390D02*
X149280714Y-140013009D01*
X149280714Y-140013009D02*
X149185476Y-140060628D01*
X149185476Y-140060628D02*
X148804524Y-140060628D01*
X149709286Y-139536819D02*
X150328333Y-139536819D01*
X150328333Y-139536819D02*
X149995000Y-139917771D01*
X149995000Y-139917771D02*
X150137857Y-139917771D01*
X150137857Y-139917771D02*
X150233095Y-139965390D01*
X150233095Y-139965390D02*
X150280714Y-140013009D01*
X150280714Y-140013009D02*
X150328333Y-140108247D01*
X150328333Y-140108247D02*
X150328333Y-140346342D01*
X150328333Y-140346342D02*
X150280714Y-140441580D01*
X150280714Y-140441580D02*
X150233095Y-140489200D01*
X150233095Y-140489200D02*
X150137857Y-140536819D01*
X150137857Y-140536819D02*
X149852143Y-140536819D01*
X149852143Y-140536819D02*
X149756905Y-140489200D01*
X149756905Y-140489200D02*
X149709286Y-140441580D01*
X150947381Y-139536819D02*
X151042619Y-139536819D01*
X151042619Y-139536819D02*
X151137857Y-139584438D01*
X151137857Y-139584438D02*
X151185476Y-139632057D01*
X151185476Y-139632057D02*
X151233095Y-139727295D01*
X151233095Y-139727295D02*
X151280714Y-139917771D01*
X151280714Y-139917771D02*
X151280714Y-140155866D01*
X151280714Y-140155866D02*
X151233095Y-140346342D01*
X151233095Y-140346342D02*
X151185476Y-140441580D01*
X151185476Y-140441580D02*
X151137857Y-140489200D01*
X151137857Y-140489200D02*
X151042619Y-140536819D01*
X151042619Y-140536819D02*
X150947381Y-140536819D01*
X150947381Y-140536819D02*
X150852143Y-140489200D01*
X150852143Y-140489200D02*
X150804524Y-140441580D01*
X150804524Y-140441580D02*
X150756905Y-140346342D01*
X150756905Y-140346342D02*
X150709286Y-140155866D01*
X150709286Y-140155866D02*
X150709286Y-139917771D01*
X150709286Y-139917771D02*
X150756905Y-139727295D01*
X150756905Y-139727295D02*
X150804524Y-139632057D01*
X150804524Y-139632057D02*
X150852143Y-139584438D01*
X150852143Y-139584438D02*
X150947381Y-139536819D01*
X151756905Y-140536819D02*
X151947381Y-140536819D01*
X151947381Y-140536819D02*
X152042619Y-140489200D01*
X152042619Y-140489200D02*
X152090238Y-140441580D01*
X152090238Y-140441580D02*
X152185476Y-140298723D01*
X152185476Y-140298723D02*
X152233095Y-140108247D01*
X152233095Y-140108247D02*
X152233095Y-139727295D01*
X152233095Y-139727295D02*
X152185476Y-139632057D01*
X152185476Y-139632057D02*
X152137857Y-139584438D01*
X152137857Y-139584438D02*
X152042619Y-139536819D01*
X152042619Y-139536819D02*
X151852143Y-139536819D01*
X151852143Y-139536819D02*
X151756905Y-139584438D01*
X151756905Y-139584438D02*
X151709286Y-139632057D01*
X151709286Y-139632057D02*
X151661667Y-139727295D01*
X151661667Y-139727295D02*
X151661667Y-139965390D01*
X151661667Y-139965390D02*
X151709286Y-140060628D01*
X151709286Y-140060628D02*
X151756905Y-140108247D01*
X151756905Y-140108247D02*
X151852143Y-140155866D01*
X151852143Y-140155866D02*
X152042619Y-140155866D01*
X152042619Y-140155866D02*
X152137857Y-140108247D01*
X152137857Y-140108247D02*
X152185476Y-140060628D01*
X152185476Y-140060628D02*
X152233095Y-139965390D01*
X98575952Y-71702819D02*
X98242619Y-71226628D01*
X98004524Y-71702819D02*
X98004524Y-70702819D01*
X98004524Y-70702819D02*
X98385476Y-70702819D01*
X98385476Y-70702819D02*
X98480714Y-70750438D01*
X98480714Y-70750438D02*
X98528333Y-70798057D01*
X98528333Y-70798057D02*
X98575952Y-70893295D01*
X98575952Y-70893295D02*
X98575952Y-71036152D01*
X98575952Y-71036152D02*
X98528333Y-71131390D01*
X98528333Y-71131390D02*
X98480714Y-71179009D01*
X98480714Y-71179009D02*
X98385476Y-71226628D01*
X98385476Y-71226628D02*
X98004524Y-71226628D01*
X99433095Y-71036152D02*
X99433095Y-71702819D01*
X99195000Y-70655200D02*
X98956905Y-71369485D01*
X98956905Y-71369485D02*
X99575952Y-71369485D01*
X100147381Y-70702819D02*
X100242619Y-70702819D01*
X100242619Y-70702819D02*
X100337857Y-70750438D01*
X100337857Y-70750438D02*
X100385476Y-70798057D01*
X100385476Y-70798057D02*
X100433095Y-70893295D01*
X100433095Y-70893295D02*
X100480714Y-71083771D01*
X100480714Y-71083771D02*
X100480714Y-71321866D01*
X100480714Y-71321866D02*
X100433095Y-71512342D01*
X100433095Y-71512342D02*
X100385476Y-71607580D01*
X100385476Y-71607580D02*
X100337857Y-71655200D01*
X100337857Y-71655200D02*
X100242619Y-71702819D01*
X100242619Y-71702819D02*
X100147381Y-71702819D01*
X100147381Y-71702819D02*
X100052143Y-71655200D01*
X100052143Y-71655200D02*
X100004524Y-71607580D01*
X100004524Y-71607580D02*
X99956905Y-71512342D01*
X99956905Y-71512342D02*
X99909286Y-71321866D01*
X99909286Y-71321866D02*
X99909286Y-71083771D01*
X99909286Y-71083771D02*
X99956905Y-70893295D01*
X99956905Y-70893295D02*
X100004524Y-70798057D01*
X100004524Y-70798057D02*
X100052143Y-70750438D01*
X100052143Y-70750438D02*
X100147381Y-70702819D01*
X100814048Y-70702819D02*
X101433095Y-70702819D01*
X101433095Y-70702819D02*
X101099762Y-71083771D01*
X101099762Y-71083771D02*
X101242619Y-71083771D01*
X101242619Y-71083771D02*
X101337857Y-71131390D01*
X101337857Y-71131390D02*
X101385476Y-71179009D01*
X101385476Y-71179009D02*
X101433095Y-71274247D01*
X101433095Y-71274247D02*
X101433095Y-71512342D01*
X101433095Y-71512342D02*
X101385476Y-71607580D01*
X101385476Y-71607580D02*
X101337857Y-71655200D01*
X101337857Y-71655200D02*
X101242619Y-71702819D01*
X101242619Y-71702819D02*
X100956905Y-71702819D01*
X100956905Y-71702819D02*
X100861667Y-71655200D01*
X100861667Y-71655200D02*
X100814048Y-71607580D01*
X162115714Y-36005819D02*
X162115714Y-35005819D01*
X162115714Y-35482009D02*
X162687142Y-35482009D01*
X162687142Y-36005819D02*
X162687142Y-35005819D01*
X163115714Y-35101057D02*
X163163333Y-35053438D01*
X163163333Y-35053438D02*
X163258571Y-35005819D01*
X163258571Y-35005819D02*
X163496666Y-35005819D01*
X163496666Y-35005819D02*
X163591904Y-35053438D01*
X163591904Y-35053438D02*
X163639523Y-35101057D01*
X163639523Y-35101057D02*
X163687142Y-35196295D01*
X163687142Y-35196295D02*
X163687142Y-35291533D01*
X163687142Y-35291533D02*
X163639523Y-35434390D01*
X163639523Y-35434390D02*
X163068095Y-36005819D01*
X163068095Y-36005819D02*
X163687142Y-36005819D01*
X164306190Y-35005819D02*
X164401428Y-35005819D01*
X164401428Y-35005819D02*
X164496666Y-35053438D01*
X164496666Y-35053438D02*
X164544285Y-35101057D01*
X164544285Y-35101057D02*
X164591904Y-35196295D01*
X164591904Y-35196295D02*
X164639523Y-35386771D01*
X164639523Y-35386771D02*
X164639523Y-35624866D01*
X164639523Y-35624866D02*
X164591904Y-35815342D01*
X164591904Y-35815342D02*
X164544285Y-35910580D01*
X164544285Y-35910580D02*
X164496666Y-35958200D01*
X164496666Y-35958200D02*
X164401428Y-36005819D01*
X164401428Y-36005819D02*
X164306190Y-36005819D01*
X164306190Y-36005819D02*
X164210952Y-35958200D01*
X164210952Y-35958200D02*
X164163333Y-35910580D01*
X164163333Y-35910580D02*
X164115714Y-35815342D01*
X164115714Y-35815342D02*
X164068095Y-35624866D01*
X164068095Y-35624866D02*
X164068095Y-35386771D01*
X164068095Y-35386771D02*
X164115714Y-35196295D01*
X164115714Y-35196295D02*
X164163333Y-35101057D01*
X164163333Y-35101057D02*
X164210952Y-35053438D01*
X164210952Y-35053438D02*
X164306190Y-35005819D01*
X165496666Y-35005819D02*
X165306190Y-35005819D01*
X165306190Y-35005819D02*
X165210952Y-35053438D01*
X165210952Y-35053438D02*
X165163333Y-35101057D01*
X165163333Y-35101057D02*
X165068095Y-35243914D01*
X165068095Y-35243914D02*
X165020476Y-35434390D01*
X165020476Y-35434390D02*
X165020476Y-35815342D01*
X165020476Y-35815342D02*
X165068095Y-35910580D01*
X165068095Y-35910580D02*
X165115714Y-35958200D01*
X165115714Y-35958200D02*
X165210952Y-36005819D01*
X165210952Y-36005819D02*
X165401428Y-36005819D01*
X165401428Y-36005819D02*
X165496666Y-35958200D01*
X165496666Y-35958200D02*
X165544285Y-35910580D01*
X165544285Y-35910580D02*
X165591904Y-35815342D01*
X165591904Y-35815342D02*
X165591904Y-35577247D01*
X165591904Y-35577247D02*
X165544285Y-35482009D01*
X165544285Y-35482009D02*
X165496666Y-35434390D01*
X165496666Y-35434390D02*
X165401428Y-35386771D01*
X165401428Y-35386771D02*
X165210952Y-35386771D01*
X165210952Y-35386771D02*
X165115714Y-35434390D01*
X165115714Y-35434390D02*
X165068095Y-35482009D01*
X165068095Y-35482009D02*
X165020476Y-35577247D01*
X90876714Y-87886819D02*
X91448142Y-87886819D01*
X91162428Y-88886819D02*
X91162428Y-87886819D01*
X91781476Y-88886819D02*
X91781476Y-87886819D01*
X91781476Y-87886819D02*
X92162428Y-87886819D01*
X92162428Y-87886819D02*
X92257666Y-87934438D01*
X92257666Y-87934438D02*
X92305285Y-87982057D01*
X92305285Y-87982057D02*
X92352904Y-88077295D01*
X92352904Y-88077295D02*
X92352904Y-88220152D01*
X92352904Y-88220152D02*
X92305285Y-88315390D01*
X92305285Y-88315390D02*
X92257666Y-88363009D01*
X92257666Y-88363009D02*
X92162428Y-88410628D01*
X92162428Y-88410628D02*
X91781476Y-88410628D01*
X92686238Y-87886819D02*
X93305285Y-87886819D01*
X93305285Y-87886819D02*
X92971952Y-88267771D01*
X92971952Y-88267771D02*
X93114809Y-88267771D01*
X93114809Y-88267771D02*
X93210047Y-88315390D01*
X93210047Y-88315390D02*
X93257666Y-88363009D01*
X93257666Y-88363009D02*
X93305285Y-88458247D01*
X93305285Y-88458247D02*
X93305285Y-88696342D01*
X93305285Y-88696342D02*
X93257666Y-88791580D01*
X93257666Y-88791580D02*
X93210047Y-88839200D01*
X93210047Y-88839200D02*
X93114809Y-88886819D01*
X93114809Y-88886819D02*
X92829095Y-88886819D01*
X92829095Y-88886819D02*
X92733857Y-88839200D01*
X92733857Y-88839200D02*
X92686238Y-88791580D01*
X93924333Y-87886819D02*
X94019571Y-87886819D01*
X94019571Y-87886819D02*
X94114809Y-87934438D01*
X94114809Y-87934438D02*
X94162428Y-87982057D01*
X94162428Y-87982057D02*
X94210047Y-88077295D01*
X94210047Y-88077295D02*
X94257666Y-88267771D01*
X94257666Y-88267771D02*
X94257666Y-88505866D01*
X94257666Y-88505866D02*
X94210047Y-88696342D01*
X94210047Y-88696342D02*
X94162428Y-88791580D01*
X94162428Y-88791580D02*
X94114809Y-88839200D01*
X94114809Y-88839200D02*
X94019571Y-88886819D01*
X94019571Y-88886819D02*
X93924333Y-88886819D01*
X93924333Y-88886819D02*
X93829095Y-88839200D01*
X93829095Y-88839200D02*
X93781476Y-88791580D01*
X93781476Y-88791580D02*
X93733857Y-88696342D01*
X93733857Y-88696342D02*
X93686238Y-88505866D01*
X93686238Y-88505866D02*
X93686238Y-88267771D01*
X93686238Y-88267771D02*
X93733857Y-88077295D01*
X93733857Y-88077295D02*
X93781476Y-87982057D01*
X93781476Y-87982057D02*
X93829095Y-87934438D01*
X93829095Y-87934438D02*
X93924333Y-87886819D01*
X95114809Y-88220152D02*
X95114809Y-88886819D01*
X94876714Y-87839200D02*
X94638619Y-88553485D01*
X94638619Y-88553485D02*
X95257666Y-88553485D01*
X127087524Y-61865819D02*
X127087524Y-60865819D01*
X127087524Y-60865819D02*
X127325619Y-60865819D01*
X127325619Y-60865819D02*
X127468476Y-60913438D01*
X127468476Y-60913438D02*
X127563714Y-61008676D01*
X127563714Y-61008676D02*
X127611333Y-61103914D01*
X127611333Y-61103914D02*
X127658952Y-61294390D01*
X127658952Y-61294390D02*
X127658952Y-61437247D01*
X127658952Y-61437247D02*
X127611333Y-61627723D01*
X127611333Y-61627723D02*
X127563714Y-61722961D01*
X127563714Y-61722961D02*
X127468476Y-61818200D01*
X127468476Y-61818200D02*
X127325619Y-61865819D01*
X127325619Y-61865819D02*
X127087524Y-61865819D01*
X128516095Y-61199152D02*
X128516095Y-61865819D01*
X128278000Y-60818200D02*
X128039905Y-61532485D01*
X128039905Y-61532485D02*
X128658952Y-61532485D01*
X129230381Y-60865819D02*
X129325619Y-60865819D01*
X129325619Y-60865819D02*
X129420857Y-60913438D01*
X129420857Y-60913438D02*
X129468476Y-60961057D01*
X129468476Y-60961057D02*
X129516095Y-61056295D01*
X129516095Y-61056295D02*
X129563714Y-61246771D01*
X129563714Y-61246771D02*
X129563714Y-61484866D01*
X129563714Y-61484866D02*
X129516095Y-61675342D01*
X129516095Y-61675342D02*
X129468476Y-61770580D01*
X129468476Y-61770580D02*
X129420857Y-61818200D01*
X129420857Y-61818200D02*
X129325619Y-61865819D01*
X129325619Y-61865819D02*
X129230381Y-61865819D01*
X129230381Y-61865819D02*
X129135143Y-61818200D01*
X129135143Y-61818200D02*
X129087524Y-61770580D01*
X129087524Y-61770580D02*
X129039905Y-61675342D01*
X129039905Y-61675342D02*
X128992286Y-61484866D01*
X128992286Y-61484866D02*
X128992286Y-61246771D01*
X128992286Y-61246771D02*
X129039905Y-61056295D01*
X129039905Y-61056295D02*
X129087524Y-60961057D01*
X129087524Y-60961057D02*
X129135143Y-60913438D01*
X129135143Y-60913438D02*
X129230381Y-60865819D01*
X129944667Y-60961057D02*
X129992286Y-60913438D01*
X129992286Y-60913438D02*
X130087524Y-60865819D01*
X130087524Y-60865819D02*
X130325619Y-60865819D01*
X130325619Y-60865819D02*
X130420857Y-60913438D01*
X130420857Y-60913438D02*
X130468476Y-60961057D01*
X130468476Y-60961057D02*
X130516095Y-61056295D01*
X130516095Y-61056295D02*
X130516095Y-61151533D01*
X130516095Y-61151533D02*
X130468476Y-61294390D01*
X130468476Y-61294390D02*
X129897048Y-61865819D01*
X129897048Y-61865819D02*
X130516095Y-61865819D01*
X123436095Y-62235819D02*
X123436095Y-61235819D01*
X124007523Y-62235819D02*
X123578952Y-61664390D01*
X124007523Y-61235819D02*
X123436095Y-61807247D01*
X170473952Y-61796819D02*
X170140619Y-61320628D01*
X169902524Y-61796819D02*
X169902524Y-60796819D01*
X169902524Y-60796819D02*
X170283476Y-60796819D01*
X170283476Y-60796819D02*
X170378714Y-60844438D01*
X170378714Y-60844438D02*
X170426333Y-60892057D01*
X170426333Y-60892057D02*
X170473952Y-60987295D01*
X170473952Y-60987295D02*
X170473952Y-61130152D01*
X170473952Y-61130152D02*
X170426333Y-61225390D01*
X170426333Y-61225390D02*
X170378714Y-61273009D01*
X170378714Y-61273009D02*
X170283476Y-61320628D01*
X170283476Y-61320628D02*
X169902524Y-61320628D01*
X170807286Y-60796819D02*
X171426333Y-60796819D01*
X171426333Y-60796819D02*
X171093000Y-61177771D01*
X171093000Y-61177771D02*
X171235857Y-61177771D01*
X171235857Y-61177771D02*
X171331095Y-61225390D01*
X171331095Y-61225390D02*
X171378714Y-61273009D01*
X171378714Y-61273009D02*
X171426333Y-61368247D01*
X171426333Y-61368247D02*
X171426333Y-61606342D01*
X171426333Y-61606342D02*
X171378714Y-61701580D01*
X171378714Y-61701580D02*
X171331095Y-61749200D01*
X171331095Y-61749200D02*
X171235857Y-61796819D01*
X171235857Y-61796819D02*
X170950143Y-61796819D01*
X170950143Y-61796819D02*
X170854905Y-61749200D01*
X170854905Y-61749200D02*
X170807286Y-61701580D01*
X172045381Y-60796819D02*
X172140619Y-60796819D01*
X172140619Y-60796819D02*
X172235857Y-60844438D01*
X172235857Y-60844438D02*
X172283476Y-60892057D01*
X172283476Y-60892057D02*
X172331095Y-60987295D01*
X172331095Y-60987295D02*
X172378714Y-61177771D01*
X172378714Y-61177771D02*
X172378714Y-61415866D01*
X172378714Y-61415866D02*
X172331095Y-61606342D01*
X172331095Y-61606342D02*
X172283476Y-61701580D01*
X172283476Y-61701580D02*
X172235857Y-61749200D01*
X172235857Y-61749200D02*
X172140619Y-61796819D01*
X172140619Y-61796819D02*
X172045381Y-61796819D01*
X172045381Y-61796819D02*
X171950143Y-61749200D01*
X171950143Y-61749200D02*
X171902524Y-61701580D01*
X171902524Y-61701580D02*
X171854905Y-61606342D01*
X171854905Y-61606342D02*
X171807286Y-61415866D01*
X171807286Y-61415866D02*
X171807286Y-61177771D01*
X171807286Y-61177771D02*
X171854905Y-60987295D01*
X171854905Y-60987295D02*
X171902524Y-60892057D01*
X171902524Y-60892057D02*
X171950143Y-60844438D01*
X171950143Y-60844438D02*
X172045381Y-60796819D01*
X173331095Y-61796819D02*
X172759667Y-61796819D01*
X173045381Y-61796819D02*
X173045381Y-60796819D01*
X173045381Y-60796819D02*
X172950143Y-60939676D01*
X172950143Y-60939676D02*
X172854905Y-61034914D01*
X172854905Y-61034914D02*
X172759667Y-61082533D01*
X179004952Y-151039580D02*
X178957333Y-151087200D01*
X178957333Y-151087200D02*
X178814476Y-151134819D01*
X178814476Y-151134819D02*
X178719238Y-151134819D01*
X178719238Y-151134819D02*
X178576381Y-151087200D01*
X178576381Y-151087200D02*
X178481143Y-150991961D01*
X178481143Y-150991961D02*
X178433524Y-150896723D01*
X178433524Y-150896723D02*
X178385905Y-150706247D01*
X178385905Y-150706247D02*
X178385905Y-150563390D01*
X178385905Y-150563390D02*
X178433524Y-150372914D01*
X178433524Y-150372914D02*
X178481143Y-150277676D01*
X178481143Y-150277676D02*
X178576381Y-150182438D01*
X178576381Y-150182438D02*
X178719238Y-150134819D01*
X178719238Y-150134819D02*
X178814476Y-150134819D01*
X178814476Y-150134819D02*
X178957333Y-150182438D01*
X178957333Y-150182438D02*
X179004952Y-150230057D01*
X179338286Y-150134819D02*
X179957333Y-150134819D01*
X179957333Y-150134819D02*
X179624000Y-150515771D01*
X179624000Y-150515771D02*
X179766857Y-150515771D01*
X179766857Y-150515771D02*
X179862095Y-150563390D01*
X179862095Y-150563390D02*
X179909714Y-150611009D01*
X179909714Y-150611009D02*
X179957333Y-150706247D01*
X179957333Y-150706247D02*
X179957333Y-150944342D01*
X179957333Y-150944342D02*
X179909714Y-151039580D01*
X179909714Y-151039580D02*
X179862095Y-151087200D01*
X179862095Y-151087200D02*
X179766857Y-151134819D01*
X179766857Y-151134819D02*
X179481143Y-151134819D01*
X179481143Y-151134819D02*
X179385905Y-151087200D01*
X179385905Y-151087200D02*
X179338286Y-151039580D01*
X180576381Y-150134819D02*
X180671619Y-150134819D01*
X180671619Y-150134819D02*
X180766857Y-150182438D01*
X180766857Y-150182438D02*
X180814476Y-150230057D01*
X180814476Y-150230057D02*
X180862095Y-150325295D01*
X180862095Y-150325295D02*
X180909714Y-150515771D01*
X180909714Y-150515771D02*
X180909714Y-150753866D01*
X180909714Y-150753866D02*
X180862095Y-150944342D01*
X180862095Y-150944342D02*
X180814476Y-151039580D01*
X180814476Y-151039580D02*
X180766857Y-151087200D01*
X180766857Y-151087200D02*
X180671619Y-151134819D01*
X180671619Y-151134819D02*
X180576381Y-151134819D01*
X180576381Y-151134819D02*
X180481143Y-151087200D01*
X180481143Y-151087200D02*
X180433524Y-151039580D01*
X180433524Y-151039580D02*
X180385905Y-150944342D01*
X180385905Y-150944342D02*
X180338286Y-150753866D01*
X180338286Y-150753866D02*
X180338286Y-150515771D01*
X180338286Y-150515771D02*
X180385905Y-150325295D01*
X180385905Y-150325295D02*
X180433524Y-150230057D01*
X180433524Y-150230057D02*
X180481143Y-150182438D01*
X180481143Y-150182438D02*
X180576381Y-150134819D01*
X181766857Y-150134819D02*
X181576381Y-150134819D01*
X181576381Y-150134819D02*
X181481143Y-150182438D01*
X181481143Y-150182438D02*
X181433524Y-150230057D01*
X181433524Y-150230057D02*
X181338286Y-150372914D01*
X181338286Y-150372914D02*
X181290667Y-150563390D01*
X181290667Y-150563390D02*
X181290667Y-150944342D01*
X181290667Y-150944342D02*
X181338286Y-151039580D01*
X181338286Y-151039580D02*
X181385905Y-151087200D01*
X181385905Y-151087200D02*
X181481143Y-151134819D01*
X181481143Y-151134819D02*
X181671619Y-151134819D01*
X181671619Y-151134819D02*
X181766857Y-151087200D01*
X181766857Y-151087200D02*
X181814476Y-151039580D01*
X181814476Y-151039580D02*
X181862095Y-150944342D01*
X181862095Y-150944342D02*
X181862095Y-150706247D01*
X181862095Y-150706247D02*
X181814476Y-150611009D01*
X181814476Y-150611009D02*
X181766857Y-150563390D01*
X181766857Y-150563390D02*
X181671619Y-150515771D01*
X181671619Y-150515771D02*
X181481143Y-150515771D01*
X181481143Y-150515771D02*
X181385905Y-150563390D01*
X181385905Y-150563390D02*
X181338286Y-150611009D01*
X181338286Y-150611009D02*
X181290667Y-150706247D01*
X186634452Y-130120580D02*
X186586833Y-130168200D01*
X186586833Y-130168200D02*
X186443976Y-130215819D01*
X186443976Y-130215819D02*
X186348738Y-130215819D01*
X186348738Y-130215819D02*
X186205881Y-130168200D01*
X186205881Y-130168200D02*
X186110643Y-130072961D01*
X186110643Y-130072961D02*
X186063024Y-129977723D01*
X186063024Y-129977723D02*
X186015405Y-129787247D01*
X186015405Y-129787247D02*
X186015405Y-129644390D01*
X186015405Y-129644390D02*
X186063024Y-129453914D01*
X186063024Y-129453914D02*
X186110643Y-129358676D01*
X186110643Y-129358676D02*
X186205881Y-129263438D01*
X186205881Y-129263438D02*
X186348738Y-129215819D01*
X186348738Y-129215819D02*
X186443976Y-129215819D01*
X186443976Y-129215819D02*
X186586833Y-129263438D01*
X186586833Y-129263438D02*
X186634452Y-129311057D01*
X186967786Y-129215819D02*
X187586833Y-129215819D01*
X187586833Y-129215819D02*
X187253500Y-129596771D01*
X187253500Y-129596771D02*
X187396357Y-129596771D01*
X187396357Y-129596771D02*
X187491595Y-129644390D01*
X187491595Y-129644390D02*
X187539214Y-129692009D01*
X187539214Y-129692009D02*
X187586833Y-129787247D01*
X187586833Y-129787247D02*
X187586833Y-130025342D01*
X187586833Y-130025342D02*
X187539214Y-130120580D01*
X187539214Y-130120580D02*
X187491595Y-130168200D01*
X187491595Y-130168200D02*
X187396357Y-130215819D01*
X187396357Y-130215819D02*
X187110643Y-130215819D01*
X187110643Y-130215819D02*
X187015405Y-130168200D01*
X187015405Y-130168200D02*
X186967786Y-130120580D01*
X188205881Y-129215819D02*
X188301119Y-129215819D01*
X188301119Y-129215819D02*
X188396357Y-129263438D01*
X188396357Y-129263438D02*
X188443976Y-129311057D01*
X188443976Y-129311057D02*
X188491595Y-129406295D01*
X188491595Y-129406295D02*
X188539214Y-129596771D01*
X188539214Y-129596771D02*
X188539214Y-129834866D01*
X188539214Y-129834866D02*
X188491595Y-130025342D01*
X188491595Y-130025342D02*
X188443976Y-130120580D01*
X188443976Y-130120580D02*
X188396357Y-130168200D01*
X188396357Y-130168200D02*
X188301119Y-130215819D01*
X188301119Y-130215819D02*
X188205881Y-130215819D01*
X188205881Y-130215819D02*
X188110643Y-130168200D01*
X188110643Y-130168200D02*
X188063024Y-130120580D01*
X188063024Y-130120580D02*
X188015405Y-130025342D01*
X188015405Y-130025342D02*
X187967786Y-129834866D01*
X187967786Y-129834866D02*
X187967786Y-129596771D01*
X187967786Y-129596771D02*
X188015405Y-129406295D01*
X188015405Y-129406295D02*
X188063024Y-129311057D01*
X188063024Y-129311057D02*
X188110643Y-129263438D01*
X188110643Y-129263438D02*
X188205881Y-129215819D01*
X189443976Y-129215819D02*
X188967786Y-129215819D01*
X188967786Y-129215819D02*
X188920167Y-129692009D01*
X188920167Y-129692009D02*
X188967786Y-129644390D01*
X188967786Y-129644390D02*
X189063024Y-129596771D01*
X189063024Y-129596771D02*
X189301119Y-129596771D01*
X189301119Y-129596771D02*
X189396357Y-129644390D01*
X189396357Y-129644390D02*
X189443976Y-129692009D01*
X189443976Y-129692009D02*
X189491595Y-129787247D01*
X189491595Y-129787247D02*
X189491595Y-130025342D01*
X189491595Y-130025342D02*
X189443976Y-130120580D01*
X189443976Y-130120580D02*
X189396357Y-130168200D01*
X189396357Y-130168200D02*
X189301119Y-130215819D01*
X189301119Y-130215819D02*
X189063024Y-130215819D01*
X189063024Y-130215819D02*
X188967786Y-130168200D01*
X188967786Y-130168200D02*
X188920167Y-130120580D01*
X121103580Y-74652047D02*
X121151200Y-74699666D01*
X121151200Y-74699666D02*
X121198819Y-74842523D01*
X121198819Y-74842523D02*
X121198819Y-74937761D01*
X121198819Y-74937761D02*
X121151200Y-75080618D01*
X121151200Y-75080618D02*
X121055961Y-75175856D01*
X121055961Y-75175856D02*
X120960723Y-75223475D01*
X120960723Y-75223475D02*
X120770247Y-75271094D01*
X120770247Y-75271094D02*
X120627390Y-75271094D01*
X120627390Y-75271094D02*
X120436914Y-75223475D01*
X120436914Y-75223475D02*
X120341676Y-75175856D01*
X120341676Y-75175856D02*
X120246438Y-75080618D01*
X120246438Y-75080618D02*
X120198819Y-74937761D01*
X120198819Y-74937761D02*
X120198819Y-74842523D01*
X120198819Y-74842523D02*
X120246438Y-74699666D01*
X120246438Y-74699666D02*
X120294057Y-74652047D01*
X120532152Y-73794904D02*
X121198819Y-73794904D01*
X120151200Y-74032999D02*
X120865485Y-74271094D01*
X120865485Y-74271094D02*
X120865485Y-73652047D01*
X120198819Y-73080618D02*
X120198819Y-72985380D01*
X120198819Y-72985380D02*
X120246438Y-72890142D01*
X120246438Y-72890142D02*
X120294057Y-72842523D01*
X120294057Y-72842523D02*
X120389295Y-72794904D01*
X120389295Y-72794904D02*
X120579771Y-72747285D01*
X120579771Y-72747285D02*
X120817866Y-72747285D01*
X120817866Y-72747285D02*
X121008342Y-72794904D01*
X121008342Y-72794904D02*
X121103580Y-72842523D01*
X121103580Y-72842523D02*
X121151200Y-72890142D01*
X121151200Y-72890142D02*
X121198819Y-72985380D01*
X121198819Y-72985380D02*
X121198819Y-73080618D01*
X121198819Y-73080618D02*
X121151200Y-73175856D01*
X121151200Y-73175856D02*
X121103580Y-73223475D01*
X121103580Y-73223475D02*
X121008342Y-73271094D01*
X121008342Y-73271094D02*
X120817866Y-73318713D01*
X120817866Y-73318713D02*
X120579771Y-73318713D01*
X120579771Y-73318713D02*
X120389295Y-73271094D01*
X120389295Y-73271094D02*
X120294057Y-73223475D01*
X120294057Y-73223475D02*
X120246438Y-73175856D01*
X120246438Y-73175856D02*
X120198819Y-73080618D01*
X120198819Y-71890142D02*
X120198819Y-72080618D01*
X120198819Y-72080618D02*
X120246438Y-72175856D01*
X120246438Y-72175856D02*
X120294057Y-72223475D01*
X120294057Y-72223475D02*
X120436914Y-72318713D01*
X120436914Y-72318713D02*
X120627390Y-72366332D01*
X120627390Y-72366332D02*
X121008342Y-72366332D01*
X121008342Y-72366332D02*
X121103580Y-72318713D01*
X121103580Y-72318713D02*
X121151200Y-72271094D01*
X121151200Y-72271094D02*
X121198819Y-72175856D01*
X121198819Y-72175856D02*
X121198819Y-71985380D01*
X121198819Y-71985380D02*
X121151200Y-71890142D01*
X121151200Y-71890142D02*
X121103580Y-71842523D01*
X121103580Y-71842523D02*
X121008342Y-71794904D01*
X121008342Y-71794904D02*
X120770247Y-71794904D01*
X120770247Y-71794904D02*
X120675009Y-71842523D01*
X120675009Y-71842523D02*
X120627390Y-71890142D01*
X120627390Y-71890142D02*
X120579771Y-71985380D01*
X120579771Y-71985380D02*
X120579771Y-72175856D01*
X120579771Y-72175856D02*
X120627390Y-72271094D01*
X120627390Y-72271094D02*
X120675009Y-72318713D01*
X120675009Y-72318713D02*
X120770247Y-72366332D01*
X186332952Y-119358580D02*
X186285333Y-119406200D01*
X186285333Y-119406200D02*
X186142476Y-119453819D01*
X186142476Y-119453819D02*
X186047238Y-119453819D01*
X186047238Y-119453819D02*
X185904381Y-119406200D01*
X185904381Y-119406200D02*
X185809143Y-119310961D01*
X185809143Y-119310961D02*
X185761524Y-119215723D01*
X185761524Y-119215723D02*
X185713905Y-119025247D01*
X185713905Y-119025247D02*
X185713905Y-118882390D01*
X185713905Y-118882390D02*
X185761524Y-118691914D01*
X185761524Y-118691914D02*
X185809143Y-118596676D01*
X185809143Y-118596676D02*
X185904381Y-118501438D01*
X185904381Y-118501438D02*
X186047238Y-118453819D01*
X186047238Y-118453819D02*
X186142476Y-118453819D01*
X186142476Y-118453819D02*
X186285333Y-118501438D01*
X186285333Y-118501438D02*
X186332952Y-118549057D01*
X186666286Y-118453819D02*
X187285333Y-118453819D01*
X187285333Y-118453819D02*
X186952000Y-118834771D01*
X186952000Y-118834771D02*
X187094857Y-118834771D01*
X187094857Y-118834771D02*
X187190095Y-118882390D01*
X187190095Y-118882390D02*
X187237714Y-118930009D01*
X187237714Y-118930009D02*
X187285333Y-119025247D01*
X187285333Y-119025247D02*
X187285333Y-119263342D01*
X187285333Y-119263342D02*
X187237714Y-119358580D01*
X187237714Y-119358580D02*
X187190095Y-119406200D01*
X187190095Y-119406200D02*
X187094857Y-119453819D01*
X187094857Y-119453819D02*
X186809143Y-119453819D01*
X186809143Y-119453819D02*
X186713905Y-119406200D01*
X186713905Y-119406200D02*
X186666286Y-119358580D01*
X187904381Y-118453819D02*
X187999619Y-118453819D01*
X187999619Y-118453819D02*
X188094857Y-118501438D01*
X188094857Y-118501438D02*
X188142476Y-118549057D01*
X188142476Y-118549057D02*
X188190095Y-118644295D01*
X188190095Y-118644295D02*
X188237714Y-118834771D01*
X188237714Y-118834771D02*
X188237714Y-119072866D01*
X188237714Y-119072866D02*
X188190095Y-119263342D01*
X188190095Y-119263342D02*
X188142476Y-119358580D01*
X188142476Y-119358580D02*
X188094857Y-119406200D01*
X188094857Y-119406200D02*
X187999619Y-119453819D01*
X187999619Y-119453819D02*
X187904381Y-119453819D01*
X187904381Y-119453819D02*
X187809143Y-119406200D01*
X187809143Y-119406200D02*
X187761524Y-119358580D01*
X187761524Y-119358580D02*
X187713905Y-119263342D01*
X187713905Y-119263342D02*
X187666286Y-119072866D01*
X187666286Y-119072866D02*
X187666286Y-118834771D01*
X187666286Y-118834771D02*
X187713905Y-118644295D01*
X187713905Y-118644295D02*
X187761524Y-118549057D01*
X187761524Y-118549057D02*
X187809143Y-118501438D01*
X187809143Y-118501438D02*
X187904381Y-118453819D01*
X188809143Y-118882390D02*
X188713905Y-118834771D01*
X188713905Y-118834771D02*
X188666286Y-118787152D01*
X188666286Y-118787152D02*
X188618667Y-118691914D01*
X188618667Y-118691914D02*
X188618667Y-118644295D01*
X188618667Y-118644295D02*
X188666286Y-118549057D01*
X188666286Y-118549057D02*
X188713905Y-118501438D01*
X188713905Y-118501438D02*
X188809143Y-118453819D01*
X188809143Y-118453819D02*
X188999619Y-118453819D01*
X188999619Y-118453819D02*
X189094857Y-118501438D01*
X189094857Y-118501438D02*
X189142476Y-118549057D01*
X189142476Y-118549057D02*
X189190095Y-118644295D01*
X189190095Y-118644295D02*
X189190095Y-118691914D01*
X189190095Y-118691914D02*
X189142476Y-118787152D01*
X189142476Y-118787152D02*
X189094857Y-118834771D01*
X189094857Y-118834771D02*
X188999619Y-118882390D01*
X188999619Y-118882390D02*
X188809143Y-118882390D01*
X188809143Y-118882390D02*
X188713905Y-118930009D01*
X188713905Y-118930009D02*
X188666286Y-118977628D01*
X188666286Y-118977628D02*
X188618667Y-119072866D01*
X188618667Y-119072866D02*
X188618667Y-119263342D01*
X188618667Y-119263342D02*
X188666286Y-119358580D01*
X188666286Y-119358580D02*
X188713905Y-119406200D01*
X188713905Y-119406200D02*
X188809143Y-119453819D01*
X188809143Y-119453819D02*
X188999619Y-119453819D01*
X188999619Y-119453819D02*
X189094857Y-119406200D01*
X189094857Y-119406200D02*
X189142476Y-119358580D01*
X189142476Y-119358580D02*
X189190095Y-119263342D01*
X189190095Y-119263342D02*
X189190095Y-119072866D01*
X189190095Y-119072866D02*
X189142476Y-118977628D01*
X189142476Y-118977628D02*
X189094857Y-118930009D01*
X189094857Y-118930009D02*
X188999619Y-118882390D01*
X100155667Y-18141533D02*
X100355667Y-18208200D01*
X100355667Y-18208200D02*
X100422333Y-18274866D01*
X100422333Y-18274866D02*
X100489000Y-18408200D01*
X100489000Y-18408200D02*
X100489000Y-18608200D01*
X100489000Y-18608200D02*
X100422333Y-18741533D01*
X100422333Y-18741533D02*
X100355667Y-18808200D01*
X100355667Y-18808200D02*
X100222333Y-18874866D01*
X100222333Y-18874866D02*
X99689000Y-18874866D01*
X99689000Y-18874866D02*
X99689000Y-17474866D01*
X99689000Y-17474866D02*
X100155667Y-17474866D01*
X100155667Y-17474866D02*
X100289000Y-17541533D01*
X100289000Y-17541533D02*
X100355667Y-17608200D01*
X100355667Y-17608200D02*
X100422333Y-17741533D01*
X100422333Y-17741533D02*
X100422333Y-17874866D01*
X100422333Y-17874866D02*
X100355667Y-18008200D01*
X100355667Y-18008200D02*
X100289000Y-18074866D01*
X100289000Y-18074866D02*
X100155667Y-18141533D01*
X100155667Y-18141533D02*
X99689000Y-18141533D01*
X100889000Y-17474866D02*
X101689000Y-17474866D01*
X101289000Y-18874866D02*
X101289000Y-17474866D01*
X102755667Y-17941533D02*
X102755667Y-18874866D01*
X102422334Y-17408200D02*
X102089000Y-18408200D01*
X102089000Y-18408200D02*
X102955667Y-18408200D01*
X103755667Y-17474866D02*
X103889000Y-17474866D01*
X103889000Y-17474866D02*
X104022333Y-17541533D01*
X104022333Y-17541533D02*
X104089000Y-17608200D01*
X104089000Y-17608200D02*
X104155667Y-17741533D01*
X104155667Y-17741533D02*
X104222333Y-18008200D01*
X104222333Y-18008200D02*
X104222333Y-18341533D01*
X104222333Y-18341533D02*
X104155667Y-18608200D01*
X104155667Y-18608200D02*
X104089000Y-18741533D01*
X104089000Y-18741533D02*
X104022333Y-18808200D01*
X104022333Y-18808200D02*
X103889000Y-18874866D01*
X103889000Y-18874866D02*
X103755667Y-18874866D01*
X103755667Y-18874866D02*
X103622333Y-18808200D01*
X103622333Y-18808200D02*
X103555667Y-18741533D01*
X103555667Y-18741533D02*
X103489000Y-18608200D01*
X103489000Y-18608200D02*
X103422333Y-18341533D01*
X103422333Y-18341533D02*
X103422333Y-18008200D01*
X103422333Y-18008200D02*
X103489000Y-17741533D01*
X103489000Y-17741533D02*
X103555667Y-17608200D01*
X103555667Y-17608200D02*
X103622333Y-17541533D01*
X103622333Y-17541533D02*
X103755667Y-17474866D01*
X105555666Y-18874866D02*
X104755666Y-18874866D01*
X105155666Y-18874866D02*
X105155666Y-17474866D01*
X105155666Y-17474866D02*
X105022333Y-17674866D01*
X105022333Y-17674866D02*
X104889000Y-17808200D01*
X104889000Y-17808200D02*
X104755666Y-17874866D01*
X140739952Y-82116819D02*
X140406619Y-81640628D01*
X140168524Y-82116819D02*
X140168524Y-81116819D01*
X140168524Y-81116819D02*
X140549476Y-81116819D01*
X140549476Y-81116819D02*
X140644714Y-81164438D01*
X140644714Y-81164438D02*
X140692333Y-81212057D01*
X140692333Y-81212057D02*
X140739952Y-81307295D01*
X140739952Y-81307295D02*
X140739952Y-81450152D01*
X140739952Y-81450152D02*
X140692333Y-81545390D01*
X140692333Y-81545390D02*
X140644714Y-81593009D01*
X140644714Y-81593009D02*
X140549476Y-81640628D01*
X140549476Y-81640628D02*
X140168524Y-81640628D01*
X141597095Y-81450152D02*
X141597095Y-82116819D01*
X141359000Y-81069200D02*
X141120905Y-81783485D01*
X141120905Y-81783485D02*
X141739952Y-81783485D01*
X142311381Y-81116819D02*
X142406619Y-81116819D01*
X142406619Y-81116819D02*
X142501857Y-81164438D01*
X142501857Y-81164438D02*
X142549476Y-81212057D01*
X142549476Y-81212057D02*
X142597095Y-81307295D01*
X142597095Y-81307295D02*
X142644714Y-81497771D01*
X142644714Y-81497771D02*
X142644714Y-81735866D01*
X142644714Y-81735866D02*
X142597095Y-81926342D01*
X142597095Y-81926342D02*
X142549476Y-82021580D01*
X142549476Y-82021580D02*
X142501857Y-82069200D01*
X142501857Y-82069200D02*
X142406619Y-82116819D01*
X142406619Y-82116819D02*
X142311381Y-82116819D01*
X142311381Y-82116819D02*
X142216143Y-82069200D01*
X142216143Y-82069200D02*
X142168524Y-82021580D01*
X142168524Y-82021580D02*
X142120905Y-81926342D01*
X142120905Y-81926342D02*
X142073286Y-81735866D01*
X142073286Y-81735866D02*
X142073286Y-81497771D01*
X142073286Y-81497771D02*
X142120905Y-81307295D01*
X142120905Y-81307295D02*
X142168524Y-81212057D01*
X142168524Y-81212057D02*
X142216143Y-81164438D01*
X142216143Y-81164438D02*
X142311381Y-81116819D01*
X143501857Y-81450152D02*
X143501857Y-82116819D01*
X143263762Y-81069200D02*
X143025667Y-81783485D01*
X143025667Y-81783485D02*
X143644714Y-81783485D01*
X110247580Y-81002047D02*
X110295200Y-81049666D01*
X110295200Y-81049666D02*
X110342819Y-81192523D01*
X110342819Y-81192523D02*
X110342819Y-81287761D01*
X110342819Y-81287761D02*
X110295200Y-81430618D01*
X110295200Y-81430618D02*
X110199961Y-81525856D01*
X110199961Y-81525856D02*
X110104723Y-81573475D01*
X110104723Y-81573475D02*
X109914247Y-81621094D01*
X109914247Y-81621094D02*
X109771390Y-81621094D01*
X109771390Y-81621094D02*
X109580914Y-81573475D01*
X109580914Y-81573475D02*
X109485676Y-81525856D01*
X109485676Y-81525856D02*
X109390438Y-81430618D01*
X109390438Y-81430618D02*
X109342819Y-81287761D01*
X109342819Y-81287761D02*
X109342819Y-81192523D01*
X109342819Y-81192523D02*
X109390438Y-81049666D01*
X109390438Y-81049666D02*
X109438057Y-81002047D01*
X109676152Y-80144904D02*
X110342819Y-80144904D01*
X109295200Y-80382999D02*
X110009485Y-80621094D01*
X110009485Y-80621094D02*
X110009485Y-80002047D01*
X109342819Y-79430618D02*
X109342819Y-79335380D01*
X109342819Y-79335380D02*
X109390438Y-79240142D01*
X109390438Y-79240142D02*
X109438057Y-79192523D01*
X109438057Y-79192523D02*
X109533295Y-79144904D01*
X109533295Y-79144904D02*
X109723771Y-79097285D01*
X109723771Y-79097285D02*
X109961866Y-79097285D01*
X109961866Y-79097285D02*
X110152342Y-79144904D01*
X110152342Y-79144904D02*
X110247580Y-79192523D01*
X110247580Y-79192523D02*
X110295200Y-79240142D01*
X110295200Y-79240142D02*
X110342819Y-79335380D01*
X110342819Y-79335380D02*
X110342819Y-79430618D01*
X110342819Y-79430618D02*
X110295200Y-79525856D01*
X110295200Y-79525856D02*
X110247580Y-79573475D01*
X110247580Y-79573475D02*
X110152342Y-79621094D01*
X110152342Y-79621094D02*
X109961866Y-79668713D01*
X109961866Y-79668713D02*
X109723771Y-79668713D01*
X109723771Y-79668713D02*
X109533295Y-79621094D01*
X109533295Y-79621094D02*
X109438057Y-79573475D01*
X109438057Y-79573475D02*
X109390438Y-79525856D01*
X109390438Y-79525856D02*
X109342819Y-79430618D01*
X109342819Y-78192523D02*
X109342819Y-78668713D01*
X109342819Y-78668713D02*
X109819009Y-78716332D01*
X109819009Y-78716332D02*
X109771390Y-78668713D01*
X109771390Y-78668713D02*
X109723771Y-78573475D01*
X109723771Y-78573475D02*
X109723771Y-78335380D01*
X109723771Y-78335380D02*
X109771390Y-78240142D01*
X109771390Y-78240142D02*
X109819009Y-78192523D01*
X109819009Y-78192523D02*
X109914247Y-78144904D01*
X109914247Y-78144904D02*
X110152342Y-78144904D01*
X110152342Y-78144904D02*
X110247580Y-78192523D01*
X110247580Y-78192523D02*
X110295200Y-78240142D01*
X110295200Y-78240142D02*
X110342819Y-78335380D01*
X110342819Y-78335380D02*
X110342819Y-78573475D01*
X110342819Y-78573475D02*
X110295200Y-78668713D01*
X110295200Y-78668713D02*
X110247580Y-78716332D01*
X126642952Y-81862819D02*
X126309619Y-81386628D01*
X126071524Y-81862819D02*
X126071524Y-80862819D01*
X126071524Y-80862819D02*
X126452476Y-80862819D01*
X126452476Y-80862819D02*
X126547714Y-80910438D01*
X126547714Y-80910438D02*
X126595333Y-80958057D01*
X126595333Y-80958057D02*
X126642952Y-81053295D01*
X126642952Y-81053295D02*
X126642952Y-81196152D01*
X126642952Y-81196152D02*
X126595333Y-81291390D01*
X126595333Y-81291390D02*
X126547714Y-81339009D01*
X126547714Y-81339009D02*
X126452476Y-81386628D01*
X126452476Y-81386628D02*
X126071524Y-81386628D01*
X127500095Y-81196152D02*
X127500095Y-81862819D01*
X127262000Y-80815200D02*
X127023905Y-81529485D01*
X127023905Y-81529485D02*
X127642952Y-81529485D01*
X128214381Y-80862819D02*
X128309619Y-80862819D01*
X128309619Y-80862819D02*
X128404857Y-80910438D01*
X128404857Y-80910438D02*
X128452476Y-80958057D01*
X128452476Y-80958057D02*
X128500095Y-81053295D01*
X128500095Y-81053295D02*
X128547714Y-81243771D01*
X128547714Y-81243771D02*
X128547714Y-81481866D01*
X128547714Y-81481866D02*
X128500095Y-81672342D01*
X128500095Y-81672342D02*
X128452476Y-81767580D01*
X128452476Y-81767580D02*
X128404857Y-81815200D01*
X128404857Y-81815200D02*
X128309619Y-81862819D01*
X128309619Y-81862819D02*
X128214381Y-81862819D01*
X128214381Y-81862819D02*
X128119143Y-81815200D01*
X128119143Y-81815200D02*
X128071524Y-81767580D01*
X128071524Y-81767580D02*
X128023905Y-81672342D01*
X128023905Y-81672342D02*
X127976286Y-81481866D01*
X127976286Y-81481866D02*
X127976286Y-81243771D01*
X127976286Y-81243771D02*
X128023905Y-81053295D01*
X128023905Y-81053295D02*
X128071524Y-80958057D01*
X128071524Y-80958057D02*
X128119143Y-80910438D01*
X128119143Y-80910438D02*
X128214381Y-80862819D01*
X128928667Y-80958057D02*
X128976286Y-80910438D01*
X128976286Y-80910438D02*
X129071524Y-80862819D01*
X129071524Y-80862819D02*
X129309619Y-80862819D01*
X129309619Y-80862819D02*
X129404857Y-80910438D01*
X129404857Y-80910438D02*
X129452476Y-80958057D01*
X129452476Y-80958057D02*
X129500095Y-81053295D01*
X129500095Y-81053295D02*
X129500095Y-81148533D01*
X129500095Y-81148533D02*
X129452476Y-81291390D01*
X129452476Y-81291390D02*
X128881048Y-81862819D01*
X128881048Y-81862819D02*
X129500095Y-81862819D01*
X106743714Y-35878819D02*
X106743714Y-34878819D01*
X106743714Y-35355009D02*
X107315142Y-35355009D01*
X107315142Y-35878819D02*
X107315142Y-34878819D01*
X107743714Y-34974057D02*
X107791333Y-34926438D01*
X107791333Y-34926438D02*
X107886571Y-34878819D01*
X107886571Y-34878819D02*
X108124666Y-34878819D01*
X108124666Y-34878819D02*
X108219904Y-34926438D01*
X108219904Y-34926438D02*
X108267523Y-34974057D01*
X108267523Y-34974057D02*
X108315142Y-35069295D01*
X108315142Y-35069295D02*
X108315142Y-35164533D01*
X108315142Y-35164533D02*
X108267523Y-35307390D01*
X108267523Y-35307390D02*
X107696095Y-35878819D01*
X107696095Y-35878819D02*
X108315142Y-35878819D01*
X108934190Y-34878819D02*
X109029428Y-34878819D01*
X109029428Y-34878819D02*
X109124666Y-34926438D01*
X109124666Y-34926438D02*
X109172285Y-34974057D01*
X109172285Y-34974057D02*
X109219904Y-35069295D01*
X109219904Y-35069295D02*
X109267523Y-35259771D01*
X109267523Y-35259771D02*
X109267523Y-35497866D01*
X109267523Y-35497866D02*
X109219904Y-35688342D01*
X109219904Y-35688342D02*
X109172285Y-35783580D01*
X109172285Y-35783580D02*
X109124666Y-35831200D01*
X109124666Y-35831200D02*
X109029428Y-35878819D01*
X109029428Y-35878819D02*
X108934190Y-35878819D01*
X108934190Y-35878819D02*
X108838952Y-35831200D01*
X108838952Y-35831200D02*
X108791333Y-35783580D01*
X108791333Y-35783580D02*
X108743714Y-35688342D01*
X108743714Y-35688342D02*
X108696095Y-35497866D01*
X108696095Y-35497866D02*
X108696095Y-35259771D01*
X108696095Y-35259771D02*
X108743714Y-35069295D01*
X108743714Y-35069295D02*
X108791333Y-34974057D01*
X108791333Y-34974057D02*
X108838952Y-34926438D01*
X108838952Y-34926438D02*
X108934190Y-34878819D01*
X110172285Y-34878819D02*
X109696095Y-34878819D01*
X109696095Y-34878819D02*
X109648476Y-35355009D01*
X109648476Y-35355009D02*
X109696095Y-35307390D01*
X109696095Y-35307390D02*
X109791333Y-35259771D01*
X109791333Y-35259771D02*
X110029428Y-35259771D01*
X110029428Y-35259771D02*
X110124666Y-35307390D01*
X110124666Y-35307390D02*
X110172285Y-35355009D01*
X110172285Y-35355009D02*
X110219904Y-35450247D01*
X110219904Y-35450247D02*
X110219904Y-35688342D01*
X110219904Y-35688342D02*
X110172285Y-35783580D01*
X110172285Y-35783580D02*
X110124666Y-35831200D01*
X110124666Y-35831200D02*
X110029428Y-35878819D01*
X110029428Y-35878819D02*
X109791333Y-35878819D01*
X109791333Y-35878819D02*
X109696095Y-35831200D01*
X109696095Y-35831200D02*
X109648476Y-35783580D01*
D12*
X134353000Y-130317000D02*
X140653000Y-130317000D01*
X134353000Y-130567000D02*
X134353000Y-130317000D01*
X134353000Y-135067000D02*
X134353000Y-132467000D01*
X134353000Y-137217000D02*
X134353000Y-136967000D01*
X140653000Y-130317000D02*
X140653000Y-130567000D01*
X140653000Y-132467000D02*
X140653000Y-135067000D01*
X140653000Y-136967000D02*
X140653000Y-137217000D01*
X140653000Y-137217000D02*
X134353000Y-137217000D01*
X184915000Y-128397000D02*
G75*
G02*
X182115000Y-128397000I-1400000J0D01*
G01*
X182115000Y-128397000D02*
G75*
G02*
X184915000Y-128397000I1400000J0D01*
G01*
X113719000Y-72083000D02*
X113719000Y-77523000D01*
X113719000Y-76503000D02*
X116659000Y-76503000D01*
X113719000Y-76623000D02*
X116659000Y-76623000D01*
X113719000Y-76743000D02*
X116659000Y-76743000D01*
X113719000Y-77523000D02*
X116659000Y-77523000D01*
X115189000Y-71063000D02*
X115189000Y-72083000D01*
X115189000Y-78543000D02*
X115189000Y-77523000D01*
X116659000Y-72083000D02*
X113719000Y-72083000D01*
X116659000Y-77523000D02*
X116659000Y-72083000D01*
X166724064Y-75973000D02*
X166269936Y-75973000D01*
X166724064Y-77443000D02*
X166269936Y-77443000D01*
X138243000Y-149165000D02*
X138243000Y-151825000D01*
X156083000Y-149165000D02*
X138243000Y-149165000D01*
X156083000Y-149165000D02*
X156083000Y-151825000D01*
X156083000Y-151825000D02*
X138243000Y-151825000D01*
X158683000Y-150495000D02*
X158683000Y-151825000D01*
X158683000Y-151825000D02*
X157353000Y-151825000D01*
X94105000Y-80537267D02*
X94105000Y-80244733D01*
X95125000Y-80537267D02*
X95125000Y-80244733D01*
X181763936Y-136044000D02*
X182218064Y-136044000D01*
X181763936Y-137514000D02*
X182218064Y-137514000D01*
X174688000Y-140913000D02*
X180988000Y-140913000D01*
X174688000Y-141163000D02*
X174688000Y-140913000D01*
X174688000Y-145663000D02*
X174688000Y-143063000D01*
X174688000Y-147813000D02*
X174688000Y-147563000D01*
X180988000Y-140913000D02*
X180988000Y-141163000D01*
X180988000Y-143063000D02*
X180988000Y-145663000D01*
X180988000Y-147563000D02*
X180988000Y-147813000D01*
X180988000Y-147813000D02*
X174688000Y-147813000D01*
X97500000Y-77870000D02*
X103510000Y-77870000D01*
X99750000Y-84690000D02*
X103510000Y-84690000D01*
X103510000Y-77870000D02*
X103510000Y-79130000D01*
X103510000Y-84690000D02*
X103510000Y-83430000D01*
X84331000Y-90932000D02*
G75*
G02*
X81531000Y-90932000I-1400000J0D01*
G01*
X81531000Y-90932000D02*
G75*
G02*
X84331000Y-90932000I1400000J0D01*
G01*
D10*
X181613000Y-111633000D02*
G75*
G02*
X178813000Y-111633000I-1400000J0D01*
G01*
X178813000Y-111633000D02*
G75*
G02*
X181613000Y-111633000I1400000J0D01*
G01*
D13*
X104903000Y-94924000D02*
X104903000Y-85924000D01*
X104903000Y-94924000D02*
X120903000Y-94924000D01*
X120903000Y-85924000D02*
X104903000Y-85924000D01*
X120903000Y-85924000D02*
X120903000Y-87924000D01*
X120903000Y-94924000D02*
X120903000Y-92924000D01*
D12*
X194237733Y-130681000D02*
X194530267Y-130681000D01*
X194237733Y-131701000D02*
X194530267Y-131701000D01*
X127091000Y-71012000D02*
X133101000Y-71012000D01*
X129341000Y-77832000D02*
X133101000Y-77832000D01*
X133101000Y-71012000D02*
X133101000Y-72272000D01*
X133101000Y-77832000D02*
X133101000Y-76572000D01*
X194592233Y-125093000D02*
X194884767Y-125093000D01*
X194592233Y-126113000D02*
X194884767Y-126113000D01*
X100781000Y-63881000D02*
X101801000Y-63881000D01*
X101801000Y-62411000D02*
X101801000Y-65351000D01*
X101801000Y-65351000D02*
X107241000Y-65351000D01*
X102581000Y-62411000D02*
X102581000Y-65351000D01*
X102701000Y-62411000D02*
X102701000Y-65351000D01*
X102821000Y-62411000D02*
X102821000Y-65351000D01*
X107241000Y-62411000D02*
X101801000Y-62411000D01*
X107241000Y-65351000D02*
X107241000Y-62411000D01*
X108261000Y-63881000D02*
X107241000Y-63881000D01*
X185993000Y-145479064D02*
X185993000Y-145024936D01*
X187463000Y-145479064D02*
X187463000Y-145024936D01*
X89538000Y-91059000D02*
G75*
G02*
X86738000Y-91059000I-1400000J0D01*
G01*
X86738000Y-91059000D02*
G75*
G02*
X89538000Y-91059000I1400000J0D01*
G01*
D13*
X128229400Y-121089000D02*
X128229400Y-124589000D01*
X128229400Y-124589000D02*
X130879400Y-124589000D01*
X130879400Y-121089000D02*
X128229400Y-121089000D01*
X130879400Y-124589000D02*
X130879400Y-121089000D01*
D14*
X127916900Y-121489000D02*
G75*
G02*
X127716900Y-121489000I-100000J0D01*
G01*
X127716900Y-121489000D02*
G75*
G02*
X127916900Y-121489000I100000J0D01*
G01*
D12*
X187506733Y-120267000D02*
X187799267Y-120267000D01*
X187506733Y-121287000D02*
X187799267Y-121287000D01*
X121537000Y-81641733D02*
X121537000Y-81934267D01*
X122557000Y-81641733D02*
X122557000Y-81934267D01*
X104011000Y-71520267D02*
X104011000Y-71227733D01*
X105031000Y-71520267D02*
X105031000Y-71227733D01*
X141659000Y-69670000D02*
X141659000Y-75110000D01*
X141659000Y-74090000D02*
X144599000Y-74090000D01*
X141659000Y-74210000D02*
X144599000Y-74210000D01*
X141659000Y-74330000D02*
X144599000Y-74330000D01*
X141659000Y-75110000D02*
X144599000Y-75110000D01*
X143129000Y-68650000D02*
X143129000Y-69670000D01*
X143129000Y-76130000D02*
X143129000Y-75110000D01*
X144599000Y-69670000D02*
X141659000Y-69670000D01*
X144599000Y-75110000D02*
X144599000Y-69670000D01*
X177925000Y-83675267D02*
X177925000Y-83382733D01*
X178945000Y-83675267D02*
X178945000Y-83382733D01*
X177671000Y-91041267D02*
X177671000Y-90748733D01*
X178691000Y-91041267D02*
X178691000Y-90748733D01*
X133865233Y-82675000D02*
X134157767Y-82675000D01*
X133865233Y-83695000D02*
X134157767Y-83695000D01*
X137186936Y-140362000D02*
X137641064Y-140362000D01*
X137186936Y-141832000D02*
X137641064Y-141832000D01*
X162458000Y-129773000D02*
X168758000Y-129773000D01*
X162458000Y-130023000D02*
X162458000Y-129773000D01*
X162458000Y-134523000D02*
X162458000Y-131923000D01*
X162458000Y-136673000D02*
X162458000Y-136423000D01*
X168758000Y-129773000D02*
X168758000Y-130023000D01*
X168758000Y-131923000D02*
X168758000Y-134523000D01*
X168758000Y-136423000D02*
X168758000Y-136673000D01*
X168758000Y-136673000D02*
X162458000Y-136673000D01*
X100460000Y-90932000D02*
G75*
G02*
X97660000Y-90932000I-1400000J0D01*
G01*
X97660000Y-90932000D02*
G75*
G02*
X100460000Y-90932000I1400000J0D01*
G01*
X175390000Y-126492000D02*
G75*
G02*
X172590000Y-126492000I-1400000J0D01*
G01*
X172590000Y-126492000D02*
G75*
G02*
X175390000Y-126492000I1400000J0D01*
G01*
X194698233Y-112774000D02*
X194990767Y-112774000D01*
X194698233Y-113794000D02*
X194990767Y-113794000D01*
X187201000Y-139700000D02*
G75*
G02*
X184401000Y-139700000I-1400000J0D01*
G01*
X184401000Y-139700000D02*
G75*
G02*
X187201000Y-139700000I1400000J0D01*
G01*
X81888000Y-99640000D02*
X81888000Y-147640000D01*
X83528000Y-114740000D02*
X83528000Y-115740000D01*
X83528000Y-114740000D02*
X86328000Y-114740000D01*
X83528000Y-137540000D02*
X83528000Y-136540000D01*
X83528000Y-137540000D02*
X86328000Y-137540000D01*
X85388000Y-151140000D02*
X118388000Y-151140000D01*
X86328000Y-114740000D02*
X86328000Y-115740000D01*
X86328000Y-137540000D02*
X86328000Y-136540000D01*
X117448000Y-114740000D02*
X117448000Y-115740000D01*
X117448000Y-114740000D02*
X120328000Y-114740000D01*
X117448000Y-137540000D02*
X117448000Y-136540000D01*
X117448000Y-137540000D02*
X120328000Y-137540000D01*
X118388000Y-96140000D02*
X85388000Y-96140000D01*
X120328000Y-114740000D02*
X120328000Y-115740000D01*
X120328000Y-137540000D02*
X120328000Y-136540000D01*
X121888000Y-147640000D02*
X121888000Y-99640000D01*
X81888000Y-99640000D02*
G75*
G02*
X85388000Y-96140000I3499999J1D01*
G01*
X85388000Y-151140000D02*
G75*
G02*
X81888000Y-147640000I-1J3499999D01*
G01*
X118388000Y-96140000D02*
G75*
G02*
X121888000Y-99640000I0J-3500000D01*
G01*
X121888000Y-147640000D02*
G75*
G02*
X118388000Y-151140000I-3500000J0D01*
G01*
X187586233Y-112901000D02*
X187878767Y-112901000D01*
X187586233Y-113921000D02*
X187878767Y-113921000D01*
X148361000Y-130281000D02*
X154661000Y-130281000D01*
X148361000Y-130531000D02*
X148361000Y-130281000D01*
X148361000Y-135031000D02*
X148361000Y-132431000D01*
X148361000Y-137181000D02*
X148361000Y-136931000D01*
X154661000Y-130281000D02*
X154661000Y-130531000D01*
X154661000Y-132431000D02*
X154661000Y-135031000D01*
X154661000Y-136931000D02*
X154661000Y-137181000D01*
X154661000Y-137181000D02*
X148361000Y-137181000D01*
X180821064Y-118772000D02*
X180366936Y-118772000D01*
X180821064Y-120242000D02*
X180366936Y-120242000D01*
X166452000Y-67828000D02*
X167782000Y-67828000D01*
X166452000Y-69158000D02*
X166452000Y-67828000D01*
X166452000Y-70428000D02*
X169052000Y-70428000D01*
X166452000Y-73028000D02*
X166452000Y-70428000D01*
X166452000Y-73028000D02*
X174192000Y-73028000D01*
X169052000Y-67828000D02*
X174192000Y-67828000D01*
X169052000Y-70428000D02*
X169052000Y-67828000D01*
X174192000Y-73028000D02*
X174192000Y-67828000D01*
X187506733Y-125474000D02*
X187799267Y-125474000D01*
X187506733Y-126494000D02*
X187799267Y-126494000D01*
X166385000Y-91109000D02*
X166385000Y-84859000D01*
X171435000Y-91109000D02*
X171435000Y-84859000D01*
X166385000Y-84859000D02*
G75*
G02*
X171435000Y-84859000I2525000J0D01*
G01*
X171435000Y-91109000D02*
G75*
G02*
X166385000Y-91109000I-2525000J0D01*
G01*
X109119936Y-72544000D02*
X109574064Y-72544000D01*
X109119936Y-74014000D02*
X109574064Y-74014000D01*
X128398536Y-87453800D02*
X128852664Y-87453800D01*
X128398536Y-88923800D02*
X128852664Y-88923800D01*
X174102000Y-117445000D02*
X174102000Y-117920000D01*
X174102000Y-120665000D02*
X174102000Y-120190000D01*
X174577000Y-117445000D02*
X174102000Y-117445000D01*
X174577000Y-120665000D02*
X174102000Y-120665000D01*
X176847000Y-117445000D02*
X177322000Y-117445000D01*
X176847000Y-120665000D02*
X177022000Y-120665000D01*
X177322000Y-117445000D02*
X177322000Y-117920000D01*
X177322000Y-120190000D02*
X177322000Y-120425000D01*
X177562000Y-120995000D02*
X177082000Y-120995000D01*
X177322000Y-120665000D01*
X177562000Y-120995000D01*
G36*
X177562000Y-120995000D02*
G01*
X177082000Y-120995000D01*
X177322000Y-120665000D01*
X177562000Y-120995000D01*
G37*
X141142000Y-95138000D02*
X141142000Y-96088000D01*
X141142000Y-119358000D02*
X141142000Y-118408000D01*
X142092000Y-95138000D02*
X141142000Y-95138000D01*
X142092000Y-119358000D02*
X141142000Y-119358000D01*
X164412000Y-95138000D02*
X165362000Y-95138000D01*
X164412000Y-119358000D02*
X165362000Y-119358000D01*
X165362000Y-95138000D02*
X165362000Y-96088000D01*
X165362000Y-119358000D02*
X165362000Y-118408000D01*
X140539500Y-96088000D02*
X140199500Y-95618000D01*
X140879500Y-95618000D01*
X140539500Y-96088000D01*
G36*
X140539500Y-96088000D02*
G01*
X140199500Y-95618000D01*
X140879500Y-95618000D01*
X140539500Y-96088000D01*
G37*
X165269936Y-140235000D02*
X165724064Y-140235000D01*
X165269936Y-141705000D02*
X165724064Y-141705000D01*
X150267936Y-140997000D02*
X150722064Y-140997000D01*
X150267936Y-142467000D02*
X150722064Y-142467000D01*
X99467936Y-72163000D02*
X99922064Y-72163000D01*
X99467936Y-73633000D02*
X99922064Y-73633000D01*
X94491000Y-90932000D02*
G75*
G02*
X91691000Y-90932000I-1400000J0D01*
G01*
X91691000Y-90932000D02*
G75*
G02*
X94491000Y-90932000I1400000J0D01*
G01*
X125038000Y-63881000D02*
X126058000Y-63881000D01*
X126058000Y-62411000D02*
X126058000Y-65351000D01*
X126058000Y-65351000D02*
X131498000Y-65351000D01*
X126838000Y-62411000D02*
X126838000Y-65351000D01*
X126958000Y-62411000D02*
X126958000Y-65351000D01*
X127078000Y-62411000D02*
X127078000Y-65351000D01*
X131498000Y-62411000D02*
X126058000Y-62411000D01*
X131498000Y-65351000D02*
X131498000Y-62411000D01*
X132518000Y-63881000D02*
X131498000Y-63881000D01*
X171365936Y-62257000D02*
X171820064Y-62257000D01*
X171365936Y-63727000D02*
X171820064Y-63727000D01*
X179977733Y-151600000D02*
X180270267Y-151600000D01*
X179977733Y-152620000D02*
X180270267Y-152620000D01*
X187607233Y-130681000D02*
X187899767Y-130681000D01*
X187607233Y-131701000D02*
X187899767Y-131701000D01*
X121664000Y-73679267D02*
X121664000Y-73386733D01*
X122684000Y-73679267D02*
X122684000Y-73386733D01*
X194391233Y-120140000D02*
X194683767Y-120140000D01*
X194391233Y-121160000D02*
X194683767Y-121160000D01*
D13*
X95394000Y-25624000D02*
X96394000Y-25624000D01*
X95394000Y-53624000D02*
X96394000Y-53624000D01*
X95894000Y-25124000D02*
X95894000Y-26124000D01*
X97614000Y-19734000D02*
X174674000Y-19734000D01*
X97614000Y-26574000D02*
X97614000Y-19734000D01*
X97614000Y-33674000D02*
X97614000Y-45574000D01*
X97614000Y-52674000D02*
X97614000Y-59514000D01*
X97614000Y-59514000D02*
X174674000Y-59514000D01*
X174674000Y-19734000D02*
X174674000Y-26574000D01*
X174674000Y-33674000D02*
X174674000Y-45574000D01*
X174674000Y-59514000D02*
X174674000Y-52674000D01*
X176394000Y-54124000D02*
X176394000Y-53124000D01*
X176894000Y-25624000D02*
X175894000Y-25624000D01*
X176894000Y-53624000D02*
X175894000Y-53624000D01*
D12*
X141631936Y-82577000D02*
X142086064Y-82577000D01*
X141631936Y-84047000D02*
X142086064Y-84047000D01*
X107948000Y-79736733D02*
X107948000Y-80029267D01*
X108968000Y-79736733D02*
X108968000Y-80029267D01*
X127534936Y-82323000D02*
X127989064Y-82323000D01*
X127534936Y-83793000D02*
X127989064Y-83793000D01*
%LPC*%
D15*
X130219400Y-123552000D02*
G75*
G02*
X128889400Y-123552000I-665000J0D01*
G01*
X128889400Y-123552000D02*
G75*
G02*
X130219400Y-123552000I665000J0D01*
G01*
D16*
X133528000Y-131517000D03*
X141478000Y-131517000D03*
X133528000Y-136017000D03*
X141478000Y-136017000D03*
D17*
X183515000Y-128397000D03*
D18*
X115189000Y-79883000D03*
D19*
X115189000Y-69723000D03*
D20*
X167497000Y-76708000D03*
X165497000Y-76708000D03*
D21*
X157353000Y-150495000D03*
D22*
X154813000Y-150495000D03*
X152273000Y-150495000D03*
X149733000Y-150495000D03*
X147193000Y-150495000D03*
X144653000Y-150495000D03*
X142113000Y-150495000D03*
X139573000Y-150495000D03*
D23*
X94615000Y-81253500D03*
X94615000Y-79528500D03*
D24*
X180991000Y-136779000D03*
X182991000Y-136779000D03*
D16*
X181813000Y-146613000D03*
X173863000Y-146613000D03*
X181813000Y-142113000D03*
X173863000Y-142113000D03*
D25*
X98450000Y-78980000D03*
X98450000Y-81280000D03*
D26*
X104750000Y-81280000D03*
D25*
X98450000Y-83580000D03*
D17*
X82931000Y-90932000D03*
X180213000Y-111633000D03*
D27*
X120153000Y-91674000D03*
X120153000Y-89174000D03*
D28*
X193521500Y-131191000D03*
X195246500Y-131191000D03*
D25*
X128041000Y-72122000D03*
X128041000Y-74422000D03*
D26*
X134341000Y-74422000D03*
D25*
X128041000Y-76722000D03*
D28*
X193876000Y-125603000D03*
X195601000Y-125603000D03*
D18*
X99441000Y-63881000D03*
D19*
X109601000Y-63881000D03*
D29*
X186728000Y-146252000D03*
X186728000Y-144252000D03*
D17*
X88138000Y-91059000D03*
D30*
X129554400Y-123552000D03*
D31*
X128654400Y-121478000D03*
X128654400Y-122300000D03*
X130454400Y-122300000D03*
X130454400Y-121478000D03*
X129554400Y-121478000D03*
D28*
X186790500Y-120777000D03*
X188515500Y-120777000D03*
D32*
X122047000Y-80925500D03*
X122047000Y-82650500D03*
D23*
X104521000Y-72236500D03*
X104521000Y-70511500D03*
D18*
X143129000Y-77470000D03*
D19*
X143129000Y-67310000D03*
D23*
X178435000Y-84391500D03*
X178435000Y-82666500D03*
X178181000Y-91757500D03*
X178181000Y-90032500D03*
D28*
X133149000Y-83185000D03*
X134874000Y-83185000D03*
D24*
X136414000Y-141097000D03*
X138414000Y-141097000D03*
D16*
X161633000Y-130973000D03*
X169583000Y-130973000D03*
X161633000Y-135473000D03*
X169583000Y-135473000D03*
D17*
X99060000Y-90932000D03*
X173990000Y-126492000D03*
D28*
X193982000Y-113284000D03*
X195707000Y-113284000D03*
D17*
X185801000Y-139700000D03*
D33*
X85388000Y-99640000D03*
X85388000Y-147640000D03*
X118388000Y-99640000D03*
X118388000Y-147640000D03*
D34*
X83348000Y-116340000D03*
X86428000Y-116340000D03*
X83348000Y-116740000D03*
X86428000Y-116740000D03*
X83348000Y-117140000D03*
X86428000Y-117140000D03*
X83348000Y-117540000D03*
X86428000Y-117540000D03*
X83348000Y-117940000D03*
X86428000Y-117940000D03*
X83348000Y-118340000D03*
X86428000Y-118340000D03*
X83348000Y-118740000D03*
X86428000Y-118740000D03*
X83348000Y-119140000D03*
X86428000Y-119140000D03*
X83348000Y-119540000D03*
X86428000Y-119540000D03*
X83348000Y-119940000D03*
X86428000Y-119940000D03*
X83348000Y-120340000D03*
X86428000Y-120340000D03*
X83348000Y-120740000D03*
X86428000Y-120740000D03*
X83348000Y-121140000D03*
X86428000Y-121140000D03*
X83348000Y-121540000D03*
X86428000Y-121540000D03*
X83348000Y-121940000D03*
X86428000Y-121940000D03*
X83348000Y-122340000D03*
X86428000Y-122340000D03*
X83348000Y-122740000D03*
X86428000Y-122740000D03*
X83348000Y-123140000D03*
X86428000Y-123140000D03*
X83348000Y-123540000D03*
X86428000Y-123540000D03*
X83348000Y-123940000D03*
X86428000Y-123940000D03*
X83348000Y-124340000D03*
X86428000Y-124340000D03*
X83348000Y-124740000D03*
X86428000Y-124740000D03*
X83348000Y-125140000D03*
X86428000Y-125140000D03*
X83348000Y-125540000D03*
X86428000Y-125540000D03*
X83348000Y-125940000D03*
X86428000Y-125940000D03*
X83348000Y-126340000D03*
X86428000Y-126340000D03*
X83348000Y-126740000D03*
X86428000Y-126740000D03*
X83348000Y-127140000D03*
X86428000Y-127140000D03*
X83348000Y-127540000D03*
X86428000Y-127540000D03*
X83348000Y-127940000D03*
X86428000Y-127940000D03*
X83348000Y-128340000D03*
X86428000Y-128340000D03*
X83348000Y-128740000D03*
X86428000Y-128740000D03*
X83348000Y-129140000D03*
X86428000Y-129140000D03*
X83348000Y-129540000D03*
X86428000Y-129540000D03*
X83348000Y-129940000D03*
X86428000Y-129940000D03*
X83348000Y-130340000D03*
X86428000Y-130340000D03*
X83348000Y-130740000D03*
X86428000Y-130740000D03*
X83348000Y-131140000D03*
X86428000Y-131140000D03*
X83348000Y-131540000D03*
X86428000Y-131540000D03*
X83348000Y-131940000D03*
X86428000Y-131940000D03*
X83348000Y-132340000D03*
X86428000Y-132340000D03*
X83348000Y-132740000D03*
X86428000Y-132740000D03*
X83348000Y-133140000D03*
X86428000Y-133140000D03*
X83348000Y-133540000D03*
X86428000Y-133540000D03*
X83348000Y-133940000D03*
X86428000Y-133940000D03*
X83348000Y-134340000D03*
X86428000Y-134340000D03*
X83348000Y-134740000D03*
X86428000Y-134740000D03*
X83348000Y-135140000D03*
X86428000Y-135140000D03*
X83348000Y-135540000D03*
X86428000Y-135540000D03*
X83348000Y-135940000D03*
X86428000Y-135940000D03*
X117348000Y-116340000D03*
X120428000Y-116340000D03*
X117348000Y-116740000D03*
X120428000Y-116740000D03*
X117348000Y-117140000D03*
X120428000Y-117140000D03*
X117348000Y-117540000D03*
X120428000Y-117540000D03*
X117348000Y-117940000D03*
X120428000Y-117940000D03*
X117348000Y-118340000D03*
X120428000Y-118340000D03*
X117348000Y-118740000D03*
X120428000Y-118740000D03*
X117348000Y-119140000D03*
X120428000Y-119140000D03*
X117348000Y-119540000D03*
X120428000Y-119540000D03*
X117348000Y-119940000D03*
X120428000Y-119940000D03*
X117348000Y-120340000D03*
X120428000Y-120340000D03*
X117348000Y-120740000D03*
X120428000Y-120740000D03*
X117348000Y-121140000D03*
X120428000Y-121140000D03*
X117348000Y-121540000D03*
X120428000Y-121540000D03*
X117348000Y-121940000D03*
X120428000Y-121940000D03*
X117348000Y-122340000D03*
X120428000Y-122340000D03*
X117348000Y-122740000D03*
X120428000Y-122740000D03*
X117348000Y-123140000D03*
X120428000Y-123140000D03*
X117348000Y-123540000D03*
X120428000Y-123540000D03*
X117348000Y-123940000D03*
X120428000Y-123940000D03*
X117348000Y-124340000D03*
X120428000Y-124340000D03*
X117348000Y-124740000D03*
X120428000Y-124740000D03*
X117348000Y-125140000D03*
X120428000Y-125140000D03*
X117348000Y-125540000D03*
X120428000Y-125540000D03*
X117348000Y-125940000D03*
X120428000Y-125940000D03*
X117348000Y-126340000D03*
X120428000Y-126340000D03*
X117348000Y-126740000D03*
X120428000Y-126740000D03*
X117348000Y-127140000D03*
X120428000Y-127140000D03*
X117348000Y-127540000D03*
X120428000Y-127540000D03*
X117348000Y-127940000D03*
X120428000Y-127940000D03*
X117348000Y-128340000D03*
X120428000Y-128340000D03*
X117348000Y-128740000D03*
X120428000Y-128740000D03*
X117348000Y-129140000D03*
X120428000Y-129140000D03*
X117348000Y-129540000D03*
X120428000Y-129540000D03*
X117348000Y-129940000D03*
X120428000Y-129940000D03*
X117348000Y-130340000D03*
X120428000Y-130340000D03*
X117348000Y-130740000D03*
X120428000Y-130740000D03*
X117348000Y-131140000D03*
X120428000Y-131140000D03*
X117348000Y-131540000D03*
X120428000Y-131540000D03*
X117348000Y-131940000D03*
X120428000Y-131940000D03*
X117348000Y-132340000D03*
X120428000Y-132340000D03*
X117348000Y-132740000D03*
X120428000Y-132740000D03*
X117348000Y-133140000D03*
X120428000Y-133140000D03*
X117348000Y-133540000D03*
X120428000Y-133540000D03*
X117348000Y-133940000D03*
X120428000Y-133940000D03*
X117348000Y-134340000D03*
X120428000Y-134340000D03*
X117348000Y-134740000D03*
X120428000Y-134740000D03*
X117348000Y-135140000D03*
X120428000Y-135140000D03*
X117348000Y-135540000D03*
X120428000Y-135540000D03*
X117348000Y-135940000D03*
X120428000Y-135940000D03*
D28*
X186870000Y-113411000D03*
X188595000Y-113411000D03*
D16*
X147536000Y-131481000D03*
X155486000Y-131481000D03*
X147536000Y-135981000D03*
X155486000Y-135981000D03*
D20*
X181594000Y-119507000D03*
X179594000Y-119507000D03*
D21*
X167782000Y-69158000D03*
D22*
X167782000Y-71698000D03*
X170322000Y-69158000D03*
X170322000Y-71698000D03*
X172862000Y-69158000D03*
X172862000Y-71698000D03*
D28*
X186790500Y-125984000D03*
X188515500Y-125984000D03*
D35*
X168910000Y-90424000D03*
X168910000Y-85544000D03*
D24*
X108347000Y-73279000D03*
X110347000Y-73279000D03*
X127625600Y-88188800D03*
X129625600Y-88188800D03*
D36*
X177149500Y-119805000D03*
X177149500Y-119305000D03*
X177149500Y-118805000D03*
X177149500Y-118305000D03*
D37*
X176462000Y-117617500D03*
X175962000Y-117617500D03*
X175462000Y-117617500D03*
X174962000Y-117617500D03*
D36*
X174274500Y-118305000D03*
X174274500Y-118805000D03*
X174274500Y-119305000D03*
X174274500Y-119805000D03*
D37*
X174962000Y-120492500D03*
X175462000Y-120492500D03*
X175962000Y-120492500D03*
X176462000Y-120492500D03*
D38*
X175712000Y-119055000D03*
D39*
X140577000Y-96498000D03*
X140577000Y-96998000D03*
X140577000Y-97498000D03*
X140577000Y-97998000D03*
X140577000Y-98498000D03*
X140577000Y-98998000D03*
X140577000Y-99498000D03*
X140577000Y-99998000D03*
X140577000Y-100498000D03*
X140577000Y-100998000D03*
X140577000Y-101498000D03*
X140577000Y-101998000D03*
X140577000Y-102498000D03*
X140577000Y-102998000D03*
X140577000Y-103498000D03*
X140577000Y-103998000D03*
X140577000Y-104498000D03*
X140577000Y-104998000D03*
X140577000Y-105498000D03*
X140577000Y-105998000D03*
X140577000Y-106498000D03*
X140577000Y-106998000D03*
X140577000Y-107498000D03*
X140577000Y-107998000D03*
X140577000Y-108498000D03*
X140577000Y-108998000D03*
X140577000Y-109498000D03*
X140577000Y-109998000D03*
X140577000Y-110498000D03*
X140577000Y-110998000D03*
X140577000Y-111498000D03*
X140577000Y-111998000D03*
X140577000Y-112498000D03*
X140577000Y-112998000D03*
X140577000Y-113498000D03*
X140577000Y-113998000D03*
X140577000Y-114498000D03*
X140577000Y-114998000D03*
X140577000Y-115498000D03*
X140577000Y-115998000D03*
X140577000Y-116498000D03*
X140577000Y-116998000D03*
X140577000Y-117498000D03*
X140577000Y-117998000D03*
D40*
X142502000Y-119923000D03*
X143002000Y-119923000D03*
X143502000Y-119923000D03*
X144002000Y-119923000D03*
X144502000Y-119923000D03*
X145002000Y-119923000D03*
X145502000Y-119923000D03*
X146002000Y-119923000D03*
X146502000Y-119923000D03*
X147002000Y-119923000D03*
X147502000Y-119923000D03*
X148002000Y-119923000D03*
X148502000Y-119923000D03*
X149002000Y-119923000D03*
X149502000Y-119923000D03*
X150002000Y-119923000D03*
X150502000Y-119923000D03*
X151002000Y-119923000D03*
X151502000Y-119923000D03*
X152002000Y-119923000D03*
X152502000Y-119923000D03*
X153002000Y-119923000D03*
X153502000Y-119923000D03*
X154002000Y-119923000D03*
X154502000Y-119923000D03*
X155002000Y-119923000D03*
X155502000Y-119923000D03*
X156002000Y-119923000D03*
X156502000Y-119923000D03*
X157002000Y-119923000D03*
X157502000Y-119923000D03*
X158002000Y-119923000D03*
X158502000Y-119923000D03*
X159002000Y-119923000D03*
X159502000Y-119923000D03*
X160002000Y-119923000D03*
X160502000Y-119923000D03*
X161002000Y-119923000D03*
X161502000Y-119923000D03*
X162002000Y-119923000D03*
X162502000Y-119923000D03*
X163002000Y-119923000D03*
X163502000Y-119923000D03*
X164002000Y-119923000D03*
D39*
X165927000Y-117998000D03*
X165927000Y-117498000D03*
X165927000Y-116998000D03*
X165927000Y-116498000D03*
X165927000Y-115998000D03*
X165927000Y-115498000D03*
X165927000Y-114998000D03*
X165927000Y-114498000D03*
X165927000Y-113998000D03*
X165927000Y-113498000D03*
X165927000Y-112998000D03*
X165927000Y-112498000D03*
X165927000Y-111998000D03*
X165927000Y-111498000D03*
X165927000Y-110998000D03*
X165927000Y-110498000D03*
X165927000Y-109998000D03*
X165927000Y-109498000D03*
X165927000Y-108998000D03*
X165927000Y-108498000D03*
X165927000Y-107998000D03*
X165927000Y-107498000D03*
X165927000Y-106998000D03*
X165927000Y-106498000D03*
X165927000Y-105998000D03*
X165927000Y-105498000D03*
X165927000Y-104998000D03*
X165927000Y-104498000D03*
X165927000Y-103998000D03*
X165927000Y-103498000D03*
X165927000Y-102998000D03*
X165927000Y-102498000D03*
X165927000Y-101998000D03*
X165927000Y-101498000D03*
X165927000Y-100998000D03*
X165927000Y-100498000D03*
X165927000Y-99998000D03*
X165927000Y-99498000D03*
X165927000Y-98998000D03*
X165927000Y-98498000D03*
X165927000Y-97998000D03*
X165927000Y-97498000D03*
X165927000Y-96998000D03*
X165927000Y-96498000D03*
D40*
X164002000Y-94573000D03*
X163502000Y-94573000D03*
X163002000Y-94573000D03*
X162502000Y-94573000D03*
X162002000Y-94573000D03*
X161502000Y-94573000D03*
X161002000Y-94573000D03*
X160502000Y-94573000D03*
X160002000Y-94573000D03*
X159502000Y-94573000D03*
X159002000Y-94573000D03*
X158502000Y-94573000D03*
X158002000Y-94573000D03*
X157502000Y-94573000D03*
X157002000Y-94573000D03*
X156502000Y-94573000D03*
X156002000Y-94573000D03*
X155502000Y-94573000D03*
X155002000Y-94573000D03*
X154502000Y-94573000D03*
X154002000Y-94573000D03*
X153502000Y-94573000D03*
X153002000Y-94573000D03*
X152502000Y-94573000D03*
X152002000Y-94573000D03*
X151502000Y-94573000D03*
X151002000Y-94573000D03*
X150502000Y-94573000D03*
X150002000Y-94573000D03*
X149502000Y-94573000D03*
X149002000Y-94573000D03*
X148502000Y-94573000D03*
X148002000Y-94573000D03*
X147502000Y-94573000D03*
X147002000Y-94573000D03*
X146502000Y-94573000D03*
X146002000Y-94573000D03*
X145502000Y-94573000D03*
X145002000Y-94573000D03*
X144502000Y-94573000D03*
X144002000Y-94573000D03*
X143502000Y-94573000D03*
X143002000Y-94573000D03*
X142502000Y-94573000D03*
D24*
X164497000Y-140970000D03*
X166497000Y-140970000D03*
X149495000Y-141732000D03*
X151495000Y-141732000D03*
X98695000Y-72898000D03*
X100695000Y-72898000D03*
D41*
X163830000Y-39751000D03*
D17*
X93091000Y-90932000D03*
D18*
X123698000Y-63881000D03*
D19*
X133858000Y-63881000D03*
D24*
X170593000Y-62992000D03*
X172593000Y-62992000D03*
D28*
X179261500Y-152110000D03*
X180986500Y-152110000D03*
X186891000Y-131191000D03*
X188616000Y-131191000D03*
D23*
X122174000Y-74395500D03*
X122174000Y-72670500D03*
D28*
X193675000Y-120650000D03*
X195400000Y-120650000D03*
D42*
X108544000Y-39624000D03*
D43*
X108544000Y-57129000D03*
X163744000Y-22119000D03*
D42*
X163744000Y-39624000D03*
D44*
X171964000Y-57129000D03*
D45*
X175474000Y-30069000D03*
X96814000Y-49179000D03*
X96814000Y-30069000D03*
X175474000Y-49179000D03*
D24*
X140859000Y-83312000D03*
X142859000Y-83312000D03*
D32*
X108458000Y-79020500D03*
X108458000Y-80745500D03*
D24*
X126762000Y-83058000D03*
X128762000Y-83058000D03*
D41*
X108458000Y-39624000D03*
%LPD*%
M02*
