G04 #@! TF.GenerationSoftware,KiCad,Pcbnew,9.0.0*
G04 #@! TF.CreationDate,2025-03-31T20:00:41-05:00*
G04 #@! TF.ProjectId,Portable Offline Translator,506f7274-6162-46c6-9520-4f66666c696e,rev?*
G04 #@! TF.SameCoordinates,Original*
G04 #@! TF.FileFunction,Copper,L2,Bot*
G04 #@! TF.FilePolarity,Positive*
%FSLAX46Y46*%
G04 Gerber Fmt 4.6, Leading zero omitted, Abs format (unit mm)*
G04 Created by KiCad (PCBNEW 9.0.0) date 2025-03-31 20:00:41*
%MOMM*%
%LPD*%
G01*
G04 APERTURE LIST*
G04 Aperture macros list*
%AMRoundRect*
0 Rectangle with rounded corners*
0 $1 Rounding radius*
0 $2 $3 $4 $5 $6 $7 $8 $9 X,Y pos of 4 corners*
0 Add a 4 corners polygon primitive as box body*
4,1,4,$2,$3,$4,$5,$6,$7,$8,$9,$2,$3,0*
0 Add four circle primitives for the rounded corners*
1,1,$1+$1,$2,$3*
1,1,$1+$1,$4,$5*
1,1,$1+$1,$6,$7*
1,1,$1+$1,$8,$9*
0 Add four rect primitives between the rounded corners*
20,1,$1+$1,$2,$3,$4,$5,0*
20,1,$1+$1,$4,$5,$6,$7,0*
20,1,$1+$1,$6,$7,$8,$9,0*
20,1,$1+$1,$8,$9,$2,$3,0*%
G04 Aperture macros list end*
G04 #@! TA.AperFunction,ComponentPad*
%ADD10C,2.000000*%
G04 #@! TD*
G04 #@! TA.AperFunction,ComponentPad*
%ADD11R,2.200000X2.200000*%
G04 #@! TD*
G04 #@! TA.AperFunction,ComponentPad*
%ADD12O,2.200000X2.200000*%
G04 #@! TD*
G04 #@! TA.AperFunction,ComponentPad*
%ADD13R,1.700000X1.700000*%
G04 #@! TD*
G04 #@! TA.AperFunction,ComponentPad*
%ADD14O,1.700000X1.700000*%
G04 #@! TD*
G04 #@! TA.AperFunction,ComponentPad*
%ADD15RoundRect,0.250000X0.600000X-0.600000X0.600000X0.600000X-0.600000X0.600000X-0.600000X-0.600000X0*%
G04 #@! TD*
G04 #@! TA.AperFunction,ComponentPad*
%ADD16C,1.700000*%
G04 #@! TD*
G04 #@! TA.AperFunction,ComponentPad*
%ADD17C,1.500000*%
G04 #@! TD*
G04 #@! TA.AperFunction,ComponentPad*
%ADD18R,1.575000X1.575000*%
G04 #@! TD*
G04 #@! TA.AperFunction,ComponentPad*
%ADD19C,1.575000*%
G04 #@! TD*
G04 #@! TA.AperFunction,ViaPad*
%ADD20C,0.800000*%
G04 #@! TD*
G04 #@! TA.AperFunction,ViaPad*
%ADD21C,0.450000*%
G04 #@! TD*
G04 #@! TA.AperFunction,Conductor*
%ADD22C,0.200000*%
G04 #@! TD*
G04 #@! TA.AperFunction,Conductor*
%ADD23C,0.250000*%
G04 #@! TD*
G04 #@! TA.AperFunction,Conductor*
%ADD24C,0.500000*%
G04 #@! TD*
G04 APERTURE END LIST*
D10*
X173863000Y-118694200D03*
D11*
X115189000Y-79883000D03*
D12*
X115189000Y-69723000D03*
D13*
X157353000Y-150495000D03*
D14*
X154813000Y-150495000D03*
X152273000Y-150495000D03*
X149733000Y-150495000D03*
X147193000Y-150495000D03*
X144653000Y-150495000D03*
X142113000Y-150495000D03*
X139573000Y-150495000D03*
D10*
X82931000Y-90932000D03*
X141351000Y-62357000D03*
D11*
X99339400Y-67513200D03*
D12*
X109499400Y-67513200D03*
D10*
X88138000Y-91059000D03*
D11*
X143129000Y-77470000D03*
D12*
X143129000Y-67310000D03*
D10*
X99060000Y-90932000D03*
X173990000Y-126492000D03*
X88646000Y-73152000D03*
D13*
X164607000Y-67798000D03*
D14*
X164607000Y-70338000D03*
X167147000Y-67798000D03*
X167147000Y-70338000D03*
X169687000Y-67798000D03*
X169687000Y-70338000D03*
D15*
X84302600Y-61772800D03*
D16*
X84302600Y-59232800D03*
X86842600Y-61772800D03*
X86842600Y-59232800D03*
X89382600Y-61772800D03*
X89382600Y-59232800D03*
X91922600Y-61772800D03*
X91922600Y-59232800D03*
X94462600Y-61772800D03*
X94462600Y-59232800D03*
D17*
X168910000Y-90424000D03*
X168910000Y-85544000D03*
D10*
X93091000Y-90932000D03*
D11*
X123698000Y-63881000D03*
D12*
X133858000Y-63881000D03*
D18*
X119634000Y-59385200D03*
D19*
X117134000Y-59385200D03*
D20*
X125857000Y-115773200D03*
X123698000Y-115773200D03*
X119938800Y-109702600D03*
X125806200Y-111226600D03*
D21*
X167792400Y-106476800D03*
X167081200Y-119634000D03*
X106934000Y-70916800D03*
X151638000Y-91490800D03*
X173304200Y-106527600D03*
X121920000Y-124815600D03*
X138785600Y-102412800D03*
X167259000Y-74484400D03*
X156311600Y-147878800D03*
X82346800Y-128574800D03*
X150520400Y-122986800D03*
X167894000Y-98882200D03*
X163906200Y-73417600D03*
X163576000Y-93014800D03*
X81940400Y-120192800D03*
X88036400Y-129743200D03*
X116078000Y-125120400D03*
X128879600Y-125425200D03*
X89712800Y-125069600D03*
X156819600Y-91846400D03*
X153619200Y-122986800D03*
X88239600Y-119532400D03*
D20*
X134467600Y-121920000D03*
X115951000Y-92354400D03*
X129006600Y-127609600D03*
X99085400Y-59156600D03*
D21*
X126644400Y-137972800D03*
D20*
X123317000Y-78867000D03*
X120142000Y-67437000D03*
X82194400Y-133807200D03*
X108458000Y-78994000D03*
X108585000Y-76835000D03*
X113284000Y-62992000D03*
X96266000Y-81280000D03*
X118745000Y-83439000D03*
X125984000Y-135001000D03*
X170688000Y-103174800D03*
X160578800Y-122123200D03*
X153771600Y-87020400D03*
D21*
X122326400Y-150723600D03*
D20*
X144221200Y-121513600D03*
D21*
X141224000Y-148488400D03*
D20*
X125222000Y-76962000D03*
D21*
X128270000Y-127050800D03*
D20*
X122301000Y-74422000D03*
X151688800Y-122123200D03*
X146685000Y-80137000D03*
X153924000Y-89204800D03*
X133858000Y-114046000D03*
X172415200Y-101447600D03*
X148717000Y-82042000D03*
X138709400Y-104165400D03*
X136321800Y-105054400D03*
D21*
X174625000Y-102285800D03*
D20*
X168198800Y-152044400D03*
X168198800Y-102514400D03*
D21*
X175437800Y-105156000D03*
D20*
X168351200Y-153365200D03*
X167741600Y-103530400D03*
X143764000Y-147624800D03*
X143306800Y-135077200D03*
X146253200Y-133807200D03*
X147472400Y-147370800D03*
X146100800Y-147574000D03*
X144932400Y-133502400D03*
X144100302Y-134467600D03*
X144830800Y-147624800D03*
X161925000Y-64008000D03*
X159385000Y-69596000D03*
X149352000Y-88265000D03*
X142875000Y-88265000D03*
X138633200Y-93522800D03*
X160655000Y-86614000D03*
X160909000Y-90551000D03*
X139776200Y-94615000D03*
X134874000Y-90627200D03*
X159562800Y-90017600D03*
X128625600Y-118516400D03*
X161848800Y-92710000D03*
X157784800Y-87985600D03*
X131267200Y-117856000D03*
X148285200Y-87223600D03*
X132080000Y-122224800D03*
X128574800Y-92252800D03*
X142240000Y-87274400D03*
X92837000Y-95123000D03*
X88633300Y-125615700D03*
X154101800Y-82880200D03*
X165582600Y-91338400D03*
X162915600Y-88544400D03*
X139496800Y-85445600D03*
X167081200Y-95935800D03*
D21*
X170942000Y-78740000D03*
X169341800Y-106299000D03*
X171640500Y-104000300D03*
D20*
X149402800Y-123240800D03*
X165049200Y-123494800D03*
X168249600Y-121818400D03*
D21*
X173990000Y-104521000D03*
X170294300Y-120408700D03*
D20*
X170053000Y-113792000D03*
D21*
X170027600Y-119481600D03*
X173482000Y-113842800D03*
X173431200Y-116230400D03*
X137109200Y-123545600D03*
X139192000Y-121462800D03*
D20*
X153720800Y-90373200D03*
D21*
X134416800Y-126593600D03*
X170408600Y-121589800D03*
X169164000Y-109575600D03*
D20*
X128524000Y-94869000D03*
D21*
X169443400Y-120294400D03*
X168656000Y-120396000D03*
X170497500Y-122618500D03*
D20*
X128270000Y-96215200D03*
D21*
X168529000Y-110109000D03*
D20*
X151587200Y-81280000D03*
X169697400Y-81153000D03*
X167767000Y-97053400D03*
X85598000Y-92456000D03*
X130175000Y-127635000D03*
X159258000Y-126238000D03*
X88646000Y-122555000D03*
X153263600Y-91389200D03*
D21*
X142443200Y-128270000D03*
X145846800Y-129844800D03*
X138023600Y-117043200D03*
D20*
X98679000Y-94869000D03*
X90678000Y-124460000D03*
D22*
X170408600Y-121589800D02*
X170158043Y-121840357D01*
X129184400Y-113411000D02*
X129184400Y-95529400D01*
X170158043Y-121840357D02*
X170132643Y-121840357D01*
X170132643Y-121840357D02*
X167716200Y-124256800D01*
X167716200Y-124256800D02*
X140030200Y-124256800D01*
X140030200Y-124256800D02*
X129184400Y-113411000D01*
X129184400Y-95529400D02*
X128524000Y-94869000D01*
D23*
X123698000Y-115773200D02*
X125857000Y-115773200D01*
X121462800Y-111226600D02*
X119938800Y-109702600D01*
X125806200Y-111226600D02*
X121462800Y-111226600D01*
D22*
X167259000Y-74484400D02*
X164973000Y-74484400D01*
X81940400Y-120192800D02*
X81940400Y-128168400D01*
X164973000Y-74484400D02*
X163906200Y-73417600D01*
X163728400Y-122986800D02*
X167081200Y-119634000D01*
X81940400Y-128168400D02*
X82296000Y-128524000D01*
X153416000Y-122986800D02*
X153619200Y-122986800D01*
X150520400Y-122986800D02*
X153416000Y-122986800D01*
X153416000Y-122986800D02*
X163728400Y-122986800D01*
D23*
X129336800Y-135280400D02*
X126644400Y-137972800D01*
X129006600Y-127381000D02*
X134467600Y-121920000D01*
X90347800Y-85013800D02*
X90347800Y-68732400D01*
X129006600Y-127889000D02*
X129260600Y-128143000D01*
X129006600Y-127609600D02*
X129006600Y-127381000D01*
X115951000Y-92354400D02*
X108610400Y-85013800D01*
X129006600Y-127609600D02*
X129006600Y-127889000D01*
X90347800Y-68732400D02*
X99085400Y-59994800D01*
X108610400Y-85013800D02*
X90347800Y-85013800D01*
X129260600Y-128143000D02*
X129260600Y-135204200D01*
X99085400Y-59994800D02*
X99085400Y-59156600D01*
X129260600Y-135204200D02*
X129336800Y-135280400D01*
X120142000Y-77343000D02*
X121666000Y-78867000D01*
X121666000Y-78867000D02*
X123317000Y-78867000D01*
X120142000Y-67437000D02*
X120142000Y-77343000D01*
D24*
X106172000Y-81280000D02*
X108458000Y-78994000D01*
X127000000Y-133985000D02*
X127000000Y-91694000D01*
X108458000Y-78994000D02*
X112141000Y-78994000D01*
X113284000Y-62992000D02*
X113284000Y-72136000D01*
X96266000Y-81280000D02*
X106172000Y-81280000D01*
X127000000Y-91694000D02*
X118745000Y-83439000D01*
X113284000Y-72136000D02*
X108585000Y-76835000D01*
X84404200Y-136017000D02*
X82194400Y-133807200D01*
D23*
X114808000Y-79502000D02*
X115189000Y-79883000D01*
D24*
X112649000Y-79502000D02*
X114808000Y-79502000D01*
X125984000Y-135001000D02*
X127000000Y-133985000D01*
X112141000Y-78994000D02*
X112649000Y-79502000D01*
X125984000Y-135001000D02*
X124968000Y-136017000D01*
X124968000Y-136017000D02*
X84404200Y-136017000D01*
D22*
X153924000Y-87172800D02*
X153771600Y-87020400D01*
X137820400Y-105054400D02*
X138709400Y-104165400D01*
D24*
X143967200Y-121767600D02*
X144221200Y-121513600D01*
X127990600Y-127330200D02*
X128270000Y-127050800D01*
X122326400Y-139979400D02*
X127990600Y-134315200D01*
X127990600Y-134315200D02*
X127990600Y-127330200D01*
X141224000Y-148488400D02*
X155346400Y-148488400D01*
X150012400Y-122123200D02*
X143967200Y-122123200D01*
D23*
X125730000Y-77470000D02*
X143129000Y-77470000D01*
D24*
X133858000Y-63881000D02*
X133858000Y-68326000D01*
X143967200Y-122123200D02*
X143967200Y-121767600D01*
D23*
X125222000Y-76962000D02*
X125730000Y-77470000D01*
D24*
X170688000Y-103174800D02*
X172415200Y-101447600D01*
D23*
X122682000Y-74422000D02*
X122301000Y-74422000D01*
X148590000Y-82042000D02*
X148717000Y-82042000D01*
D24*
X122326400Y-150723600D02*
X122326400Y-139979400D01*
D23*
X125222000Y-76962000D02*
X122682000Y-74422000D01*
D24*
X160578800Y-122123200D02*
X150012400Y-122123200D01*
X151688800Y-122123200D02*
X150012400Y-122123200D01*
X143967200Y-122123200D02*
X141935200Y-122123200D01*
D23*
X146812000Y-80137000D02*
X146685000Y-80137000D01*
D24*
X141935200Y-122123200D02*
X133858000Y-114046000D01*
X155346400Y-148488400D02*
X157353000Y-150495000D01*
D22*
X136321800Y-105054400D02*
X137820400Y-105054400D01*
X153924000Y-89204800D02*
X153924000Y-87172800D01*
D24*
X133858000Y-68326000D02*
X125222000Y-76962000D01*
X146685000Y-80137000D02*
X148590000Y-82042000D01*
D23*
X168198800Y-102514400D02*
X168935400Y-102514400D01*
X172008800Y-104902000D02*
X174625000Y-102285800D01*
X168198800Y-102514400D02*
X168452800Y-102514400D01*
X168935400Y-102514400D02*
X171323000Y-104902000D01*
X175920400Y-127660400D02*
X175920400Y-105638600D01*
X169722800Y-150520400D02*
X168198800Y-152044400D01*
X169722800Y-150520400D02*
X175920400Y-144322800D01*
X171323000Y-104902000D02*
X172008800Y-104902000D01*
X175920400Y-144322800D02*
X175920400Y-127660400D01*
X175920400Y-105638600D02*
X175437800Y-105156000D01*
X174701200Y-102946200D02*
X172262800Y-105384600D01*
X169595800Y-105384600D02*
X167741600Y-103530400D01*
X168351200Y-153365200D02*
X176580800Y-145135600D01*
X172262800Y-105384600D02*
X169595800Y-105384600D01*
X176580800Y-104825800D02*
X174701200Y-102946200D01*
X176580800Y-145135600D02*
X176580800Y-104825800D01*
D22*
X143764000Y-135534400D02*
X143764000Y-147624800D01*
X143306800Y-135077200D02*
X143764000Y-135534400D01*
X146253200Y-146151600D02*
X147472400Y-147370800D01*
X146253200Y-133807200D02*
X146253200Y-146151600D01*
X145592800Y-134162800D02*
X145592800Y-147066000D01*
X144932400Y-133502400D02*
X145592800Y-134162800D01*
X145592800Y-147066000D02*
X146100800Y-147574000D01*
X144100302Y-134467600D02*
X144830800Y-135198098D01*
X144830800Y-135198098D02*
X144830800Y-147624800D01*
D23*
X159385000Y-69596000D02*
X159385000Y-66548000D01*
X159385000Y-66548000D02*
X161925000Y-64008000D01*
X142875000Y-88265000D02*
X149352000Y-88265000D01*
X155067000Y-92202000D02*
X160655000Y-86614000D01*
X139954000Y-92202000D02*
X155067000Y-92202000D01*
X138633200Y-93522800D02*
X139954000Y-92202000D01*
X141732000Y-92659200D02*
X158800800Y-92659200D01*
X158800800Y-92659200D02*
X160909000Y-90551000D01*
X139776200Y-94615000D02*
X141732000Y-92659200D01*
D22*
X153212800Y-86207600D02*
X156006800Y-86207600D01*
X160934400Y-89357200D02*
X160782000Y-89357200D01*
X160223200Y-89357200D02*
X160782000Y-89357200D01*
X161848800Y-92710000D02*
X161848800Y-90271600D01*
X134874000Y-90627200D02*
X148793200Y-90627200D01*
X128625600Y-118516400D02*
X130606800Y-118516400D01*
X148793200Y-90627200D02*
X153212800Y-86207600D01*
X156006800Y-86207600D02*
X157784800Y-87985600D01*
X130606800Y-118516400D02*
X131267200Y-117856000D01*
X161848800Y-90271600D02*
X160934400Y-89357200D01*
X159562800Y-90017600D02*
X160223200Y-89357200D01*
X129489200Y-119634000D02*
X132080000Y-122224800D01*
X128016000Y-119634000D02*
X129489200Y-119634000D01*
X128574800Y-92252800D02*
X127558800Y-93268800D01*
X127558800Y-119176800D02*
X128016000Y-119634000D01*
X148285200Y-87223600D02*
X142290800Y-87223600D01*
X142290800Y-87223600D02*
X142240000Y-87274400D01*
X127558800Y-93268800D02*
X127558800Y-119176800D01*
D23*
X89916000Y-120777000D02*
X92837000Y-117856000D01*
X89027000Y-125222000D02*
X89027000Y-123825000D01*
X89027000Y-123825000D02*
X89916000Y-122936000D01*
X89916000Y-122936000D02*
X89916000Y-120777000D01*
X88633300Y-125615700D02*
X89027000Y-125222000D01*
D22*
X92837000Y-117856000D02*
X92837000Y-95123000D01*
X154101800Y-82702400D02*
X149098000Y-77698600D01*
X144932400Y-55880000D02*
X87655400Y-55880000D01*
D23*
X165582600Y-91338400D02*
X162915600Y-88671400D01*
D22*
X87655400Y-55880000D02*
X84302600Y-59232800D01*
D23*
X162915600Y-88671400D02*
X162915600Y-88544400D01*
D22*
X149098000Y-77698600D02*
X149098000Y-60045600D01*
X149098000Y-60045600D02*
X144932400Y-55880000D01*
X154101800Y-82880200D02*
X154101800Y-82702400D01*
X168097200Y-95631000D02*
X168097200Y-91338400D01*
X167081200Y-95935800D02*
X167792400Y-95935800D01*
X168097200Y-91338400D02*
X162204400Y-85445600D01*
X162204400Y-85445600D02*
X139496800Y-85445600D01*
X167792400Y-95935800D02*
X168097200Y-95631000D01*
D23*
X167640000Y-120396000D02*
X167640000Y-107950000D01*
X165049200Y-123494800D02*
X161137600Y-123494800D01*
X170942000Y-97282000D02*
X170942000Y-78740000D01*
X167640000Y-107950000D02*
X169291000Y-106299000D01*
X149961600Y-123799600D02*
X149402800Y-123240800D01*
X169291000Y-106299000D02*
X169341800Y-106299000D01*
X171640500Y-104000300D02*
X174625000Y-101015800D01*
X160832800Y-123799600D02*
X149961600Y-123799600D01*
X168249600Y-121818400D02*
X168249600Y-121005600D01*
X161137600Y-123494800D02*
X160832800Y-123799600D01*
X174625000Y-101015800D02*
X174625000Y-100965000D01*
X174625000Y-100965000D02*
X170942000Y-97282000D01*
X168249600Y-121005600D02*
X167640000Y-120396000D01*
X174625000Y-105156000D02*
X173990000Y-104521000D01*
X174625000Y-111506000D02*
X174625000Y-105156000D01*
X170688000Y-120015000D02*
X170688000Y-115443000D01*
X170688000Y-115443000D02*
X174625000Y-111506000D01*
X170294300Y-120408700D02*
X170688000Y-120015000D01*
X170027600Y-118897400D02*
X170053000Y-118872000D01*
X170027600Y-119481600D02*
X170027600Y-118897400D01*
X170053000Y-118872000D02*
X170053000Y-113792000D01*
X173482000Y-113842800D02*
X173482000Y-116179600D01*
X173431200Y-116230400D02*
X173431200Y-118262400D01*
X173482000Y-116179600D02*
X173431200Y-116230400D01*
X173431200Y-118262400D02*
X173863000Y-118694200D01*
X134467600Y-93980000D02*
X134416800Y-93980000D01*
X137109200Y-123545600D02*
X134416800Y-126238000D01*
X133096000Y-114909600D02*
X139192000Y-121005600D01*
X133096000Y-95300800D02*
X133096000Y-114909600D01*
X148844000Y-91287600D02*
X137160000Y-91287600D01*
X134416800Y-93980000D02*
X133096000Y-95300800D01*
X150469600Y-89662000D02*
X148844000Y-91287600D01*
X134416800Y-126238000D02*
X134416800Y-126593600D01*
X153720800Y-90373200D02*
X153009600Y-89662000D01*
X137160000Y-91287600D02*
X134467600Y-93980000D01*
X153009600Y-89662000D02*
X150469600Y-89662000D01*
X139192000Y-121005600D02*
X139192000Y-121462800D01*
D22*
X169164000Y-120015000D02*
X169443400Y-120294400D01*
X169164000Y-109575600D02*
X169164000Y-120015000D01*
X128270000Y-96215200D02*
X128270000Y-113284000D01*
X128270000Y-113284000D02*
X139827000Y-124841000D01*
X168275000Y-124841000D02*
X170497500Y-122618500D01*
X168529000Y-110109000D02*
X168529000Y-120269000D01*
X168529000Y-120269000D02*
X168656000Y-120396000D01*
X139827000Y-124841000D02*
X168275000Y-124841000D01*
X148488400Y-78181200D02*
X148488400Y-60198000D01*
X89382600Y-58064400D02*
X89382600Y-59232800D01*
X151587200Y-81280000D02*
X148488400Y-78181200D01*
X148488400Y-60198000D02*
X144856200Y-56565800D01*
X144856200Y-56565800D02*
X90881200Y-56565800D01*
X90881200Y-56565800D02*
X89382600Y-58064400D01*
D23*
X170492000Y-92423400D02*
X169265600Y-93649800D01*
X169697400Y-81153000D02*
X169697400Y-83566000D01*
X169697400Y-83566000D02*
X170492000Y-84360600D01*
X169265600Y-95554800D02*
X167767000Y-97053400D01*
X169265600Y-93649800D02*
X169265600Y-95554800D01*
X170492000Y-84360600D02*
X170492000Y-92423400D01*
D22*
X89027000Y-115697000D02*
X89027000Y-95885000D01*
X130175000Y-127635000D02*
X157861000Y-127635000D01*
X89027000Y-122174000D02*
X89027000Y-115697000D01*
X89027000Y-95885000D02*
X85598000Y-92456000D01*
X157861000Y-127635000D02*
X159258000Y-126238000D01*
X88646000Y-122555000D02*
X89027000Y-122174000D01*
X145796000Y-129895600D02*
X145846800Y-129844800D01*
D23*
X153263600Y-90982800D02*
X152501600Y-90220800D01*
D22*
X143103600Y-129895600D02*
X145796000Y-129895600D01*
X137972800Y-117043200D02*
X138023600Y-117043200D01*
X134264400Y-113334800D02*
X137464800Y-116535200D01*
X142443200Y-129235200D02*
X143103600Y-129895600D01*
X137464800Y-116535200D02*
X137972800Y-117043200D01*
D23*
X150672800Y-90220800D02*
X149141600Y-91752000D01*
D22*
X134264400Y-112776000D02*
X134264400Y-113334800D01*
D23*
X138531600Y-91752000D02*
X134264400Y-96019200D01*
X134264400Y-96019200D02*
X134264400Y-112776000D01*
X153263600Y-91389200D02*
X153263600Y-90982800D01*
X149141600Y-91752000D02*
X138531600Y-91752000D01*
D22*
X142443200Y-128270000D02*
X142443200Y-129235200D01*
D23*
X152501600Y-90220800D02*
X150672800Y-90220800D01*
D22*
X98679000Y-113030000D02*
X98679000Y-94869000D01*
D23*
X90678000Y-124460000D02*
X90678000Y-121031000D01*
X90678000Y-121031000D02*
X98679000Y-113030000D01*
G04 #@! TA.AperFunction,Conductor*
G36*
X169941000Y-69907297D02*
G01*
X169879993Y-69872075D01*
X169752826Y-69838000D01*
X169621174Y-69838000D01*
X169494007Y-69872075D01*
X169433000Y-69907297D01*
X169433000Y-68228702D01*
X169494007Y-68263925D01*
X169621174Y-68298000D01*
X169752826Y-68298000D01*
X169879993Y-68263925D01*
X169941000Y-68228702D01*
X169941000Y-69907297D01*
G37*
G04 #@! TD.AperFunction*
G04 #@! TA.AperFunction,Conductor*
G36*
X176980199Y-55265113D02*
G01*
X177026796Y-55318679D01*
X177038283Y-55370958D01*
X177148344Y-104192966D01*
X177128495Y-104261132D01*
X177074945Y-104307745D01*
X177004694Y-104318008D01*
X176940046Y-104288660D01*
X176933249Y-104282345D01*
X175337224Y-102686320D01*
X175303198Y-102624008D01*
X175308263Y-102553193D01*
X175309894Y-102549046D01*
X175330312Y-102499754D01*
X175358500Y-102358043D01*
X175358500Y-102213557D01*
X175330312Y-102071846D01*
X175275019Y-101938358D01*
X175194747Y-101818221D01*
X175194746Y-101818220D01*
X175194743Y-101818216D01*
X175092583Y-101716056D01*
X175092579Y-101716053D01*
X175057227Y-101692432D01*
X175011699Y-101637955D01*
X175002850Y-101567512D01*
X175033491Y-101503468D01*
X175038122Y-101498581D01*
X175117071Y-101419633D01*
X175186400Y-101315875D01*
X175234155Y-101200585D01*
X175258500Y-101078194D01*
X175258500Y-100953407D01*
X175258500Y-100902606D01*
X175234155Y-100780215D01*
X175218293Y-100741922D01*
X175186401Y-100664925D01*
X175117072Y-100561167D01*
X171612405Y-97056500D01*
X171578379Y-96994188D01*
X171575500Y-96967405D01*
X171575500Y-79149908D01*
X171589709Y-79093184D01*
X171589650Y-79093160D01*
X171589814Y-79092761D01*
X171590379Y-79090510D01*
X171592017Y-79087445D01*
X171592017Y-79087444D01*
X171592019Y-79087442D01*
X171647312Y-78953954D01*
X171675500Y-78812243D01*
X171675500Y-78667757D01*
X171647312Y-78526046D01*
X171592019Y-78392558D01*
X171511747Y-78272421D01*
X171511746Y-78272420D01*
X171511743Y-78272416D01*
X171409583Y-78170256D01*
X171409579Y-78170253D01*
X171289442Y-78089981D01*
X171263301Y-78079153D01*
X171155954Y-78034688D01*
X171070621Y-78017714D01*
X171014245Y-78006500D01*
X171014243Y-78006500D01*
X170869757Y-78006500D01*
X170869754Y-78006500D01*
X170785190Y-78023321D01*
X170728046Y-78034688D01*
X170728044Y-78034688D01*
X170728043Y-78034689D01*
X170594557Y-78089981D01*
X170474420Y-78170253D01*
X170474416Y-78170256D01*
X170372256Y-78272416D01*
X170372253Y-78272420D01*
X170291981Y-78392557D01*
X170236689Y-78526043D01*
X170236688Y-78526046D01*
X170230964Y-78554823D01*
X170208500Y-78667754D01*
X170208500Y-78667757D01*
X170208500Y-78812243D01*
X170236688Y-78953954D01*
X170236689Y-78953956D01*
X170291982Y-79087445D01*
X170293621Y-79090510D01*
X170294185Y-79092761D01*
X170294350Y-79093160D01*
X170294290Y-79093184D01*
X170308500Y-79149908D01*
X170308500Y-80234300D01*
X170288498Y-80302421D01*
X170234842Y-80348914D01*
X170164568Y-80359018D01*
X170133983Y-80348989D01*
X170133454Y-80350267D01*
X170127737Y-80347899D01*
X170127736Y-80347898D01*
X170017801Y-80302361D01*
X169962403Y-80279414D01*
X169962401Y-80279413D01*
X169962400Y-80279413D01*
X169867312Y-80260499D01*
X169786881Y-80244500D01*
X169786879Y-80244500D01*
X169607921Y-80244500D01*
X169607918Y-80244500D01*
X169477171Y-80270507D01*
X169432400Y-80279413D01*
X169432399Y-80279413D01*
X169432396Y-80279414D01*
X169267062Y-80347899D01*
X169118269Y-80447319D01*
X169118262Y-80447324D01*
X168991724Y-80573862D01*
X168991719Y-80573869D01*
X168892299Y-80722662D01*
X168823814Y-80887996D01*
X168788900Y-81063518D01*
X168788900Y-81242481D01*
X168823814Y-81418003D01*
X168843873Y-81466429D01*
X168892298Y-81583336D01*
X168991722Y-81732135D01*
X168991724Y-81732137D01*
X169026995Y-81767408D01*
X169061021Y-81829720D01*
X169063900Y-81856503D01*
X169063900Y-83503606D01*
X169063900Y-83628394D01*
X169088245Y-83750785D01*
X169136000Y-83866075D01*
X169205329Y-83969833D01*
X169205331Y-83969835D01*
X169348025Y-84112529D01*
X169382051Y-84174841D01*
X169376986Y-84245656D01*
X169334439Y-84302492D01*
X169267919Y-84327303D01*
X169219994Y-84321457D01*
X169204704Y-84316489D01*
X169204707Y-84316489D01*
X169168286Y-84310720D01*
X169009046Y-84285500D01*
X168810954Y-84285500D01*
X168615300Y-84316488D01*
X168615297Y-84316488D01*
X168615296Y-84316489D01*
X168426903Y-84377702D01*
X168426901Y-84377703D01*
X168250398Y-84467636D01*
X168090139Y-84584071D01*
X167950071Y-84724139D01*
X167833636Y-84884398D01*
X167743703Y-85060901D01*
X167743702Y-85060903D01*
X167698966Y-85198587D01*
X167682488Y-85249300D01*
X167651500Y-85444954D01*
X167651500Y-85643046D01*
X167682488Y-85838700D01*
X167743702Y-86027097D01*
X167830798Y-86198032D01*
X167833636Y-86203601D01*
X167950071Y-86363860D01*
X168090139Y-86503928D01*
X168090142Y-86503930D01*
X168250402Y-86620366D01*
X168426903Y-86710298D01*
X168615300Y-86771512D01*
X168810954Y-86802500D01*
X168810957Y-86802500D01*
X169009043Y-86802500D01*
X169009046Y-86802500D01*
X169204700Y-86771512D01*
X169393097Y-86710298D01*
X169569598Y-86620366D01*
X169658439Y-86555818D01*
X169725306Y-86531961D01*
X169794458Y-86548041D01*
X169843938Y-86598955D01*
X169858500Y-86657755D01*
X169858500Y-89310244D01*
X169838498Y-89378365D01*
X169784842Y-89424858D01*
X169714568Y-89434962D01*
X169658439Y-89412180D01*
X169569601Y-89347636D01*
X169569600Y-89347635D01*
X169569598Y-89347634D01*
X169393097Y-89257702D01*
X169204700Y-89196488D01*
X169009046Y-89165500D01*
X168810954Y-89165500D01*
X168615300Y-89196488D01*
X168615297Y-89196488D01*
X168615296Y-89196489D01*
X168426903Y-89257702D01*
X168426901Y-89257703D01*
X168250398Y-89347636D01*
X168090139Y-89464071D01*
X167950071Y-89604139D01*
X167833635Y-89764399D01*
X167791258Y-89847569D01*
X167765575Y-89897976D01*
X167760513Y-89907910D01*
X167711764Y-89959525D01*
X167642849Y-89976591D01*
X167575648Y-89953690D01*
X167559151Y-89939802D01*
X162578033Y-84958683D01*
X162578023Y-84958675D01*
X162439277Y-84878570D01*
X162439275Y-84878569D01*
X162439273Y-84878568D01*
X162342623Y-84852671D01*
X162342622Y-84852670D01*
X162284511Y-84837100D01*
X140225303Y-84837100D01*
X140157182Y-84817098D01*
X140136208Y-84800195D01*
X140075937Y-84739924D01*
X140075935Y-84739922D01*
X139927136Y-84640498D01*
X139810229Y-84592073D01*
X139761803Y-84572014D01*
X139761801Y-84572013D01*
X139761800Y-84572013D01*
X139673445Y-84554438D01*
X139586281Y-84537100D01*
X139586279Y-84537100D01*
X139407321Y-84537100D01*
X139407318Y-84537100D01*
X139276571Y-84563107D01*
X139231800Y-84572013D01*
X139231799Y-84572013D01*
X139231796Y-84572014D01*
X139066462Y-84640499D01*
X138917669Y-84739919D01*
X138917662Y-84739924D01*
X138791124Y-84866462D01*
X138791119Y-84866469D01*
X138691699Y-85015262D01*
X138623214Y-85180596D01*
X138588300Y-85356118D01*
X138588300Y-85356121D01*
X138588300Y-85535079D01*
X138623213Y-85710600D01*
X138691698Y-85875936D01*
X138791122Y-86024735D01*
X138917665Y-86151278D01*
X139066464Y-86250702D01*
X139231800Y-86319187D01*
X139407321Y-86354100D01*
X139407322Y-86354100D01*
X139586278Y-86354100D01*
X139586279Y-86354100D01*
X139761800Y-86319187D01*
X139927136Y-86250702D01*
X140075935Y-86151278D01*
X140136208Y-86091005D01*
X140198520Y-86056979D01*
X140225303Y-86054100D01*
X152201561Y-86054100D01*
X152269682Y-86074102D01*
X152316175Y-86127758D01*
X152326279Y-86198032D01*
X152296785Y-86262612D01*
X152290656Y-86269195D01*
X150447730Y-88112120D01*
X150385418Y-88146146D01*
X150314602Y-88141081D01*
X150257767Y-88098534D01*
X150235056Y-88047606D01*
X150225586Y-87999997D01*
X150184473Y-87900744D01*
X150157102Y-87834664D01*
X150057678Y-87685865D01*
X149931135Y-87559322D01*
X149782336Y-87459898D01*
X149653348Y-87406469D01*
X149617003Y-87391414D01*
X149617001Y-87391413D01*
X149617000Y-87391413D01*
X149522123Y-87372541D01*
X149441481Y-87356500D01*
X149441479Y-87356500D01*
X149319700Y-87356500D01*
X149251579Y-87336498D01*
X149205086Y-87282842D01*
X149193700Y-87230500D01*
X149193700Y-87134122D01*
X149193699Y-87134118D01*
X149158787Y-86958600D01*
X149090302Y-86793264D01*
X148990878Y-86644465D01*
X148864335Y-86517922D01*
X148715536Y-86418498D01*
X148588554Y-86365900D01*
X148550203Y-86350014D01*
X148550201Y-86350013D01*
X148550200Y-86350013D01*
X148461845Y-86332438D01*
X148374681Y-86315100D01*
X148374679Y-86315100D01*
X148195721Y-86315100D01*
X148195718Y-86315100D01*
X148064971Y-86341107D01*
X148020200Y-86350013D01*
X148020199Y-86350013D01*
X148020196Y-86350014D01*
X147854862Y-86418499D01*
X147706069Y-86517919D01*
X147706062Y-86517924D01*
X147645792Y-86578195D01*
X147583480Y-86612221D01*
X147556697Y-86615100D01*
X142917703Y-86615100D01*
X142849582Y-86595098D01*
X142828608Y-86578195D01*
X142819137Y-86568724D01*
X142819135Y-86568722D01*
X142670336Y-86469298D01*
X142547695Y-86418498D01*
X142505003Y-86400814D01*
X142505001Y-86400813D01*
X142505000Y-86400813D01*
X142416645Y-86383238D01*
X142329481Y-86365900D01*
X142329479Y-86365900D01*
X142150521Y-86365900D01*
X142150518Y-86365900D01*
X142019771Y-86391907D01*
X141975000Y-86400813D01*
X141974999Y-86400813D01*
X141974996Y-86400814D01*
X141809662Y-86469299D01*
X141660869Y-86568719D01*
X141660862Y-86568724D01*
X141534324Y-86695262D01*
X141534319Y-86695269D01*
X141468843Y-86793262D01*
X141434898Y-86844064D01*
X141422507Y-86873979D01*
X141366414Y-87009396D01*
X141331500Y-87184918D01*
X141331500Y-87363881D01*
X141342484Y-87419100D01*
X141363051Y-87522500D01*
X141366414Y-87539403D01*
X141379122Y-87570082D01*
X141434898Y-87704736D01*
X141534322Y-87853535D01*
X141660865Y-87980078D01*
X141809664Y-88079502D01*
X141888719Y-88112248D01*
X141943999Y-88156795D01*
X141966420Y-88224159D01*
X141966500Y-88228656D01*
X141966500Y-88354479D01*
X142001413Y-88530000D01*
X142069898Y-88695336D01*
X142169322Y-88844135D01*
X142295865Y-88970678D01*
X142444664Y-89070102D01*
X142610000Y-89138587D01*
X142785521Y-89173500D01*
X142785522Y-89173500D01*
X142964478Y-89173500D01*
X142964479Y-89173500D01*
X143140000Y-89138587D01*
X143305336Y-89070102D01*
X143454135Y-88970678D01*
X143489408Y-88935405D01*
X143551720Y-88901379D01*
X143578503Y-88898500D01*
X148648497Y-88898500D01*
X148716618Y-88918502D01*
X148737592Y-88935405D01*
X148772865Y-88970678D01*
X148921664Y-89070102D01*
X149055183Y-89125408D01*
X149086997Y-89138586D01*
X149086998Y-89138586D01*
X149087000Y-89138587D01*
X149134607Y-89148056D01*
X149197516Y-89180963D01*
X149232648Y-89242658D01*
X149228848Y-89313553D01*
X149199121Y-89360730D01*
X148578054Y-89981796D01*
X148515744Y-90015820D01*
X148488961Y-90018700D01*
X135602503Y-90018700D01*
X135534382Y-89998698D01*
X135513408Y-89981795D01*
X135453137Y-89921524D01*
X135453135Y-89921522D01*
X135304336Y-89822098D01*
X135187429Y-89773673D01*
X135139003Y-89753614D01*
X135139001Y-89753613D01*
X135139000Y-89753613D01*
X135050645Y-89736038D01*
X134963481Y-89718700D01*
X134963479Y-89718700D01*
X134784521Y-89718700D01*
X134784518Y-89718700D01*
X134653771Y-89744707D01*
X134609000Y-89753613D01*
X134608999Y-89753613D01*
X134608996Y-89753614D01*
X134443662Y-89822099D01*
X134294869Y-89921519D01*
X134294862Y-89921524D01*
X134168324Y-90048062D01*
X134168319Y-90048069D01*
X134068899Y-90196862D01*
X134000414Y-90362196D01*
X133965500Y-90537718D01*
X133965500Y-90716681D01*
X133982777Y-90803536D01*
X134000413Y-90892200D01*
X134068898Y-91057536D01*
X134168322Y-91206335D01*
X134294865Y-91332878D01*
X134443664Y-91432302D01*
X134609000Y-91500787D01*
X134784521Y-91535700D01*
X134784522Y-91535700D01*
X134963478Y-91535700D01*
X134963479Y-91535700D01*
X135139000Y-91500787D01*
X135304336Y-91432302D01*
X135453135Y-91332878D01*
X135513408Y-91272605D01*
X135575720Y-91238579D01*
X135602503Y-91235700D01*
X136011805Y-91235700D01*
X136079926Y-91255702D01*
X136126419Y-91309358D01*
X136136523Y-91379632D01*
X136107029Y-91444212D01*
X136100900Y-91450795D01*
X134162393Y-93389301D01*
X134121524Y-93416612D01*
X134116722Y-93418601D01*
X134012971Y-93487925D01*
X134012964Y-93487931D01*
X132603931Y-94896964D01*
X132603926Y-94896971D01*
X132562827Y-94958481D01*
X132534600Y-95000725D01*
X132486845Y-95116015D01*
X132477028Y-95165368D01*
X132462500Y-95238403D01*
X132462500Y-95238406D01*
X132462500Y-114847206D01*
X132462500Y-114971994D01*
X132486845Y-115094385D01*
X132534600Y-115209675D01*
X132603929Y-115313433D01*
X132603931Y-115313435D01*
X138447801Y-121157305D01*
X138481827Y-121219617D01*
X138482284Y-121270981D01*
X138478493Y-121290041D01*
X138458500Y-121390554D01*
X138458500Y-121520361D01*
X138438498Y-121588482D01*
X138384842Y-121634975D01*
X138314568Y-121645079D01*
X138249988Y-121615585D01*
X138243405Y-121609456D01*
X129829805Y-113195856D01*
X129795779Y-113133544D01*
X129792900Y-113106761D01*
X129792900Y-95449290D01*
X129776478Y-95388003D01*
X129751432Y-95294528D01*
X129693470Y-95194135D01*
X129671322Y-95155773D01*
X129671319Y-95155770D01*
X129671316Y-95155766D01*
X129469405Y-94953855D01*
X129435379Y-94891543D01*
X129432500Y-94864760D01*
X129432500Y-94779522D01*
X129432499Y-94779518D01*
X129397587Y-94604000D01*
X129329102Y-94438664D01*
X129229678Y-94289865D01*
X129103135Y-94163322D01*
X128954336Y-94063898D01*
X128837429Y-94015473D01*
X128789003Y-93995414D01*
X128789001Y-93995413D01*
X128789000Y-93995413D01*
X128698306Y-93977373D01*
X128613481Y-93960500D01*
X128613479Y-93960500D01*
X128434521Y-93960500D01*
X128434518Y-93960500D01*
X128353104Y-93976694D01*
X128317881Y-93983700D01*
X128247168Y-93977373D01*
X128191100Y-93933819D01*
X128167481Y-93866866D01*
X128167300Y-93860122D01*
X128167300Y-93573039D01*
X128187302Y-93504918D01*
X128204205Y-93483944D01*
X128489944Y-93198205D01*
X128552256Y-93164179D01*
X128579039Y-93161300D01*
X128664278Y-93161300D01*
X128664279Y-93161300D01*
X128839800Y-93126387D01*
X129005136Y-93057902D01*
X129153935Y-92958478D01*
X129280478Y-92831935D01*
X129379902Y-92683136D01*
X129448387Y-92517800D01*
X129483300Y-92342279D01*
X129483300Y-92163321D01*
X129448387Y-91987800D01*
X129379902Y-91822464D01*
X129280478Y-91673665D01*
X129153935Y-91547122D01*
X129005136Y-91447698D01*
X128840812Y-91379632D01*
X128839803Y-91379214D01*
X128839801Y-91379213D01*
X128839800Y-91379213D01*
X128743149Y-91359988D01*
X128664281Y-91344300D01*
X128664279Y-91344300D01*
X128485321Y-91344300D01*
X128485318Y-91344300D01*
X128354571Y-91370307D01*
X128309800Y-91379213D01*
X128309799Y-91379213D01*
X128309796Y-91379214D01*
X128144462Y-91447699D01*
X127995669Y-91547119D01*
X127995667Y-91547120D01*
X127952559Y-91590228D01*
X127890246Y-91624253D01*
X127819430Y-91619187D01*
X127762595Y-91576640D01*
X127739885Y-91525713D01*
X127729351Y-91472753D01*
X127672174Y-91334716D01*
X127589166Y-91210485D01*
X119661978Y-83283297D01*
X119627952Y-83220985D01*
X119627494Y-83218782D01*
X119618587Y-83174002D01*
X119618587Y-83174000D01*
X119550102Y-83008664D01*
X119450678Y-82859865D01*
X119324135Y-82733322D01*
X119175336Y-82633898D01*
X119058429Y-82585473D01*
X119010003Y-82565414D01*
X119010001Y-82565413D01*
X119010000Y-82565413D01*
X118921645Y-82547838D01*
X118834481Y-82530500D01*
X118834479Y-82530500D01*
X118655521Y-82530500D01*
X118655518Y-82530500D01*
X118524771Y-82556507D01*
X118480000Y-82565413D01*
X118479999Y-82565413D01*
X118479996Y-82565414D01*
X118314662Y-82633899D01*
X118165869Y-82733319D01*
X118165862Y-82733324D01*
X118039324Y-82859862D01*
X118039319Y-82859869D01*
X117939899Y-83008662D01*
X117871414Y-83173996D01*
X117836500Y-83349518D01*
X117836500Y-83349521D01*
X117836500Y-83528479D01*
X117871413Y-83704000D01*
X117939898Y-83869336D01*
X118039322Y-84018135D01*
X118165865Y-84144678D01*
X118314664Y-84244102D01*
X118480000Y-84312587D01*
X118524783Y-84321494D01*
X118587692Y-84354401D01*
X118589297Y-84355978D01*
X126204595Y-91971276D01*
X126238621Y-92033588D01*
X126241500Y-92060371D01*
X126241500Y-110234980D01*
X126221498Y-110303101D01*
X126167842Y-110349594D01*
X126097568Y-110359698D01*
X126077334Y-110354149D01*
X126077134Y-110354812D01*
X126071210Y-110353015D01*
X125895681Y-110318100D01*
X125895679Y-110318100D01*
X125716721Y-110318100D01*
X125716718Y-110318100D01*
X125585971Y-110344107D01*
X125541200Y-110353013D01*
X125541199Y-110353013D01*
X125541196Y-110353014D01*
X125375862Y-110421499D01*
X125227069Y-110520919D01*
X125227062Y-110520924D01*
X125191792Y-110556195D01*
X125129480Y-110590221D01*
X125102697Y-110593100D01*
X121777394Y-110593100D01*
X121709273Y-110573098D01*
X121688299Y-110556195D01*
X120884205Y-109752101D01*
X120850179Y-109689789D01*
X120847300Y-109663006D01*
X120847300Y-109613122D01*
X120847299Y-109613118D01*
X120812387Y-109437600D01*
X120743902Y-109272264D01*
X120644478Y-109123465D01*
X120517935Y-108996922D01*
X120369136Y-108897498D01*
X120235395Y-108842100D01*
X120203803Y-108829014D01*
X120203801Y-108829013D01*
X120203800Y-108829013D01*
X120115445Y-108811438D01*
X120028281Y-108794100D01*
X120028279Y-108794100D01*
X119849321Y-108794100D01*
X119849318Y-108794100D01*
X119718571Y-108820107D01*
X119673800Y-108829013D01*
X119673799Y-108829013D01*
X119673796Y-108829014D01*
X119508462Y-108897499D01*
X119359669Y-108996919D01*
X119359662Y-108996924D01*
X119233124Y-109123462D01*
X119233119Y-109123469D01*
X119133699Y-109272262D01*
X119065214Y-109437596D01*
X119030300Y-109613118D01*
X119030300Y-109613121D01*
X119030300Y-109792079D01*
X119065213Y-109967600D01*
X119133698Y-110132936D01*
X119233122Y-110281735D01*
X119359665Y-110408278D01*
X119508464Y-110507702D01*
X119673800Y-110576187D01*
X119849321Y-110611100D01*
X119899206Y-110611100D01*
X119967327Y-110631102D01*
X119988301Y-110648005D01*
X120970729Y-111630433D01*
X121058967Y-111718671D01*
X121162725Y-111788000D01*
X121278015Y-111835755D01*
X121400406Y-111860100D01*
X125102697Y-111860100D01*
X125170818Y-111880102D01*
X125191792Y-111897005D01*
X125227065Y-111932278D01*
X125375864Y-112031702D01*
X125541200Y-112100187D01*
X125716721Y-112135100D01*
X125716722Y-112135100D01*
X125895678Y-112135100D01*
X125895679Y-112135100D01*
X126071200Y-112100187D01*
X126071204Y-112100185D01*
X126071210Y-112100184D01*
X126077134Y-112098388D01*
X126077829Y-112100681D01*
X126137847Y-112094217D01*
X126201340Y-112125983D01*
X126237580Y-112187034D01*
X126241500Y-112218219D01*
X126241500Y-114769851D01*
X126221498Y-114837972D01*
X126167842Y-114884465D01*
X126097568Y-114894569D01*
X126090919Y-114893430D01*
X125946484Y-114864700D01*
X125946479Y-114864700D01*
X125767521Y-114864700D01*
X125767518Y-114864700D01*
X125636771Y-114890707D01*
X125592000Y-114899613D01*
X125591999Y-114899613D01*
X125591996Y-114899614D01*
X125426662Y-114968099D01*
X125277869Y-115067519D01*
X125277862Y-115067524D01*
X125242592Y-115102795D01*
X125180280Y-115136821D01*
X125153497Y-115139700D01*
X124401503Y-115139700D01*
X124333382Y-115119698D01*
X124312408Y-115102795D01*
X124277137Y-115067524D01*
X124277135Y-115067522D01*
X124128336Y-114968098D01*
X124011429Y-114919673D01*
X123963003Y-114899614D01*
X123963001Y-114899613D01*
X123963000Y-114899613D01*
X123874645Y-114882038D01*
X123787481Y-114864700D01*
X123787479Y-114864700D01*
X123608521Y-114864700D01*
X123608518Y-114864700D01*
X123477771Y-114890707D01*
X123433000Y-114899613D01*
X123432999Y-114899613D01*
X123432996Y-114899614D01*
X123267662Y-114968099D01*
X123118869Y-115067519D01*
X123118862Y-115067524D01*
X122992324Y-115194062D01*
X122992319Y-115194069D01*
X122892899Y-115342862D01*
X122824414Y-115508196D01*
X122789500Y-115683718D01*
X122789500Y-115862681D01*
X122805010Y-115940654D01*
X122824413Y-116038200D01*
X122892898Y-116203536D01*
X122992322Y-116352335D01*
X123118865Y-116478878D01*
X123267664Y-116578302D01*
X123433000Y-116646787D01*
X123608521Y-116681700D01*
X123608522Y-116681700D01*
X123787478Y-116681700D01*
X123787479Y-116681700D01*
X123963000Y-116646787D01*
X124128336Y-116578302D01*
X124277135Y-116478878D01*
X124312408Y-116443605D01*
X124374720Y-116409579D01*
X124401503Y-116406700D01*
X125153497Y-116406700D01*
X125221618Y-116426702D01*
X125242592Y-116443605D01*
X125277865Y-116478878D01*
X125426664Y-116578302D01*
X125592000Y-116646787D01*
X125767521Y-116681700D01*
X125767522Y-116681700D01*
X125946478Y-116681700D01*
X125946479Y-116681700D01*
X126090919Y-116652969D01*
X126161632Y-116659297D01*
X126217700Y-116702851D01*
X126241319Y-116769804D01*
X126241500Y-116776548D01*
X126241500Y-133618627D01*
X126221498Y-133686748D01*
X126204595Y-133707723D01*
X125828296Y-134084021D01*
X125765984Y-134118046D01*
X125763786Y-134118503D01*
X125719006Y-134127411D01*
X125719000Y-134127413D01*
X125553663Y-134195898D01*
X125404869Y-134295319D01*
X125404862Y-134295324D01*
X125278324Y-134421862D01*
X125278319Y-134421869D01*
X125178898Y-134570663D01*
X125110413Y-134736000D01*
X125110411Y-134736006D01*
X125101503Y-134780786D01*
X125068594Y-134843695D01*
X125067021Y-134845296D01*
X124690724Y-135221595D01*
X124628412Y-135255620D01*
X124601628Y-135258500D01*
X84770571Y-135258500D01*
X84702450Y-135238498D01*
X84681476Y-135221595D01*
X83111378Y-133651497D01*
X83077352Y-133589185D01*
X83076894Y-133586982D01*
X83074843Y-133576672D01*
X83067987Y-133542200D01*
X82999502Y-133376864D01*
X82900078Y-133228065D01*
X82773535Y-133101522D01*
X82624736Y-133002098D01*
X82507829Y-132953673D01*
X82459403Y-132933614D01*
X82459401Y-132933613D01*
X82459400Y-132933613D01*
X82371045Y-132916038D01*
X82283881Y-132898700D01*
X82283879Y-132898700D01*
X82104921Y-132898700D01*
X82104918Y-132898700D01*
X81981448Y-132923260D01*
X81929400Y-132933613D01*
X81929399Y-132933613D01*
X81929396Y-132933614D01*
X81764062Y-133002099D01*
X81615269Y-133101519D01*
X81615262Y-133101524D01*
X81488724Y-133228062D01*
X81488719Y-133228069D01*
X81389299Y-133376862D01*
X81320814Y-133542196D01*
X81320814Y-133542198D01*
X81320813Y-133542200D01*
X81315739Y-133567707D01*
X81285900Y-133717718D01*
X81285900Y-133896681D01*
X81320814Y-134072203D01*
X81339803Y-134118046D01*
X81389298Y-134237536D01*
X81488722Y-134386335D01*
X81615265Y-134512878D01*
X81764064Y-134612302D01*
X81929400Y-134680787D01*
X81974183Y-134689694D01*
X82037092Y-134722601D01*
X82038697Y-134724178D01*
X83815034Y-136500515D01*
X83815035Y-136500516D01*
X83920684Y-136606165D01*
X84044916Y-136689174D01*
X84125776Y-136722667D01*
X84182953Y-136746351D01*
X84256224Y-136760925D01*
X84329494Y-136775500D01*
X84329495Y-136775500D01*
X84478905Y-136775500D01*
X124153429Y-136775500D01*
X124221550Y-136795502D01*
X124268043Y-136849158D01*
X124278147Y-136919432D01*
X124248653Y-136984012D01*
X124242524Y-136990595D01*
X121737237Y-139495881D01*
X121737232Y-139495888D01*
X121654226Y-139620115D01*
X121597050Y-139758150D01*
X121597049Y-139758153D01*
X121567900Y-139904690D01*
X121567900Y-146749920D01*
X121547898Y-146818041D01*
X121494242Y-146864534D01*
X121423968Y-146874638D01*
X121359388Y-146845144D01*
X121322971Y-146791535D01*
X121210742Y-146470802D01*
X121210741Y-146470801D01*
X121210736Y-146470785D01*
X121062076Y-146162090D01*
X120879789Y-145871982D01*
X120666166Y-145604107D01*
X120666163Y-145604103D01*
X120423896Y-145361836D01*
X120156018Y-145148211D01*
X119865914Y-144965926D01*
X119865905Y-144965921D01*
X119557224Y-144817268D01*
X119557219Y-144817266D01*
X119557215Y-144817264D01*
X119557209Y-144817261D01*
X119557197Y-144817257D01*
X119233823Y-144704104D01*
X118899785Y-144627861D01*
X118899788Y-144627861D01*
X118559314Y-144589500D01*
X118559312Y-144589500D01*
X118216688Y-144589500D01*
X118216686Y-144589500D01*
X117876213Y-144627861D01*
X117542176Y-144704104D01*
X117218802Y-144817257D01*
X117218775Y-144817268D01*
X116910094Y-144965921D01*
X116910085Y-144965926D01*
X116619981Y-145148211D01*
X116352103Y-145361836D01*
X116109836Y-145604103D01*
X115896211Y-145871981D01*
X115713926Y-146162085D01*
X115713921Y-146162094D01*
X115565268Y-146470775D01*
X115565257Y-146470802D01*
X115452104Y-146794176D01*
X115375861Y-147128213D01*
X115337500Y-147468686D01*
X115337500Y-147811313D01*
X115375861Y-148151786D01*
X115452104Y-148485823D01*
X115565257Y-148809197D01*
X115565268Y-148809224D01*
X115713921Y-149117905D01*
X115713926Y-149117914D01*
X115896211Y-149408018D01*
X116109836Y-149675896D01*
X116352103Y-149918163D01*
X116421515Y-149973517D01*
X116619982Y-150131789D01*
X116910090Y-150314076D01*
X117218785Y-150462736D01*
X117218801Y-150462741D01*
X117218802Y-150462742D01*
X117542176Y-150575895D01*
X117542179Y-150575895D01*
X117542183Y-150575897D01*
X117876213Y-150652138D01*
X117876214Y-150652138D01*
X117876217Y-150652139D01*
X118077016Y-150674763D01*
X118216686Y-150690500D01*
X118216688Y-150690500D01*
X118559314Y-150690500D01*
X118645778Y-150680757D01*
X118899783Y-150652139D01*
X119233817Y-150575897D01*
X119557215Y-150462736D01*
X119865910Y-150314076D01*
X120156018Y-150131789D01*
X120423893Y-149918166D01*
X120666166Y-149675893D01*
X120879789Y-149408018D01*
X121062076Y-149117910D01*
X121210736Y-148809215D01*
X121322971Y-148488464D01*
X121364349Y-148430772D01*
X121430349Y-148404610D01*
X121500017Y-148418282D01*
X121551233Y-148467450D01*
X121567900Y-148530079D01*
X121567900Y-150798309D01*
X121597049Y-150944846D01*
X121654226Y-151082884D01*
X121737235Y-151207116D01*
X121842884Y-151312765D01*
X121967116Y-151395774D01*
X122105154Y-151452951D01*
X122251694Y-151482100D01*
X122401106Y-151482100D01*
X122547646Y-151452951D01*
X122685684Y-151395774D01*
X122809916Y-151312765D01*
X122915565Y-151207116D01*
X122998574Y-151082884D01*
X123055751Y-150944846D01*
X123084900Y-150798306D01*
X123084900Y-150388084D01*
X138214500Y-150388084D01*
X138214500Y-150601916D01*
X138247951Y-150813116D01*
X138247952Y-150813121D01*
X138314026Y-151016478D01*
X138314028Y-151016483D01*
X138411106Y-151207009D01*
X138536794Y-151380004D01*
X138536796Y-151380006D01*
X138536798Y-151380009D01*
X138687990Y-151531201D01*
X138687993Y-151531203D01*
X138687996Y-151531206D01*
X138860991Y-151656894D01*
X139051517Y-151753972D01*
X139254878Y-151820047D01*
X139254879Y-151820047D01*
X139254884Y-151820049D01*
X139466084Y-151853500D01*
X139466087Y-151853500D01*
X139679913Y-151853500D01*
X139679916Y-151853500D01*
X139891116Y-151820049D01*
X140094483Y-151753972D01*
X140285009Y-151656894D01*
X140458004Y-151531206D01*
X140609206Y-151380004D01*
X140734894Y-151207009D01*
X140734899Y-151206997D01*
X140735561Y-151205920D01*
X140735924Y-151205591D01*
X140737804Y-151203004D01*
X140738347Y-151203398D01*
X140788204Y-151158283D01*
X140858244Y-151146670D01*
X140923445Y-151174766D01*
X140948021Y-151203130D01*
X140948196Y-151203004D01*
X140949668Y-151205030D01*
X140950439Y-151205920D01*
X140951105Y-151207007D01*
X140951106Y-151207009D01*
X141076794Y-151380004D01*
X141076796Y-151380006D01*
X141076798Y-151380009D01*
X141227990Y-151531201D01*
X141227993Y-151531203D01*
X141227996Y-151531206D01*
X141400991Y-151656894D01*
X141591517Y-151753972D01*
X141794878Y-151820047D01*
X141794879Y-151820047D01*
X141794884Y-151820049D01*
X142006084Y-151853500D01*
X142006087Y-151853500D01*
X142219913Y-151853500D01*
X142219916Y-151853500D01*
X142431116Y-151820049D01*
X142634483Y-151753972D01*
X142825009Y-151656894D01*
X142998004Y-151531206D01*
X143149206Y-151380004D01*
X143274894Y-151207009D01*
X143274899Y-151206997D01*
X143275561Y-151205920D01*
X143275924Y-151205591D01*
X143277804Y-151203004D01*
X143278347Y-151203398D01*
X143328204Y-151158283D01*
X143398244Y-151146670D01*
X143463445Y-151174766D01*
X143488021Y-151203130D01*
X143488196Y-151203004D01*
X143489668Y-151205030D01*
X143490439Y-151205920D01*
X143491105Y-151207007D01*
X143491106Y-151207009D01*
X143616794Y-151380004D01*
X143616796Y-151380006D01*
X143616798Y-151380009D01*
X143767990Y-151531201D01*
X143767993Y-151531203D01*
X143767996Y-151531206D01*
X143940991Y-151656894D01*
X144131517Y-151753972D01*
X144334878Y-151820047D01*
X144334879Y-151820047D01*
X144334884Y-151820049D01*
X144546084Y-151853500D01*
X144546087Y-151853500D01*
X144759913Y-151853500D01*
X144759916Y-151853500D01*
X144971116Y-151820049D01*
X145174483Y-151753972D01*
X145365009Y-151656894D01*
X145538004Y-151531206D01*
X145689206Y-151380004D01*
X145814894Y-151207009D01*
X145814899Y-151206997D01*
X145815561Y-151205920D01*
X145815924Y-151205591D01*
X145817804Y-151203004D01*
X145818347Y-151203398D01*
X145868204Y-151158283D01*
X145938244Y-151146670D01*
X146003445Y-151174766D01*
X146028021Y-151203130D01*
X146028196Y-151203004D01*
X146029668Y-151205030D01*
X146030439Y-151205920D01*
X146031105Y-151207007D01*
X146031106Y-151207009D01*
X146156794Y-151380004D01*
X146156796Y-151380006D01*
X146156798Y-151380009D01*
X146307990Y-151531201D01*
X146307993Y-151531203D01*
X146307996Y-151531206D01*
X146480991Y-151656894D01*
X146671517Y-151753972D01*
X146874878Y-151820047D01*
X146874879Y-151820047D01*
X146874884Y-151820049D01*
X147086084Y-151853500D01*
X147086087Y-151853500D01*
X147299913Y-151853500D01*
X147299916Y-151853500D01*
X147511116Y-151820049D01*
X147714483Y-151753972D01*
X147905009Y-151656894D01*
X148078004Y-151531206D01*
X148229206Y-151380004D01*
X148354894Y-151207009D01*
X148354899Y-151206997D01*
X148355561Y-151205920D01*
X148355924Y-151205591D01*
X148357804Y-151203004D01*
X148358347Y-151203398D01*
X148408204Y-151158283D01*
X148478244Y-151146670D01*
X148543445Y-151174766D01*
X148568021Y-151203130D01*
X148568196Y-151203004D01*
X148569668Y-151205030D01*
X148570439Y-151205920D01*
X148571105Y-151207007D01*
X148571106Y-151207009D01*
X148696794Y-151380004D01*
X148696796Y-151380006D01*
X148696798Y-151380009D01*
X148847990Y-151531201D01*
X148847993Y-151531203D01*
X148847996Y-151531206D01*
X149020991Y-151656894D01*
X149211517Y-151753972D01*
X149414878Y-151820047D01*
X149414879Y-151820047D01*
X149414884Y-151820049D01*
X149626084Y-151853500D01*
X149626087Y-151853500D01*
X149839913Y-151853500D01*
X149839916Y-151853500D01*
X150051116Y-151820049D01*
X150254483Y-151753972D01*
X150445009Y-151656894D01*
X150618004Y-151531206D01*
X150769206Y-151380004D01*
X150894894Y-151207009D01*
X150894899Y-151206997D01*
X150895561Y-151205920D01*
X150895924Y-151205591D01*
X150897804Y-151203004D01*
X150898347Y-151203398D01*
X150948204Y-151158283D01*
X151018244Y-151146670D01*
X151083445Y-151174766D01*
X151108021Y-151203130D01*
X151108196Y-151203004D01*
X151109668Y-151205030D01*
X151110439Y-151205920D01*
X151111105Y-151207007D01*
X151111106Y-151207009D01*
X151236794Y-151380004D01*
X151236796Y-151380006D01*
X151236798Y-151380009D01*
X151387990Y-151531201D01*
X151387993Y-151531203D01*
X151387996Y-151531206D01*
X151560991Y-151656894D01*
X151751517Y-151753972D01*
X151954878Y-151820047D01*
X151954879Y-151820047D01*
X151954884Y-151820049D01*
X152166084Y-151853500D01*
X152166087Y-151853500D01*
X152379913Y-151853500D01*
X152379916Y-151853500D01*
X152591116Y-151820049D01*
X152794483Y-151753972D01*
X152985009Y-151656894D01*
X153158004Y-151531206D01*
X153309206Y-151380004D01*
X153434894Y-151207009D01*
X153434902Y-151206992D01*
X153435854Y-151205441D01*
X153436377Y-151204967D01*
X153437804Y-151203004D01*
X153438216Y-151203303D01*
X153488497Y-151157804D01*
X153558537Y-151146189D01*
X153623738Y-151174285D01*
X153648484Y-151202843D01*
X153648624Y-151202742D01*
X153649801Y-151204362D01*
X153650729Y-151205433D01*
X153651535Y-151206749D01*
X153777177Y-151379679D01*
X153928320Y-151530822D01*
X154101249Y-151656463D01*
X154291707Y-151753506D01*
X154291713Y-151753509D01*
X154494998Y-151819560D01*
X154559000Y-151829696D01*
X154559000Y-150925702D01*
X154620007Y-150960925D01*
X154747174Y-150995000D01*
X154878826Y-150995000D01*
X155005993Y-150960925D01*
X155067000Y-150925702D01*
X155067000Y-151829696D01*
X155131001Y-151819560D01*
X155334286Y-151753509D01*
X155334292Y-151753506D01*
X155524750Y-151656463D01*
X155697677Y-151530823D01*
X155800787Y-151427713D01*
X155863099Y-151393688D01*
X155933915Y-151398752D01*
X155990751Y-151441299D01*
X156007938Y-151472775D01*
X156052110Y-151591202D01*
X156052112Y-151591207D01*
X156139738Y-151708261D01*
X156256792Y-151795887D01*
X156256794Y-151795888D01*
X156256796Y-151795889D01*
X156315875Y-151817924D01*
X156393795Y-151846988D01*
X156393803Y-151846990D01*
X156454350Y-151853499D01*
X156454355Y-151853499D01*
X156454362Y-151853500D01*
X156454368Y-151853500D01*
X158251632Y-151853500D01*
X158251638Y-151853500D01*
X158251645Y-151853499D01*
X158251649Y-151853499D01*
X158312196Y-151846990D01*
X158312199Y-151846989D01*
X158312201Y-151846989D01*
X158449204Y-151795889D01*
X158505199Y-151753972D01*
X158566261Y-151708261D01*
X158653887Y-151591207D01*
X158653887Y-151591206D01*
X158653889Y-151591204D01*
X158704989Y-151454201D01*
X158705124Y-151452951D01*
X158711499Y-151393649D01*
X158711500Y-151393632D01*
X158711500Y-149596367D01*
X158711499Y-149596350D01*
X158704990Y-149535803D01*
X158704988Y-149535795D01*
X158658552Y-149411298D01*
X158653889Y-149398796D01*
X158653888Y-149398794D01*
X158653887Y-149398792D01*
X158566261Y-149281738D01*
X158449207Y-149194112D01*
X158449202Y-149194110D01*
X158312204Y-149143011D01*
X158312196Y-149143009D01*
X158251649Y-149136500D01*
X158251638Y-149136500D01*
X157119371Y-149136500D01*
X157051250Y-149116498D01*
X157030276Y-149099595D01*
X155829919Y-147899238D01*
X155829918Y-147899237D01*
X155829915Y-147899234D01*
X155705684Y-147816226D01*
X155567649Y-147759050D01*
X155567647Y-147759049D01*
X155494137Y-147744427D01*
X155494135Y-147744426D01*
X155421109Y-147729900D01*
X155421106Y-147729900D01*
X148480801Y-147729900D01*
X148412680Y-147709898D01*
X148366187Y-147656242D01*
X148356083Y-147585968D01*
X148357222Y-147579319D01*
X148380899Y-147460284D01*
X148380900Y-147460277D01*
X148380900Y-147281322D01*
X148380899Y-147281318D01*
X148345987Y-147105800D01*
X148277502Y-146940464D01*
X148178078Y-146791665D01*
X148051535Y-146665122D01*
X147902736Y-146565698D01*
X147785829Y-146517273D01*
X147737403Y-146497214D01*
X147737401Y-146497213D01*
X147737400Y-146497213D01*
X147649045Y-146479638D01*
X147561881Y-146462300D01*
X147561879Y-146462300D01*
X147476639Y-146462300D01*
X147408518Y-146442298D01*
X147387544Y-146425395D01*
X146898605Y-145936456D01*
X146864579Y-145874144D01*
X146861700Y-145847361D01*
X146861700Y-134535703D01*
X146881702Y-134467582D01*
X146898605Y-134446608D01*
X146923351Y-134421862D01*
X146958878Y-134386335D01*
X147058302Y-134237536D01*
X147126787Y-134072200D01*
X147161700Y-133896679D01*
X147161700Y-133717721D01*
X147126787Y-133542200D01*
X147058302Y-133376864D01*
X146958878Y-133228065D01*
X146832335Y-133101522D01*
X146683536Y-133002098D01*
X146566629Y-132953673D01*
X146518203Y-132933614D01*
X146518201Y-132933613D01*
X146518200Y-132933613D01*
X146429845Y-132916038D01*
X146342681Y-132898700D01*
X146342679Y-132898700D01*
X146163721Y-132898700D01*
X146163718Y-132898700D01*
X146040248Y-132923260D01*
X145988200Y-132933613D01*
X145988199Y-132933613D01*
X145988196Y-132933614D01*
X145926488Y-132959175D01*
X145822864Y-133002098D01*
X145822862Y-133002099D01*
X145817146Y-133004467D01*
X145816281Y-133002378D01*
X145756674Y-133014763D01*
X145690389Y-132989332D01*
X145662075Y-132959179D01*
X145638078Y-132923265D01*
X145511535Y-132796722D01*
X145362736Y-132697298D01*
X145245829Y-132648873D01*
X145197403Y-132628814D01*
X145197401Y-132628813D01*
X145197400Y-132628813D01*
X145109045Y-132611238D01*
X145021881Y-132593900D01*
X145021879Y-132593900D01*
X144842921Y-132593900D01*
X144842918Y-132593900D01*
X144712171Y-132619907D01*
X144667400Y-132628813D01*
X144667399Y-132628813D01*
X144667396Y-132628814D01*
X144502062Y-132697299D01*
X144353269Y-132796719D01*
X144353262Y-132796724D01*
X144226724Y-132923262D01*
X144226719Y-132923269D01*
X144127299Y-133072062D01*
X144058814Y-133237396D01*
X144023900Y-133412918D01*
X144023900Y-133453093D01*
X144003898Y-133521214D01*
X143950242Y-133567707D01*
X143922482Y-133576671D01*
X143835302Y-133594013D01*
X143835301Y-133594013D01*
X143835298Y-133594014D01*
X143669964Y-133662499D01*
X143521171Y-133761919D01*
X143521164Y-133761924D01*
X143394626Y-133888462D01*
X143394621Y-133888469D01*
X143295199Y-134037264D01*
X143295199Y-134037265D01*
X143268633Y-134101399D01*
X143224084Y-134156679D01*
X143176807Y-134176758D01*
X143092669Y-134193494D01*
X143041800Y-134203613D01*
X143041798Y-134203613D01*
X143041797Y-134203614D01*
X142876462Y-134272099D01*
X142727669Y-134371519D01*
X142727662Y-134371524D01*
X142601124Y-134498062D01*
X142601119Y-134498069D01*
X142501699Y-134646862D01*
X142433214Y-134812196D01*
X142398300Y-134987718D01*
X142398300Y-135166681D01*
X142433214Y-135342203D01*
X142433459Y-135342795D01*
X142501698Y-135507536D01*
X142601122Y-135656335D01*
X142727665Y-135782878D01*
X142876464Y-135882302D01*
X143041800Y-135950787D01*
X143054083Y-135953230D01*
X143116989Y-135986134D01*
X143152122Y-136047829D01*
X143155500Y-136076808D01*
X143155500Y-146896297D01*
X143135498Y-146964418D01*
X143118595Y-146985392D01*
X143058324Y-147045662D01*
X143058319Y-147045669D01*
X142958899Y-147194462D01*
X142890414Y-147359796D01*
X142855500Y-147535318D01*
X142855500Y-147603900D01*
X142835498Y-147672021D01*
X142781842Y-147718514D01*
X142729500Y-147729900D01*
X141149290Y-147729900D01*
X141002753Y-147759049D01*
X141002750Y-147759050D01*
X140864715Y-147816226D01*
X140740488Y-147899232D01*
X140740481Y-147899237D01*
X140634837Y-148004881D01*
X140634832Y-148004888D01*
X140551826Y-148129115D01*
X140494650Y-148267150D01*
X140494649Y-148267153D01*
X140465500Y-148413690D01*
X140465500Y-148563109D01*
X140494649Y-148709646D01*
X140551826Y-148847684D01*
X140634835Y-148971916D01*
X140740484Y-149077565D01*
X140864716Y-149160574D01*
X141002754Y-149217751D01*
X141094643Y-149236029D01*
X141155365Y-149248108D01*
X141155102Y-149249426D01*
X141214536Y-149273419D01*
X141255551Y-149331370D01*
X141258724Y-149402295D01*
X141225458Y-149461331D01*
X141076794Y-149609995D01*
X140951108Y-149782987D01*
X140950434Y-149784088D01*
X140950068Y-149784418D01*
X140948196Y-149786996D01*
X140947654Y-149786602D01*
X140897787Y-149831721D01*
X140827745Y-149843328D01*
X140762547Y-149815226D01*
X140737976Y-149786870D01*
X140737804Y-149786996D01*
X140736341Y-149784982D01*
X140735566Y-149784088D01*
X140734896Y-149782996D01*
X140734894Y-149782991D01*
X140609206Y-149609996D01*
X140609203Y-149609993D01*
X140609201Y-149609990D01*
X140458009Y-149458798D01*
X140458006Y-149458796D01*
X140458004Y-149458794D01*
X140285009Y-149333106D01*
X140094483Y-149236028D01*
X140094480Y-149236027D01*
X140094478Y-149236026D01*
X139891120Y-149169952D01*
X139891123Y-149169952D01*
X139831906Y-149160573D01*
X139679916Y-149136500D01*
X139466084Y-149136500D01*
X139254884Y-149169951D01*
X139254878Y-149169952D01*
X139051521Y-149236026D01*
X139051515Y-149236029D01*
X138860987Y-149333108D01*
X138687993Y-149458796D01*
X138687990Y-149458798D01*
X138536798Y-149609990D01*
X138536796Y-149609993D01*
X138411108Y-149782987D01*
X138314029Y-149973515D01*
X138314026Y-149973521D01*
X138247952Y-150176878D01*
X138247951Y-150176883D01*
X138247951Y-150176884D01*
X138214500Y-150388084D01*
X123084900Y-150388084D01*
X123084900Y-140345771D01*
X123104902Y-140277650D01*
X123121805Y-140256676D01*
X123988246Y-139390235D01*
X125724703Y-137653777D01*
X125787013Y-137619754D01*
X125857828Y-137624818D01*
X125914664Y-137667365D01*
X125939475Y-137733885D01*
X125937375Y-137767455D01*
X125910900Y-137900551D01*
X125910900Y-137900557D01*
X125910900Y-138045043D01*
X125939088Y-138186754D01*
X125939089Y-138186756D01*
X125994381Y-138320242D01*
X126074653Y-138440379D01*
X126074656Y-138440383D01*
X126176816Y-138542543D01*
X126176820Y-138542546D01*
X126176821Y-138542547D01*
X126296958Y-138622819D01*
X126430446Y-138678112D01*
X126572157Y-138706300D01*
X126572158Y-138706300D01*
X126716642Y-138706300D01*
X126716643Y-138706300D01*
X126858354Y-138678112D01*
X126991842Y-138622819D01*
X127111979Y-138542547D01*
X127214147Y-138440379D01*
X127294419Y-138320242D01*
X127349712Y-138186754D01*
X127349714Y-138186741D01*
X127350721Y-138183426D01*
X127351916Y-138181431D01*
X127352081Y-138181034D01*
X127352139Y-138181058D01*
X127382199Y-138130903D01*
X129828872Y-135684233D01*
X129898201Y-135580475D01*
X129945955Y-135465184D01*
X129970300Y-135342793D01*
X129970300Y-135218006D01*
X129945955Y-135095615D01*
X129945367Y-135094195D01*
X129903691Y-134993577D01*
X129894100Y-134945360D01*
X129894100Y-128658955D01*
X129914102Y-128590834D01*
X129967758Y-128544341D01*
X130038032Y-128534237D01*
X130044650Y-128535370D01*
X130085521Y-128543500D01*
X130085522Y-128543500D01*
X130264478Y-128543500D01*
X130264479Y-128543500D01*
X130440000Y-128508587D01*
X130605336Y-128440102D01*
X130754135Y-128340678D01*
X130814408Y-128280405D01*
X130876720Y-128246379D01*
X130903503Y-128243500D01*
X141586653Y-128243500D01*
X141654774Y-128263502D01*
X141701267Y-128317158D01*
X141710232Y-128344918D01*
X141737888Y-128483954D01*
X141793181Y-128617442D01*
X141793182Y-128617443D01*
X141813465Y-128647799D01*
X141834680Y-128715552D01*
X141834700Y-128717801D01*
X141834700Y-129155090D01*
X141834700Y-129315310D01*
X141876168Y-129470073D01*
X141876169Y-129470075D01*
X141876170Y-129470077D01*
X141956275Y-129608823D01*
X141956283Y-129608833D01*
X142729966Y-130382516D01*
X142729971Y-130382520D01*
X142729973Y-130382522D01*
X142868728Y-130462632D01*
X143023489Y-130504100D01*
X143023490Y-130504100D01*
X143183711Y-130504100D01*
X145496700Y-130504100D01*
X145544918Y-130513690D01*
X145632846Y-130550112D01*
X145774557Y-130578300D01*
X145774558Y-130578300D01*
X145919042Y-130578300D01*
X145919043Y-130578300D01*
X146060754Y-130550112D01*
X146194242Y-130494819D01*
X146314379Y-130414547D01*
X146416547Y-130312379D01*
X146496819Y-130192242D01*
X146552112Y-130058754D01*
X146580300Y-129917043D01*
X146580300Y-129772557D01*
X146552112Y-129630846D01*
X146496819Y-129497358D01*
X146416547Y-129377221D01*
X146416546Y-129377220D01*
X146416543Y-129377216D01*
X146314383Y-129275056D01*
X146314379Y-129275053D01*
X146194242Y-129194781D01*
X146060756Y-129139489D01*
X146060754Y-129139488D01*
X145975421Y-129122514D01*
X145919045Y-129111300D01*
X145919043Y-129111300D01*
X145774557Y-129111300D01*
X145774554Y-129111300D01*
X145689990Y-129128121D01*
X145632846Y-129139488D01*
X145632844Y-129139488D01*
X145632843Y-129139489D01*
X145499357Y-129194781D01*
X145392970Y-129265866D01*
X145325217Y-129287080D01*
X145322969Y-129287100D01*
X143407839Y-129287100D01*
X143339718Y-129267098D01*
X143318744Y-129250195D01*
X143088605Y-129020056D01*
X143073660Y-128992687D01*
X143056804Y-128966459D01*
X143055898Y-128960160D01*
X143054579Y-128957744D01*
X143051700Y-128930961D01*
X143051700Y-128717801D01*
X143071702Y-128649680D01*
X143072935Y-128647799D01*
X143093219Y-128617442D01*
X143148512Y-128483954D01*
X143176168Y-128344918D01*
X143209076Y-128282009D01*
X143270771Y-128246877D01*
X143299747Y-128243500D01*
X157941109Y-128243500D01*
X157941110Y-128243500D01*
X157941111Y-128243500D01*
X158050703Y-128214135D01*
X158095873Y-128202032D01*
X158234627Y-128121922D01*
X159173145Y-127183403D01*
X159235456Y-127149380D01*
X159262239Y-127146500D01*
X159347478Y-127146500D01*
X159347479Y-127146500D01*
X159523000Y-127111587D01*
X159688336Y-127043102D01*
X159837135Y-126943678D01*
X159963678Y-126817135D01*
X160063102Y-126668336D01*
X160131587Y-126503000D01*
X160166500Y-126327479D01*
X160166500Y-126148521D01*
X160131587Y-125973000D01*
X160063102Y-125807664D01*
X159963678Y-125658865D01*
X159963671Y-125658858D01*
X159960863Y-125655436D01*
X159933108Y-125590089D01*
X159945089Y-125520111D01*
X159993000Y-125467718D01*
X160058261Y-125449500D01*
X168355110Y-125449500D01*
X168355111Y-125449500D01*
X168432491Y-125428766D01*
X168509873Y-125408032D01*
X168648627Y-125327922D01*
X170611131Y-123365416D01*
X170673440Y-123331394D01*
X170675591Y-123330945D01*
X170711454Y-123323812D01*
X170844942Y-123268519D01*
X170965079Y-123188247D01*
X171067247Y-123086079D01*
X171147519Y-122965942D01*
X171202812Y-122832454D01*
X171231000Y-122690743D01*
X171231000Y-122546257D01*
X171202812Y-122404546D01*
X171147519Y-122271058D01*
X171067247Y-122150921D01*
X171067246Y-122150920D01*
X171067243Y-122150916D01*
X171049606Y-122133279D01*
X171015580Y-122070967D01*
X171020645Y-122000152D01*
X171033933Y-121974186D01*
X171058619Y-121937242D01*
X171113912Y-121803754D01*
X171142100Y-121662043D01*
X171142100Y-121517557D01*
X171113912Y-121375846D01*
X171058619Y-121242358D01*
X170978347Y-121122221D01*
X170978346Y-121122220D01*
X170978343Y-121122216D01*
X170884437Y-121028310D01*
X170850411Y-120965998D01*
X170855476Y-120895183D01*
X170868762Y-120869221D01*
X170944319Y-120756142D01*
X170999612Y-120622654D01*
X170999613Y-120622645D01*
X171000619Y-120619333D01*
X171001811Y-120617343D01*
X171001981Y-120616934D01*
X171002041Y-120616959D01*
X171032100Y-120566802D01*
X171180071Y-120418833D01*
X171249400Y-120315075D01*
X171297155Y-120199785D01*
X171321500Y-120077394D01*
X171321500Y-119952606D01*
X171321500Y-115757594D01*
X171341502Y-115689473D01*
X171358405Y-115668499D01*
X172633405Y-114393499D01*
X172695717Y-114359473D01*
X172766532Y-114364538D01*
X172823368Y-114407085D01*
X172848179Y-114473605D01*
X172848500Y-114482594D01*
X172848500Y-115743984D01*
X172828498Y-115812105D01*
X172827266Y-115813984D01*
X172781183Y-115882953D01*
X172725893Y-116016435D01*
X172725888Y-116016446D01*
X172719556Y-116048278D01*
X172697700Y-116158154D01*
X172697700Y-116302645D01*
X172707583Y-116352330D01*
X172725888Y-116444354D01*
X172725889Y-116444356D01*
X172781182Y-116577845D01*
X172782821Y-116580910D01*
X172783385Y-116583161D01*
X172783550Y-116583560D01*
X172783490Y-116583584D01*
X172797700Y-116640308D01*
X172797700Y-117573967D01*
X172777698Y-117642088D01*
X172760795Y-117663062D01*
X172712384Y-117711472D01*
X172712382Y-117711475D01*
X172572817Y-117903569D01*
X172465019Y-118115135D01*
X172465016Y-118115141D01*
X172391645Y-118340953D01*
X172391644Y-118340958D01*
X172391644Y-118340959D01*
X172354500Y-118575478D01*
X172354500Y-118812922D01*
X172384657Y-119003324D01*
X172391645Y-119047446D01*
X172465016Y-119273258D01*
X172465018Y-119273263D01*
X172572815Y-119484827D01*
X172712380Y-119676922D01*
X172712382Y-119676924D01*
X172712384Y-119676927D01*
X172880272Y-119844815D01*
X172880275Y-119844817D01*
X172880278Y-119844820D01*
X173072373Y-119984385D01*
X173283937Y-120092182D01*
X173509759Y-120165556D01*
X173744278Y-120202700D01*
X173744281Y-120202700D01*
X173981719Y-120202700D01*
X173981722Y-120202700D01*
X174216241Y-120165556D01*
X174442063Y-120092182D01*
X174653627Y-119984385D01*
X174845722Y-119844820D01*
X175013620Y-119676922D01*
X175058964Y-119614510D01*
X175115186Y-119571157D01*
X175185922Y-119565082D01*
X175248714Y-119598213D01*
X175283625Y-119660033D01*
X175286900Y-119688572D01*
X175286900Y-125351367D01*
X175266898Y-125419488D01*
X175213242Y-125465981D01*
X175142968Y-125476085D01*
X175078388Y-125446591D01*
X175071805Y-125440462D01*
X174972727Y-125341384D01*
X174972724Y-125341382D01*
X174972722Y-125341380D01*
X174780627Y-125201815D01*
X174569063Y-125094018D01*
X174569060Y-125094017D01*
X174569058Y-125094016D01*
X174343246Y-125020645D01*
X174343242Y-125020644D01*
X174343241Y-125020644D01*
X174108722Y-124983500D01*
X173871278Y-124983500D01*
X173636759Y-125020644D01*
X173636753Y-125020645D01*
X173410941Y-125094016D01*
X173410935Y-125094019D01*
X173199369Y-125201817D01*
X173007275Y-125341382D01*
X173007272Y-125341384D01*
X172839384Y-125509272D01*
X172839382Y-125509275D01*
X172699817Y-125701369D01*
X172592019Y-125912935D01*
X172592016Y-125912941D01*
X172518645Y-126138753D01*
X172518644Y-126138758D01*
X172518644Y-126138759D01*
X172481500Y-126373278D01*
X172481500Y-126610722D01*
X172514193Y-126817137D01*
X172518645Y-126845246D01*
X172582932Y-127043100D01*
X172592018Y-127071063D01*
X172699815Y-127282627D01*
X172839380Y-127474722D01*
X172839382Y-127474724D01*
X172839384Y-127474727D01*
X173007272Y-127642615D01*
X173007275Y-127642617D01*
X173007278Y-127642620D01*
X173199373Y-127782185D01*
X173410937Y-127889982D01*
X173636759Y-127963356D01*
X173871278Y-128000500D01*
X173871281Y-128000500D01*
X174108719Y-128000500D01*
X174108722Y-128000500D01*
X174343241Y-127963356D01*
X174569063Y-127889982D01*
X174780627Y-127782185D01*
X174972722Y-127642620D01*
X175017336Y-127598006D01*
X175071805Y-127543538D01*
X175134117Y-127509512D01*
X175204932Y-127514577D01*
X175261768Y-127557124D01*
X175286579Y-127623644D01*
X175286900Y-127632633D01*
X175286900Y-144008206D01*
X175266898Y-144076327D01*
X175249995Y-144097301D01*
X168248301Y-151098995D01*
X168185989Y-151133021D01*
X168159206Y-151135900D01*
X168109318Y-151135900D01*
X167999201Y-151157804D01*
X167933800Y-151170813D01*
X167933799Y-151170813D01*
X167933796Y-151170814D01*
X167768462Y-151239299D01*
X167619669Y-151338719D01*
X167619662Y-151338724D01*
X167493124Y-151465262D01*
X167493119Y-151465269D01*
X167393699Y-151614062D01*
X167325214Y-151779396D01*
X167290300Y-151954918D01*
X167290300Y-151954921D01*
X167290300Y-152133879D01*
X167325213Y-152309400D01*
X167393698Y-152474736D01*
X167493122Y-152623535D01*
X167576461Y-152706874D01*
X167610486Y-152769186D01*
X167605420Y-152840002D01*
X167592131Y-152865970D01*
X167546098Y-152934863D01*
X167477614Y-153100196D01*
X167442700Y-153275718D01*
X167442700Y-153275721D01*
X167442700Y-153454679D01*
X167477613Y-153630200D01*
X167546098Y-153795536D01*
X167645522Y-153944335D01*
X167772065Y-154070878D01*
X167920864Y-154170302D01*
X168086200Y-154238787D01*
X168261721Y-154273700D01*
X168261722Y-154273700D01*
X168440678Y-154273700D01*
X168440679Y-154273700D01*
X168616200Y-154238787D01*
X168781536Y-154170302D01*
X168930335Y-154070878D01*
X169056878Y-153944335D01*
X169156302Y-153795536D01*
X169224787Y-153630200D01*
X169259700Y-153454679D01*
X169259700Y-153404794D01*
X169279702Y-153336673D01*
X169296605Y-153315699D01*
X173161006Y-149451298D01*
X177026763Y-145585540D01*
X177089073Y-145551516D01*
X177159888Y-145556581D01*
X177216724Y-145599128D01*
X177241535Y-145665648D01*
X177241856Y-145674353D01*
X177261629Y-154445337D01*
X177241780Y-154513503D01*
X177188230Y-154560116D01*
X177135581Y-154571621D01*
X78104579Y-154533648D01*
X78036466Y-154513620D01*
X77989993Y-154459946D01*
X77978629Y-154407021D01*
X77979466Y-154238785D01*
X78013132Y-147468686D01*
X82337500Y-147468686D01*
X82337500Y-147811313D01*
X82375861Y-148151786D01*
X82452104Y-148485823D01*
X82565257Y-148809197D01*
X82565268Y-148809224D01*
X82713921Y-149117905D01*
X82713926Y-149117914D01*
X82896211Y-149408018D01*
X83109836Y-149675896D01*
X83352103Y-149918163D01*
X83421515Y-149973517D01*
X83619982Y-150131789D01*
X83910090Y-150314076D01*
X84218785Y-150462736D01*
X84218801Y-150462741D01*
X84218802Y-150462742D01*
X84542176Y-150575895D01*
X84542179Y-150575895D01*
X84542183Y-150575897D01*
X84876213Y-150652138D01*
X84876214Y-150652138D01*
X84876217Y-150652139D01*
X85077016Y-150674763D01*
X85216686Y-150690500D01*
X85216688Y-150690500D01*
X85559314Y-150690500D01*
X85645778Y-150680757D01*
X85899783Y-150652139D01*
X86233817Y-150575897D01*
X86557215Y-150462736D01*
X86865910Y-150314076D01*
X87156018Y-150131789D01*
X87423893Y-149918166D01*
X87666166Y-149675893D01*
X87879789Y-149408018D01*
X88062076Y-149117910D01*
X88210736Y-148809215D01*
X88323897Y-148485817D01*
X88400139Y-148151783D01*
X88438500Y-147811312D01*
X88438500Y-147468688D01*
X88437552Y-147460277D01*
X88407603Y-147194464D01*
X88400139Y-147128217D01*
X88323897Y-146794183D01*
X88323017Y-146791669D01*
X88210742Y-146470802D01*
X88210741Y-146470801D01*
X88210736Y-146470785D01*
X88062076Y-146162090D01*
X87879789Y-145871982D01*
X87666166Y-145604107D01*
X87666163Y-145604103D01*
X87423896Y-145361836D01*
X87156018Y-145148211D01*
X86865914Y-144965926D01*
X86865905Y-144965921D01*
X86557224Y-144817268D01*
X86557219Y-144817266D01*
X86557215Y-144817264D01*
X86557209Y-144817261D01*
X86557197Y-144817257D01*
X86233823Y-144704104D01*
X85899785Y-144627861D01*
X85899788Y-144627861D01*
X85559314Y-144589500D01*
X85559312Y-144589500D01*
X85216688Y-144589500D01*
X85216686Y-144589500D01*
X84876213Y-144627861D01*
X84542176Y-144704104D01*
X84218802Y-144817257D01*
X84218775Y-144817268D01*
X83910094Y-144965921D01*
X83910085Y-144965926D01*
X83619981Y-145148211D01*
X83352103Y-145361836D01*
X83109836Y-145604103D01*
X82896211Y-145871981D01*
X82713926Y-146162085D01*
X82713921Y-146162094D01*
X82565268Y-146470775D01*
X82565257Y-146470802D01*
X82452104Y-146794176D01*
X82375861Y-147128213D01*
X82337500Y-147468686D01*
X78013132Y-147468686D01*
X78251824Y-99468686D01*
X82337500Y-99468686D01*
X82337500Y-99811313D01*
X82375861Y-100151786D01*
X82452104Y-100485823D01*
X82565257Y-100809197D01*
X82565268Y-100809224D01*
X82713921Y-101117905D01*
X82713926Y-101117914D01*
X82896211Y-101408018D01*
X83109836Y-101675896D01*
X83352103Y-101918163D01*
X83377426Y-101938357D01*
X83619982Y-102131789D01*
X83750110Y-102213554D01*
X83889618Y-102301213D01*
X83910090Y-102314076D01*
X84218785Y-102462736D01*
X84218801Y-102462741D01*
X84218802Y-102462742D01*
X84542176Y-102575895D01*
X84542179Y-102575895D01*
X84542183Y-102575897D01*
X84876213Y-102652138D01*
X84876214Y-102652138D01*
X84876217Y-102652139D01*
X85077016Y-102674763D01*
X85216686Y-102690500D01*
X85216688Y-102690500D01*
X85559314Y-102690500D01*
X85645778Y-102680757D01*
X85899783Y-102652139D01*
X86233817Y-102575897D01*
X86249510Y-102570406D01*
X86332273Y-102541446D01*
X86557215Y-102462736D01*
X86865910Y-102314076D01*
X87156018Y-102131789D01*
X87423893Y-101918166D01*
X87666166Y-101675893D01*
X87879789Y-101408018D01*
X88062076Y-101117910D01*
X88178978Y-100875160D01*
X88226556Y-100822465D01*
X88295070Y-100803856D01*
X88362769Y-100825244D01*
X88408157Y-100879837D01*
X88418500Y-100929830D01*
X88418500Y-121581689D01*
X88398498Y-121649810D01*
X88344842Y-121696303D01*
X88340719Y-121698097D01*
X88215668Y-121749895D01*
X88215664Y-121749897D01*
X88066869Y-121849319D01*
X88066862Y-121849324D01*
X87940324Y-121975862D01*
X87940319Y-121975869D01*
X87840899Y-122124662D01*
X87772414Y-122289996D01*
X87772413Y-122289999D01*
X87772413Y-122290000D01*
X87766023Y-122322125D01*
X87737500Y-122465518D01*
X87737500Y-122644481D01*
X87746950Y-122691987D01*
X87767514Y-122795372D01*
X87772414Y-122820003D01*
X87781235Y-122841298D01*
X87840898Y-122985336D01*
X87940322Y-123134135D01*
X88066865Y-123260678D01*
X88215664Y-123360102D01*
X88370861Y-123424387D01*
X88426142Y-123468936D01*
X88448563Y-123536299D01*
X88439052Y-123589013D01*
X88417847Y-123640207D01*
X88393500Y-123762603D01*
X88393500Y-124647484D01*
X88373498Y-124715605D01*
X88319842Y-124762098D01*
X88315719Y-124763893D01*
X88202962Y-124810599D01*
X88054169Y-124910019D01*
X88054162Y-124910024D01*
X87927624Y-125036562D01*
X87927619Y-125036569D01*
X87828199Y-125185362D01*
X87759714Y-125350696D01*
X87759713Y-125350699D01*
X87759713Y-125350700D01*
X87750807Y-125395471D01*
X87724800Y-125526218D01*
X87724800Y-125705181D01*
X87742138Y-125792345D01*
X87759713Y-125880700D01*
X87828198Y-126046036D01*
X87927622Y-126194835D01*
X88054165Y-126321378D01*
X88202964Y-126420802D01*
X88368300Y-126489287D01*
X88543821Y-126524200D01*
X88543822Y-126524200D01*
X88722778Y-126524200D01*
X88722779Y-126524200D01*
X88898300Y-126489287D01*
X89063636Y-126420802D01*
X89212435Y-126321378D01*
X89338978Y-126194835D01*
X89438402Y-126046036D01*
X89506887Y-125880700D01*
X89541800Y-125705179D01*
X89541800Y-125630038D01*
X89561802Y-125561917D01*
X89563036Y-125560035D01*
X89581553Y-125532322D01*
X89588400Y-125522075D01*
X89636155Y-125406785D01*
X89660500Y-125284394D01*
X89660500Y-125159606D01*
X89660500Y-124987826D01*
X89680502Y-124919705D01*
X89734158Y-124873212D01*
X89804432Y-124863108D01*
X89869012Y-124892602D01*
X89891265Y-124917824D01*
X89972318Y-125039130D01*
X89972322Y-125039135D01*
X90098865Y-125165678D01*
X90247664Y-125265102D01*
X90413000Y-125333587D01*
X90588521Y-125368500D01*
X90588522Y-125368500D01*
X90767478Y-125368500D01*
X90767479Y-125368500D01*
X90943000Y-125333587D01*
X91108336Y-125265102D01*
X91257135Y-125165678D01*
X91383678Y-125039135D01*
X91483102Y-124890336D01*
X91551587Y-124725000D01*
X91586500Y-124549479D01*
X91586500Y-124370521D01*
X91551587Y-124195000D01*
X91483102Y-124029664D01*
X91383678Y-123880865D01*
X91348405Y-123845592D01*
X91314379Y-123783280D01*
X91311500Y-123756497D01*
X91311500Y-121345594D01*
X91331502Y-121277473D01*
X91348405Y-121256499D01*
X95237309Y-117367595D01*
X99171072Y-113433833D01*
X99240401Y-113330075D01*
X99288155Y-113214784D01*
X99312500Y-113092393D01*
X99312500Y-112967606D01*
X99289920Y-112854092D01*
X99287500Y-112829512D01*
X99287500Y-99468686D01*
X115337500Y-99468686D01*
X115337500Y-99811313D01*
X115375861Y-100151786D01*
X115452104Y-100485823D01*
X115565257Y-100809197D01*
X115565268Y-100809224D01*
X115713921Y-101117905D01*
X115713926Y-101117914D01*
X115896211Y-101408018D01*
X116109836Y-101675896D01*
X116352103Y-101918163D01*
X116377426Y-101938357D01*
X116619982Y-102131789D01*
X116750110Y-102213554D01*
X116889618Y-102301213D01*
X116910090Y-102314076D01*
X117218785Y-102462736D01*
X117218801Y-102462741D01*
X117218802Y-102462742D01*
X117542176Y-102575895D01*
X117542179Y-102575895D01*
X117542183Y-102575897D01*
X117876213Y-102652138D01*
X117876214Y-102652138D01*
X117876217Y-102652139D01*
X118077016Y-102674763D01*
X118216686Y-102690500D01*
X118216688Y-102690500D01*
X118559314Y-102690500D01*
X118645778Y-102680757D01*
X118899783Y-102652139D01*
X119233817Y-102575897D01*
X119249510Y-102570406D01*
X119332273Y-102541446D01*
X119557215Y-102462736D01*
X119865910Y-102314076D01*
X120156018Y-102131789D01*
X120423893Y-101918166D01*
X120666166Y-101675893D01*
X120879789Y-101408018D01*
X121062076Y-101117910D01*
X121210736Y-100809215D01*
X121323897Y-100485817D01*
X121400139Y-100151783D01*
X121438500Y-99811312D01*
X121438500Y-99468688D01*
X121400139Y-99128217D01*
X121323897Y-98794183D01*
X121210736Y-98470785D01*
X121062076Y-98162090D01*
X120879789Y-97871982D01*
X120666166Y-97604107D01*
X120666163Y-97604103D01*
X120423896Y-97361836D01*
X120156018Y-97148211D01*
X119865914Y-96965926D01*
X119865905Y-96965921D01*
X119557224Y-96817268D01*
X119557219Y-96817266D01*
X119557215Y-96817264D01*
X119557209Y-96817261D01*
X119557197Y-96817257D01*
X119233823Y-96704104D01*
X118899785Y-96627861D01*
X118899788Y-96627861D01*
X118559314Y-96589500D01*
X118559312Y-96589500D01*
X118216688Y-96589500D01*
X118216686Y-96589500D01*
X117876213Y-96627861D01*
X117542176Y-96704104D01*
X117218802Y-96817257D01*
X117218775Y-96817268D01*
X116910094Y-96965921D01*
X116910085Y-96965926D01*
X116619981Y-97148211D01*
X116352103Y-97361836D01*
X116109836Y-97604103D01*
X115896211Y-97871981D01*
X115713926Y-98162085D01*
X115713921Y-98162094D01*
X115565268Y-98470775D01*
X115565257Y-98470802D01*
X115452104Y-98794176D01*
X115375861Y-99128213D01*
X115337500Y-99468686D01*
X99287500Y-99468686D01*
X99287500Y-95597503D01*
X99307502Y-95529382D01*
X99324405Y-95508408D01*
X99344228Y-95488585D01*
X99384678Y-95448135D01*
X99484102Y-95299336D01*
X99552587Y-95134000D01*
X99587500Y-94958479D01*
X99587500Y-94779521D01*
X99552587Y-94604000D01*
X99484102Y-94438664D01*
X99384678Y-94289865D01*
X99258135Y-94163322D01*
X99109336Y-94063898D01*
X98992429Y-94015473D01*
X98944003Y-93995414D01*
X98944001Y-93995413D01*
X98944000Y-93995413D01*
X98853306Y-93977373D01*
X98768481Y-93960500D01*
X98768479Y-93960500D01*
X98589521Y-93960500D01*
X98589518Y-93960500D01*
X98458771Y-93986507D01*
X98414000Y-93995413D01*
X98413999Y-93995413D01*
X98413996Y-93995414D01*
X98248662Y-94063899D01*
X98099869Y-94163319D01*
X98099862Y-94163324D01*
X97973324Y-94289862D01*
X97973319Y-94289869D01*
X97873899Y-94438662D01*
X97805414Y-94603996D01*
X97770500Y-94779518D01*
X97770500Y-94779521D01*
X97770500Y-94958479D01*
X97805413Y-95134000D01*
X97873898Y-95299336D01*
X97973322Y-95448135D01*
X97973324Y-95448137D01*
X98033595Y-95508408D01*
X98067621Y-95570720D01*
X98070500Y-95597503D01*
X98070500Y-112690405D01*
X98050498Y-112758526D01*
X98033595Y-112779500D01*
X93660595Y-117152500D01*
X93598283Y-117186526D01*
X93527468Y-117181461D01*
X93470632Y-117138914D01*
X93445821Y-117072394D01*
X93445500Y-117063405D01*
X93445500Y-95851503D01*
X93465502Y-95783382D01*
X93482405Y-95762408D01*
X93505229Y-95739584D01*
X93542678Y-95702135D01*
X93642102Y-95553336D01*
X93710587Y-95388000D01*
X93745500Y-95212479D01*
X93745500Y-95033521D01*
X93710587Y-94858000D01*
X93642102Y-94692664D01*
X93542678Y-94543865D01*
X93416135Y-94417322D01*
X93267336Y-94317898D01*
X93150429Y-94269473D01*
X93102003Y-94249414D01*
X93102001Y-94249413D01*
X93102000Y-94249413D01*
X92996737Y-94228475D01*
X92926481Y-94214500D01*
X92926479Y-94214500D01*
X92747521Y-94214500D01*
X92747518Y-94214500D01*
X92616771Y-94240507D01*
X92572000Y-94249413D01*
X92571999Y-94249413D01*
X92571996Y-94249414D01*
X92406662Y-94317899D01*
X92257869Y-94417319D01*
X92257862Y-94417324D01*
X92131324Y-94543862D01*
X92131319Y-94543869D01*
X92031899Y-94692662D01*
X91963414Y-94857996D01*
X91963413Y-94857999D01*
X91963413Y-94858000D01*
X91959037Y-94880000D01*
X91928500Y-95033518D01*
X91928500Y-95212481D01*
X91933657Y-95238406D01*
X91963413Y-95388000D01*
X92031898Y-95553336D01*
X92131322Y-95702135D01*
X92131324Y-95702137D01*
X92191595Y-95762408D01*
X92225621Y-95824720D01*
X92228500Y-95851503D01*
X92228500Y-117516406D01*
X92208498Y-117584527D01*
X92191595Y-117605501D01*
X89850595Y-119946501D01*
X89788283Y-119980527D01*
X89717468Y-119975462D01*
X89660632Y-119932915D01*
X89635821Y-119866395D01*
X89635500Y-119857406D01*
X89635500Y-95804890D01*
X89600456Y-95674102D01*
X89600456Y-95674101D01*
X89598490Y-95666766D01*
X89594032Y-95650127D01*
X89524319Y-95529382D01*
X89513923Y-95511375D01*
X89513915Y-95511365D01*
X86543405Y-92540855D01*
X86509379Y-92478543D01*
X86506500Y-92451760D01*
X86506500Y-92366522D01*
X86506499Y-92366518D01*
X86471587Y-92191000D01*
X86403102Y-92025664D01*
X86303678Y-91876865D01*
X86177135Y-91750322D01*
X86028336Y-91650898D01*
X85911429Y-91602473D01*
X85863003Y-91582414D01*
X85863001Y-91582413D01*
X85863000Y-91582413D01*
X85741197Y-91558185D01*
X85687481Y-91547500D01*
X85687479Y-91547500D01*
X85508521Y-91547500D01*
X85508518Y-91547500D01*
X85377771Y-91573507D01*
X85333000Y-91582413D01*
X85332999Y-91582413D01*
X85332996Y-91582414D01*
X85252262Y-91615856D01*
X85172913Y-91648724D01*
X85167662Y-91650899D01*
X85018869Y-91750319D01*
X85018862Y-91750324D01*
X84892324Y-91876862D01*
X84892319Y-91876869D01*
X84804514Y-92008280D01*
X84792898Y-92025664D01*
X84785272Y-92044075D01*
X84724414Y-92190996D01*
X84724413Y-92190999D01*
X84724413Y-92191000D01*
X84718211Y-92222182D01*
X84689500Y-92366518D01*
X84689500Y-92366521D01*
X84689500Y-92545479D01*
X84724413Y-92721000D01*
X84792898Y-92886336D01*
X84892322Y-93035135D01*
X85018865Y-93161678D01*
X85167664Y-93261102D01*
X85333000Y-93329587D01*
X85508521Y-93364500D01*
X85593761Y-93364500D01*
X85661882Y-93384502D01*
X85682856Y-93401405D01*
X88381595Y-96100144D01*
X88415621Y-96162456D01*
X88418500Y-96189239D01*
X88418500Y-98350169D01*
X88398498Y-98418290D01*
X88344842Y-98464783D01*
X88274568Y-98474887D01*
X88209988Y-98445393D01*
X88178978Y-98404839D01*
X88152650Y-98350169D01*
X88062076Y-98162090D01*
X87879789Y-97871982D01*
X87666166Y-97604107D01*
X87666163Y-97604103D01*
X87423896Y-97361836D01*
X87156018Y-97148211D01*
X86865914Y-96965926D01*
X86865905Y-96965921D01*
X86557224Y-96817268D01*
X86557219Y-96817266D01*
X86557215Y-96817264D01*
X86557209Y-96817261D01*
X86557197Y-96817257D01*
X86233823Y-96704104D01*
X85899785Y-96627861D01*
X85899788Y-96627861D01*
X85559314Y-96589500D01*
X85559312Y-96589500D01*
X85216688Y-96589500D01*
X85216686Y-96589500D01*
X84876213Y-96627861D01*
X84542176Y-96704104D01*
X84218802Y-96817257D01*
X84218775Y-96817268D01*
X83910094Y-96965921D01*
X83910085Y-96965926D01*
X83619981Y-97148211D01*
X83352103Y-97361836D01*
X83109836Y-97604103D01*
X82896211Y-97871981D01*
X82713926Y-98162085D01*
X82713921Y-98162094D01*
X82565268Y-98470775D01*
X82565257Y-98470802D01*
X82452104Y-98794176D01*
X82375861Y-99128213D01*
X82337500Y-99468686D01*
X78251824Y-99468686D01*
X78294865Y-90813278D01*
X81422500Y-90813278D01*
X81422500Y-91050722D01*
X81453143Y-91244193D01*
X81459645Y-91285246D01*
X81527747Y-91494842D01*
X81533018Y-91511063D01*
X81626171Y-91693886D01*
X81640817Y-91722630D01*
X81660938Y-91750324D01*
X81780380Y-91914722D01*
X81780382Y-91914724D01*
X81780384Y-91914727D01*
X81948272Y-92082615D01*
X81948275Y-92082617D01*
X81948278Y-92082620D01*
X82140373Y-92222185D01*
X82351937Y-92329982D01*
X82577759Y-92403356D01*
X82812278Y-92440500D01*
X82812281Y-92440500D01*
X83049719Y-92440500D01*
X83049722Y-92440500D01*
X83284241Y-92403356D01*
X83510063Y-92329982D01*
X83721627Y-92222185D01*
X83913722Y-92082620D01*
X84081620Y-91914722D01*
X84221185Y-91722627D01*
X84328982Y-91511063D01*
X84402356Y-91285241D01*
X84439500Y-91050722D01*
X84439500Y-90940278D01*
X86629500Y-90940278D01*
X86629500Y-91177722D01*
X86662160Y-91383930D01*
X86666645Y-91412246D01*
X86740016Y-91638058D01*
X86740018Y-91638063D01*
X86847815Y-91849627D01*
X86847817Y-91849630D01*
X86867607Y-91876869D01*
X86987380Y-92041722D01*
X86987382Y-92041724D01*
X86987384Y-92041727D01*
X87155272Y-92209615D01*
X87155275Y-92209617D01*
X87155278Y-92209620D01*
X87347373Y-92349185D01*
X87558937Y-92456982D01*
X87784759Y-92530356D01*
X88019278Y-92567500D01*
X88019281Y-92567500D01*
X88256719Y-92567500D01*
X88256722Y-92567500D01*
X88491241Y-92530356D01*
X88717063Y-92456982D01*
X88928627Y-92349185D01*
X89120722Y-92209620D01*
X89288620Y-92041722D01*
X89428185Y-91849627D01*
X89535982Y-91638063D01*
X89609356Y-91412241D01*
X89646500Y-91177722D01*
X89646500Y-90940278D01*
X89626385Y-90813278D01*
X91582500Y-90813278D01*
X91582500Y-91050722D01*
X91613143Y-91244193D01*
X91619645Y-91285246D01*
X91687747Y-91494842D01*
X91693018Y-91511063D01*
X91786171Y-91693886D01*
X91800817Y-91722630D01*
X91820938Y-91750324D01*
X91940380Y-91914722D01*
X91940382Y-91914724D01*
X91940384Y-91914727D01*
X92108272Y-92082615D01*
X92108275Y-92082617D01*
X92108278Y-92082620D01*
X92300373Y-92222185D01*
X92511937Y-92329982D01*
X92737759Y-92403356D01*
X92972278Y-92440500D01*
X92972281Y-92440500D01*
X93209719Y-92440500D01*
X93209722Y-92440500D01*
X93444241Y-92403356D01*
X93670063Y-92329982D01*
X93881627Y-92222185D01*
X94073722Y-92082620D01*
X94241620Y-91914722D01*
X94381185Y-91722627D01*
X94488982Y-91511063D01*
X94562356Y-91285241D01*
X94599500Y-91050722D01*
X94599500Y-90813278D01*
X97551500Y-90813278D01*
X97551500Y-91050722D01*
X97582143Y-91244193D01*
X97588645Y-91285246D01*
X97656747Y-91494842D01*
X97662018Y-91511063D01*
X97755171Y-91693886D01*
X97769817Y-91722630D01*
X97789938Y-91750324D01*
X97909380Y-91914722D01*
X97909382Y-91914724D01*
X97909384Y-91914727D01*
X98077272Y-92082615D01*
X98077275Y-92082617D01*
X98077278Y-92082620D01*
X98269373Y-92222185D01*
X98480937Y-92329982D01*
X98706759Y-92403356D01*
X98941278Y-92440500D01*
X98941281Y-92440500D01*
X99178719Y-92440500D01*
X99178722Y-92440500D01*
X99413241Y-92403356D01*
X99639063Y-92329982D01*
X99850627Y-92222185D01*
X100042722Y-92082620D01*
X100210620Y-91914722D01*
X100350185Y-91722627D01*
X100457982Y-91511063D01*
X100531356Y-91285241D01*
X100568500Y-91050722D01*
X100568500Y-90813278D01*
X100531356Y-90578759D01*
X100457982Y-90352937D01*
X100350185Y-90141373D01*
X100210620Y-89949278D01*
X100210617Y-89949275D01*
X100210615Y-89949272D01*
X100042727Y-89781384D01*
X100042724Y-89781382D01*
X100042722Y-89781380D01*
X99850627Y-89641815D01*
X99639063Y-89534018D01*
X99639060Y-89534017D01*
X99639058Y-89534016D01*
X99413246Y-89460645D01*
X99413242Y-89460644D01*
X99413241Y-89460644D01*
X99178722Y-89423500D01*
X98941278Y-89423500D01*
X98706759Y-89460644D01*
X98706753Y-89460645D01*
X98480941Y-89534016D01*
X98480935Y-89534019D01*
X98269369Y-89641817D01*
X98077275Y-89781382D01*
X98077272Y-89781384D01*
X97909384Y-89949272D01*
X97909382Y-89949275D01*
X97769817Y-90141369D01*
X97662019Y-90352935D01*
X97662016Y-90352941D01*
X97588645Y-90578753D01*
X97588644Y-90578758D01*
X97588644Y-90578759D01*
X97551500Y-90813278D01*
X94599500Y-90813278D01*
X94562356Y-90578759D01*
X94488982Y-90352937D01*
X94381185Y-90141373D01*
X94241620Y-89949278D01*
X94241617Y-89949275D01*
X94241615Y-89949272D01*
X94073727Y-89781384D01*
X94073724Y-89781382D01*
X94073722Y-89781380D01*
X93881627Y-89641815D01*
X93670063Y-89534018D01*
X93670060Y-89534017D01*
X93670058Y-89534016D01*
X93444246Y-89460645D01*
X93444242Y-89460644D01*
X93444241Y-89460644D01*
X93209722Y-89423500D01*
X92972278Y-89423500D01*
X92737759Y-89460644D01*
X92737753Y-89460645D01*
X92511941Y-89534016D01*
X92511935Y-89534019D01*
X92300369Y-89641817D01*
X92108275Y-89781382D01*
X92108272Y-89781384D01*
X91940384Y-89949272D01*
X91940382Y-89949275D01*
X91800817Y-90141369D01*
X91693019Y-90352935D01*
X91693016Y-90352941D01*
X91619645Y-90578753D01*
X91619644Y-90578758D01*
X91619644Y-90578759D01*
X91582500Y-90813278D01*
X89626385Y-90813278D01*
X89609356Y-90705759D01*
X89535982Y-90479937D01*
X89428185Y-90268373D01*
X89288620Y-90076278D01*
X89288617Y-90076275D01*
X89288615Y-90076272D01*
X89120727Y-89908384D01*
X89120724Y-89908382D01*
X89120722Y-89908380D01*
X88928627Y-89768815D01*
X88717063Y-89661018D01*
X88717060Y-89661017D01*
X88717058Y-89661016D01*
X88491246Y-89587645D01*
X88491242Y-89587644D01*
X88491241Y-89587644D01*
X88256722Y-89550500D01*
X88019278Y-89550500D01*
X87784759Y-89587644D01*
X87784753Y-89587645D01*
X87558941Y-89661016D01*
X87558935Y-89661019D01*
X87347369Y-89768817D01*
X87155275Y-89908382D01*
X87155272Y-89908384D01*
X86987384Y-90076272D01*
X86987382Y-90076275D01*
X86847817Y-90268369D01*
X86740019Y-90479935D01*
X86740016Y-90479941D01*
X86666645Y-90705753D01*
X86666644Y-90705758D01*
X86666644Y-90705759D01*
X86629500Y-90940278D01*
X84439500Y-90940278D01*
X84439500Y-90813278D01*
X84402356Y-90578759D01*
X84328982Y-90352937D01*
X84221185Y-90141373D01*
X84081620Y-89949278D01*
X84081617Y-89949275D01*
X84081615Y-89949272D01*
X83913727Y-89781384D01*
X83913724Y-89781382D01*
X83913722Y-89781380D01*
X83721627Y-89641815D01*
X83510063Y-89534018D01*
X83510060Y-89534017D01*
X83510058Y-89534016D01*
X83284246Y-89460645D01*
X83284242Y-89460644D01*
X83284241Y-89460644D01*
X83049722Y-89423500D01*
X82812278Y-89423500D01*
X82577759Y-89460644D01*
X82577753Y-89460645D01*
X82351941Y-89534016D01*
X82351935Y-89534019D01*
X82140369Y-89641817D01*
X81948275Y-89781382D01*
X81948272Y-89781384D01*
X81780384Y-89949272D01*
X81780382Y-89949275D01*
X81640817Y-90141369D01*
X81533019Y-90352935D01*
X81533016Y-90352941D01*
X81459645Y-90578753D01*
X81459644Y-90578758D01*
X81459644Y-90578759D01*
X81422500Y-90813278D01*
X78294865Y-90813278D01*
X78470170Y-55560019D01*
X78490510Y-55492002D01*
X78544396Y-55445777D01*
X78595920Y-55434649D01*
X86951868Y-55418552D01*
X87020024Y-55438422D01*
X87066621Y-55491988D01*
X87076860Y-55562242D01*
X87047491Y-55626880D01*
X87041203Y-55633646D01*
X84785798Y-57889051D01*
X84723486Y-57923077D01*
X84657769Y-57919790D01*
X84620717Y-57907751D01*
X84567916Y-57899388D01*
X84409516Y-57874300D01*
X84195684Y-57874300D01*
X83984484Y-57907751D01*
X83984478Y-57907752D01*
X83781121Y-57973826D01*
X83781115Y-57973829D01*
X83590587Y-58070908D01*
X83417593Y-58196596D01*
X83417590Y-58196598D01*
X83266398Y-58347790D01*
X83266396Y-58347793D01*
X83140708Y-58520787D01*
X83043629Y-58711315D01*
X83043626Y-58711321D01*
X82977552Y-58914678D01*
X82977551Y-58914683D01*
X82977551Y-58914684D01*
X82944100Y-59125884D01*
X82944100Y-59339716D01*
X82967452Y-59487154D01*
X82977552Y-59550921D01*
X83037601Y-59735735D01*
X83043628Y-59754283D01*
X83140706Y-59944809D01*
X83266394Y-60117804D01*
X83266396Y-60117806D01*
X83266398Y-60117809D01*
X83421096Y-60272507D01*
X83419847Y-60273755D01*
X83454494Y-60326807D01*
X83455014Y-60397802D01*
X83417069Y-60457808D01*
X83385694Y-60475825D01*
X83386514Y-60477583D01*
X83379866Y-60480683D01*
X83379863Y-60480684D01*
X83379862Y-60480685D01*
X83359553Y-60493212D01*
X83228947Y-60573770D01*
X83228941Y-60573775D01*
X83103575Y-60699141D01*
X83103570Y-60699147D01*
X83010485Y-60850062D01*
X82954713Y-61018372D01*
X82954712Y-61018379D01*
X82944100Y-61122246D01*
X82944100Y-62423344D01*
X82954712Y-62527225D01*
X83010485Y-62695538D01*
X83103570Y-62846452D01*
X83103575Y-62846458D01*
X83228941Y-62971824D01*
X83228947Y-62971829D01*
X83228948Y-62971830D01*
X83379862Y-63064915D01*
X83548174Y-63120687D01*
X83652055Y-63131300D01*
X84953144Y-63131299D01*
X85057026Y-63120687D01*
X85225338Y-63064915D01*
X85376252Y-62971830D01*
X85501630Y-62846452D01*
X85594715Y-62695538D01*
X85620654Y-62617255D01*
X85624286Y-62609776D01*
X85642784Y-62589418D01*
X85658441Y-62566803D01*
X85666305Y-62563533D01*
X85672031Y-62557232D01*
X85698595Y-62550107D01*
X85711409Y-62544779D01*
X86358441Y-61897747D01*
X86376675Y-61965793D01*
X86442501Y-62079807D01*
X86535593Y-62172899D01*
X86649607Y-62238725D01*
X86717651Y-62256957D01*
X86078431Y-62896178D01*
X86130849Y-62934263D01*
X86130851Y-62934264D01*
X86321307Y-63031306D01*
X86321313Y-63031309D01*
X86524596Y-63097359D01*
X86735726Y-63130800D01*
X86949474Y-63130800D01*
X87160603Y-63097359D01*
X87363886Y-63031309D01*
X87363892Y-63031306D01*
X87554350Y-62934263D01*
X87606767Y-62896178D01*
X87606767Y-62896176D01*
X86967548Y-62256957D01*
X87035593Y-62238725D01*
X87149607Y-62172899D01*
X87242699Y-62079807D01*
X87308525Y-61965793D01*
X87326757Y-61897748D01*
X87965976Y-62536967D01*
X87965978Y-62536967D01*
X88004063Y-62484550D01*
X88005162Y-62482758D01*
X88005758Y-62482218D01*
X88006977Y-62480541D01*
X88007329Y-62480796D01*
X88057806Y-62435122D01*
X88127846Y-62423510D01*
X88193046Y-62451608D01*
X88218159Y-62480588D01*
X88218224Y-62480542D01*
X88218765Y-62481287D01*
X88220033Y-62482750D01*
X88221135Y-62484549D01*
X88259220Y-62536967D01*
X88259221Y-62536968D01*
X88898441Y-61897747D01*
X88916675Y-61965793D01*
X88982501Y-62079807D01*
X89075593Y-62172899D01*
X89189607Y-62238725D01*
X89257651Y-62256957D01*
X88618431Y-62896178D01*
X88670849Y-62934263D01*
X88670851Y-62934264D01*
X88861307Y-63031306D01*
X88861313Y-63031309D01*
X89064596Y-63097359D01*
X89275726Y-63130800D01*
X89489474Y-63130800D01*
X89700603Y-63097359D01*
X89903886Y-63031309D01*
X89903892Y-63031306D01*
X90094350Y-62934263D01*
X90146767Y-62896178D01*
X90146767Y-62896176D01*
X89507548Y-62256957D01*
X89575593Y-62238725D01*
X89689607Y-62172899D01*
X89782699Y-62079807D01*
X89848525Y-61965793D01*
X89866757Y-61897748D01*
X90505976Y-62536967D01*
X90505978Y-62536967D01*
X90544059Y-62484556D01*
X90544859Y-62483251D01*
X90545294Y-62482857D01*
X90546977Y-62480541D01*
X90547463Y-62480894D01*
X90597497Y-62435609D01*
X90667536Y-62423988D01*
X90732740Y-62452078D01*
X90757697Y-62480875D01*
X90757796Y-62480804D01*
X90758625Y-62481945D01*
X90759736Y-62483227D01*
X90760703Y-62484806D01*
X90813324Y-62557232D01*
X90886394Y-62657804D01*
X90886396Y-62657806D01*
X90886398Y-62657809D01*
X91037590Y-62809001D01*
X91037593Y-62809003D01*
X91037596Y-62809006D01*
X91210591Y-62934694D01*
X91401117Y-63031772D01*
X91604478Y-63097847D01*
X91604479Y-63097847D01*
X91604484Y-63097849D01*
X91815684Y-63131300D01*
X91815687Y-63131300D01*
X92029513Y-63131300D01*
X92029516Y-63131300D01*
X92240716Y-63097849D01*
X92444083Y-63031772D01*
X92634609Y-62934694D01*
X92807604Y-62809006D01*
X92958806Y-62657804D01*
X93084494Y-62484809D01*
X93084502Y-62484792D01*
X93085454Y-62483241D01*
X93085977Y-62482767D01*
X93087404Y-62480804D01*
X93087816Y-62481103D01*
X93138097Y-62435604D01*
X93208137Y-62423989D01*
X93273338Y-62452085D01*
X93298085Y-62480642D01*
X93298224Y-62480542D01*
X93299394Y-62482153D01*
X93300326Y-62483228D01*
X93301136Y-62484550D01*
X93339220Y-62536967D01*
X93339221Y-62536968D01*
X93978441Y-61897747D01*
X93996675Y-61965793D01*
X94062501Y-62079807D01*
X94155593Y-62172899D01*
X94269607Y-62238725D01*
X94337650Y-62256957D01*
X93698430Y-62896177D01*
X93698431Y-62896178D01*
X93750849Y-62934263D01*
X93750851Y-62934264D01*
X93941307Y-63031306D01*
X93941313Y-63031309D01*
X94144596Y-63097359D01*
X94355726Y-63130800D01*
X94569474Y-63130800D01*
X94761571Y-63100374D01*
X94831982Y-63109473D01*
X94886296Y-63155195D01*
X94907269Y-63223023D01*
X94888242Y-63291423D01*
X94870377Y-63313918D01*
X89943967Y-68240329D01*
X89855731Y-68328564D01*
X89855726Y-68328571D01*
X89787827Y-68430190D01*
X89786400Y-68432325D01*
X89782856Y-68440881D01*
X89738646Y-68547612D01*
X89714300Y-68670003D01*
X89714300Y-71816267D01*
X89694298Y-71884388D01*
X89640642Y-71930881D01*
X89570368Y-71940985D01*
X89514239Y-71918203D01*
X89436630Y-71861817D01*
X89436629Y-71861816D01*
X89436627Y-71861815D01*
X89225063Y-71754018D01*
X89225060Y-71754017D01*
X89225058Y-71754016D01*
X88999246Y-71680645D01*
X88999242Y-71680644D01*
X88999241Y-71680644D01*
X88764722Y-71643500D01*
X88527278Y-71643500D01*
X88292759Y-71680644D01*
X88292753Y-71680645D01*
X88066941Y-71754016D01*
X88066935Y-71754019D01*
X87855369Y-71861817D01*
X87663275Y-72001382D01*
X87663272Y-72001384D01*
X87495384Y-72169272D01*
X87495382Y-72169275D01*
X87355817Y-72361369D01*
X87248019Y-72572935D01*
X87248016Y-72572941D01*
X87174645Y-72798753D01*
X87174644Y-72798758D01*
X87174644Y-72798759D01*
X87137500Y-73033278D01*
X87137500Y-73270722D01*
X87174644Y-73505241D01*
X87174645Y-73505246D01*
X87243228Y-73716322D01*
X87248018Y-73731063D01*
X87355815Y-73942627D01*
X87495380Y-74134722D01*
X87495382Y-74134724D01*
X87495384Y-74134727D01*
X87663272Y-74302615D01*
X87663275Y-74302617D01*
X87663278Y-74302620D01*
X87855373Y-74442185D01*
X88066937Y-74549982D01*
X88292759Y-74623356D01*
X88527278Y-74660500D01*
X88527281Y-74660500D01*
X88764719Y-74660500D01*
X88764722Y-74660500D01*
X88999241Y-74623356D01*
X89225063Y-74549982D01*
X89436627Y-74442185D01*
X89514241Y-74385794D01*
X89581106Y-74361938D01*
X89650258Y-74378018D01*
X89699738Y-74428931D01*
X89714300Y-74487732D01*
X89714300Y-84951406D01*
X89714300Y-85076194D01*
X89738645Y-85198585D01*
X89786400Y-85313875D01*
X89855729Y-85417633D01*
X89943967Y-85505871D01*
X90047725Y-85575200D01*
X90163015Y-85622955D01*
X90285406Y-85647300D01*
X108295806Y-85647300D01*
X108363927Y-85667302D01*
X108384901Y-85684205D01*
X115005595Y-92304899D01*
X115039621Y-92367211D01*
X115042500Y-92393994D01*
X115042500Y-92443881D01*
X115049395Y-92478543D01*
X115077413Y-92619400D01*
X115145898Y-92784736D01*
X115245322Y-92933535D01*
X115371865Y-93060078D01*
X115520664Y-93159502D01*
X115686000Y-93227987D01*
X115861521Y-93262900D01*
X115861522Y-93262900D01*
X116040478Y-93262900D01*
X116040479Y-93262900D01*
X116216000Y-93227987D01*
X116381336Y-93159502D01*
X116530135Y-93060078D01*
X116656678Y-92933535D01*
X116756102Y-92784736D01*
X116824587Y-92619400D01*
X116859500Y-92443879D01*
X116859500Y-92264921D01*
X116824587Y-92089400D01*
X116756102Y-91924064D01*
X116656678Y-91775265D01*
X116530135Y-91648722D01*
X116381336Y-91549298D01*
X116253642Y-91496405D01*
X116216003Y-91480814D01*
X116216001Y-91480813D01*
X116216000Y-91480813D01*
X116113678Y-91460460D01*
X116040481Y-91445900D01*
X116040479Y-91445900D01*
X115990594Y-91445900D01*
X115922473Y-91425898D01*
X115901499Y-91408995D01*
X109014235Y-84521731D01*
X109014233Y-84521729D01*
X108910475Y-84452400D01*
X108795185Y-84404645D01*
X108721486Y-84389985D01*
X108672796Y-84380300D01*
X108672794Y-84380300D01*
X91107300Y-84380300D01*
X91039179Y-84360298D01*
X90992686Y-84306642D01*
X90981300Y-84254300D01*
X90981300Y-81190518D01*
X95357500Y-81190518D01*
X95357500Y-81190521D01*
X95357500Y-81369479D01*
X95392413Y-81545000D01*
X95460898Y-81710336D01*
X95560322Y-81859135D01*
X95686865Y-81985678D01*
X95835664Y-82085102D01*
X96001000Y-82153587D01*
X96176521Y-82188500D01*
X96176522Y-82188500D01*
X96355478Y-82188500D01*
X96355479Y-82188500D01*
X96531000Y-82153587D01*
X96696336Y-82085102D01*
X96734300Y-82059734D01*
X96802053Y-82038520D01*
X96804302Y-82038500D01*
X106246701Y-82038500D01*
X106246705Y-82038500D01*
X106246706Y-82038500D01*
X106319976Y-82023925D01*
X106393247Y-82009351D01*
X106531284Y-81952174D01*
X106655515Y-81869166D01*
X108613702Y-79910977D01*
X108676012Y-79876954D01*
X108678216Y-79876495D01*
X108722994Y-79867589D01*
X108722994Y-79867588D01*
X108723000Y-79867587D01*
X108888336Y-79799102D01*
X108926300Y-79773734D01*
X108994053Y-79752520D01*
X108996302Y-79752500D01*
X111774629Y-79752500D01*
X111842750Y-79772502D01*
X111863724Y-79789405D01*
X112059834Y-79985515D01*
X112059835Y-79985516D01*
X112165484Y-80091165D01*
X112289716Y-80174174D01*
X112332156Y-80191753D01*
X112427753Y-80231351D01*
X112493858Y-80244500D01*
X112574294Y-80260500D01*
X112574295Y-80260500D01*
X112723705Y-80260500D01*
X113454500Y-80260500D01*
X113522621Y-80280502D01*
X113569114Y-80334158D01*
X113580500Y-80386500D01*
X113580500Y-81031649D01*
X113587009Y-81092196D01*
X113587011Y-81092204D01*
X113638110Y-81229202D01*
X113638112Y-81229207D01*
X113725738Y-81346261D01*
X113842792Y-81433887D01*
X113842794Y-81433888D01*
X113842796Y-81433889D01*
X113901875Y-81455924D01*
X113979795Y-81484988D01*
X113979803Y-81484990D01*
X114040350Y-81491499D01*
X114040355Y-81491499D01*
X114040362Y-81491500D01*
X114040368Y-81491500D01*
X116337632Y-81491500D01*
X116337638Y-81491500D01*
X116337645Y-81491499D01*
X116337649Y-81491499D01*
X116398196Y-81484990D01*
X116398199Y-81484989D01*
X116398201Y-81484989D01*
X116535204Y-81433889D01*
X116621246Y-81369479D01*
X116652261Y-81346261D01*
X116739887Y-81229207D01*
X116739887Y-81229206D01*
X116739889Y-81229204D01*
X116790989Y-81092201D01*
X116794073Y-81063521D01*
X116797499Y-81031649D01*
X116797500Y-81031632D01*
X116797500Y-80047518D01*
X145776500Y-80047518D01*
X145776500Y-80226481D01*
X145783267Y-80260499D01*
X145811413Y-80402000D01*
X145879898Y-80567336D01*
X145979322Y-80716135D01*
X146105865Y-80842678D01*
X146254664Y-80942102D01*
X146420000Y-81010587D01*
X146464783Y-81019494D01*
X146527692Y-81052401D01*
X146529297Y-81053978D01*
X147868890Y-82393571D01*
X147896203Y-82434447D01*
X147911898Y-82472336D01*
X148011322Y-82621135D01*
X148137865Y-82747678D01*
X148286664Y-82847102D01*
X148452000Y-82915587D01*
X148627521Y-82950500D01*
X148627522Y-82950500D01*
X148806478Y-82950500D01*
X148806479Y-82950500D01*
X148982000Y-82915587D01*
X149147336Y-82847102D01*
X149296135Y-82747678D01*
X149422678Y-82621135D01*
X149522102Y-82472336D01*
X149590587Y-82307000D01*
X149625500Y-82131479D01*
X149625500Y-81952521D01*
X149590587Y-81777000D01*
X149522102Y-81611664D01*
X149422678Y-81462865D01*
X149296135Y-81336322D01*
X149147336Y-81236898D01*
X149030429Y-81188473D01*
X148982003Y-81168414D01*
X148982001Y-81168413D01*
X148982000Y-81168413D01*
X148893645Y-81150838D01*
X148806481Y-81133500D01*
X148806479Y-81133500D01*
X148806371Y-81133500D01*
X148806317Y-81133484D01*
X148800323Y-81132894D01*
X148800434Y-81131757D01*
X148738250Y-81113498D01*
X148717276Y-81096595D01*
X147601978Y-79981297D01*
X147567952Y-79918985D01*
X147567494Y-79916782D01*
X147558587Y-79872002D01*
X147558587Y-79872000D01*
X147490102Y-79706664D01*
X147390678Y-79557865D01*
X147264135Y-79431322D01*
X147115336Y-79331898D01*
X146998429Y-79283473D01*
X146950003Y-79263414D01*
X146950001Y-79263413D01*
X146950000Y-79263413D01*
X146861645Y-79245838D01*
X146774481Y-79228500D01*
X146774479Y-79228500D01*
X146595521Y-79228500D01*
X146595518Y-79228500D01*
X146464771Y-79254507D01*
X146420000Y-79263413D01*
X146419999Y-79263413D01*
X146419996Y-79263414D01*
X146254662Y-79331899D01*
X146105869Y-79431319D01*
X146105862Y-79431324D01*
X145979324Y-79557862D01*
X145979319Y-79557869D01*
X145879899Y-79706662D01*
X145811414Y-79871996D01*
X145776500Y-80047518D01*
X116797500Y-80047518D01*
X116797500Y-78734367D01*
X116797499Y-78734350D01*
X116790990Y-78673803D01*
X116790988Y-78673795D01*
X116749910Y-78563663D01*
X116739889Y-78536796D01*
X116739888Y-78536794D01*
X116739887Y-78536792D01*
X116652261Y-78419738D01*
X116535207Y-78332112D01*
X116535202Y-78332110D01*
X116398204Y-78281011D01*
X116398196Y-78281009D01*
X116337649Y-78274500D01*
X116337638Y-78274500D01*
X114040362Y-78274500D01*
X114040350Y-78274500D01*
X113979803Y-78281009D01*
X113979795Y-78281011D01*
X113842797Y-78332110D01*
X113842792Y-78332112D01*
X113725738Y-78419738D01*
X113638113Y-78536791D01*
X113638111Y-78536795D01*
X113638111Y-78536796D01*
X113591585Y-78661535D01*
X113549040Y-78718368D01*
X113482519Y-78743179D01*
X113473531Y-78743500D01*
X113015371Y-78743500D01*
X112947250Y-78723498D01*
X112926276Y-78706595D01*
X112624519Y-78404838D01*
X112624515Y-78404834D01*
X112500284Y-78321826D01*
X112362247Y-78264649D01*
X112278190Y-78247929D01*
X112278188Y-78247928D01*
X112215709Y-78235500D01*
X112215706Y-78235500D01*
X108996302Y-78235500D01*
X108928181Y-78215498D01*
X108926300Y-78214265D01*
X108888336Y-78188898D01*
X108771429Y-78140473D01*
X108723003Y-78120414D01*
X108723001Y-78120413D01*
X108723000Y-78120413D01*
X108634645Y-78102838D01*
X108547481Y-78085500D01*
X108547479Y-78085500D01*
X108368521Y-78085500D01*
X108368518Y-78085500D01*
X108237771Y-78111507D01*
X108193000Y-78120413D01*
X108192999Y-78120413D01*
X108192996Y-78120414D01*
X108027662Y-78188899D01*
X107878869Y-78288319D01*
X107878862Y-78288324D01*
X107752324Y-78414862D01*
X107752319Y-78414869D01*
X107652898Y-78563663D01*
X107584413Y-78729000D01*
X107584411Y-78729007D01*
X107575503Y-78773786D01*
X107542594Y-78836695D01*
X107541020Y-78838297D01*
X105894722Y-80484596D01*
X105832412Y-80518620D01*
X105805629Y-80521500D01*
X96804302Y-80521500D01*
X96736181Y-80501498D01*
X96734300Y-80500265D01*
X96696336Y-80474898D01*
X96579429Y-80426473D01*
X96531003Y-80406414D01*
X96531001Y-80406413D01*
X96531000Y-80406413D01*
X96430890Y-80386500D01*
X96355481Y-80371500D01*
X96355479Y-80371500D01*
X96176521Y-80371500D01*
X96176518Y-80371500D01*
X96045771Y-80397507D01*
X96001000Y-80406413D01*
X96000999Y-80406413D01*
X96000996Y-80406414D01*
X95835662Y-80474899D01*
X95686869Y-80574319D01*
X95686862Y-80574324D01*
X95560324Y-80700862D01*
X95560319Y-80700869D01*
X95460899Y-80849662D01*
X95392414Y-81014996D01*
X95357500Y-81190518D01*
X90981300Y-81190518D01*
X90981300Y-76745518D01*
X107676500Y-76745518D01*
X107676500Y-76924481D01*
X107691839Y-77001594D01*
X107711413Y-77100000D01*
X107779898Y-77265336D01*
X107879322Y-77414135D01*
X108005865Y-77540678D01*
X108154664Y-77640102D01*
X108320000Y-77708587D01*
X108495521Y-77743500D01*
X108495522Y-77743500D01*
X108674478Y-77743500D01*
X108674479Y-77743500D01*
X108850000Y-77708587D01*
X109015336Y-77640102D01*
X109164135Y-77540678D01*
X109290678Y-77414135D01*
X109390102Y-77265336D01*
X109458587Y-77100000D01*
X109458588Y-77099994D01*
X109458589Y-77099994D01*
X109467495Y-77055216D01*
X109500401Y-76992306D01*
X109501922Y-76990757D01*
X113873166Y-72619515D01*
X113956174Y-72495284D01*
X114013351Y-72357246D01*
X114042500Y-72210705D01*
X114042500Y-72061295D01*
X114042500Y-71125523D01*
X114062502Y-71057402D01*
X114116158Y-71010909D01*
X114186432Y-71000805D01*
X114242557Y-71023585D01*
X114345962Y-71098713D01*
X114571550Y-71213656D01*
X114812342Y-71291894D01*
X115062408Y-71331500D01*
X115062411Y-71331500D01*
X115315589Y-71331500D01*
X115315592Y-71331500D01*
X115565658Y-71291894D01*
X115806450Y-71213656D01*
X116032038Y-71098713D01*
X116236868Y-70949895D01*
X116415895Y-70770868D01*
X116564713Y-70566038D01*
X116679656Y-70340450D01*
X116757894Y-70099658D01*
X116797500Y-69849592D01*
X116797500Y-69596408D01*
X116757894Y-69346342D01*
X116679656Y-69105550D01*
X116564713Y-68879962D01*
X116415895Y-68675132D01*
X116415892Y-68675129D01*
X116415890Y-68675126D01*
X116236873Y-68496109D01*
X116236870Y-68496107D01*
X116236868Y-68496105D01*
X116076067Y-68379276D01*
X116032041Y-68347289D01*
X116032040Y-68347288D01*
X116032038Y-68347287D01*
X115806450Y-68232344D01*
X115806447Y-68232343D01*
X115806445Y-68232342D01*
X115565663Y-68154107D01*
X115565659Y-68154106D01*
X115565658Y-68154106D01*
X115315592Y-68114500D01*
X115062408Y-68114500D01*
X114812342Y-68154106D01*
X114812336Y-68154107D01*
X114571554Y-68232342D01*
X114571548Y-68232345D01*
X114345958Y-68347289D01*
X114242561Y-68422412D01*
X114175693Y-68446271D01*
X114106542Y-68430190D01*
X114057061Y-68379276D01*
X114042500Y-68320476D01*
X114042500Y-67347518D01*
X119233500Y-67347518D01*
X119233500Y-67347521D01*
X119233500Y-67526479D01*
X119265362Y-67686663D01*
X119268414Y-67702003D01*
X119288473Y-67750429D01*
X119336898Y-67867336D01*
X119436322Y-68016135D01*
X119436324Y-68016137D01*
X119471595Y-68051408D01*
X119505621Y-68113720D01*
X119508500Y-68140503D01*
X119508500Y-77405396D01*
X119510239Y-77414137D01*
X119532845Y-77527785D01*
X119580600Y-77643075D01*
X119649929Y-77746833D01*
X121173929Y-79270833D01*
X121262167Y-79359071D01*
X121365925Y-79428400D01*
X121481215Y-79476155D01*
X121603606Y-79500500D01*
X122613497Y-79500500D01*
X122681618Y-79520502D01*
X122702592Y-79537405D01*
X122737865Y-79572678D01*
X122886664Y-79672102D01*
X123052000Y-79740587D01*
X123227521Y-79775500D01*
X123227522Y-79775500D01*
X123406478Y-79775500D01*
X123406479Y-79775500D01*
X123582000Y-79740587D01*
X123747336Y-79672102D01*
X123896135Y-79572678D01*
X124022678Y-79446135D01*
X124122102Y-79297336D01*
X124190587Y-79132000D01*
X124225500Y-78956479D01*
X124225500Y-78777521D01*
X124190587Y-78602000D01*
X124122102Y-78436664D01*
X124022678Y-78287865D01*
X123896135Y-78161322D01*
X123747336Y-78061898D01*
X123613595Y-78006500D01*
X123582003Y-77993414D01*
X123582001Y-77993413D01*
X123582000Y-77993413D01*
X123493645Y-77975838D01*
X123406481Y-77958500D01*
X123406479Y-77958500D01*
X123227521Y-77958500D01*
X123227518Y-77958500D01*
X123096771Y-77984507D01*
X123052000Y-77993413D01*
X123051999Y-77993413D01*
X123051996Y-77993414D01*
X122886662Y-78061899D01*
X122737869Y-78161319D01*
X122737862Y-78161324D01*
X122702592Y-78196595D01*
X122640280Y-78230621D01*
X122613497Y-78233500D01*
X121980594Y-78233500D01*
X121912473Y-78213498D01*
X121891499Y-78196595D01*
X120812405Y-77117501D01*
X120778379Y-77055189D01*
X120775500Y-77028406D01*
X120775500Y-74332518D01*
X121392500Y-74332518D01*
X121392500Y-74511481D01*
X121400159Y-74549983D01*
X121427413Y-74687000D01*
X121495898Y-74852336D01*
X121595322Y-75001135D01*
X121721865Y-75127678D01*
X121870664Y-75227102D01*
X122036000Y-75295587D01*
X122211521Y-75330500D01*
X122211522Y-75330500D01*
X122390478Y-75330500D01*
X122390479Y-75330500D01*
X122566000Y-75295587D01*
X122566001Y-75295586D01*
X122572071Y-75294379D01*
X122572323Y-75295648D01*
X122636585Y-75295066D01*
X122691280Y-75327184D01*
X124276595Y-76912499D01*
X124310621Y-76974811D01*
X124313500Y-77001594D01*
X124313500Y-77051481D01*
X124323150Y-77099994D01*
X124348413Y-77227000D01*
X124416898Y-77392336D01*
X124516322Y-77541135D01*
X124642865Y-77667678D01*
X124791664Y-77767102D01*
X124957000Y-77835587D01*
X125132521Y-77870500D01*
X125182406Y-77870500D01*
X125250527Y-77890502D01*
X125271501Y-77907405D01*
X125326167Y-77962071D01*
X125429925Y-78031400D01*
X125545215Y-78079155D01*
X125667606Y-78103500D01*
X141394500Y-78103500D01*
X141462621Y-78123502D01*
X141509114Y-78177158D01*
X141520500Y-78229500D01*
X141520500Y-78618649D01*
X141527009Y-78679196D01*
X141527011Y-78679204D01*
X141578110Y-78816202D01*
X141578112Y-78816207D01*
X141665738Y-78933261D01*
X141782792Y-79020887D01*
X141782794Y-79020888D01*
X141782796Y-79020889D01*
X141841875Y-79042924D01*
X141919795Y-79071988D01*
X141919803Y-79071990D01*
X141980350Y-79078499D01*
X141980355Y-79078499D01*
X141980362Y-79078500D01*
X141980368Y-79078500D01*
X144277632Y-79078500D01*
X144277638Y-79078500D01*
X144277645Y-79078499D01*
X144277649Y-79078499D01*
X144338196Y-79071990D01*
X144338199Y-79071989D01*
X144338201Y-79071989D01*
X144475204Y-79020889D01*
X144561246Y-78956479D01*
X144592261Y-78933261D01*
X144679887Y-78816207D01*
X144679887Y-78816206D01*
X144679889Y-78816204D01*
X144730989Y-78679201D01*
X144731570Y-78673803D01*
X144737499Y-78618649D01*
X144737500Y-78618632D01*
X144737500Y-76321367D01*
X144737499Y-76321350D01*
X144730990Y-76260803D01*
X144730988Y-76260795D01*
X144679889Y-76123797D01*
X144679887Y-76123792D01*
X144592261Y-76006738D01*
X144475207Y-75919112D01*
X144475202Y-75919110D01*
X144338204Y-75868011D01*
X144338196Y-75868009D01*
X144277649Y-75861500D01*
X144277638Y-75861500D01*
X141980362Y-75861500D01*
X141980350Y-75861500D01*
X141919803Y-75868009D01*
X141919795Y-75868011D01*
X141782797Y-75919110D01*
X141782792Y-75919112D01*
X141665738Y-76006738D01*
X141578112Y-76123792D01*
X141578110Y-76123797D01*
X141527011Y-76260795D01*
X141527009Y-76260803D01*
X141520500Y-76321350D01*
X141520500Y-76710500D01*
X141500498Y-76778621D01*
X141446842Y-76825114D01*
X141394500Y-76836500D01*
X126724371Y-76836500D01*
X126656250Y-76816498D01*
X126609757Y-76762842D01*
X126599653Y-76692568D01*
X126629147Y-76627988D01*
X126635276Y-76621405D01*
X134447160Y-68809521D01*
X134447165Y-68809516D01*
X134482121Y-68757201D01*
X134530174Y-68685284D01*
X134563667Y-68604424D01*
X134587351Y-68547247D01*
X134608509Y-68440881D01*
X134616500Y-68400706D01*
X134616500Y-67183408D01*
X141520500Y-67183408D01*
X141520500Y-67436592D01*
X141560106Y-67686658D01*
X141560107Y-67686663D01*
X141626131Y-67889863D01*
X141638344Y-67927450D01*
X141753287Y-68153038D01*
X141753289Y-68153041D01*
X141786026Y-68198099D01*
X141902105Y-68357868D01*
X141902107Y-68357870D01*
X141902109Y-68357873D01*
X142081126Y-68536890D01*
X142081129Y-68536892D01*
X142081132Y-68536895D01*
X142285962Y-68685713D01*
X142511550Y-68800656D01*
X142752342Y-68878894D01*
X143002408Y-68918500D01*
X143002411Y-68918500D01*
X143255589Y-68918500D01*
X143255592Y-68918500D01*
X143505658Y-68878894D01*
X143746450Y-68800656D01*
X143972038Y-68685713D01*
X144176868Y-68536895D01*
X144355895Y-68357868D01*
X144504713Y-68153038D01*
X144619656Y-67927450D01*
X144697894Y-67686658D01*
X144737500Y-67436592D01*
X144737500Y-67183408D01*
X144697894Y-66933342D01*
X144619656Y-66692550D01*
X144504713Y-66466962D01*
X144355895Y-66262132D01*
X144355892Y-66262129D01*
X144355890Y-66262126D01*
X144176873Y-66083109D01*
X144176870Y-66083107D01*
X144176868Y-66083105D01*
X143972038Y-65934287D01*
X143746450Y-65819344D01*
X143746447Y-65819343D01*
X143746445Y-65819342D01*
X143505663Y-65741107D01*
X143505659Y-65741106D01*
X143505658Y-65741106D01*
X143255592Y-65701500D01*
X143002408Y-65701500D01*
X142752342Y-65741106D01*
X142752336Y-65741107D01*
X142511554Y-65819342D01*
X142511548Y-65819345D01*
X142285958Y-65934289D01*
X142081129Y-66083107D01*
X142081126Y-66083109D01*
X141902109Y-66262126D01*
X141902107Y-66262129D01*
X141753289Y-66466958D01*
X141638345Y-66692548D01*
X141638342Y-66692554D01*
X141560107Y-66933336D01*
X141560106Y-66933341D01*
X141560106Y-66933342D01*
X141520500Y-67183408D01*
X134616500Y-67183408D01*
X134616500Y-65377000D01*
X134636502Y-65308879D01*
X134685296Y-65264733D01*
X134701038Y-65256713D01*
X134905868Y-65107895D01*
X135084895Y-64928868D01*
X135233713Y-64724038D01*
X135348656Y-64498450D01*
X135426894Y-64257658D01*
X135466500Y-64007592D01*
X135466500Y-63754408D01*
X135426894Y-63504342D01*
X135348656Y-63263550D01*
X135233713Y-63037962D01*
X135084895Y-62833132D01*
X135084892Y-62833129D01*
X135084890Y-62833126D01*
X134905873Y-62654109D01*
X134905870Y-62654107D01*
X134905868Y-62654105D01*
X134701038Y-62505287D01*
X134475450Y-62390344D01*
X134475447Y-62390343D01*
X134475445Y-62390342D01*
X134361009Y-62353160D01*
X134234663Y-62312107D01*
X134234659Y-62312106D01*
X134234658Y-62312106D01*
X133984592Y-62272500D01*
X133731408Y-62272500D01*
X133481342Y-62312106D01*
X133481336Y-62312107D01*
X133240554Y-62390342D01*
X133240548Y-62390345D01*
X133014958Y-62505289D01*
X132810129Y-62654107D01*
X132810126Y-62654109D01*
X132631109Y-62833126D01*
X132631107Y-62833129D01*
X132482289Y-63037958D01*
X132367345Y-63263548D01*
X132367342Y-63263554D01*
X132289107Y-63504336D01*
X132289106Y-63504341D01*
X132289106Y-63504342D01*
X132249500Y-63754408D01*
X132249500Y-64007592D01*
X132263737Y-64097481D01*
X132289107Y-64257663D01*
X132347812Y-64438337D01*
X132367344Y-64498450D01*
X132482287Y-64724038D01*
X132631105Y-64928868D01*
X132631107Y-64928870D01*
X132631109Y-64928873D01*
X132810126Y-65107890D01*
X132810129Y-65107892D01*
X132810132Y-65107895D01*
X133014962Y-65256713D01*
X133030703Y-65264733D01*
X133082318Y-65313481D01*
X133099500Y-65377000D01*
X133099500Y-67959628D01*
X133079498Y-68027749D01*
X133062595Y-68048723D01*
X125222706Y-75888611D01*
X125160394Y-75922637D01*
X125089579Y-75917572D01*
X125044516Y-75888611D01*
X123085838Y-73929933D01*
X123085832Y-73929928D01*
X123068766Y-73918525D01*
X123034004Y-73883762D01*
X123006678Y-73842865D01*
X122880135Y-73716322D01*
X122731336Y-73616898D01*
X122614429Y-73568473D01*
X122566003Y-73548414D01*
X122566001Y-73548413D01*
X122566000Y-73548413D01*
X122477645Y-73530838D01*
X122390481Y-73513500D01*
X122390479Y-73513500D01*
X122211521Y-73513500D01*
X122211518Y-73513500D01*
X122080771Y-73539507D01*
X122036000Y-73548413D01*
X122035999Y-73548413D01*
X122035996Y-73548414D01*
X121870662Y-73616899D01*
X121721869Y-73716319D01*
X121721862Y-73716324D01*
X121595324Y-73842862D01*
X121595319Y-73842869D01*
X121495899Y-73991662D01*
X121427414Y-74156996D01*
X121392500Y-74332518D01*
X120775500Y-74332518D01*
X120775500Y-68140503D01*
X120795502Y-68072382D01*
X120812405Y-68051408D01*
X120815090Y-68048723D01*
X120847678Y-68016135D01*
X120947102Y-67867336D01*
X121015587Y-67702000D01*
X121050500Y-67526479D01*
X121050500Y-67347521D01*
X121015587Y-67172000D01*
X120947102Y-67006664D01*
X120847678Y-66857865D01*
X120721135Y-66731322D01*
X120572336Y-66631898D01*
X120455429Y-66583473D01*
X120407003Y-66563414D01*
X120407001Y-66563413D01*
X120407000Y-66563413D01*
X120318645Y-66545838D01*
X120231481Y-66528500D01*
X120231479Y-66528500D01*
X120052521Y-66528500D01*
X120052518Y-66528500D01*
X119921771Y-66554507D01*
X119877000Y-66563413D01*
X119876999Y-66563413D01*
X119876996Y-66563414D01*
X119711662Y-66631899D01*
X119562869Y-66731319D01*
X119562862Y-66731324D01*
X119436324Y-66857862D01*
X119436319Y-66857869D01*
X119336899Y-67006662D01*
X119268414Y-67171996D01*
X119233500Y-67347518D01*
X114042500Y-67347518D01*
X114042500Y-63530302D01*
X114062502Y-63462181D01*
X114063735Y-63460300D01*
X114089102Y-63422336D01*
X114157587Y-63257000D01*
X114192500Y-63081479D01*
X114192500Y-62902521D01*
X114191238Y-62896178D01*
X114162872Y-62753569D01*
X114162313Y-62750759D01*
X114158651Y-62732350D01*
X122089500Y-62732350D01*
X122089500Y-65029649D01*
X122096009Y-65090196D01*
X122096011Y-65090204D01*
X122147110Y-65227202D01*
X122147112Y-65227207D01*
X122234738Y-65344261D01*
X122351792Y-65431887D01*
X122351794Y-65431888D01*
X122351796Y-65431889D01*
X122410875Y-65453924D01*
X122488795Y-65482988D01*
X122488803Y-65482990D01*
X122549350Y-65489499D01*
X122549355Y-65489499D01*
X122549362Y-65489500D01*
X122549368Y-65489500D01*
X124846632Y-65489500D01*
X124846638Y-65489500D01*
X124846645Y-65489499D01*
X124846649Y-65489499D01*
X124907196Y-65482990D01*
X124907199Y-65482989D01*
X124907201Y-65482989D01*
X125044204Y-65431889D01*
X125161261Y-65344261D01*
X125248889Y-65227204D01*
X125299989Y-65090201D01*
X125306500Y-65029638D01*
X125306500Y-62732362D01*
X125305923Y-62726996D01*
X125299990Y-62671803D01*
X125299988Y-62671795D01*
X125258910Y-62561664D01*
X125248889Y-62534796D01*
X125248888Y-62534794D01*
X125248887Y-62534792D01*
X125161261Y-62417738D01*
X125044207Y-62330112D01*
X125044202Y-62330110D01*
X124907204Y-62279011D01*
X124907196Y-62279009D01*
X124846649Y-62272500D01*
X124846638Y-62272500D01*
X122549362Y-62272500D01*
X122549350Y-62272500D01*
X122488803Y-62279009D01*
X122488795Y-62279011D01*
X122351797Y-62330110D01*
X122351792Y-62330112D01*
X122234738Y-62417738D01*
X122147112Y-62534792D01*
X122147110Y-62534797D01*
X122096011Y-62671795D01*
X122096009Y-62671803D01*
X122089500Y-62732350D01*
X114158651Y-62732350D01*
X114157587Y-62727000D01*
X114089102Y-62561664D01*
X113989678Y-62412865D01*
X113863135Y-62286322D01*
X113791232Y-62238278D01*
X139842500Y-62238278D01*
X139842500Y-62475722D01*
X139879644Y-62710241D01*
X139879645Y-62710246D01*
X139952433Y-62934263D01*
X139953018Y-62936063D01*
X140060815Y-63147627D01*
X140200380Y-63339722D01*
X140200382Y-63339724D01*
X140200384Y-63339727D01*
X140368272Y-63507615D01*
X140368275Y-63507617D01*
X140368278Y-63507620D01*
X140560373Y-63647185D01*
X140771937Y-63754982D01*
X140997759Y-63828356D01*
X141232278Y-63865500D01*
X141232281Y-63865500D01*
X141469719Y-63865500D01*
X141469722Y-63865500D01*
X141704241Y-63828356D01*
X141930063Y-63754982D01*
X142141627Y-63647185D01*
X142333722Y-63507620D01*
X142501620Y-63339722D01*
X142641185Y-63147627D01*
X142748982Y-62936063D01*
X142822356Y-62710241D01*
X142859500Y-62475722D01*
X142859500Y-62238278D01*
X142822356Y-62003759D01*
X142748982Y-61777937D01*
X142641185Y-61566373D01*
X142501620Y-61374278D01*
X142501617Y-61374275D01*
X142501615Y-61374272D01*
X142333727Y-61206384D01*
X142333724Y-61206382D01*
X142333722Y-61206380D01*
X142141627Y-61066815D01*
X141930063Y-60959018D01*
X141930060Y-60959017D01*
X141930058Y-60959016D01*
X141704246Y-60885645D01*
X141704242Y-60885644D01*
X141704241Y-60885644D01*
X141469722Y-60848500D01*
X141232278Y-60848500D01*
X140997759Y-60885644D01*
X140997753Y-60885645D01*
X140771941Y-60959016D01*
X140771935Y-60959019D01*
X140560369Y-61066817D01*
X140368275Y-61206382D01*
X140368272Y-61206384D01*
X140200384Y-61374272D01*
X140200382Y-61374275D01*
X140060817Y-61566369D01*
X139953019Y-61777935D01*
X139953016Y-61777941D01*
X139879645Y-62003753D01*
X139879644Y-62003758D01*
X139879644Y-62003759D01*
X139842500Y-62238278D01*
X113791232Y-62238278D01*
X113714336Y-62186898D01*
X113581826Y-62132010D01*
X113549003Y-62118414D01*
X113549001Y-62118413D01*
X113549000Y-62118413D01*
X113458794Y-62100470D01*
X113373481Y-62083500D01*
X113373479Y-62083500D01*
X113194521Y-62083500D01*
X113194518Y-62083500D01*
X113063771Y-62109507D01*
X113019000Y-62118413D01*
X113018999Y-62118413D01*
X113018996Y-62118414D01*
X112853662Y-62186899D01*
X112704869Y-62286319D01*
X112704862Y-62286324D01*
X112578324Y-62412862D01*
X112578319Y-62412869D01*
X112478899Y-62561662D01*
X112410414Y-62726996D01*
X112410413Y-62726999D01*
X112410413Y-62727000D01*
X112405128Y-62753569D01*
X112375500Y-62902518D01*
X112375500Y-63081481D01*
X112388658Y-63147630D01*
X112410413Y-63257000D01*
X112478898Y-63422336D01*
X112504265Y-63460300D01*
X112525480Y-63528053D01*
X112525500Y-63530302D01*
X112525500Y-71769628D01*
X112505498Y-71837749D01*
X112488595Y-71858723D01*
X108429297Y-75918020D01*
X108366985Y-75952046D01*
X108364786Y-75952503D01*
X108320007Y-75961411D01*
X108320000Y-75961413D01*
X108154663Y-76029898D01*
X108005869Y-76129319D01*
X108005862Y-76129324D01*
X107879324Y-76255862D01*
X107879319Y-76255869D01*
X107779899Y-76404662D01*
X107711414Y-76569996D01*
X107676500Y-76745518D01*
X90981300Y-76745518D01*
X90981300Y-69046994D01*
X91001302Y-68978873D01*
X91018205Y-68957899D01*
X93611554Y-66364550D01*
X97730900Y-66364550D01*
X97730900Y-68661849D01*
X97737409Y-68722396D01*
X97737411Y-68722404D01*
X97788510Y-68859402D01*
X97788512Y-68859407D01*
X97876138Y-68976461D01*
X97993192Y-69064087D01*
X97993194Y-69064088D01*
X97993196Y-69064089D01*
X98041469Y-69082094D01*
X98130195Y-69115188D01*
X98130203Y-69115190D01*
X98190750Y-69121699D01*
X98190755Y-69121699D01*
X98190762Y-69121700D01*
X98190768Y-69121700D01*
X100488032Y-69121700D01*
X100488038Y-69121700D01*
X100488045Y-69121699D01*
X100488049Y-69121699D01*
X100548596Y-69115190D01*
X100548599Y-69115189D01*
X100548601Y-69115189D01*
X100685604Y-69064089D01*
X100748683Y-69016869D01*
X100802661Y-68976461D01*
X100890287Y-68859407D01*
X100890287Y-68859406D01*
X100890289Y-68859404D01*
X100941389Y-68722401D01*
X100945334Y-68685713D01*
X100947899Y-68661849D01*
X100947900Y-68661832D01*
X100947900Y-67386608D01*
X107890900Y-67386608D01*
X107890900Y-67639792D01*
X107905532Y-67732174D01*
X107930507Y-67889863D01*
X108008742Y-68130645D01*
X108008744Y-68130650D01*
X108123687Y-68356238D01*
X108123689Y-68356241D01*
X108155995Y-68400706D01*
X108272505Y-68561068D01*
X108272507Y-68561070D01*
X108272509Y-68561073D01*
X108451526Y-68740090D01*
X108451529Y-68740092D01*
X108451532Y-68740095D01*
X108656362Y-68888913D01*
X108881950Y-69003856D01*
X109122742Y-69082094D01*
X109372808Y-69121700D01*
X109372811Y-69121700D01*
X109625989Y-69121700D01*
X109625992Y-69121700D01*
X109876058Y-69082094D01*
X110116850Y-69003856D01*
X110342438Y-68888913D01*
X110547268Y-68740095D01*
X110726295Y-68561068D01*
X110875113Y-68356238D01*
X110990056Y-68130650D01*
X111068294Y-67889858D01*
X111107900Y-67639792D01*
X111107900Y-67386608D01*
X111068294Y-67136542D01*
X110990056Y-66895750D01*
X110875113Y-66670162D01*
X110726295Y-66465332D01*
X110726292Y-66465329D01*
X110726290Y-66465326D01*
X110547273Y-66286309D01*
X110547270Y-66286307D01*
X110547268Y-66286305D01*
X110342438Y-66137487D01*
X110116850Y-66022544D01*
X110116847Y-66022543D01*
X110116845Y-66022542D01*
X109876063Y-65944307D01*
X109876059Y-65944306D01*
X109876058Y-65944306D01*
X109625992Y-65904700D01*
X109372808Y-65904700D01*
X109122742Y-65944306D01*
X109122736Y-65944307D01*
X108881954Y-66022542D01*
X108881948Y-66022545D01*
X108656358Y-66137489D01*
X108451529Y-66286307D01*
X108451526Y-66286309D01*
X108272509Y-66465326D01*
X108272507Y-66465329D01*
X108123689Y-66670158D01*
X108008745Y-66895748D01*
X108008742Y-66895754D01*
X107930507Y-67136536D01*
X107930506Y-67136541D01*
X107930506Y-67136542D01*
X107890900Y-67386608D01*
X100947900Y-67386608D01*
X100947900Y-66364567D01*
X100947899Y-66364550D01*
X100941390Y-66304003D01*
X100941388Y-66303995D01*
X100890289Y-66166997D01*
X100890287Y-66166992D01*
X100802661Y-66049938D01*
X100685607Y-65962312D01*
X100685602Y-65962310D01*
X100548604Y-65911211D01*
X100548596Y-65911209D01*
X100488049Y-65904700D01*
X100488038Y-65904700D01*
X98190762Y-65904700D01*
X98190750Y-65904700D01*
X98130203Y-65911209D01*
X98130195Y-65911211D01*
X97993197Y-65962310D01*
X97993192Y-65962312D01*
X97876138Y-66049938D01*
X97788512Y-66166992D01*
X97788510Y-66166997D01*
X97737411Y-66303995D01*
X97737409Y-66304003D01*
X97730900Y-66364550D01*
X93611554Y-66364550D01*
X93704011Y-66272093D01*
X96636382Y-63339722D01*
X99577471Y-60398633D01*
X99580107Y-60394688D01*
X99612766Y-60345811D01*
X99612766Y-60345810D01*
X99646800Y-60294875D01*
X99694555Y-60179585D01*
X99705271Y-60125710D01*
X99718900Y-60057194D01*
X99718900Y-59860103D01*
X99738902Y-59791982D01*
X99755805Y-59771008D01*
X99772535Y-59754278D01*
X99791078Y-59735735D01*
X99890502Y-59586936D01*
X99958987Y-59421600D01*
X99986507Y-59283245D01*
X115838500Y-59283245D01*
X115838500Y-59487154D01*
X115870400Y-59688567D01*
X115933413Y-59882500D01*
X116025987Y-60064188D01*
X116055364Y-60104623D01*
X116629429Y-59530559D01*
X116644778Y-59587842D01*
X116713896Y-59707557D01*
X116811643Y-59805304D01*
X116931358Y-59874422D01*
X116988639Y-59889770D01*
X116414575Y-60463833D01*
X116414575Y-60463834D01*
X116455011Y-60493212D01*
X116636699Y-60585786D01*
X116830632Y-60648799D01*
X117032045Y-60680700D01*
X117235955Y-60680700D01*
X117437367Y-60648799D01*
X117631297Y-60585787D01*
X117812993Y-60493208D01*
X117853423Y-60463834D01*
X117853423Y-60463832D01*
X117279361Y-59889770D01*
X117336642Y-59874422D01*
X117456357Y-59805304D01*
X117554104Y-59707557D01*
X117623222Y-59587842D01*
X117638570Y-59530561D01*
X118216354Y-60108345D01*
X118271930Y-60120019D01*
X118322490Y-60169861D01*
X118336426Y-60218113D01*
X118337639Y-60217983D01*
X118344509Y-60281896D01*
X118344511Y-60281904D01*
X118395610Y-60418902D01*
X118395612Y-60418907D01*
X118483238Y-60535961D01*
X118600292Y-60623587D01*
X118600294Y-60623588D01*
X118600296Y-60623589D01*
X118659375Y-60645624D01*
X118737295Y-60674688D01*
X118737303Y-60674690D01*
X118797850Y-60681199D01*
X118797855Y-60681199D01*
X118797862Y-60681200D01*
X118797868Y-60681200D01*
X120470132Y-60681200D01*
X120470138Y-60681200D01*
X120470145Y-60681199D01*
X120470149Y-60681199D01*
X120530696Y-60674690D01*
X120530699Y-60674689D01*
X120530701Y-60674689D01*
X120667704Y-60623589D01*
X120684647Y-60610906D01*
X120784761Y-60535961D01*
X120872387Y-60418907D01*
X120872387Y-60418906D01*
X120872389Y-60418904D01*
X120923489Y-60281901D01*
X120924415Y-60273295D01*
X120929999Y-60221349D01*
X120930000Y-60221332D01*
X120930000Y-58549067D01*
X120929999Y-58549050D01*
X120923490Y-58488503D01*
X120923488Y-58488495D01*
X120872390Y-58351499D01*
X120872389Y-58351496D01*
X120872388Y-58351494D01*
X120872387Y-58351492D01*
X120784761Y-58234438D01*
X120667707Y-58146812D01*
X120667702Y-58146810D01*
X120530704Y-58095711D01*
X120530696Y-58095709D01*
X120470149Y-58089200D01*
X120470138Y-58089200D01*
X118797862Y-58089200D01*
X118797850Y-58089200D01*
X118737303Y-58095709D01*
X118737295Y-58095711D01*
X118600297Y-58146810D01*
X118600292Y-58146812D01*
X118483238Y-58234438D01*
X118395612Y-58351492D01*
X118395610Y-58351497D01*
X118344511Y-58488495D01*
X118344509Y-58488503D01*
X118337639Y-58552417D01*
X118336055Y-58552246D01*
X118314384Y-58613271D01*
X118258226Y-58656709D01*
X118215345Y-58663063D01*
X117638570Y-59239838D01*
X117623222Y-59182558D01*
X117554104Y-59062843D01*
X117456357Y-58965096D01*
X117336642Y-58895978D01*
X117279360Y-58880629D01*
X117853423Y-58306564D01*
X117812988Y-58277187D01*
X117631300Y-58184613D01*
X117437367Y-58121600D01*
X117235955Y-58089700D01*
X117032045Y-58089700D01*
X116830632Y-58121600D01*
X116636699Y-58184613D01*
X116455017Y-58277184D01*
X116455006Y-58277191D01*
X116414574Y-58306565D01*
X116988638Y-58880629D01*
X116931358Y-58895978D01*
X116811643Y-58965096D01*
X116713896Y-59062843D01*
X116644778Y-59182558D01*
X116629429Y-59239838D01*
X116055365Y-58665774D01*
X116025991Y-58706206D01*
X116025984Y-58706217D01*
X115933413Y-58887899D01*
X115870400Y-59081832D01*
X115838500Y-59283245D01*
X99986507Y-59283245D01*
X99993900Y-59246079D01*
X99993900Y-59067121D01*
X99958987Y-58891600D01*
X99890502Y-58726264D01*
X99791078Y-58577465D01*
X99664535Y-58450922D01*
X99515736Y-58351498D01*
X99398829Y-58303073D01*
X99350403Y-58283014D01*
X99350401Y-58283013D01*
X99350400Y-58283013D01*
X99262045Y-58265438D01*
X99174881Y-58248100D01*
X99174879Y-58248100D01*
X98995921Y-58248100D01*
X98995918Y-58248100D01*
X98865171Y-58274107D01*
X98820400Y-58283013D01*
X98820399Y-58283013D01*
X98820396Y-58283014D01*
X98689302Y-58337316D01*
X98655067Y-58351497D01*
X98655062Y-58351499D01*
X98506269Y-58450919D01*
X98506262Y-58450924D01*
X98379724Y-58577462D01*
X98379719Y-58577469D01*
X98280299Y-58726262D01*
X98211814Y-58891596D01*
X98176900Y-59067118D01*
X98176900Y-59246081D01*
X98190824Y-59316082D01*
X98204572Y-59385199D01*
X98211814Y-59421603D01*
X98280298Y-59586936D01*
X98349846Y-59691023D01*
X98371060Y-59758776D01*
X98352276Y-59827243D01*
X98334175Y-59850119D01*
X96003718Y-62180576D01*
X95941406Y-62214602D01*
X95870591Y-62209537D01*
X95813755Y-62166990D01*
X95788944Y-62100470D01*
X95790174Y-62071770D01*
X95820600Y-61879673D01*
X95820600Y-61665926D01*
X95787159Y-61454796D01*
X95721109Y-61251513D01*
X95721106Y-61251507D01*
X95624064Y-61061051D01*
X95624063Y-61061049D01*
X95585978Y-61008631D01*
X95585977Y-61008630D01*
X94946757Y-61647850D01*
X94928525Y-61579807D01*
X94862699Y-61465793D01*
X94769607Y-61372701D01*
X94655593Y-61306875D01*
X94587547Y-61288641D01*
X95226768Y-60649421D01*
X95226767Y-60649420D01*
X95174350Y-60611336D01*
X95173028Y-60610526D01*
X95172630Y-60610086D01*
X95170342Y-60608424D01*
X95170691Y-60607943D01*
X95125397Y-60557878D01*
X95113791Y-60487836D01*
X95141895Y-60422639D01*
X95170675Y-60397703D01*
X95170604Y-60397604D01*
X95171758Y-60396765D01*
X95173041Y-60395654D01*
X95174592Y-60394702D01*
X95174609Y-60394694D01*
X95347604Y-60269006D01*
X95498806Y-60117804D01*
X95624494Y-59944809D01*
X95721572Y-59754283D01*
X95787649Y-59550916D01*
X95821100Y-59339716D01*
X95821100Y-59125884D01*
X95787649Y-58914684D01*
X95721572Y-58711317D01*
X95624494Y-58520791D01*
X95498806Y-58347796D01*
X95498803Y-58347793D01*
X95498801Y-58347790D01*
X95347609Y-58196598D01*
X95347606Y-58196596D01*
X95347604Y-58196594D01*
X95208750Y-58095711D01*
X95174612Y-58070908D01*
X95174611Y-58070907D01*
X95174609Y-58070906D01*
X94984083Y-57973828D01*
X94984080Y-57973827D01*
X94984078Y-57973826D01*
X94780720Y-57907752D01*
X94780723Y-57907752D01*
X94741401Y-57901524D01*
X94569516Y-57874300D01*
X94355684Y-57874300D01*
X94144484Y-57907751D01*
X94144478Y-57907752D01*
X93941121Y-57973826D01*
X93941115Y-57973829D01*
X93750587Y-58070908D01*
X93577593Y-58196596D01*
X93577590Y-58196598D01*
X93426398Y-58347790D01*
X93426396Y-58347793D01*
X93300708Y-58520787D01*
X93300034Y-58521888D01*
X93299668Y-58522218D01*
X93297796Y-58524796D01*
X93297254Y-58524402D01*
X93247387Y-58569521D01*
X93177345Y-58581128D01*
X93112147Y-58553026D01*
X93087576Y-58524670D01*
X93087404Y-58524796D01*
X93085941Y-58522782D01*
X93085166Y-58521888D01*
X93084496Y-58520796D01*
X93084494Y-58520791D01*
X92958806Y-58347796D01*
X92958803Y-58347793D01*
X92958801Y-58347790D01*
X92807609Y-58196598D01*
X92807606Y-58196596D01*
X92807604Y-58196594D01*
X92668750Y-58095711D01*
X92634612Y-58070908D01*
X92634611Y-58070907D01*
X92634609Y-58070906D01*
X92444083Y-57973828D01*
X92444080Y-57973827D01*
X92444078Y-57973826D01*
X92240720Y-57907752D01*
X92240723Y-57907752D01*
X92201401Y-57901524D01*
X92029516Y-57874300D01*
X91815684Y-57874300D01*
X91604484Y-57907751D01*
X91604478Y-57907752D01*
X91401121Y-57973826D01*
X91401115Y-57973829D01*
X91210587Y-58070908D01*
X91037593Y-58196596D01*
X91037590Y-58196598D01*
X90886398Y-58347790D01*
X90886396Y-58347793D01*
X90760708Y-58520787D01*
X90760034Y-58521888D01*
X90759668Y-58522218D01*
X90757796Y-58524796D01*
X90757254Y-58524402D01*
X90707387Y-58569521D01*
X90637345Y-58581128D01*
X90572147Y-58553026D01*
X90547576Y-58524670D01*
X90547404Y-58524796D01*
X90545941Y-58522782D01*
X90545166Y-58521888D01*
X90544496Y-58520796D01*
X90544494Y-58520791D01*
X90418806Y-58347796D01*
X90418803Y-58347793D01*
X90418801Y-58347790D01*
X90278375Y-58207364D01*
X90244349Y-58145052D01*
X90249414Y-58074237D01*
X90278375Y-58029173D01*
X91096345Y-57211204D01*
X91158657Y-57177179D01*
X91185440Y-57174300D01*
X144551961Y-57174300D01*
X144620082Y-57194302D01*
X144641056Y-57211205D01*
X147842995Y-60413144D01*
X147877021Y-60475456D01*
X147879900Y-60502239D01*
X147879900Y-78261313D01*
X147887014Y-78287865D01*
X147887015Y-78287865D01*
X147921367Y-78416070D01*
X147921370Y-78416077D01*
X148001475Y-78554823D01*
X148001483Y-78554833D01*
X150641795Y-81195144D01*
X150675821Y-81257456D01*
X150678700Y-81284239D01*
X150678700Y-81369479D01*
X150713613Y-81545000D01*
X150782098Y-81710336D01*
X150881522Y-81859135D01*
X151008065Y-81985678D01*
X151156864Y-82085102D01*
X151322200Y-82153587D01*
X151497721Y-82188500D01*
X151497722Y-82188500D01*
X151676678Y-82188500D01*
X151676679Y-82188500D01*
X151852200Y-82153587D01*
X152017536Y-82085102D01*
X152166335Y-81985678D01*
X152256337Y-81895676D01*
X152318649Y-81861650D01*
X152389464Y-81866715D01*
X152434527Y-81895676D01*
X153168285Y-82629434D01*
X153202311Y-82691746D01*
X153202769Y-82743108D01*
X153193301Y-82790711D01*
X153193300Y-82790723D01*
X153193300Y-82969681D01*
X153210638Y-83056845D01*
X153228213Y-83145200D01*
X153296698Y-83310536D01*
X153396122Y-83459335D01*
X153522665Y-83585878D01*
X153671464Y-83685302D01*
X153836800Y-83753787D01*
X154012321Y-83788700D01*
X154012322Y-83788700D01*
X154191278Y-83788700D01*
X154191279Y-83788700D01*
X154366800Y-83753787D01*
X154532136Y-83685302D01*
X154680935Y-83585878D01*
X154807478Y-83459335D01*
X154906902Y-83310536D01*
X154975387Y-83145200D01*
X155010300Y-82969679D01*
X155010300Y-82790721D01*
X154975387Y-82615200D01*
X154906902Y-82449864D01*
X154807478Y-82301065D01*
X154680935Y-82174522D01*
X154532136Y-82075098D01*
X154366800Y-82006613D01*
X154279156Y-81989179D01*
X154216247Y-81956271D01*
X154214644Y-81954695D01*
X149743405Y-77483456D01*
X149709379Y-77421144D01*
X149706500Y-77394361D01*
X149706500Y-69506518D01*
X158476500Y-69506518D01*
X158476500Y-69685481D01*
X158476764Y-69686807D01*
X158511413Y-69861000D01*
X158579898Y-70026336D01*
X158679322Y-70175135D01*
X158805865Y-70301678D01*
X158954664Y-70401102D01*
X159120000Y-70469587D01*
X159295521Y-70504500D01*
X159295522Y-70504500D01*
X159474478Y-70504500D01*
X159474479Y-70504500D01*
X159650000Y-70469587D01*
X159815336Y-70401102D01*
X159964135Y-70301678D01*
X160090678Y-70175135D01*
X160190102Y-70026336D01*
X160258587Y-69861000D01*
X160293500Y-69685479D01*
X160293500Y-69506521D01*
X160258587Y-69331000D01*
X160190102Y-69165664D01*
X160090678Y-69016865D01*
X160055405Y-68981592D01*
X160021379Y-68919280D01*
X160018500Y-68892497D01*
X160018500Y-66899350D01*
X163248500Y-66899350D01*
X163248500Y-68696649D01*
X163255009Y-68757196D01*
X163255011Y-68757201D01*
X163306110Y-68894202D01*
X163306112Y-68894207D01*
X163393738Y-69011261D01*
X163510791Y-69098886D01*
X163510792Y-69098886D01*
X163510796Y-69098889D01*
X163628711Y-69142869D01*
X163685543Y-69185414D01*
X163710354Y-69251934D01*
X163695263Y-69321308D01*
X163673771Y-69350018D01*
X163570794Y-69452995D01*
X163445108Y-69625987D01*
X163348029Y-69816515D01*
X163348026Y-69816521D01*
X163281952Y-70019878D01*
X163281951Y-70019883D01*
X163281951Y-70019884D01*
X163248500Y-70231084D01*
X163248500Y-70444916D01*
X163281933Y-70656004D01*
X163281952Y-70656121D01*
X163345357Y-70851263D01*
X163348028Y-70859483D01*
X163445106Y-71050009D01*
X163570794Y-71223004D01*
X163570796Y-71223006D01*
X163570798Y-71223009D01*
X163721990Y-71374201D01*
X163721993Y-71374203D01*
X163721996Y-71374206D01*
X163894991Y-71499894D01*
X164085517Y-71596972D01*
X164288878Y-71663047D01*
X164288879Y-71663047D01*
X164288884Y-71663049D01*
X164500084Y-71696500D01*
X164500087Y-71696500D01*
X164713913Y-71696500D01*
X164713916Y-71696500D01*
X164925116Y-71663049D01*
X165128483Y-71596972D01*
X165319009Y-71499894D01*
X165492004Y-71374206D01*
X165643206Y-71223004D01*
X165768894Y-71050009D01*
X165768899Y-71049997D01*
X165769561Y-71048920D01*
X165769924Y-71048591D01*
X165771804Y-71046004D01*
X165772347Y-71046398D01*
X165822204Y-71001283D01*
X165892244Y-70989670D01*
X165957445Y-71017766D01*
X165982021Y-71046130D01*
X165982196Y-71046004D01*
X165983668Y-71048030D01*
X165984439Y-71048920D01*
X165985105Y-71050007D01*
X165985106Y-71050009D01*
X166110794Y-71223004D01*
X166110796Y-71223006D01*
X166110798Y-71223009D01*
X166261990Y-71374201D01*
X166261993Y-71374203D01*
X166261996Y-71374206D01*
X166434991Y-71499894D01*
X166625517Y-71596972D01*
X166828878Y-71663047D01*
X166828879Y-71663047D01*
X166828884Y-71663049D01*
X167040084Y-71696500D01*
X167040087Y-71696500D01*
X167253913Y-71696500D01*
X167253916Y-71696500D01*
X167465116Y-71663049D01*
X167668483Y-71596972D01*
X167859009Y-71499894D01*
X168032004Y-71374206D01*
X168183206Y-71223004D01*
X168308894Y-71050009D01*
X168308902Y-71049992D01*
X168309854Y-71048441D01*
X168310377Y-71047967D01*
X168311804Y-71046004D01*
X168312216Y-71046303D01*
X168362497Y-71000804D01*
X168432537Y-70989189D01*
X168497738Y-71017285D01*
X168522484Y-71045843D01*
X168522624Y-71045742D01*
X168523801Y-71047362D01*
X168524729Y-71048433D01*
X168525535Y-71049749D01*
X168651177Y-71222679D01*
X168802320Y-71373822D01*
X168975249Y-71499463D01*
X169165707Y-71596506D01*
X169165713Y-71596509D01*
X169368998Y-71662560D01*
X169433000Y-71672696D01*
X169433000Y-70768702D01*
X169494007Y-70803925D01*
X169621174Y-70838000D01*
X169752826Y-70838000D01*
X169879993Y-70803925D01*
X169941000Y-70768702D01*
X169941000Y-71672696D01*
X170005001Y-71662560D01*
X170208286Y-71596509D01*
X170208292Y-71596506D01*
X170398750Y-71499463D01*
X170571679Y-71373822D01*
X170722822Y-71222679D01*
X170848463Y-71049750D01*
X170945506Y-70859292D01*
X170945509Y-70859286D01*
X171011559Y-70656004D01*
X171021698Y-70592000D01*
X170117703Y-70592000D01*
X170152925Y-70530993D01*
X170187000Y-70403826D01*
X170187000Y-70272174D01*
X170152925Y-70145007D01*
X170117703Y-70084000D01*
X171021697Y-70084000D01*
X171011559Y-70019995D01*
X170945509Y-69816713D01*
X170945506Y-69816707D01*
X170848463Y-69626249D01*
X170722822Y-69453320D01*
X170571679Y-69302177D01*
X170398748Y-69176534D01*
X170396955Y-69175436D01*
X170396415Y-69174840D01*
X170394742Y-69173624D01*
X170394997Y-69173272D01*
X170349321Y-69122791D01*
X170337710Y-69052750D01*
X170365810Y-68987551D01*
X170394789Y-68962440D01*
X170394742Y-68962376D01*
X170395496Y-68961827D01*
X170396955Y-68960564D01*
X170398748Y-68959465D01*
X170571679Y-68833822D01*
X170722822Y-68682679D01*
X170848463Y-68509750D01*
X170945506Y-68319292D01*
X170945509Y-68319286D01*
X171011559Y-68116004D01*
X171021698Y-68052000D01*
X170117703Y-68052000D01*
X170152925Y-67990993D01*
X170187000Y-67863826D01*
X170187000Y-67732174D01*
X170152925Y-67605007D01*
X170117703Y-67544000D01*
X171021697Y-67544000D01*
X171011559Y-67479995D01*
X170945509Y-67276713D01*
X170945506Y-67276707D01*
X170848463Y-67086249D01*
X170722822Y-66913320D01*
X170571679Y-66762177D01*
X170398750Y-66636536D01*
X170208292Y-66539493D01*
X170208286Y-66539490D01*
X170005004Y-66473440D01*
X169941000Y-66463302D01*
X169941000Y-67367297D01*
X169879993Y-67332075D01*
X169752826Y-67298000D01*
X169621174Y-67298000D01*
X169494007Y-67332075D01*
X169433000Y-67367297D01*
X169433000Y-66463302D01*
X169368995Y-66473440D01*
X169165713Y-66539490D01*
X169165707Y-66539493D01*
X168975249Y-66636536D01*
X168802320Y-66762177D01*
X168651177Y-66913320D01*
X168525532Y-67086255D01*
X168524724Y-67087574D01*
X168524286Y-67087969D01*
X168522624Y-67090258D01*
X168522143Y-67089908D01*
X168472075Y-67135203D01*
X168402033Y-67146807D01*
X168336836Y-67118702D01*
X168311901Y-67089924D01*
X168311804Y-67089996D01*
X168310975Y-67088855D01*
X168309859Y-67087567D01*
X168308899Y-67086001D01*
X168308894Y-67085991D01*
X168183206Y-66912996D01*
X168183203Y-66912993D01*
X168183201Y-66912990D01*
X168032009Y-66761798D01*
X168032006Y-66761796D01*
X168032004Y-66761794D01*
X167859009Y-66636106D01*
X167668483Y-66539028D01*
X167668480Y-66539027D01*
X167668478Y-66539026D01*
X167465120Y-66472952D01*
X167465123Y-66472952D01*
X167404195Y-66463302D01*
X167253916Y-66439500D01*
X167040084Y-66439500D01*
X166828884Y-66472951D01*
X166828878Y-66472952D01*
X166625521Y-66539026D01*
X166625515Y-66539029D01*
X166434987Y-66636108D01*
X166261995Y-66761794D01*
X166159018Y-66864771D01*
X166096706Y-66898796D01*
X166025890Y-66893730D01*
X165969054Y-66851184D01*
X165951871Y-66819715D01*
X165907889Y-66701796D01*
X165907886Y-66701792D01*
X165907886Y-66701791D01*
X165820261Y-66584738D01*
X165703207Y-66497112D01*
X165703202Y-66497110D01*
X165566204Y-66446011D01*
X165566196Y-66446009D01*
X165505649Y-66439500D01*
X165505638Y-66439500D01*
X163708362Y-66439500D01*
X163708350Y-66439500D01*
X163647803Y-66446009D01*
X163647795Y-66446011D01*
X163510797Y-66497110D01*
X163510792Y-66497112D01*
X163393738Y-66584738D01*
X163306112Y-66701792D01*
X163306110Y-66701797D01*
X163255011Y-66838795D01*
X163255009Y-66838803D01*
X163248500Y-66899350D01*
X160018500Y-66899350D01*
X160018500Y-66862594D01*
X160038502Y-66794473D01*
X160055405Y-66773499D01*
X161875499Y-64953405D01*
X161937811Y-64919379D01*
X161964594Y-64916500D01*
X162014478Y-64916500D01*
X162014479Y-64916500D01*
X162190000Y-64881587D01*
X162355336Y-64813102D01*
X162504135Y-64713678D01*
X162630678Y-64587135D01*
X162730102Y-64438336D01*
X162798587Y-64273000D01*
X162833500Y-64097479D01*
X162833500Y-63918521D01*
X162798587Y-63743000D01*
X162730102Y-63577664D01*
X162630678Y-63428865D01*
X162504135Y-63302322D01*
X162355336Y-63202898D01*
X162238429Y-63154473D01*
X162190003Y-63134414D01*
X162190001Y-63134413D01*
X162190000Y-63134413D01*
X162101645Y-63116838D01*
X162014481Y-63099500D01*
X162014479Y-63099500D01*
X161835521Y-63099500D01*
X161835518Y-63099500D01*
X161704771Y-63125507D01*
X161660000Y-63134413D01*
X161659999Y-63134413D01*
X161659996Y-63134414D01*
X161494662Y-63202899D01*
X161345869Y-63302319D01*
X161345862Y-63302324D01*
X161219324Y-63428862D01*
X161219319Y-63428869D01*
X161119899Y-63577662D01*
X161051414Y-63742996D01*
X161051413Y-63742999D01*
X161051413Y-63743000D01*
X161042507Y-63787771D01*
X161016500Y-63918518D01*
X161016500Y-63968406D01*
X160996498Y-64036527D01*
X160979595Y-64057501D01*
X158892931Y-66144164D01*
X158892926Y-66144171D01*
X158877678Y-66166992D01*
X158823600Y-66247925D01*
X158775845Y-66363215D01*
X158775577Y-66364562D01*
X158751500Y-66485603D01*
X158751500Y-68892497D01*
X158731498Y-68960618D01*
X158714595Y-68981592D01*
X158679324Y-69016862D01*
X158679319Y-69016869D01*
X158583646Y-69160055D01*
X158579898Y-69165664D01*
X158571717Y-69185414D01*
X158511414Y-69330996D01*
X158476500Y-69506518D01*
X149706500Y-69506518D01*
X149706500Y-59965490D01*
X149700959Y-59944812D01*
X149673224Y-59841300D01*
X149665032Y-59810727D01*
X149621735Y-59735735D01*
X149584921Y-59671972D01*
X149584919Y-59671970D01*
X149584915Y-59671965D01*
X149467239Y-59554289D01*
X149467216Y-59554268D01*
X145433759Y-55520809D01*
X145399733Y-55458497D01*
X145404798Y-55387681D01*
X145447345Y-55330846D01*
X145513865Y-55306035D01*
X145522587Y-55305714D01*
X176912042Y-55245242D01*
X176980199Y-55265113D01*
G37*
G04 #@! TD.AperFunction*
G04 #@! TA.AperFunction,Conductor*
G36*
X127897661Y-120235142D02*
G01*
X127902432Y-120234457D01*
X127917103Y-120237466D01*
X127935889Y-120242500D01*
X128096110Y-120242500D01*
X129184961Y-120242500D01*
X129253082Y-120262502D01*
X129274056Y-120279405D01*
X131134595Y-122139944D01*
X131168621Y-122202256D01*
X131171500Y-122229039D01*
X131171500Y-122314281D01*
X131206414Y-122489803D01*
X131220612Y-122524080D01*
X131274898Y-122655136D01*
X131374322Y-122803935D01*
X131500865Y-122930478D01*
X131649664Y-123029902D01*
X131815000Y-123098387D01*
X131990521Y-123133300D01*
X131990522Y-123133300D01*
X132054205Y-123133300D01*
X132122326Y-123153302D01*
X132168819Y-123206958D01*
X132178923Y-123277232D01*
X132149429Y-123341812D01*
X132143300Y-123348395D01*
X128980882Y-126510812D01*
X128918570Y-126544838D01*
X128847754Y-126539773D01*
X128802692Y-126510812D01*
X128753519Y-126461639D01*
X128753515Y-126461635D01*
X128629284Y-126378627D01*
X128491246Y-126321449D01*
X128442399Y-126311732D01*
X128344707Y-126292300D01*
X128344705Y-126292300D01*
X128195295Y-126292300D01*
X128195292Y-126292300D01*
X128049125Y-126321375D01*
X128048753Y-126321449D01*
X128034196Y-126327479D01*
X127932718Y-126369513D01*
X127862129Y-126377102D01*
X127798642Y-126345323D01*
X127762414Y-126284265D01*
X127758500Y-126253104D01*
X127758500Y-123492408D01*
X128989700Y-123492408D01*
X128989700Y-123624192D01*
X128996160Y-123648300D01*
X129023807Y-123751483D01*
X129023810Y-123751490D01*
X129089697Y-123865610D01*
X129089705Y-123865620D01*
X129182879Y-123958794D01*
X129182884Y-123958798D01*
X129182886Y-123958800D01*
X129297014Y-124024692D01*
X129424308Y-124058800D01*
X129424310Y-124058800D01*
X129556090Y-124058800D01*
X129556092Y-124058800D01*
X129683386Y-124024692D01*
X129797514Y-123958800D01*
X129890700Y-123865614D01*
X129956592Y-123751486D01*
X129990700Y-123624192D01*
X129990700Y-123492408D01*
X129956592Y-123365114D01*
X129890700Y-123250986D01*
X129890698Y-123250984D01*
X129890694Y-123250979D01*
X129797520Y-123157805D01*
X129797510Y-123157797D01*
X129683390Y-123091910D01*
X129683387Y-123091909D01*
X129683386Y-123091908D01*
X129683384Y-123091907D01*
X129683383Y-123091907D01*
X129649273Y-123082767D01*
X129556092Y-123057800D01*
X129424308Y-123057800D01*
X129356094Y-123076077D01*
X129297016Y-123091907D01*
X129297009Y-123091910D01*
X129182889Y-123157797D01*
X129182879Y-123157805D01*
X129089705Y-123250979D01*
X129089697Y-123250989D01*
X129023810Y-123365109D01*
X129023807Y-123365116D01*
X129013034Y-123405322D01*
X128989700Y-123492408D01*
X127758500Y-123492408D01*
X127758500Y-120359175D01*
X127765657Y-120334799D01*
X127768673Y-120309575D01*
X127775486Y-120301322D01*
X127778502Y-120291054D01*
X127797701Y-120274417D01*
X127813876Y-120254828D01*
X127824069Y-120251569D01*
X127832158Y-120244561D01*
X127857306Y-120240945D01*
X127881502Y-120233211D01*
X127897661Y-120235142D01*
G37*
G04 #@! TD.AperFunction*
G04 #@! TA.AperFunction,Conductor*
G36*
X161968282Y-86074102D02*
G01*
X161989256Y-86091005D01*
X163395837Y-87497586D01*
X163429863Y-87559898D01*
X163424798Y-87630713D01*
X163382251Y-87687549D01*
X163315731Y-87712360D01*
X163258523Y-87703090D01*
X163180603Y-87670814D01*
X163180601Y-87670813D01*
X163180600Y-87670813D01*
X163092245Y-87653238D01*
X163005081Y-87635900D01*
X163005079Y-87635900D01*
X162826121Y-87635900D01*
X162826118Y-87635900D01*
X162695371Y-87661907D01*
X162650600Y-87670813D01*
X162650599Y-87670813D01*
X162650596Y-87670814D01*
X162485262Y-87739299D01*
X162336469Y-87838719D01*
X162336462Y-87838724D01*
X162209924Y-87965262D01*
X162209919Y-87965269D01*
X162110499Y-88114062D01*
X162042014Y-88279396D01*
X162007100Y-88454918D01*
X162007100Y-88633881D01*
X162018517Y-88691275D01*
X162042013Y-88809400D01*
X162110498Y-88974736D01*
X162209922Y-89123535D01*
X162336465Y-89250078D01*
X162485264Y-89349502D01*
X162622228Y-89406235D01*
X162650597Y-89417986D01*
X162650598Y-89417986D01*
X162650600Y-89417987D01*
X162757520Y-89439254D01*
X162820429Y-89472161D01*
X162822033Y-89473738D01*
X164637195Y-91288899D01*
X164671220Y-91351211D01*
X164674100Y-91377994D01*
X164674100Y-91427881D01*
X164688220Y-91498867D01*
X164706406Y-91590296D01*
X164709014Y-91603403D01*
X164717651Y-91624253D01*
X164777498Y-91768736D01*
X164876922Y-91917535D01*
X165003465Y-92044078D01*
X165152264Y-92143502D01*
X165317600Y-92211987D01*
X165493121Y-92246900D01*
X165493122Y-92246900D01*
X165672078Y-92246900D01*
X165672079Y-92246900D01*
X165847600Y-92211987D01*
X166012936Y-92143502D01*
X166161735Y-92044078D01*
X166288278Y-91917535D01*
X166387702Y-91768736D01*
X166456187Y-91603400D01*
X166491100Y-91427879D01*
X166491100Y-91248921D01*
X166456187Y-91073400D01*
X166387702Y-90908064D01*
X166288278Y-90759265D01*
X166161735Y-90632722D01*
X166012936Y-90533298D01*
X165884112Y-90479937D01*
X165847603Y-90464814D01*
X165847601Y-90464813D01*
X165847600Y-90464813D01*
X165759245Y-90447238D01*
X165672081Y-90429900D01*
X165672079Y-90429900D01*
X165622195Y-90429900D01*
X165554074Y-90409898D01*
X165533100Y-90392995D01*
X163861005Y-88720900D01*
X163826979Y-88658588D01*
X163824100Y-88631805D01*
X163824100Y-88454922D01*
X163824099Y-88454918D01*
X163789187Y-88279400D01*
X163768168Y-88228656D01*
X163756910Y-88201476D01*
X163749320Y-88130886D01*
X163781098Y-88067399D01*
X163842156Y-88031171D01*
X163913108Y-88033705D01*
X163962413Y-88064162D01*
X167451795Y-91553544D01*
X167485821Y-91615856D01*
X167488700Y-91642639D01*
X167488700Y-94937026D01*
X167468698Y-95005147D01*
X167415042Y-95051640D01*
X167344768Y-95061744D01*
X167338119Y-95060605D01*
X167170684Y-95027300D01*
X167170679Y-95027300D01*
X166991721Y-95027300D01*
X166991718Y-95027300D01*
X166860971Y-95053307D01*
X166816200Y-95062213D01*
X166816199Y-95062213D01*
X166816196Y-95062214D01*
X166650862Y-95130699D01*
X166502069Y-95230119D01*
X166502062Y-95230124D01*
X166375524Y-95356662D01*
X166375519Y-95356669D01*
X166276099Y-95505462D01*
X166207614Y-95670796D01*
X166207613Y-95670799D01*
X166207613Y-95670800D01*
X166201381Y-95702130D01*
X166172700Y-95846318D01*
X166172700Y-95846321D01*
X166172700Y-96025279D01*
X166207613Y-96200800D01*
X166276098Y-96366136D01*
X166375522Y-96514935D01*
X166502065Y-96641478D01*
X166650864Y-96740902D01*
X166788145Y-96797766D01*
X166843425Y-96842315D01*
X166865846Y-96909678D01*
X166863505Y-96938756D01*
X166858500Y-96963915D01*
X166858500Y-97142881D01*
X166873762Y-97219606D01*
X166893413Y-97318400D01*
X166961898Y-97483736D01*
X167061322Y-97632535D01*
X167187865Y-97759078D01*
X167336664Y-97858502D01*
X167502000Y-97926987D01*
X167677521Y-97961900D01*
X167677522Y-97961900D01*
X167856478Y-97961900D01*
X167856479Y-97961900D01*
X168032000Y-97926987D01*
X168197336Y-97858502D01*
X168346135Y-97759078D01*
X168472678Y-97632535D01*
X168572102Y-97483736D01*
X168640587Y-97318400D01*
X168675500Y-97142879D01*
X168675500Y-97092994D01*
X168695502Y-97024873D01*
X168712405Y-97003899D01*
X169201374Y-96514930D01*
X169757671Y-95958633D01*
X169827000Y-95854875D01*
X169837851Y-95828678D01*
X169839491Y-95824720D01*
X169848659Y-95802583D01*
X169874755Y-95739585D01*
X169899100Y-95617194D01*
X169899100Y-93964394D01*
X169907883Y-93934478D01*
X169914512Y-93904009D01*
X169918326Y-93898913D01*
X169919102Y-93896273D01*
X169936005Y-93875299D01*
X170093405Y-93717899D01*
X170155717Y-93683873D01*
X170226532Y-93688938D01*
X170283368Y-93731485D01*
X170308179Y-93798005D01*
X170308500Y-93806994D01*
X170308500Y-97219606D01*
X170308500Y-97344394D01*
X170332845Y-97466785D01*
X170380600Y-97582075D01*
X170449929Y-97685833D01*
X170449931Y-97685835D01*
X173665399Y-100901304D01*
X173699425Y-100963616D01*
X173694360Y-101034432D01*
X173665400Y-101079494D01*
X173500851Y-101244044D01*
X173438539Y-101278069D01*
X173367723Y-101273005D01*
X173310887Y-101230458D01*
X173291991Y-101188086D01*
X173290581Y-101188514D01*
X173288788Y-101182604D01*
X173288787Y-101182603D01*
X173288787Y-101182600D01*
X173220302Y-101017264D01*
X173120878Y-100868465D01*
X172994335Y-100741922D01*
X172845536Y-100642498D01*
X172728629Y-100594073D01*
X172680203Y-100574014D01*
X172680201Y-100574013D01*
X172680200Y-100574013D01*
X172591845Y-100556438D01*
X172504681Y-100539100D01*
X172504679Y-100539100D01*
X172325721Y-100539100D01*
X172325718Y-100539100D01*
X172194971Y-100565107D01*
X172150200Y-100574013D01*
X172150199Y-100574013D01*
X172150196Y-100574014D01*
X171984862Y-100642499D01*
X171836069Y-100741919D01*
X171836064Y-100741923D01*
X171709524Y-100868462D01*
X171709519Y-100868469D01*
X171610098Y-101017263D01*
X171541613Y-101182600D01*
X171541611Y-101182607D01*
X171532703Y-101227386D01*
X171499794Y-101290295D01*
X171498220Y-101291897D01*
X170532297Y-102257820D01*
X170469985Y-102291846D01*
X170467786Y-102292303D01*
X170423007Y-102301211D01*
X170423000Y-102301213D01*
X170257663Y-102369698D01*
X170108869Y-102469119D01*
X170108867Y-102469120D01*
X170036540Y-102541447D01*
X169974227Y-102575472D01*
X169903412Y-102570406D01*
X169858350Y-102541446D01*
X169339235Y-102022331D01*
X169339233Y-102022329D01*
X169235475Y-101953000D01*
X169120185Y-101905245D01*
X169046486Y-101890585D01*
X168997796Y-101880900D01*
X168997794Y-101880900D01*
X168902303Y-101880900D01*
X168834182Y-101860898D01*
X168813208Y-101843995D01*
X168777937Y-101808724D01*
X168777935Y-101808722D01*
X168629136Y-101709298D01*
X168512229Y-101660873D01*
X168463803Y-101640814D01*
X168463801Y-101640813D01*
X168463800Y-101640813D01*
X168375445Y-101623238D01*
X168288281Y-101605900D01*
X168288279Y-101605900D01*
X168109321Y-101605900D01*
X168109318Y-101605900D01*
X167978571Y-101631907D01*
X167933800Y-101640813D01*
X167933799Y-101640813D01*
X167933796Y-101640814D01*
X167768462Y-101709299D01*
X167619669Y-101808719D01*
X167619662Y-101808724D01*
X167493124Y-101935262D01*
X167493119Y-101935269D01*
X167393699Y-102084062D01*
X167325214Y-102249396D01*
X167290300Y-102424918D01*
X167290300Y-102603886D01*
X167297652Y-102640846D01*
X167291323Y-102711560D01*
X167247768Y-102767627D01*
X167244076Y-102770191D01*
X167162465Y-102824722D01*
X167162462Y-102824724D01*
X167035924Y-102951262D01*
X167035919Y-102951269D01*
X166936499Y-103100062D01*
X166868014Y-103265396D01*
X166833100Y-103440918D01*
X166833100Y-103440921D01*
X166833100Y-103619879D01*
X166868013Y-103795400D01*
X166936498Y-103960736D01*
X167035922Y-104109535D01*
X167162465Y-104236078D01*
X167311264Y-104335502D01*
X167476600Y-104403987D01*
X167652121Y-104438900D01*
X167702006Y-104438900D01*
X167770127Y-104458902D01*
X167791100Y-104475804D01*
X168870290Y-105554995D01*
X168904315Y-105617305D01*
X168899250Y-105688120D01*
X168870290Y-105733183D01*
X168772052Y-105831421D01*
X168691779Y-105951561D01*
X168691777Y-105951565D01*
X168665481Y-106015048D01*
X168638169Y-106055924D01*
X167236167Y-107457929D01*
X167147927Y-107546169D01*
X167147926Y-107546171D01*
X167078601Y-107649923D01*
X167030846Y-107765212D01*
X167006500Y-107887603D01*
X167006500Y-107887606D01*
X167006500Y-120333606D01*
X167006500Y-120458394D01*
X167030845Y-120580785D01*
X167078600Y-120696075D01*
X167147929Y-120799833D01*
X167147931Y-120799835D01*
X167488202Y-121140106D01*
X167522228Y-121202418D01*
X167517163Y-121273233D01*
X167503873Y-121299202D01*
X167444498Y-121388063D01*
X167376014Y-121553396D01*
X167341100Y-121728918D01*
X167341100Y-121907881D01*
X167354623Y-121975865D01*
X167376013Y-122083400D01*
X167444498Y-122248736D01*
X167543922Y-122397535D01*
X167670465Y-122524078D01*
X167819264Y-122623502D01*
X167920168Y-122665298D01*
X167984597Y-122691986D01*
X167984598Y-122691986D01*
X167984600Y-122691987D01*
X168116949Y-122718312D01*
X168179858Y-122751219D01*
X168214990Y-122812914D01*
X168211190Y-122883809D01*
X168181463Y-122930986D01*
X167501056Y-123611395D01*
X167438743Y-123645420D01*
X167411960Y-123648300D01*
X166083700Y-123648300D01*
X166015579Y-123628298D01*
X165969086Y-123574642D01*
X165957700Y-123522300D01*
X165957700Y-123405322D01*
X165957699Y-123405318D01*
X165954154Y-123387495D01*
X165922787Y-123229800D01*
X165854302Y-123064464D01*
X165754878Y-122915665D01*
X165628335Y-122789122D01*
X165479536Y-122689698D01*
X165362629Y-122641273D01*
X165314203Y-122621214D01*
X165314201Y-122621213D01*
X165314200Y-122621213D01*
X165225845Y-122603638D01*
X165138681Y-122586300D01*
X165138679Y-122586300D01*
X164959721Y-122586300D01*
X164959718Y-122586300D01*
X164828971Y-122612307D01*
X164784200Y-122621213D01*
X164784199Y-122621213D01*
X164784196Y-122621214D01*
X164677770Y-122665298D01*
X164627068Y-122686300D01*
X164618862Y-122689699D01*
X164470069Y-122789119D01*
X164470062Y-122789124D01*
X164434792Y-122824395D01*
X164372480Y-122858421D01*
X164345697Y-122861300D01*
X161413990Y-122861300D01*
X161345869Y-122841298D01*
X161299376Y-122787642D01*
X161289272Y-122717368D01*
X161309225Y-122665298D01*
X161383902Y-122553536D01*
X161452387Y-122388200D01*
X161487300Y-122212679D01*
X161487300Y-122033721D01*
X161452387Y-121858200D01*
X161383902Y-121692864D01*
X161284478Y-121544065D01*
X161157935Y-121417522D01*
X161009136Y-121318098D01*
X160876797Y-121263281D01*
X160843803Y-121249614D01*
X160843801Y-121249613D01*
X160843800Y-121249613D01*
X160755445Y-121232038D01*
X160668281Y-121214700D01*
X160668279Y-121214700D01*
X160489321Y-121214700D01*
X160489318Y-121214700D01*
X160397048Y-121233054D01*
X160313800Y-121249613D01*
X160313799Y-121249613D01*
X160313796Y-121249614D01*
X160148462Y-121318099D01*
X160136352Y-121326191D01*
X160114396Y-121340862D01*
X160110500Y-121343465D01*
X160042747Y-121364680D01*
X160040498Y-121364700D01*
X152227102Y-121364700D01*
X152158981Y-121344698D01*
X152157100Y-121343465D01*
X152153209Y-121340865D01*
X152119136Y-121318098D01*
X151986797Y-121263281D01*
X151953803Y-121249614D01*
X151953801Y-121249613D01*
X151953800Y-121249613D01*
X151865445Y-121232038D01*
X151778281Y-121214700D01*
X151778279Y-121214700D01*
X151599321Y-121214700D01*
X151599318Y-121214700D01*
X151507048Y-121233054D01*
X151423800Y-121249613D01*
X151423799Y-121249613D01*
X151423796Y-121249614D01*
X151258462Y-121318099D01*
X151246352Y-121326191D01*
X151224396Y-121340862D01*
X151220500Y-121343465D01*
X151152747Y-121364680D01*
X151150498Y-121364700D01*
X145221286Y-121364700D01*
X145153165Y-121344698D01*
X145106672Y-121291042D01*
X145097707Y-121263281D01*
X145096358Y-121256499D01*
X145094787Y-121248600D01*
X145026302Y-121083264D01*
X144926878Y-120934465D01*
X144800335Y-120807922D01*
X144651536Y-120708498D01*
X144534629Y-120660073D01*
X144486203Y-120640014D01*
X144486201Y-120640013D01*
X144486200Y-120640013D01*
X144382234Y-120619333D01*
X144310681Y-120605100D01*
X144310679Y-120605100D01*
X144131721Y-120605100D01*
X144131718Y-120605100D01*
X144000971Y-120631107D01*
X143956200Y-120640013D01*
X143956199Y-120640013D01*
X143956196Y-120640014D01*
X143790862Y-120708499D01*
X143642069Y-120807919D01*
X143642062Y-120807924D01*
X143515524Y-120934462D01*
X143515519Y-120934469D01*
X143416098Y-121083263D01*
X143347613Y-121248600D01*
X143347612Y-121248602D01*
X143344693Y-121263281D01*
X143311786Y-121326191D01*
X143250091Y-121361323D01*
X143221114Y-121364700D01*
X142301571Y-121364700D01*
X142233450Y-121344698D01*
X142212476Y-121327795D01*
X138583498Y-117698817D01*
X138549472Y-117636505D01*
X138554537Y-117565690D01*
X138583500Y-117520625D01*
X138593347Y-117510779D01*
X138673619Y-117390642D01*
X138728912Y-117257154D01*
X138757100Y-117115443D01*
X138757100Y-116970957D01*
X138728912Y-116829246D01*
X138673619Y-116695758D01*
X138593347Y-116575621D01*
X138593346Y-116575620D01*
X138593343Y-116575616D01*
X138491183Y-116473456D01*
X138491179Y-116473453D01*
X138421210Y-116426702D01*
X138371042Y-116393181D01*
X138237554Y-116337888D01*
X138138327Y-116318150D01*
X138075418Y-116285242D01*
X138073815Y-116283666D01*
X134909805Y-113119656D01*
X134894860Y-113092287D01*
X134878004Y-113066059D01*
X134877098Y-113059760D01*
X134875779Y-113057344D01*
X134872900Y-113030561D01*
X134872900Y-112976488D01*
X134875321Y-112951906D01*
X134888587Y-112885214D01*
X134897900Y-112838394D01*
X134897900Y-104964918D01*
X135413300Y-104964918D01*
X135413300Y-104964921D01*
X135413300Y-105143879D01*
X135448213Y-105319400D01*
X135516698Y-105484736D01*
X135616122Y-105633535D01*
X135742665Y-105760078D01*
X135891464Y-105859502D01*
X136056800Y-105927987D01*
X136232321Y-105962900D01*
X136232322Y-105962900D01*
X136411278Y-105962900D01*
X136411279Y-105962900D01*
X136586800Y-105927987D01*
X136752136Y-105859502D01*
X136900935Y-105760078D01*
X136961208Y-105699805D01*
X137023520Y-105665779D01*
X137050303Y-105662900D01*
X137900509Y-105662900D01*
X137900510Y-105662900D01*
X137900511Y-105662900D01*
X138010103Y-105633535D01*
X138055273Y-105621432D01*
X138194027Y-105541322D01*
X138624545Y-105110803D01*
X138686856Y-105076780D01*
X138713639Y-105073900D01*
X138798878Y-105073900D01*
X138798879Y-105073900D01*
X138974400Y-105038987D01*
X139139736Y-104970502D01*
X139288535Y-104871078D01*
X139415078Y-104744535D01*
X139514502Y-104595736D01*
X139582987Y-104430400D01*
X139617900Y-104254879D01*
X139617900Y-104075921D01*
X139582987Y-103900400D01*
X139514502Y-103735064D01*
X139415078Y-103586265D01*
X139288535Y-103459722D01*
X139139736Y-103360298D01*
X139000717Y-103302714D01*
X138974403Y-103291814D01*
X138974401Y-103291813D01*
X138974400Y-103291813D01*
X138886045Y-103274238D01*
X138798881Y-103256900D01*
X138798879Y-103256900D01*
X138619921Y-103256900D01*
X138619918Y-103256900D01*
X138489171Y-103282907D01*
X138444400Y-103291813D01*
X138444399Y-103291813D01*
X138444396Y-103291814D01*
X138279062Y-103360299D01*
X138130269Y-103459719D01*
X138130262Y-103459724D01*
X138003724Y-103586262D01*
X138003719Y-103586269D01*
X137904299Y-103735062D01*
X137835814Y-103900396D01*
X137800900Y-104075918D01*
X137800900Y-104161161D01*
X137792116Y-104191076D01*
X137785488Y-104221546D01*
X137781673Y-104226641D01*
X137780898Y-104229282D01*
X137763995Y-104250256D01*
X137605256Y-104408995D01*
X137542944Y-104443021D01*
X137516161Y-104445900D01*
X137050303Y-104445900D01*
X136982182Y-104425898D01*
X136961208Y-104408995D01*
X136900937Y-104348724D01*
X136900935Y-104348722D01*
X136752136Y-104249298D01*
X136611577Y-104191076D01*
X136586803Y-104180814D01*
X136586801Y-104180813D01*
X136586800Y-104180813D01*
X136488002Y-104161161D01*
X136411281Y-104145900D01*
X136411279Y-104145900D01*
X136232321Y-104145900D01*
X136232318Y-104145900D01*
X136101571Y-104171907D01*
X136056800Y-104180813D01*
X136056799Y-104180813D01*
X136056796Y-104180814D01*
X135891462Y-104249299D01*
X135742669Y-104348719D01*
X135742662Y-104348724D01*
X135616124Y-104475262D01*
X135616119Y-104475269D01*
X135516699Y-104624062D01*
X135448214Y-104789396D01*
X135413300Y-104964918D01*
X134897900Y-104964918D01*
X134897900Y-96333794D01*
X134917902Y-96265673D01*
X134934805Y-96244699D01*
X136225649Y-94953855D01*
X137531889Y-93647614D01*
X137594199Y-93613591D01*
X137665014Y-93618655D01*
X137721850Y-93661202D01*
X137744561Y-93712129D01*
X137759613Y-93787800D01*
X137828098Y-93953136D01*
X137927522Y-94101935D01*
X138054065Y-94228478D01*
X138202864Y-94327902D01*
X138368200Y-94396387D01*
X138543721Y-94431300D01*
X138543722Y-94431300D01*
X138722674Y-94431300D01*
X138722679Y-94431300D01*
X138722683Y-94431299D01*
X138728835Y-94430693D01*
X138729111Y-94433503D01*
X138787710Y-94438685D01*
X138843823Y-94482181D01*
X138867512Y-94549108D01*
X138867700Y-94555984D01*
X138867700Y-94704479D01*
X138902613Y-94880000D01*
X138971098Y-95045336D01*
X139070522Y-95194135D01*
X139197065Y-95320678D01*
X139345864Y-95420102D01*
X139511200Y-95488587D01*
X139686721Y-95523500D01*
X139686722Y-95523500D01*
X139865678Y-95523500D01*
X139865679Y-95523500D01*
X140041200Y-95488587D01*
X140206536Y-95420102D01*
X140355335Y-95320678D01*
X140481878Y-95194135D01*
X140581302Y-95045336D01*
X140649787Y-94880000D01*
X140684700Y-94704479D01*
X140684700Y-94654594D01*
X140704702Y-94586473D01*
X140721605Y-94565499D01*
X141957499Y-93329605D01*
X142019811Y-93295579D01*
X142046594Y-93292700D01*
X158863193Y-93292700D01*
X158863194Y-93292700D01*
X158985585Y-93268355D01*
X159100875Y-93220600D01*
X159204633Y-93151271D01*
X160859499Y-91496405D01*
X160880281Y-91485056D01*
X160898473Y-91469898D01*
X160913903Y-91466696D01*
X160921811Y-91462379D01*
X160933072Y-91460460D01*
X160940805Y-91459500D01*
X160998479Y-91459500D01*
X161094223Y-91440455D01*
X161098778Y-91439890D01*
X161129459Y-91444907D01*
X161160432Y-91447679D01*
X161164171Y-91450583D01*
X161168844Y-91451348D01*
X161191948Y-91472161D01*
X161216499Y-91491233D01*
X161218073Y-91495696D01*
X161221593Y-91498867D01*
X161229778Y-91528874D01*
X161240119Y-91558185D01*
X161240300Y-91564930D01*
X161240300Y-91981497D01*
X161220298Y-92049618D01*
X161203395Y-92070592D01*
X161143124Y-92130862D01*
X161143119Y-92130869D01*
X161043699Y-92279662D01*
X160975214Y-92444996D01*
X160975213Y-92444999D01*
X160975213Y-92445000D01*
X160968541Y-92478543D01*
X160940300Y-92620518D01*
X160940300Y-92799481D01*
X160954806Y-92872405D01*
X160975213Y-92975000D01*
X161043698Y-93140336D01*
X161143122Y-93289135D01*
X161269665Y-93415678D01*
X161418464Y-93515102D01*
X161583800Y-93583587D01*
X161759321Y-93618500D01*
X161759322Y-93618500D01*
X161938278Y-93618500D01*
X161938279Y-93618500D01*
X162113800Y-93583587D01*
X162279136Y-93515102D01*
X162427935Y-93415678D01*
X162554478Y-93289135D01*
X162653902Y-93140336D01*
X162722387Y-92975000D01*
X162757300Y-92799479D01*
X162757300Y-92620521D01*
X162722387Y-92445000D01*
X162653902Y-92279664D01*
X162554478Y-92130865D01*
X162494205Y-92070592D01*
X162460179Y-92008280D01*
X162457300Y-91981497D01*
X162457300Y-90191490D01*
X162429404Y-90087380D01*
X162429404Y-90087379D01*
X162429403Y-90087377D01*
X162415833Y-90036731D01*
X162415832Y-90036727D01*
X162403761Y-90015820D01*
X162335724Y-89897976D01*
X162335716Y-89897966D01*
X161308033Y-88870283D01*
X161308023Y-88870275D01*
X161169277Y-88790170D01*
X161169274Y-88790169D01*
X161169273Y-88790168D01*
X161169271Y-88790167D01*
X161169270Y-88790167D01*
X161091891Y-88769434D01*
X161014511Y-88748700D01*
X160862111Y-88748700D01*
X160143089Y-88748700D01*
X160060155Y-88770922D01*
X159988330Y-88790167D01*
X159988323Y-88790170D01*
X159849576Y-88870275D01*
X159849570Y-88870280D01*
X159785718Y-88934133D01*
X159647654Y-89072196D01*
X159626235Y-89083891D01*
X159607301Y-89099291D01*
X159592625Y-89102244D01*
X159585345Y-89106220D01*
X159572591Y-89108316D01*
X159565594Y-89109100D01*
X159473321Y-89109100D01*
X159354290Y-89132776D01*
X159348966Y-89133373D01*
X159319057Y-89128115D01*
X159288803Y-89125408D01*
X159284458Y-89122033D01*
X159279042Y-89121081D01*
X159256722Y-89100486D01*
X159232736Y-89081853D01*
X159230906Y-89076665D01*
X159226864Y-89072936D01*
X159219219Y-89043538D01*
X159209117Y-89014900D01*
X159210381Y-89009548D01*
X159208997Y-89004224D01*
X159218460Y-88975361D01*
X159225444Y-88945807D01*
X159230190Y-88939582D01*
X159231116Y-88936761D01*
X159234346Y-88934133D01*
X159245837Y-88919066D01*
X160605499Y-87559405D01*
X160667811Y-87525379D01*
X160694594Y-87522500D01*
X160744478Y-87522500D01*
X160744479Y-87522500D01*
X160920000Y-87487587D01*
X161085336Y-87419102D01*
X161234135Y-87319678D01*
X161360678Y-87193135D01*
X161460102Y-87044336D01*
X161528587Y-86879000D01*
X161563500Y-86703479D01*
X161563500Y-86524521D01*
X161528587Y-86349000D01*
X161516238Y-86319187D01*
X161478599Y-86228318D01*
X161471010Y-86157729D01*
X161502789Y-86094242D01*
X161563847Y-86058014D01*
X161595008Y-86054100D01*
X161900161Y-86054100D01*
X161968282Y-86074102D01*
G37*
G04 #@! TD.AperFunction*
G04 #@! TA.AperFunction,Conductor*
G36*
X151168192Y-122886895D02*
G01*
X151186634Y-122886993D01*
X151218013Y-122901524D01*
X151218619Y-122901702D01*
X151219152Y-122902051D01*
X151219177Y-122902063D01*
X151219824Y-122902483D01*
X151258464Y-122928302D01*
X151261417Y-122929525D01*
X151269012Y-122934463D01*
X151288745Y-122957481D01*
X151310377Y-122978729D01*
X151311606Y-122984146D01*
X151315221Y-122988363D01*
X151319377Y-123018395D01*
X151326087Y-123047966D01*
X151324192Y-123053187D01*
X151324954Y-123058690D01*
X151312213Y-123086203D01*
X151301872Y-123114705D01*
X151297455Y-123118073D01*
X151295121Y-123123114D01*
X151269526Y-123139372D01*
X151245418Y-123157758D01*
X151239881Y-123158203D01*
X151235193Y-123161182D01*
X151200333Y-123166100D01*
X150417645Y-123166100D01*
X150349524Y-123146098D01*
X150303031Y-123092442D01*
X150294067Y-123064686D01*
X150287621Y-123032278D01*
X150293951Y-122961565D01*
X150337507Y-122905498D01*
X150404460Y-122881880D01*
X150411201Y-122881700D01*
X151150498Y-122881700D01*
X151168192Y-122886895D01*
G37*
G04 #@! TD.AperFunction*
G04 #@! TA.AperFunction,Conductor*
G36*
X160108619Y-122901702D02*
G01*
X160110473Y-122902917D01*
X160148464Y-122928302D01*
X160148467Y-122928304D01*
X160149728Y-122928978D01*
X160150264Y-122929504D01*
X160153611Y-122931741D01*
X160153186Y-122932375D01*
X160200377Y-122978729D01*
X160216087Y-123047966D01*
X160191872Y-123114705D01*
X160135418Y-123157758D01*
X160090333Y-123166100D01*
X152177267Y-123166100D01*
X152143471Y-123156176D01*
X152109707Y-123146456D01*
X152109479Y-123146195D01*
X152109146Y-123146098D01*
X152086104Y-123119506D01*
X152062931Y-123093047D01*
X152062879Y-123092703D01*
X152062653Y-123092442D01*
X152057634Y-123057540D01*
X152052457Y-123022827D01*
X152052598Y-123022512D01*
X152052549Y-123022168D01*
X152067162Y-122990170D01*
X152081608Y-122958091D01*
X152081932Y-122957830D01*
X152082043Y-122957588D01*
X152108588Y-122934463D01*
X152116182Y-122929525D01*
X152119136Y-122928302D01*
X152157775Y-122902483D01*
X152158423Y-122902063D01*
X152191694Y-122892102D01*
X152224853Y-122881720D01*
X152226423Y-122881706D01*
X152226437Y-122881702D01*
X152226450Y-122881705D01*
X152227102Y-122881700D01*
X160040498Y-122881700D01*
X160108619Y-122901702D01*
G37*
G04 #@! TD.AperFunction*
G04 #@! TA.AperFunction,Conductor*
G36*
X173501905Y-105104157D02*
G01*
X173534165Y-105104733D01*
X173538420Y-105106768D01*
X173540548Y-105106921D01*
X173566517Y-105120211D01*
X173566836Y-105120424D01*
X173642558Y-105171019D01*
X173776046Y-105226312D01*
X173776051Y-105226313D01*
X173779370Y-105227320D01*
X173781360Y-105228513D01*
X173781766Y-105228681D01*
X173781741Y-105228741D01*
X173791962Y-105234867D01*
X173803188Y-105237309D01*
X173831898Y-105258802D01*
X173954595Y-105381499D01*
X173988621Y-105443811D01*
X173991500Y-105470594D01*
X173991500Y-111191405D01*
X173971498Y-111259526D01*
X173954595Y-111280500D01*
X171157844Y-114077250D01*
X171095532Y-114111276D01*
X171024716Y-114106211D01*
X170967881Y-114063664D01*
X170943070Y-113997144D01*
X170945169Y-113963577D01*
X170961500Y-113881479D01*
X170961500Y-113702521D01*
X170926587Y-113527000D01*
X170858102Y-113361664D01*
X170758678Y-113212865D01*
X170632135Y-113086322D01*
X170483336Y-112986898D01*
X170366429Y-112938473D01*
X170318003Y-112918414D01*
X170318001Y-112918413D01*
X170318000Y-112918413D01*
X170229645Y-112900838D01*
X170142481Y-112883500D01*
X170142479Y-112883500D01*
X169963521Y-112883500D01*
X169963513Y-112883500D01*
X169923080Y-112891543D01*
X169852366Y-112885214D01*
X169796299Y-112841659D01*
X169772681Y-112774706D01*
X169772500Y-112767964D01*
X169772500Y-110023401D01*
X169792502Y-109955280D01*
X169793735Y-109953399D01*
X169814019Y-109923042D01*
X169869312Y-109789554D01*
X169897500Y-109647843D01*
X169897500Y-109503357D01*
X169869312Y-109361646D01*
X169814019Y-109228158D01*
X169733747Y-109108021D01*
X169733746Y-109108020D01*
X169733743Y-109108016D01*
X169631583Y-109005856D01*
X169631579Y-109005853D01*
X169511442Y-108925581D01*
X169377954Y-108870288D01*
X169292621Y-108853314D01*
X169236245Y-108842100D01*
X169236243Y-108842100D01*
X169091757Y-108842100D01*
X169091754Y-108842100D01*
X169007190Y-108858921D01*
X168950046Y-108870288D01*
X168950044Y-108870288D01*
X168950043Y-108870289D01*
X168816557Y-108925581D01*
X168696420Y-109005853D01*
X168696416Y-109005856D01*
X168594256Y-109108016D01*
X168594253Y-109108020D01*
X168513979Y-109228160D01*
X168511062Y-109233619D01*
X168508756Y-109232386D01*
X168471338Y-109278800D01*
X168403969Y-109301206D01*
X168335182Y-109283633D01*
X168286815Y-109231660D01*
X168273500Y-109175285D01*
X168273500Y-108264594D01*
X168293502Y-108196473D01*
X168310405Y-108175499D01*
X168835981Y-107649923D01*
X169436152Y-107049751D01*
X169498462Y-107015728D01*
X169500603Y-107015281D01*
X169555754Y-107004312D01*
X169689242Y-106949019D01*
X169809379Y-106868747D01*
X169911547Y-106766579D01*
X169991819Y-106646442D01*
X170047112Y-106512954D01*
X170075300Y-106371243D01*
X170075300Y-106226757D01*
X170063748Y-106168681D01*
X170070076Y-106097968D01*
X170113630Y-106041901D01*
X170180582Y-106018281D01*
X170187327Y-106018100D01*
X172325193Y-106018100D01*
X172325194Y-106018100D01*
X172447585Y-105993755D01*
X172562875Y-105946000D01*
X172666633Y-105876671D01*
X173407424Y-105135879D01*
X173435727Y-105120424D01*
X173463180Y-105103467D01*
X173466670Y-105103529D01*
X173469733Y-105101857D01*
X173501905Y-105104157D01*
G37*
G04 #@! TD.AperFunction*
G04 #@! TA.AperFunction,Conductor*
G36*
X158597389Y-89671680D02*
G01*
X158654225Y-89714227D01*
X158679036Y-89780747D01*
X158676936Y-89814317D01*
X158654300Y-89928115D01*
X158654300Y-90107081D01*
X158661121Y-90141373D01*
X158689213Y-90282600D01*
X158757698Y-90447936D01*
X158857122Y-90596735D01*
X158983665Y-90723278D01*
X159132464Y-90822702D01*
X159297800Y-90891187D01*
X159379475Y-90907433D01*
X159442384Y-90940341D01*
X159477516Y-91002036D01*
X159473716Y-91072931D01*
X159443989Y-91120107D01*
X158575299Y-91988796D01*
X158512989Y-92022820D01*
X158486206Y-92025700D01*
X156443394Y-92025700D01*
X156375273Y-92005698D01*
X156328780Y-91952042D01*
X156318676Y-91881768D01*
X156348170Y-91817188D01*
X156354299Y-91810605D01*
X157405642Y-90759262D01*
X158464264Y-89700639D01*
X158526574Y-89666616D01*
X158597389Y-89671680D01*
G37*
G04 #@! TD.AperFunction*
G04 #@! TA.AperFunction,Conductor*
G36*
X152255126Y-90874302D02*
G01*
X152276100Y-90891205D01*
X152365359Y-90980464D01*
X152399385Y-91042776D01*
X152394320Y-91113591D01*
X152392674Y-91117774D01*
X152390016Y-91124190D01*
X152390013Y-91124199D01*
X152355100Y-91299718D01*
X152355100Y-91442500D01*
X152335098Y-91510621D01*
X152281442Y-91557114D01*
X152229100Y-91568500D01*
X150525195Y-91568500D01*
X150457074Y-91548498D01*
X150410581Y-91494842D01*
X150400477Y-91424568D01*
X150429971Y-91359988D01*
X150436100Y-91353404D01*
X150579019Y-91210486D01*
X150898301Y-90891204D01*
X150960613Y-90857179D01*
X150987396Y-90854300D01*
X152187005Y-90854300D01*
X152255126Y-90874302D01*
G37*
G04 #@! TD.AperFunction*
G04 #@! TA.AperFunction,Conductor*
G36*
X85653045Y-59912566D02*
G01*
X85677621Y-59940930D01*
X85677796Y-59940804D01*
X85679268Y-59942830D01*
X85680039Y-59943720D01*
X85680705Y-59944807D01*
X85680706Y-59944809D01*
X85806394Y-60117804D01*
X85806396Y-60117806D01*
X85806398Y-60117809D01*
X85957590Y-60269001D01*
X85957593Y-60269003D01*
X85957596Y-60269006D01*
X86130591Y-60394694D01*
X86130601Y-60394699D01*
X86132167Y-60395659D01*
X86132642Y-60396184D01*
X86134596Y-60397604D01*
X86134297Y-60398014D01*
X86179800Y-60448305D01*
X86191408Y-60518346D01*
X86163307Y-60583545D01*
X86134757Y-60608284D01*
X86134859Y-60608424D01*
X86133239Y-60609600D01*
X86132174Y-60610524D01*
X86130861Y-60611328D01*
X86078431Y-60649421D01*
X86078431Y-60649422D01*
X86717651Y-61288642D01*
X86649607Y-61306875D01*
X86535593Y-61372701D01*
X86442501Y-61465793D01*
X86376675Y-61579807D01*
X86358442Y-61647851D01*
X85708876Y-60998285D01*
X85678040Y-60991807D01*
X85627481Y-60941965D01*
X85618032Y-60920430D01*
X85594715Y-60850062D01*
X85501630Y-60699148D01*
X85501629Y-60699147D01*
X85501624Y-60699141D01*
X85376258Y-60573775D01*
X85376252Y-60573770D01*
X85350030Y-60557596D01*
X85225338Y-60480685D01*
X85225334Y-60480683D01*
X85225333Y-60480683D01*
X85218686Y-60477583D01*
X85220019Y-60474723D01*
X85173273Y-60442305D01*
X85146067Y-60376728D01*
X85158635Y-60306852D01*
X85184892Y-60273295D01*
X85184104Y-60272507D01*
X85338801Y-60117809D01*
X85338806Y-60117804D01*
X85464494Y-59944809D01*
X85464499Y-59944797D01*
X85465161Y-59943720D01*
X85465524Y-59943391D01*
X85467404Y-59940804D01*
X85467947Y-59941198D01*
X85517804Y-59896083D01*
X85587844Y-59884470D01*
X85653045Y-59912566D01*
G37*
G04 #@! TD.AperFunction*
G04 #@! TA.AperFunction,Conductor*
G36*
X88193045Y-59912566D02*
G01*
X88217621Y-59940930D01*
X88217796Y-59940804D01*
X88219268Y-59942830D01*
X88220039Y-59943720D01*
X88220705Y-59944807D01*
X88220706Y-59944809D01*
X88346394Y-60117804D01*
X88346396Y-60117806D01*
X88346398Y-60117809D01*
X88497590Y-60269001D01*
X88497593Y-60269003D01*
X88497596Y-60269006D01*
X88670591Y-60394694D01*
X88670601Y-60394699D01*
X88672167Y-60395659D01*
X88672642Y-60396184D01*
X88674596Y-60397604D01*
X88674297Y-60398014D01*
X88719800Y-60448305D01*
X88731408Y-60518346D01*
X88703307Y-60583545D01*
X88674757Y-60608284D01*
X88674859Y-60608424D01*
X88673239Y-60609600D01*
X88672174Y-60610524D01*
X88670861Y-60611328D01*
X88618431Y-60649421D01*
X88618431Y-60649422D01*
X89257651Y-61288642D01*
X89189607Y-61306875D01*
X89075593Y-61372701D01*
X88982501Y-61465793D01*
X88916675Y-61579807D01*
X88898442Y-61647851D01*
X88259222Y-61008631D01*
X88259221Y-61008631D01*
X88221122Y-61061069D01*
X88220022Y-61062865D01*
X88219427Y-61063403D01*
X88218224Y-61065059D01*
X88217875Y-61064806D01*
X88167368Y-61110489D01*
X88097325Y-61122086D01*
X88032131Y-61093974D01*
X88007040Y-61065011D01*
X88006976Y-61065058D01*
X88006430Y-61064306D01*
X88005163Y-61062844D01*
X88004062Y-61061048D01*
X87965978Y-61008631D01*
X87326757Y-61647851D01*
X87308525Y-61579807D01*
X87242699Y-61465793D01*
X87149607Y-61372701D01*
X87035593Y-61306875D01*
X86967547Y-61288641D01*
X87606768Y-60649421D01*
X87606767Y-60649420D01*
X87554350Y-60611336D01*
X87553028Y-60610526D01*
X87552630Y-60610086D01*
X87550342Y-60608424D01*
X87550691Y-60607943D01*
X87505397Y-60557878D01*
X87493791Y-60487836D01*
X87521895Y-60422639D01*
X87550675Y-60397703D01*
X87550604Y-60397604D01*
X87551758Y-60396765D01*
X87553041Y-60395654D01*
X87554592Y-60394702D01*
X87554609Y-60394694D01*
X87727604Y-60269006D01*
X87878806Y-60117804D01*
X88004494Y-59944809D01*
X88004499Y-59944797D01*
X88005161Y-59943720D01*
X88005524Y-59943391D01*
X88007404Y-59940804D01*
X88007947Y-59941198D01*
X88057804Y-59896083D01*
X88127844Y-59884470D01*
X88193045Y-59912566D01*
G37*
G04 #@! TD.AperFunction*
G04 #@! TA.AperFunction,Conductor*
G36*
X90733045Y-59912566D02*
G01*
X90757621Y-59940930D01*
X90757796Y-59940804D01*
X90759268Y-59942830D01*
X90760039Y-59943720D01*
X90760705Y-59944807D01*
X90760706Y-59944809D01*
X90886394Y-60117804D01*
X90886396Y-60117806D01*
X90886398Y-60117809D01*
X91037590Y-60269001D01*
X91037593Y-60269003D01*
X91037596Y-60269006D01*
X91210591Y-60394694D01*
X91210596Y-60394696D01*
X91211688Y-60395366D01*
X91212018Y-60395731D01*
X91214596Y-60397604D01*
X91214202Y-60398145D01*
X91259321Y-60448013D01*
X91270928Y-60518055D01*
X91242826Y-60583253D01*
X91214470Y-60607823D01*
X91214596Y-60607996D01*
X91212582Y-60609458D01*
X91211688Y-60610234D01*
X91210587Y-60610908D01*
X91037593Y-60736596D01*
X91037590Y-60736598D01*
X90886398Y-60887790D01*
X90886396Y-60887793D01*
X90760700Y-61060798D01*
X90759731Y-61062380D01*
X90759206Y-61062854D01*
X90757796Y-61064796D01*
X90757387Y-61064499D01*
X90707079Y-61110006D01*
X90637037Y-61121607D01*
X90571842Y-61093497D01*
X90547114Y-61064957D01*
X90546976Y-61065058D01*
X90545799Y-61063439D01*
X90544870Y-61062366D01*
X90544061Y-61061047D01*
X90505978Y-61008631D01*
X89866757Y-61647851D01*
X89848525Y-61579807D01*
X89782699Y-61465793D01*
X89689607Y-61372701D01*
X89575593Y-61306875D01*
X89507547Y-61288641D01*
X90146768Y-60649421D01*
X90146767Y-60649420D01*
X90094350Y-60611336D01*
X90093028Y-60610526D01*
X90092630Y-60610086D01*
X90090342Y-60608424D01*
X90090691Y-60607943D01*
X90045397Y-60557878D01*
X90033791Y-60487836D01*
X90061895Y-60422639D01*
X90090675Y-60397703D01*
X90090604Y-60397604D01*
X90091758Y-60396765D01*
X90093041Y-60395654D01*
X90094592Y-60394702D01*
X90094609Y-60394694D01*
X90267604Y-60269006D01*
X90418806Y-60117804D01*
X90544494Y-59944809D01*
X90544499Y-59944797D01*
X90545161Y-59943720D01*
X90545524Y-59943391D01*
X90547404Y-59940804D01*
X90547947Y-59941198D01*
X90597804Y-59896083D01*
X90667844Y-59884470D01*
X90733045Y-59912566D01*
G37*
G04 #@! TD.AperFunction*
G04 #@! TA.AperFunction,Conductor*
G36*
X93273045Y-59912566D02*
G01*
X93297621Y-59940930D01*
X93297796Y-59940804D01*
X93299268Y-59942830D01*
X93300039Y-59943720D01*
X93300705Y-59944807D01*
X93300706Y-59944809D01*
X93426394Y-60117804D01*
X93426396Y-60117806D01*
X93426398Y-60117809D01*
X93577590Y-60269001D01*
X93577593Y-60269003D01*
X93577596Y-60269006D01*
X93750591Y-60394694D01*
X93750601Y-60394699D01*
X93752167Y-60395659D01*
X93752642Y-60396184D01*
X93754596Y-60397604D01*
X93754297Y-60398014D01*
X93799800Y-60448305D01*
X93811408Y-60518346D01*
X93783307Y-60583545D01*
X93754757Y-60608284D01*
X93754859Y-60608424D01*
X93753239Y-60609600D01*
X93752174Y-60610524D01*
X93750861Y-60611328D01*
X93698431Y-60649421D01*
X93698431Y-60649422D01*
X94337651Y-61288642D01*
X94269607Y-61306875D01*
X94155593Y-61372701D01*
X94062501Y-61465793D01*
X93996675Y-61579807D01*
X93978442Y-61647851D01*
X93339222Y-61008631D01*
X93339221Y-61008631D01*
X93301128Y-61061061D01*
X93300324Y-61062374D01*
X93299888Y-61062767D01*
X93298224Y-61065059D01*
X93297742Y-61064709D01*
X93247675Y-61110003D01*
X93177633Y-61121607D01*
X93112436Y-61093502D01*
X93087501Y-61064724D01*
X93087404Y-61064796D01*
X93086575Y-61063655D01*
X93085459Y-61062367D01*
X93084499Y-61060801D01*
X93084494Y-61060791D01*
X92958806Y-60887796D01*
X92958803Y-60887793D01*
X92958801Y-60887790D01*
X92807609Y-60736598D01*
X92807606Y-60736596D01*
X92807604Y-60736594D01*
X92634609Y-60610906D01*
X92634607Y-60610905D01*
X92633520Y-60610239D01*
X92633191Y-60609875D01*
X92630604Y-60607996D01*
X92630998Y-60607452D01*
X92585883Y-60557596D01*
X92574270Y-60487556D01*
X92602366Y-60422355D01*
X92630730Y-60397778D01*
X92630604Y-60397604D01*
X92632630Y-60396131D01*
X92633520Y-60395361D01*
X92634597Y-60394699D01*
X92634609Y-60394694D01*
X92807604Y-60269006D01*
X92958806Y-60117804D01*
X93084494Y-59944809D01*
X93084499Y-59944797D01*
X93085161Y-59943720D01*
X93085524Y-59943391D01*
X93087404Y-59940804D01*
X93087947Y-59941198D01*
X93137804Y-59896083D01*
X93207844Y-59884470D01*
X93273045Y-59912566D01*
G37*
G04 #@! TD.AperFunction*
M02*
