M48
; DRILL file {KiCad 9.0.0} date 2025-03-12T23:14:43-0500
; FORMAT={-:-/ absolute / metric / decimal}
; #@! TF.CreationDate,2025-03-12T23:14:43-05:00
; #@! TF.GenerationSoftware,Kicad,Pcbnew,9.0.0
; #@! TF.FileFunction,Plated,1,2,PTH
FMAT,2
METRIC
; #@! TA.AperFunction,Plated,PTH,ViaDrill
T1C0.305
; #@! TA.AperFunction,Plated,PTH,ViaDrill
T2C0.400
; #@! TA.AperFunction,Plated,PTH,ComponentDrill
T3C0.800
; #@! TA.AperFunction,Plated,PTH,ComponentDrill
T4C1.000
; #@! TA.AperFunction,Plated,PTH,ComponentDrill
T5C1.100
%
G90
G05
T1
X81.94Y-120.193
X82.347Y-128.575
X88.036Y-129.743
X88.24Y-119.532
X89.713Y-125.07
X106.934Y-70.917
X116.078Y-125.12
X121.92Y-124.816
X128.88Y-125.425
X134.417Y-126.594
X137.109Y-123.546
X138.024Y-117.043
X138.786Y-102.413
X139.192Y-121.463
X142.443Y-128.27
X145.847Y-129.845
X150.52Y-122.987
X151.638Y-91.491
X153.619Y-122.987
X156.312Y-147.879
X156.82Y-91.846
X163.576Y-93.015
X167.081Y-74.778
X167.081Y-119.634
X167.589Y-99.974
X167.64Y-112.014
X167.792Y-106.477
X170.434Y-75.844
X178.308Y-118.72
T2
X82.194Y-133.807
X85.598Y-92.456
X88.633Y-125.616
X88.646Y-122.555
X90.678Y-124.46
X92.837Y-95.123
X96.266Y-81.28
X98.679Y-94.869
X108.458Y-78.994
X108.585Y-76.835
X113.284Y-62.992
X118.745Y-83.439
X120.904Y-78.105
X122.301Y-74.422
X123.317Y-78.867
X125.222Y-76.962
X127.0Y-136.017
X128.27Y-96.215
X128.524Y-94.869
X128.575Y-92.253
X128.626Y-118.516
X130.175Y-127.635
X131.267Y-117.856
X132.08Y-122.225
X133.858Y-114.046
X134.468Y-121.92
X134.874Y-90.627
X136.601Y-105.054
X138.633Y-93.523
X138.709Y-104.165
X139.497Y-85.446
X139.776Y-94.615
X142.24Y-87.274
X142.875Y-88.265
X143.307Y-135.077
X143.764Y-147.625
X144.1Y-134.468
X144.221Y-121.514
X144.831Y-147.625
X144.932Y-133.502
X146.101Y-147.574
X146.253Y-133.807
X146.685Y-80.137
X147.472Y-147.371
X148.285Y-87.224
X148.717Y-82.042
X149.352Y-88.265
X149.403Y-123.241
X151.689Y-122.123
X153.264Y-91.389
X153.721Y-90.373
X153.772Y-87.02
X153.924Y-89.205
X157.785Y-87.986
X159.258Y-126.238
X159.563Y-90.018
X160.579Y-122.123
X160.655Y-86.614
X160.909Y-90.551
X161.849Y-92.71
X164.084Y-150.368
X165.049Y-123.495
X167.742Y-103.53
X168.097Y-97.079
X168.199Y-102.514
X168.199Y-152.044
X168.351Y-153.365
X168.656Y-121.412
X169.037Y-143.891
X169.52Y-98.908
X170.688Y-103.175
X171.348Y-100.736
X172.085Y-118.618
X172.415Y-101.448
X172.593Y-119.507
X173.101Y-121.285
X175.133Y-105.537
X175.768Y-115.637
X176.149Y-101.219
X176.276Y-121.92
X178.816Y-124.079
X181.483Y-126.746
X183.896Y-132.461
X185.166Y-121.412
T3
X168.91Y-85.544
X168.91Y-90.424
T4
X82.931Y-90.932
X88.138Y-91.059
X93.091Y-90.932
X99.06Y-90.932
X139.573Y-150.495
X142.113Y-150.495
X144.653Y-150.495
X147.193Y-150.495
X149.733Y-150.495
X152.273Y-150.495
X154.813Y-150.495
X157.353Y-150.495
X167.782Y-69.158
X167.782Y-71.698
X170.322Y-69.158
X170.322Y-71.698
X172.862Y-69.158
X172.862Y-71.698
X173.99Y-126.492
X180.213Y-111.633
X183.515Y-128.397
X185.801Y-139.7
T5
X99.441Y-63.881
X109.601Y-63.881
X115.189Y-69.723
X115.189Y-79.883
X123.698Y-63.881
X133.858Y-63.881
X143.129Y-67.31
X143.129Y-77.47
M30
