G04 #@! TF.GenerationSoftware,KiCad,Pcbnew,9.0.0*
G04 #@! TF.CreationDate,2025-03-12T23:10:26-05:00*
G04 #@! TF.ProjectId,Portable Offline Translator,506f7274-6162-46c6-9520-4f66666c696e,rev?*
G04 #@! TF.SameCoordinates,Original*
G04 #@! TF.FileFunction,Paste,Top*
G04 #@! TF.FilePolarity,Positive*
%FSLAX46Y46*%
G04 Gerber Fmt 4.6, Leading zero omitted, Abs format (unit mm)*
G04 Created by KiCad (PCBNEW 9.0.0) date 2025-03-12 23:10:26*
%MOMM*%
%LPD*%
G01*
G04 APERTURE LIST*
G04 Aperture macros list*
%AMRoundRect*
0 Rectangle with rounded corners*
0 $1 Rounding radius*
0 $2 $3 $4 $5 $6 $7 $8 $9 X,Y pos of 4 corners*
0 Add a 4 corners polygon primitive as box body*
4,1,4,$2,$3,$4,$5,$6,$7,$8,$9,$2,$3,0*
0 Add four circle primitives for the rounded corners*
1,1,$1+$1,$2,$3*
1,1,$1+$1,$4,$5*
1,1,$1+$1,$6,$7*
1,1,$1+$1,$8,$9*
0 Add four rect primitives between the rounded corners*
20,1,$1+$1,$2,$3,$4,$5,0*
20,1,$1+$1,$4,$5,$6,$7,0*
20,1,$1+$1,$6,$7,$8,$9,0*
20,1,$1+$1,$8,$9,$2,$3,0*%
G04 Aperture macros list end*
%ADD10C,0.001000*%
%ADD11R,1.550000X1.300000*%
%ADD12RoundRect,0.250000X0.350000X0.450000X-0.350000X0.450000X-0.350000X-0.450000X0.350000X-0.450000X0*%
%ADD13RoundRect,0.237500X0.237500X-0.300000X0.237500X0.300000X-0.237500X0.300000X-0.237500X-0.300000X0*%
%ADD14RoundRect,0.250000X-0.350000X-0.450000X0.350000X-0.450000X0.350000X0.450000X-0.350000X0.450000X0*%
%ADD15R,2.000000X1.500000*%
%ADD16R,2.000000X3.800000*%
%ADD17R,2.000000X2.000000*%
%ADD18RoundRect,0.237500X-0.300000X-0.237500X0.300000X-0.237500X0.300000X0.237500X-0.300000X0.237500X0*%
%ADD19RoundRect,0.250000X0.450000X-0.350000X0.450000X0.350000X-0.450000X0.350000X-0.450000X-0.350000X0*%
%ADD20RoundRect,0.237500X-0.237500X0.300000X-0.237500X-0.300000X0.237500X-0.300000X0.237500X0.300000X0*%
%ADD21R,0.700000X0.200000*%
%ADD22RoundRect,0.125000X0.125000X0.125000X-0.125000X0.125000X-0.125000X-0.125000X0.125000X-0.125000X0*%
%ADD23RoundRect,0.062500X0.350000X0.062500X-0.350000X0.062500X-0.350000X-0.062500X0.350000X-0.062500X0*%
%ADD24RoundRect,0.062500X0.062500X0.350000X-0.062500X0.350000X-0.062500X-0.350000X0.062500X-0.350000X0*%
%ADD25RoundRect,0.075000X-0.675000X-0.075000X0.675000X-0.075000X0.675000X0.075000X-0.675000X0.075000X0*%
%ADD26RoundRect,0.075000X-0.075000X-0.675000X0.075000X-0.675000X0.075000X0.675000X-0.075000X0.675000X0*%
%ADD27R,7.340000X6.350000*%
G04 APERTURE END LIST*
D10*
X128904400Y-121689000D02*
X128404400Y-121689000D01*
X128404400Y-121267000D01*
X128904400Y-121267000D01*
X128904400Y-121689000D01*
G36*
X128904400Y-121689000D02*
G01*
X128404400Y-121689000D01*
X128404400Y-121267000D01*
X128904400Y-121267000D01*
X128904400Y-121689000D01*
G37*
X128904400Y-122511000D02*
X128404400Y-122511000D01*
X128404400Y-122089000D01*
X128904400Y-122089000D01*
X128904400Y-122511000D01*
G36*
X128904400Y-122511000D02*
G01*
X128404400Y-122511000D01*
X128404400Y-122089000D01*
X128904400Y-122089000D01*
X128904400Y-122511000D01*
G37*
X129804400Y-121689000D02*
X129304400Y-121689000D01*
X129304400Y-121267000D01*
X129804400Y-121267000D01*
X129804400Y-121689000D01*
G36*
X129804400Y-121689000D02*
G01*
X129304400Y-121689000D01*
X129304400Y-121267000D01*
X129804400Y-121267000D01*
X129804400Y-121689000D01*
G37*
X130704400Y-121689000D02*
X130204400Y-121689000D01*
X130204400Y-121267000D01*
X130704400Y-121267000D01*
X130704400Y-121689000D01*
G36*
X130704400Y-121689000D02*
G01*
X130204400Y-121689000D01*
X130204400Y-121267000D01*
X130704400Y-121267000D01*
X130704400Y-121689000D01*
G37*
X130704400Y-122511000D02*
X130204400Y-122511000D01*
X130204400Y-122089000D01*
X130704400Y-122089000D01*
X130704400Y-122511000D01*
G36*
X130704400Y-122511000D02*
G01*
X130204400Y-122511000D01*
X130204400Y-122089000D01*
X130704400Y-122089000D01*
X130704400Y-122511000D01*
G37*
X129504400Y-123042000D02*
X129483400Y-123044000D01*
X129459400Y-123048000D01*
X129436400Y-123053000D01*
X129413400Y-123059000D01*
X129391400Y-123066000D01*
X129368400Y-123074000D01*
X129346400Y-123083000D01*
X129325400Y-123093000D01*
X129304400Y-123104000D01*
X129284400Y-123116000D01*
X129264400Y-123129000D01*
X129244400Y-123142000D01*
X129226400Y-123157000D01*
X129208400Y-123173000D01*
X129191400Y-123189000D01*
X129175400Y-123206000D01*
X129159400Y-123224000D01*
X129144400Y-123242000D01*
X129131400Y-123262000D01*
X129118400Y-123282000D01*
X129106400Y-123302000D01*
X129095400Y-123323000D01*
X129085400Y-123344000D01*
X129076400Y-123366000D01*
X129068400Y-123389000D01*
X129061400Y-123411000D01*
X129055400Y-123434000D01*
X129050400Y-123457000D01*
X129046400Y-123481000D01*
X129044400Y-123502000D01*
X128744400Y-123502000D01*
X128747400Y-123463000D01*
X128752400Y-123425000D01*
X128759400Y-123386000D01*
X128767400Y-123348000D01*
X128778400Y-123310000D01*
X128790400Y-123272000D01*
X128805400Y-123236000D01*
X128821400Y-123200000D01*
X128838400Y-123165000D01*
X128858400Y-123131000D01*
X128879400Y-123098000D01*
X128901400Y-123065000D01*
X128926400Y-123034000D01*
X128951400Y-123005000D01*
X128978400Y-122976000D01*
X129007400Y-122949000D01*
X129036400Y-122924000D01*
X129067400Y-122899000D01*
X129100400Y-122877000D01*
X129133400Y-122856000D01*
X129167400Y-122836000D01*
X129202400Y-122819000D01*
X129238400Y-122803000D01*
X129274400Y-122788000D01*
X129312400Y-122776000D01*
X129350400Y-122765000D01*
X129388400Y-122757000D01*
X129427400Y-122750000D01*
X129465400Y-122745000D01*
X129504400Y-122742000D01*
X129504400Y-123042000D01*
G36*
X129504400Y-123042000D02*
G01*
X129483400Y-123044000D01*
X129459400Y-123048000D01*
X129436400Y-123053000D01*
X129413400Y-123059000D01*
X129391400Y-123066000D01*
X129368400Y-123074000D01*
X129346400Y-123083000D01*
X129325400Y-123093000D01*
X129304400Y-123104000D01*
X129284400Y-123116000D01*
X129264400Y-123129000D01*
X129244400Y-123142000D01*
X129226400Y-123157000D01*
X129208400Y-123173000D01*
X129191400Y-123189000D01*
X129175400Y-123206000D01*
X129159400Y-123224000D01*
X129144400Y-123242000D01*
X129131400Y-123262000D01*
X129118400Y-123282000D01*
X129106400Y-123302000D01*
X129095400Y-123323000D01*
X129085400Y-123344000D01*
X129076400Y-123366000D01*
X129068400Y-123389000D01*
X129061400Y-123411000D01*
X129055400Y-123434000D01*
X129050400Y-123457000D01*
X129046400Y-123481000D01*
X129044400Y-123502000D01*
X128744400Y-123502000D01*
X128747400Y-123463000D01*
X128752400Y-123425000D01*
X128759400Y-123386000D01*
X128767400Y-123348000D01*
X128778400Y-123310000D01*
X128790400Y-123272000D01*
X128805400Y-123236000D01*
X128821400Y-123200000D01*
X128838400Y-123165000D01*
X128858400Y-123131000D01*
X128879400Y-123098000D01*
X128901400Y-123065000D01*
X128926400Y-123034000D01*
X128951400Y-123005000D01*
X128978400Y-122976000D01*
X129007400Y-122949000D01*
X129036400Y-122924000D01*
X129067400Y-122899000D01*
X129100400Y-122877000D01*
X129133400Y-122856000D01*
X129167400Y-122836000D01*
X129202400Y-122819000D01*
X129238400Y-122803000D01*
X129274400Y-122788000D01*
X129312400Y-122776000D01*
X129350400Y-122765000D01*
X129388400Y-122757000D01*
X129427400Y-122750000D01*
X129465400Y-122745000D01*
X129504400Y-122742000D01*
X129504400Y-123042000D01*
G37*
X129046400Y-123623000D02*
X129050400Y-123647000D01*
X129055400Y-123670000D01*
X129061400Y-123693000D01*
X129068400Y-123715000D01*
X129076400Y-123738000D01*
X129085400Y-123760000D01*
X129095400Y-123781000D01*
X129106400Y-123802000D01*
X129118400Y-123822000D01*
X129131400Y-123842000D01*
X129144400Y-123862000D01*
X129159400Y-123880000D01*
X129175400Y-123898000D01*
X129191400Y-123915000D01*
X129208400Y-123931000D01*
X129226400Y-123947000D01*
X129244400Y-123962000D01*
X129264400Y-123975000D01*
X129284400Y-123988000D01*
X129304400Y-124000000D01*
X129325400Y-124011000D01*
X129346400Y-124021000D01*
X129368400Y-124030000D01*
X129391400Y-124038000D01*
X129413400Y-124045000D01*
X129436400Y-124051000D01*
X129459400Y-124056000D01*
X129483400Y-124060000D01*
X129504400Y-124062000D01*
X129504400Y-124362000D01*
X129465400Y-124359000D01*
X129427400Y-124354000D01*
X129388400Y-124347000D01*
X129350400Y-124339000D01*
X129312400Y-124328000D01*
X129274400Y-124316000D01*
X129238400Y-124301000D01*
X129202400Y-124285000D01*
X129167400Y-124268000D01*
X129133400Y-124248000D01*
X129100400Y-124227000D01*
X129067400Y-124205000D01*
X129036400Y-124180000D01*
X129007400Y-124155000D01*
X128978400Y-124128000D01*
X128951400Y-124099000D01*
X128926400Y-124070000D01*
X128901400Y-124039000D01*
X128879400Y-124006000D01*
X128858400Y-123973000D01*
X128838400Y-123939000D01*
X128821400Y-123904000D01*
X128805400Y-123868000D01*
X128790400Y-123832000D01*
X128778400Y-123794000D01*
X128767400Y-123756000D01*
X128759400Y-123718000D01*
X128752400Y-123679000D01*
X128747400Y-123641000D01*
X128744400Y-123602000D01*
X129044400Y-123602000D01*
X129046400Y-123623000D01*
G36*
X129046400Y-123623000D02*
G01*
X129050400Y-123647000D01*
X129055400Y-123670000D01*
X129061400Y-123693000D01*
X129068400Y-123715000D01*
X129076400Y-123738000D01*
X129085400Y-123760000D01*
X129095400Y-123781000D01*
X129106400Y-123802000D01*
X129118400Y-123822000D01*
X129131400Y-123842000D01*
X129144400Y-123862000D01*
X129159400Y-123880000D01*
X129175400Y-123898000D01*
X129191400Y-123915000D01*
X129208400Y-123931000D01*
X129226400Y-123947000D01*
X129244400Y-123962000D01*
X129264400Y-123975000D01*
X129284400Y-123988000D01*
X129304400Y-124000000D01*
X129325400Y-124011000D01*
X129346400Y-124021000D01*
X129368400Y-124030000D01*
X129391400Y-124038000D01*
X129413400Y-124045000D01*
X129436400Y-124051000D01*
X129459400Y-124056000D01*
X129483400Y-124060000D01*
X129504400Y-124062000D01*
X129504400Y-124362000D01*
X129465400Y-124359000D01*
X129427400Y-124354000D01*
X129388400Y-124347000D01*
X129350400Y-124339000D01*
X129312400Y-124328000D01*
X129274400Y-124316000D01*
X129238400Y-124301000D01*
X129202400Y-124285000D01*
X129167400Y-124268000D01*
X129133400Y-124248000D01*
X129100400Y-124227000D01*
X129067400Y-124205000D01*
X129036400Y-124180000D01*
X129007400Y-124155000D01*
X128978400Y-124128000D01*
X128951400Y-124099000D01*
X128926400Y-124070000D01*
X128901400Y-124039000D01*
X128879400Y-124006000D01*
X128858400Y-123973000D01*
X128838400Y-123939000D01*
X128821400Y-123904000D01*
X128805400Y-123868000D01*
X128790400Y-123832000D01*
X128778400Y-123794000D01*
X128767400Y-123756000D01*
X128759400Y-123718000D01*
X128752400Y-123679000D01*
X128747400Y-123641000D01*
X128744400Y-123602000D01*
X129044400Y-123602000D01*
X129046400Y-123623000D01*
G37*
X129643400Y-122745000D02*
X129681400Y-122750000D01*
X129720400Y-122757000D01*
X129758400Y-122765000D01*
X129796400Y-122776000D01*
X129834400Y-122788000D01*
X129870400Y-122803000D01*
X129906400Y-122819000D01*
X129941400Y-122836000D01*
X129975400Y-122856000D01*
X130008400Y-122877000D01*
X130041400Y-122899000D01*
X130072400Y-122924000D01*
X130101400Y-122949000D01*
X130130400Y-122976000D01*
X130157400Y-123005000D01*
X130182400Y-123034000D01*
X130207400Y-123065000D01*
X130229400Y-123098000D01*
X130250400Y-123131000D01*
X130270400Y-123165000D01*
X130287400Y-123200000D01*
X130303400Y-123236000D01*
X130318400Y-123272000D01*
X130330400Y-123310000D01*
X130341400Y-123348000D01*
X130349400Y-123386000D01*
X130356400Y-123425000D01*
X130361400Y-123463000D01*
X130364400Y-123502000D01*
X130064400Y-123502000D01*
X130062400Y-123481000D01*
X130058400Y-123457000D01*
X130053400Y-123434000D01*
X130047400Y-123411000D01*
X130040400Y-123389000D01*
X130032400Y-123366000D01*
X130023400Y-123344000D01*
X130013400Y-123323000D01*
X130002400Y-123302000D01*
X129990400Y-123282000D01*
X129977400Y-123262000D01*
X129964400Y-123242000D01*
X129949400Y-123224000D01*
X129933400Y-123206000D01*
X129917400Y-123189000D01*
X129900400Y-123173000D01*
X129882400Y-123157000D01*
X129864400Y-123142000D01*
X129844400Y-123129000D01*
X129824400Y-123116000D01*
X129804400Y-123104000D01*
X129783400Y-123093000D01*
X129762400Y-123083000D01*
X129740400Y-123074000D01*
X129717400Y-123066000D01*
X129695400Y-123059000D01*
X129672400Y-123053000D01*
X129649400Y-123048000D01*
X129625400Y-123044000D01*
X129604400Y-123042000D01*
X129604400Y-122742000D01*
X129643400Y-122745000D01*
G36*
X129643400Y-122745000D02*
G01*
X129681400Y-122750000D01*
X129720400Y-122757000D01*
X129758400Y-122765000D01*
X129796400Y-122776000D01*
X129834400Y-122788000D01*
X129870400Y-122803000D01*
X129906400Y-122819000D01*
X129941400Y-122836000D01*
X129975400Y-122856000D01*
X130008400Y-122877000D01*
X130041400Y-122899000D01*
X130072400Y-122924000D01*
X130101400Y-122949000D01*
X130130400Y-122976000D01*
X130157400Y-123005000D01*
X130182400Y-123034000D01*
X130207400Y-123065000D01*
X130229400Y-123098000D01*
X130250400Y-123131000D01*
X130270400Y-123165000D01*
X130287400Y-123200000D01*
X130303400Y-123236000D01*
X130318400Y-123272000D01*
X130330400Y-123310000D01*
X130341400Y-123348000D01*
X130349400Y-123386000D01*
X130356400Y-123425000D01*
X130361400Y-123463000D01*
X130364400Y-123502000D01*
X130064400Y-123502000D01*
X130062400Y-123481000D01*
X130058400Y-123457000D01*
X130053400Y-123434000D01*
X130047400Y-123411000D01*
X130040400Y-123389000D01*
X130032400Y-123366000D01*
X130023400Y-123344000D01*
X130013400Y-123323000D01*
X130002400Y-123302000D01*
X129990400Y-123282000D01*
X129977400Y-123262000D01*
X129964400Y-123242000D01*
X129949400Y-123224000D01*
X129933400Y-123206000D01*
X129917400Y-123189000D01*
X129900400Y-123173000D01*
X129882400Y-123157000D01*
X129864400Y-123142000D01*
X129844400Y-123129000D01*
X129824400Y-123116000D01*
X129804400Y-123104000D01*
X129783400Y-123093000D01*
X129762400Y-123083000D01*
X129740400Y-123074000D01*
X129717400Y-123066000D01*
X129695400Y-123059000D01*
X129672400Y-123053000D01*
X129649400Y-123048000D01*
X129625400Y-123044000D01*
X129604400Y-123042000D01*
X129604400Y-122742000D01*
X129643400Y-122745000D01*
G37*
X130361400Y-123641000D02*
X130356400Y-123679000D01*
X130349400Y-123718000D01*
X130341400Y-123756000D01*
X130330400Y-123794000D01*
X130318400Y-123832000D01*
X130303400Y-123868000D01*
X130287400Y-123904000D01*
X130270400Y-123939000D01*
X130250400Y-123973000D01*
X130229400Y-124006000D01*
X130207400Y-124039000D01*
X130182400Y-124070000D01*
X130157400Y-124099000D01*
X130130400Y-124128000D01*
X130101400Y-124155000D01*
X130072400Y-124180000D01*
X130041400Y-124205000D01*
X130008400Y-124227000D01*
X129975400Y-124248000D01*
X129941400Y-124268000D01*
X129906400Y-124285000D01*
X129870400Y-124301000D01*
X129834400Y-124316000D01*
X129796400Y-124328000D01*
X129758400Y-124339000D01*
X129720400Y-124347000D01*
X129681400Y-124354000D01*
X129643400Y-124359000D01*
X129604400Y-124362000D01*
X129604400Y-124062000D01*
X129625400Y-124060000D01*
X129649400Y-124056000D01*
X129672400Y-124051000D01*
X129695400Y-124045000D01*
X129717400Y-124038000D01*
X129740400Y-124030000D01*
X129762400Y-124021000D01*
X129783400Y-124011000D01*
X129804400Y-124000000D01*
X129824400Y-123988000D01*
X129844400Y-123975000D01*
X129864400Y-123962000D01*
X129882400Y-123947000D01*
X129900400Y-123931000D01*
X129917400Y-123915000D01*
X129933400Y-123898000D01*
X129949400Y-123880000D01*
X129964400Y-123862000D01*
X129977400Y-123842000D01*
X129990400Y-123822000D01*
X130002400Y-123802000D01*
X130013400Y-123781000D01*
X130023400Y-123760000D01*
X130032400Y-123738000D01*
X130040400Y-123715000D01*
X130047400Y-123693000D01*
X130053400Y-123670000D01*
X130058400Y-123647000D01*
X130062400Y-123623000D01*
X130064400Y-123602000D01*
X130364400Y-123602000D01*
X130361400Y-123641000D01*
G36*
X130361400Y-123641000D02*
G01*
X130356400Y-123679000D01*
X130349400Y-123718000D01*
X130341400Y-123756000D01*
X130330400Y-123794000D01*
X130318400Y-123832000D01*
X130303400Y-123868000D01*
X130287400Y-123904000D01*
X130270400Y-123939000D01*
X130250400Y-123973000D01*
X130229400Y-124006000D01*
X130207400Y-124039000D01*
X130182400Y-124070000D01*
X130157400Y-124099000D01*
X130130400Y-124128000D01*
X130101400Y-124155000D01*
X130072400Y-124180000D01*
X130041400Y-124205000D01*
X130008400Y-124227000D01*
X129975400Y-124248000D01*
X129941400Y-124268000D01*
X129906400Y-124285000D01*
X129870400Y-124301000D01*
X129834400Y-124316000D01*
X129796400Y-124328000D01*
X129758400Y-124339000D01*
X129720400Y-124347000D01*
X129681400Y-124354000D01*
X129643400Y-124359000D01*
X129604400Y-124362000D01*
X129604400Y-124062000D01*
X129625400Y-124060000D01*
X129649400Y-124056000D01*
X129672400Y-124051000D01*
X129695400Y-124045000D01*
X129717400Y-124038000D01*
X129740400Y-124030000D01*
X129762400Y-124021000D01*
X129783400Y-124011000D01*
X129804400Y-124000000D01*
X129824400Y-123988000D01*
X129844400Y-123975000D01*
X129864400Y-123962000D01*
X129882400Y-123947000D01*
X129900400Y-123931000D01*
X129917400Y-123915000D01*
X129933400Y-123898000D01*
X129949400Y-123880000D01*
X129964400Y-123862000D01*
X129977400Y-123842000D01*
X129990400Y-123822000D01*
X130002400Y-123802000D01*
X130013400Y-123781000D01*
X130023400Y-123760000D01*
X130032400Y-123738000D01*
X130040400Y-123715000D01*
X130047400Y-123693000D01*
X130053400Y-123670000D01*
X130058400Y-123647000D01*
X130062400Y-123623000D01*
X130064400Y-123602000D01*
X130364400Y-123602000D01*
X130361400Y-123641000D01*
G37*
D11*
X133528000Y-131517000D03*
X141478000Y-131517000D03*
X133528000Y-136017000D03*
X141478000Y-136017000D03*
D12*
X167497000Y-76708000D03*
X165497000Y-76708000D03*
D13*
X94615000Y-81253500D03*
X94615000Y-79528500D03*
D14*
X180991000Y-136779000D03*
X182991000Y-136779000D03*
D11*
X181813000Y-146613000D03*
X173863000Y-146613000D03*
X181813000Y-142113000D03*
X173863000Y-142113000D03*
D15*
X98450000Y-78980000D03*
X98450000Y-81280000D03*
D16*
X104750000Y-81280000D03*
D15*
X98450000Y-83580000D03*
D17*
X120153000Y-91674000D03*
X120153000Y-89174000D03*
D18*
X193521500Y-131191000D03*
X195246500Y-131191000D03*
D15*
X128041000Y-72122000D03*
X128041000Y-74422000D03*
D16*
X134341000Y-74422000D03*
D15*
X128041000Y-76722000D03*
D18*
X193876000Y-125603000D03*
X195601000Y-125603000D03*
D19*
X186728000Y-146252000D03*
X186728000Y-144252000D03*
D18*
X186790500Y-120777000D03*
X188515500Y-120777000D03*
D20*
X122047000Y-80925500D03*
X122047000Y-82650500D03*
D13*
X104521000Y-72236500D03*
X104521000Y-70511500D03*
X178435000Y-84391500D03*
X178435000Y-82666500D03*
X178181000Y-91757500D03*
X178181000Y-90032500D03*
D18*
X133149000Y-83185000D03*
X134874000Y-83185000D03*
D14*
X136414000Y-141097000D03*
X138414000Y-141097000D03*
D11*
X161633000Y-130973000D03*
X169583000Y-130973000D03*
X161633000Y-135473000D03*
X169583000Y-135473000D03*
D18*
X193982000Y-113284000D03*
X195707000Y-113284000D03*
D21*
X83348000Y-116340000D03*
X86428000Y-116340000D03*
X83348000Y-116740000D03*
X86428000Y-116740000D03*
X83348000Y-117140000D03*
X86428000Y-117140000D03*
X83348000Y-117540000D03*
X86428000Y-117540000D03*
X83348000Y-117940000D03*
X86428000Y-117940000D03*
X83348000Y-118340000D03*
X86428000Y-118340000D03*
X83348000Y-118740000D03*
X86428000Y-118740000D03*
X83348000Y-119140000D03*
X86428000Y-119140000D03*
X83348000Y-119540000D03*
X86428000Y-119540000D03*
X83348000Y-119940000D03*
X86428000Y-119940000D03*
X83348000Y-120340000D03*
X86428000Y-120340000D03*
X83348000Y-120740000D03*
X86428000Y-120740000D03*
X83348000Y-121140000D03*
X86428000Y-121140000D03*
X83348000Y-121540000D03*
X86428000Y-121540000D03*
X83348000Y-121940000D03*
X86428000Y-121940000D03*
X83348000Y-122340000D03*
X86428000Y-122340000D03*
X83348000Y-122740000D03*
X86428000Y-122740000D03*
X83348000Y-123140000D03*
X86428000Y-123140000D03*
X83348000Y-123540000D03*
X86428000Y-123540000D03*
X83348000Y-123940000D03*
X86428000Y-123940000D03*
X83348000Y-124340000D03*
X86428000Y-124340000D03*
X83348000Y-124740000D03*
X86428000Y-124740000D03*
X83348000Y-125140000D03*
X86428000Y-125140000D03*
X83348000Y-125540000D03*
X86428000Y-125540000D03*
X83348000Y-125940000D03*
X86428000Y-125940000D03*
X83348000Y-126340000D03*
X86428000Y-126340000D03*
X83348000Y-126740000D03*
X86428000Y-126740000D03*
X83348000Y-127140000D03*
X86428000Y-127140000D03*
X83348000Y-127540000D03*
X86428000Y-127540000D03*
X83348000Y-127940000D03*
X86428000Y-127940000D03*
X83348000Y-128340000D03*
X86428000Y-128340000D03*
X83348000Y-128740000D03*
X86428000Y-128740000D03*
X83348000Y-129140000D03*
X86428000Y-129140000D03*
X83348000Y-129540000D03*
X86428000Y-129540000D03*
X83348000Y-129940000D03*
X86428000Y-129940000D03*
X83348000Y-130340000D03*
X86428000Y-130340000D03*
X83348000Y-130740000D03*
X86428000Y-130740000D03*
X83348000Y-131140000D03*
X86428000Y-131140000D03*
X83348000Y-131540000D03*
X86428000Y-131540000D03*
X83348000Y-131940000D03*
X86428000Y-131940000D03*
X83348000Y-132340000D03*
X86428000Y-132340000D03*
X83348000Y-132740000D03*
X86428000Y-132740000D03*
X83348000Y-133140000D03*
X86428000Y-133140000D03*
X83348000Y-133540000D03*
X86428000Y-133540000D03*
X83348000Y-133940000D03*
X86428000Y-133940000D03*
X83348000Y-134340000D03*
X86428000Y-134340000D03*
X83348000Y-134740000D03*
X86428000Y-134740000D03*
X83348000Y-135140000D03*
X86428000Y-135140000D03*
X83348000Y-135540000D03*
X86428000Y-135540000D03*
X83348000Y-135940000D03*
X86428000Y-135940000D03*
X117348000Y-116340000D03*
X120428000Y-116340000D03*
X117348000Y-116740000D03*
X120428000Y-116740000D03*
X117348000Y-117140000D03*
X120428000Y-117140000D03*
X117348000Y-117540000D03*
X120428000Y-117540000D03*
X117348000Y-117940000D03*
X120428000Y-117940000D03*
X117348000Y-118340000D03*
X120428000Y-118340000D03*
X117348000Y-118740000D03*
X120428000Y-118740000D03*
X117348000Y-119140000D03*
X120428000Y-119140000D03*
X117348000Y-119540000D03*
X120428000Y-119540000D03*
X117348000Y-119940000D03*
X120428000Y-119940000D03*
X117348000Y-120340000D03*
X120428000Y-120340000D03*
X117348000Y-120740000D03*
X120428000Y-120740000D03*
X117348000Y-121140000D03*
X120428000Y-121140000D03*
X117348000Y-121540000D03*
X120428000Y-121540000D03*
X117348000Y-121940000D03*
X120428000Y-121940000D03*
X117348000Y-122340000D03*
X120428000Y-122340000D03*
X117348000Y-122740000D03*
X120428000Y-122740000D03*
X117348000Y-123140000D03*
X120428000Y-123140000D03*
X117348000Y-123540000D03*
X120428000Y-123540000D03*
X117348000Y-123940000D03*
X120428000Y-123940000D03*
X117348000Y-124340000D03*
X120428000Y-124340000D03*
X117348000Y-124740000D03*
X120428000Y-124740000D03*
X117348000Y-125140000D03*
X120428000Y-125140000D03*
X117348000Y-125540000D03*
X120428000Y-125540000D03*
X117348000Y-125940000D03*
X120428000Y-125940000D03*
X117348000Y-126340000D03*
X120428000Y-126340000D03*
X117348000Y-126740000D03*
X120428000Y-126740000D03*
X117348000Y-127140000D03*
X120428000Y-127140000D03*
X117348000Y-127540000D03*
X120428000Y-127540000D03*
X117348000Y-127940000D03*
X120428000Y-127940000D03*
X117348000Y-128340000D03*
X120428000Y-128340000D03*
X117348000Y-128740000D03*
X120428000Y-128740000D03*
X117348000Y-129140000D03*
X120428000Y-129140000D03*
X117348000Y-129540000D03*
X120428000Y-129540000D03*
X117348000Y-129940000D03*
X120428000Y-129940000D03*
X117348000Y-130340000D03*
X120428000Y-130340000D03*
X117348000Y-130740000D03*
X120428000Y-130740000D03*
X117348000Y-131140000D03*
X120428000Y-131140000D03*
X117348000Y-131540000D03*
X120428000Y-131540000D03*
X117348000Y-131940000D03*
X120428000Y-131940000D03*
X117348000Y-132340000D03*
X120428000Y-132340000D03*
X117348000Y-132740000D03*
X120428000Y-132740000D03*
X117348000Y-133140000D03*
X120428000Y-133140000D03*
X117348000Y-133540000D03*
X120428000Y-133540000D03*
X117348000Y-133940000D03*
X120428000Y-133940000D03*
X117348000Y-134340000D03*
X120428000Y-134340000D03*
X117348000Y-134740000D03*
X120428000Y-134740000D03*
X117348000Y-135140000D03*
X120428000Y-135140000D03*
X117348000Y-135540000D03*
X120428000Y-135540000D03*
X117348000Y-135940000D03*
X120428000Y-135940000D03*
D18*
X186870000Y-113411000D03*
X188595000Y-113411000D03*
D11*
X147536000Y-131481000D03*
X155486000Y-131481000D03*
X147536000Y-135981000D03*
X155486000Y-135981000D03*
D12*
X181594000Y-119507000D03*
X179594000Y-119507000D03*
D18*
X186790500Y-125984000D03*
X188515500Y-125984000D03*
D14*
X108347000Y-73279000D03*
X110347000Y-73279000D03*
X127625600Y-88188800D03*
X129625600Y-88188800D03*
D22*
X176022000Y-119365000D03*
X176022000Y-118745000D03*
X175402000Y-119365000D03*
X175402000Y-118745000D03*
D23*
X177149500Y-119805000D03*
X177149500Y-119305000D03*
X177149500Y-118805000D03*
X177149500Y-118305000D03*
D24*
X176462000Y-117617500D03*
X175962000Y-117617500D03*
X175462000Y-117617500D03*
X174962000Y-117617500D03*
D23*
X174274500Y-118305000D03*
X174274500Y-118805000D03*
X174274500Y-119305000D03*
X174274500Y-119805000D03*
D24*
X174962000Y-120492500D03*
X175462000Y-120492500D03*
X175962000Y-120492500D03*
X176462000Y-120492500D03*
D25*
X140577000Y-96498000D03*
X140577000Y-96998000D03*
X140577000Y-97498000D03*
X140577000Y-97998000D03*
X140577000Y-98498000D03*
X140577000Y-98998000D03*
X140577000Y-99498000D03*
X140577000Y-99998000D03*
X140577000Y-100498000D03*
X140577000Y-100998000D03*
X140577000Y-101498000D03*
X140577000Y-101998000D03*
X140577000Y-102498000D03*
X140577000Y-102998000D03*
X140577000Y-103498000D03*
X140577000Y-103998000D03*
X140577000Y-104498000D03*
X140577000Y-104998000D03*
X140577000Y-105498000D03*
X140577000Y-105998000D03*
X140577000Y-106498000D03*
X140577000Y-106998000D03*
X140577000Y-107498000D03*
X140577000Y-107998000D03*
X140577000Y-108498000D03*
X140577000Y-108998000D03*
X140577000Y-109498000D03*
X140577000Y-109998000D03*
X140577000Y-110498000D03*
X140577000Y-110998000D03*
X140577000Y-111498000D03*
X140577000Y-111998000D03*
X140577000Y-112498000D03*
X140577000Y-112998000D03*
X140577000Y-113498000D03*
X140577000Y-113998000D03*
X140577000Y-114498000D03*
X140577000Y-114998000D03*
X140577000Y-115498000D03*
X140577000Y-115998000D03*
X140577000Y-116498000D03*
X140577000Y-116998000D03*
X140577000Y-117498000D03*
X140577000Y-117998000D03*
D26*
X142502000Y-119923000D03*
X143002000Y-119923000D03*
X143502000Y-119923000D03*
X144002000Y-119923000D03*
X144502000Y-119923000D03*
X145002000Y-119923000D03*
X145502000Y-119923000D03*
X146002000Y-119923000D03*
X146502000Y-119923000D03*
X147002000Y-119923000D03*
X147502000Y-119923000D03*
X148002000Y-119923000D03*
X148502000Y-119923000D03*
X149002000Y-119923000D03*
X149502000Y-119923000D03*
X150002000Y-119923000D03*
X150502000Y-119923000D03*
X151002000Y-119923000D03*
X151502000Y-119923000D03*
X152002000Y-119923000D03*
X152502000Y-119923000D03*
X153002000Y-119923000D03*
X153502000Y-119923000D03*
X154002000Y-119923000D03*
X154502000Y-119923000D03*
X155002000Y-119923000D03*
X155502000Y-119923000D03*
X156002000Y-119923000D03*
X156502000Y-119923000D03*
X157002000Y-119923000D03*
X157502000Y-119923000D03*
X158002000Y-119923000D03*
X158502000Y-119923000D03*
X159002000Y-119923000D03*
X159502000Y-119923000D03*
X160002000Y-119923000D03*
X160502000Y-119923000D03*
X161002000Y-119923000D03*
X161502000Y-119923000D03*
X162002000Y-119923000D03*
X162502000Y-119923000D03*
X163002000Y-119923000D03*
X163502000Y-119923000D03*
X164002000Y-119923000D03*
D25*
X165927000Y-117998000D03*
X165927000Y-117498000D03*
X165927000Y-116998000D03*
X165927000Y-116498000D03*
X165927000Y-115998000D03*
X165927000Y-115498000D03*
X165927000Y-114998000D03*
X165927000Y-114498000D03*
X165927000Y-113998000D03*
X165927000Y-113498000D03*
X165927000Y-112998000D03*
X165927000Y-112498000D03*
X165927000Y-111998000D03*
X165927000Y-111498000D03*
X165927000Y-110998000D03*
X165927000Y-110498000D03*
X165927000Y-109998000D03*
X165927000Y-109498000D03*
X165927000Y-108998000D03*
X165927000Y-108498000D03*
X165927000Y-107998000D03*
X165927000Y-107498000D03*
X165927000Y-106998000D03*
X165927000Y-106498000D03*
X165927000Y-105998000D03*
X165927000Y-105498000D03*
X165927000Y-104998000D03*
X165927000Y-104498000D03*
X165927000Y-103998000D03*
X165927000Y-103498000D03*
X165927000Y-102998000D03*
X165927000Y-102498000D03*
X165927000Y-101998000D03*
X165927000Y-101498000D03*
X165927000Y-100998000D03*
X165927000Y-100498000D03*
X165927000Y-99998000D03*
X165927000Y-99498000D03*
X165927000Y-98998000D03*
X165927000Y-98498000D03*
X165927000Y-97998000D03*
X165927000Y-97498000D03*
X165927000Y-96998000D03*
X165927000Y-96498000D03*
D26*
X164002000Y-94573000D03*
X163502000Y-94573000D03*
X163002000Y-94573000D03*
X162502000Y-94573000D03*
X162002000Y-94573000D03*
X161502000Y-94573000D03*
X161002000Y-94573000D03*
X160502000Y-94573000D03*
X160002000Y-94573000D03*
X159502000Y-94573000D03*
X159002000Y-94573000D03*
X158502000Y-94573000D03*
X158002000Y-94573000D03*
X157502000Y-94573000D03*
X157002000Y-94573000D03*
X156502000Y-94573000D03*
X156002000Y-94573000D03*
X155502000Y-94573000D03*
X155002000Y-94573000D03*
X154502000Y-94573000D03*
X154002000Y-94573000D03*
X153502000Y-94573000D03*
X153002000Y-94573000D03*
X152502000Y-94573000D03*
X152002000Y-94573000D03*
X151502000Y-94573000D03*
X151002000Y-94573000D03*
X150502000Y-94573000D03*
X150002000Y-94573000D03*
X149502000Y-94573000D03*
X149002000Y-94573000D03*
X148502000Y-94573000D03*
X148002000Y-94573000D03*
X147502000Y-94573000D03*
X147002000Y-94573000D03*
X146502000Y-94573000D03*
X146002000Y-94573000D03*
X145502000Y-94573000D03*
X145002000Y-94573000D03*
X144502000Y-94573000D03*
X144002000Y-94573000D03*
X143502000Y-94573000D03*
X143002000Y-94573000D03*
X142502000Y-94573000D03*
D14*
X164497000Y-140970000D03*
X166497000Y-140970000D03*
X149495000Y-141732000D03*
X151495000Y-141732000D03*
X98695000Y-72898000D03*
X100695000Y-72898000D03*
X170593000Y-62992000D03*
X172593000Y-62992000D03*
D18*
X179261500Y-152110000D03*
X180986500Y-152110000D03*
X186891000Y-131191000D03*
X188616000Y-131191000D03*
D13*
X122174000Y-74395500D03*
X122174000Y-72670500D03*
D18*
X193675000Y-120650000D03*
X195400000Y-120650000D03*
D27*
X175474000Y-30069000D03*
X96814000Y-49179000D03*
X96814000Y-30069000D03*
X175474000Y-49179000D03*
D14*
X140859000Y-83312000D03*
X142859000Y-83312000D03*
D20*
X108458000Y-79020500D03*
X108458000Y-80745500D03*
D14*
X126762000Y-83058000D03*
X128762000Y-83058000D03*
M02*
