M48
; DRILL file {KiCad 9.0.0} date 2025-04-14T13:30:56-0500
; FORMAT={-:-/ absolute / metric / decimal}
; #@! TF.CreationDate,2025-04-14T13:30:56-05:00
; #@! TF.GenerationSoftware,Kicad,Pcbnew,9.0.0
; #@! TF.FileFunction,Plated,1,2,PTH
FMAT,2
METRIC
; #@! TA.AperFunction,Plated,PTH,ComponentDrill
T1C0.200
; #@! TA.AperFunction,Plated,PTH,ViaDrill
T2C0.300
; #@! TA.AperFunction,Plated,PTH,ComponentDrill
T3C0.300
; #@! TA.AperFunction,Plated,PTH,ViaDrill
T4C0.400
; #@! TA.AperFunction,Plated,PTH,ComponentDrill
T5C1.000
; #@! TA.AperFunction,Plated,PTH,ComponentDrill
T6C1.050
; #@! TA.AperFunction,Plated,PTH,ComponentDrill
T7C1.100
%
G90
G05
T1
X122.803Y-64.959
X123.503Y-65.659
X124.203Y-64.959
X124.903Y-65.659
X125.603Y-64.959
T2
X78.359Y-64.338
X81.407Y-75.87
X83.287Y-71.958
X83.388Y-65.659
X85.776Y-69.164
X86.284Y-82.652
X88.875Y-130.023
X89.408Y-94.742
X91.491Y-83.236
X92.532Y-69.723
X92.558Y-70.917
X94.971Y-94.793
X95.91Y-103.937
X95.91Y-108.483
X96.596Y-85.573
X97.739Y-70.917
X103.556Y-72.212
X104.267Y-113.513
X104.394Y-72.923
X105.334Y-73.711
X106.02Y-117.577
X106.477Y-74.473
X107.315Y-74.803
X108.102Y-120.396
X108.509Y-75.057
X109.474Y-75.184
X110.388Y-75.209
X114.122Y-59.893
X137.033Y-102.819
X147.371Y-111.862
X148.819Y-102.159
X152.07Y-104.064
X165.71Y-113.182
X167.208Y-113.284
T3
X122.803Y-63.559
X123.503Y-62.859
X123.503Y-64.259
X124.203Y-63.559
X124.903Y-62.859
X124.903Y-64.259
X125.603Y-63.559
T4
X92.481Y-93.142
X96.063Y-78.181
T5
X102.006Y-117.665
X106.934Y-95.58
X109.474Y-95.58
X112.014Y-95.58
X114.554Y-95.58
X117.094Y-95.58
X119.634Y-95.58
X122.174Y-95.58
X123.8Y-108.737
X124.714Y-95.58
X126.03Y-136.22
X126.34Y-108.737
X127.254Y-95.58
X128.57Y-136.22
X129.794Y-95.58
X132.334Y-95.58
X134.874Y-95.58
X137.414Y-95.58
X139.954Y-95.58
X142.088Y-116.967
X142.494Y-95.58
X145.034Y-95.58
X147.574Y-95.58
X165.735Y-57.81
X165.735Y-60.35
X165.735Y-62.89
X165.735Y-65.43
X165.735Y-67.97
X165.735Y-70.51
X165.735Y-73.05
X165.735Y-75.59
X165.735Y-78.13
X165.735Y-80.67
X165.735Y-83.21
X165.735Y-85.75
T6
X125.798Y-147.616
X128.298Y-147.616
T7
X78.556Y-135.473
X85.858Y-58.374
X86.218Y-64.324
X88.716Y-135.473
X93.853Y-142.506
X94.478Y-64.324
X94.838Y-58.374
X104.013Y-142.506
X146.406Y-121.996
X146.406Y-132.156
X153.391Y-142.951
X163.551Y-142.951
M30
